<svg width="1713" height="272" viewBox="0 0 1713 272" fill="none" xmlns="http://www.w3.org/2000/svg">
<path d="M64.825 182.775V182.075H164.4V182.775H64.825ZM146.025 0.249984L238.6 267.3H263.45V268H144.275V267.3H175.6L108.575 59.575L35.425 267.3H77.775V268H0.775V267.3H34.725L128.525 0.249984H146.025ZM477.371 271.5L380.946 6.19999H353.121V5.49998H645.371V6.19999H549.471L621.746 208.15L697.696 6.19999H661.121V5.49998H731.121V6.19999H698.571L598.821 271.5H589.721L493.296 6.19999H442.546L515.171 208.15L545.796 128L546.321 129.4L491.896 271.5H477.371ZM577.646 105.075L576.946 104.375L613.696 5.85H614.571L577.646 105.075ZM864.334 271.5C845.668 271.5 828.984 268.117 814.284 261.35C799.584 254.583 787.101 245.075 776.834 232.825C766.568 220.575 758.693 206.283 753.209 189.95C747.843 173.617 745.159 155.883 745.159 136.75C745.159 117.617 748.018 99.8833 753.734 83.55C759.451 67.2167 767.559 52.925 778.059 40.675C788.559 28.425 801.101 18.9167 815.684 12.15C830.384 5.38332 846.601 1.99998 864.334 1.99998C882.184 1.99998 898.343 5.38332 912.809 12.15C927.393 18.9167 939.934 28.425 950.434 40.675C961.051 52.925 969.159 67.2167 974.759 83.55C980.476 99.8833 983.334 117.617 983.334 136.75C983.334 155.883 980.651 173.617 975.284 189.95C969.918 206.283 962.101 220.575 951.834 232.825C941.568 245.075 929.084 254.583 914.384 261.35C899.684 268.117 883.001 271.5 864.334 271.5ZM864.334 270.8C876.584 270.8 886.443 267.3 893.909 260.3C901.493 253.183 907.326 243.442 911.409 231.075C915.493 218.592 918.234 204.3 919.634 188.2C921.151 171.983 921.909 154.775 921.909 136.575C921.909 118.492 920.976 101.4 919.109 85.3C917.359 69.2 914.326 54.9667 910.009 42.6C905.693 30.1166 899.801 20.375 892.334 13.375C884.984 6.25833 875.651 2.69999 864.334 2.69999C853.134 2.69999 843.743 6.25833 836.159 13.375C828.693 20.4917 822.801 30.2333 818.484 42.6C814.168 54.9667 811.076 69.2 809.209 85.3C807.459 101.4 806.584 118.55 806.584 136.75C806.584 154.833 807.343 171.983 808.859 188.2C810.376 204.3 813.176 218.533 817.259 230.9C821.343 243.267 827.176 253.008 834.759 260.125C842.343 267.242 852.201 270.8 864.334 270.8ZM1062.86 133.6V132.9H1113.79C1124.99 132.9 1134.32 130.625 1141.79 126.075C1149.25 121.408 1154.85 114.408 1158.59 105.075C1162.44 95.7417 1164.36 84.1333 1164.36 70.25C1164.36 56.3667 1162.44 44.7 1158.59 35.25C1154.85 25.6833 1149.19 18.45 1141.61 13.55C1134.14 8.64999 1124.81 6.19999 1113.61 6.19999H999.861V5.49998H1122.54C1141.9 5.49998 1158.94 7.77498 1173.64 12.325C1188.34 16.7583 1199.83 23.7583 1208.11 33.325C1216.39 42.775 1220.54 55.0833 1220.54 70.25C1220.54 85.4167 1216.63 97.6667 1208.81 107C1200.99 116.217 1189.74 122.983 1175.04 127.3C1160.45 131.5 1142.95 133.6 1122.54 133.6H1062.86ZM999.861 268V267.3H1124.29V268H999.861ZM1034.86 267.65V5.85H1089.29V267.65H1034.86ZM1208.29 270.625C1196.39 270.625 1186.99 268.7 1180.11 264.85C1173.34 261 1168.33 255.808 1165.06 249.275C1161.91 242.742 1159.87 235.45 1158.94 227.4C1158 219.233 1157.48 210.833 1157.36 202.2C1157.24 193.45 1156.84 185.05 1156.14 177C1155.55 168.833 1153.98 161.483 1151.41 154.95C1148.84 148.417 1144.59 143.225 1138.64 139.375C1132.69 135.525 1124.34 133.6 1113.61 133.6H1062.86V132.9H1141.79C1158.12 132.9 1171.07 135.35 1180.64 140.25C1190.2 145.033 1197.32 151.45 1201.99 159.5C1206.65 167.433 1209.69 176.242 1211.09 185.925C1212.6 195.492 1213.36 205.058 1213.36 214.625C1213.36 224.192 1213.48 233 1213.71 241.05C1213.94 248.983 1215.17 255.4 1217.39 260.3C1219.6 265.2 1223.8 267.65 1229.99 267.65C1233.72 267.65 1237.34 267.183 1240.84 266.25C1244.45 265.317 1247.49 264.267 1249.94 263.1L1250.29 263.45C1247.49 264.967 1242.41 266.542 1235.06 268.175C1227.71 269.808 1218.79 270.625 1208.29 270.625ZM1256.13 268V267.3H1287.63V6.19999H1256.13V5.49998H1373.38V6.19999H1342.05V267.3H1377.75C1390.7 267.3 1401.9 265.375 1411.35 261.525C1420.8 257.558 1428.68 252.075 1434.98 245.075C1441.39 237.958 1446.41 229.675 1450.03 220.225C1453.76 210.658 1456.27 200.333 1457.55 189.25H1458.25V268H1256.13ZM1579.62 5.49998C1607.38 5.49998 1631.18 11.0416 1651.02 22.125C1670.85 33.0916 1686.08 48.4333 1696.69 68.15C1707.43 87.8667 1712.79 110.733 1712.79 136.75C1712.79 156.35 1709.58 174.2 1703.17 190.3C1696.87 206.283 1687.83 220.108 1676.04 231.775C1664.38 243.325 1650.38 252.25 1634.04 258.55C1617.71 264.85 1599.57 268 1579.62 268H1467.62V267.3H1499.12V6.19999H1467.62V5.49998H1579.62ZM1553.54 267.3H1579.62C1593.15 267.3 1604.47 263.8 1613.57 256.8C1622.78 249.683 1630.13 240.058 1635.62 227.925C1641.22 215.792 1645.24 201.908 1647.69 186.275C1650.14 170.525 1651.37 153.958 1651.37 136.575C1651.37 119.425 1649.97 103.033 1647.17 87.4C1644.48 71.7667 1640.23 57.8833 1634.39 45.75C1628.68 33.5 1621.27 23.875 1612.17 16.875C1603.18 9.75832 1592.33 6.19999 1579.62 6.19999H1553.54V267.3Z" fill="black"/>
</svg>
