<svg width="1059" height="196" viewBox="0 0 1059 196" fill="none" xmlns="http://www.w3.org/2000/svg">
<path d="M0.375 192V191.5H79.75C86.6667 191.5 92.9167 189.25 98.5 184.75C104.083 180.167 108.542 173.958 111.875 166.125C115.208 158.292 116.875 149.417 116.875 139.5C116.875 129.583 115.208 121.417 111.875 115C108.542 108.583 104.083 103.833 98.5 100.75C92.9167 97.5833 86.7083 96 79.875 96H51.375V95.5H85.375C97.875 95.5 109.25 96.9583 119.5 99.875C129.75 102.708 137.917 107.458 144 114.125C150.167 120.708 153.25 129.667 153.25 141C153.25 159.333 147.25 172.417 135.25 180.25C123.25 188.083 106.625 192 85.375 192H0.375ZM22.75 191.75V4.75H55.625V191.75H22.75ZM51.375 96V95.5H77.375C83.4583 95.5 89.0833 94.0417 94.25 91.125C99.5 88.2083 103.75 83.6667 107 77.5C110.25 71.25 111.875 63.1667 111.875 53.25C111.875 43.3333 110.25 34.7917 107 27.625C103.75 20.375 99.5 14.7917 94.25 10.875C89.0833 6.95832 83.4583 4.99999 77.375 4.99999H0.375V4.49999H80.375C100.375 4.49999 116.292 8.16665 128.125 15.5C139.958 22.75 145.875 34.5 145.875 50.75C145.875 66.6667 140.25 78.2083 129 85.375C117.833 92.4583 101.625 96 80.375 96H51.375ZM349.355 4.49999V4.99999H326.73V191.5H349.355V192H270.605V191.5H294.105V99.75H220.605V191.5H244.105V192H165.355V191.5H187.73V4.99999H165.355V4.49999H244.105V4.99999H220.605V99.25H294.105V4.99999H270.605V4.49999H349.355ZM524.982 4.49999V4.99999H500.232V134.5C500.232 155.083 495.774 170.458 486.857 180.625C478.024 190.708 463.524 195.75 443.357 195.75C420.691 195.75 404.107 190.958 393.607 181.375C383.107 171.708 377.857 156.083 377.857 134.5V4.99999H355.482V4.49999H435.732V4.99999H410.732V132C410.732 140.25 411.274 148.125 412.357 155.625C413.441 163.042 415.399 169.625 418.232 175.375C421.066 181.125 425.107 185.667 430.357 189C435.691 192.333 442.566 194 450.982 194C461.399 194 470.232 191.875 477.482 187.625C484.732 183.375 490.232 176.875 493.982 168.125C497.816 159.292 499.732 148.083 499.732 134.5V4.99999H476.107V4.49999H524.982ZM565.455 192V191.5H592.955V4.99999H573.205C566.205 4.99999 560.205 6.49999 555.205 9.5C550.288 12.5 546.163 16.7083 542.83 22.125C539.58 27.4583 537.038 33.625 535.205 40.625C533.455 47.625 532.288 55.0833 531.705 63H531.205V4.49999H687.455V63H686.83C686.247 55.0833 685.038 47.625 683.205 40.625C681.455 33.625 678.913 27.4583 675.58 22.125C672.33 16.7083 668.205 12.5 663.205 9.5C658.288 6.49999 652.372 4.99999 645.455 4.99999H625.705V191.5H653.205V192H565.455ZM739.125 131.125V130.625H813.625V131.125H739.125ZM792.125 0.749989L858.25 191.5H876V192H796V191.5H820.375L771.375 39.875L718.25 191.5H748.5V192H693.5V191.5H717.625L784.5 0.749989H792.125ZM907.412 4.49999V191.5H936.912V192H882.162V191.5H906.912V4.99999H882.162V4.49999H907.412ZM1058.79 4.49999V4.99999H1032.54V194.5H1032.04L907.162 4.49999H946.287L1032.04 138.625V4.99999H1002.79V4.49999H1058.79Z" fill="black"/>
</svg>
