<svg width="955" height="194" viewBox="0 0 955 194" fill="none" xmlns="http://www.w3.org/2000/svg">
<path d="M83.375 192.5C70.2917 192.5 58.625 190.042 48.375 185.125C38.125 180.208 29.4167 173.375 22.25 164.625C15.0833 155.875 9.625 145.667 5.875 134C2.125 122.333 0.25 109.75 0.25 96.25C0.25 82.75 2.20833 70.1667 6.125 58.5C10.125 46.8333 15.75 36.625 23 27.875C30.3333 19.125 39.0833 12.2917 49.25 7.37499C59.5 2.45832 70.875 -1.2517e-05 83.375 -1.2517e-05C95.7917 -1.2517e-05 107.083 2.45832 117.25 7.37499C127.417 12.2917 136.167 19.125 143.5 27.875C150.833 36.625 156.458 46.8333 160.375 58.5C164.292 70.1667 166.25 82.75 166.25 96.25C166.25 109.75 164.375 122.333 160.625 134C156.958 145.667 151.542 155.875 144.375 164.625C137.292 173.375 128.583 180.208 118.25 185.125C108 190.042 96.375 192.5 83.375 192.5ZM83.375 192C92.9583 192 100.708 189.375 106.625 184.125C112.542 178.792 117.083 171.625 120.25 162.625C123.417 153.542 125.583 143.292 126.75 131.875C127.917 120.375 128.5 108.458 128.5 96.125C128.5 83.875 127.792 72.0417 126.375 60.625C125.042 49.2083 122.667 39 119.25 30C115.917 20.9167 111.333 13.75 105.5 8.5C99.6667 3.16666 92.2917 0.499996 83.375 0.499996C74.4583 0.499996 67.0417 3.16666 61.125 8.5C55.2917 13.75 50.6667 20.9167 47.25 30C43.9167 39 41.5417 49.2083 40.125 60.625C38.7083 72.0417 38 83.9167 38 96.25C38 108.5 38.5833 120.375 39.75 131.875C40.9167 143.375 43.0833 153.625 46.25 162.625C49.5 171.625 54.0833 178.792 60 184.125C66 189.375 73.7917 192 83.375 192ZM203.648 2.49999V189.5H233.148V190H178.398V189.5H203.148V2.99999H178.398V2.49999H203.648ZM355.023 2.49999V2.99999H328.773V192.5H328.273L203.398 2.49999H242.523L328.273 136.625V2.99999H299.023V2.49999H355.023ZM361.201 190V189.5H388.576V2.99999H361.201V2.49999H451.451V2.99999H421.451V189.5H451.451V190H361.201ZM546.578 192.5C533.495 192.5 521.828 190.042 511.578 185.125C501.328 180.208 492.62 173.375 485.453 164.625C478.286 155.875 472.828 145.667 469.078 134C465.328 122.333 463.453 109.75 463.453 96.25C463.453 82.75 465.411 70.1667 469.328 58.5C473.328 46.8333 478.953 36.625 486.203 27.875C493.536 19.125 502.286 12.2917 512.453 7.37499C522.703 2.45832 534.078 -1.2517e-05 546.578 -1.2517e-05C558.995 -1.2517e-05 570.286 2.45832 580.453 7.37499C590.62 12.2917 599.37 19.125 606.703 27.875C614.036 36.625 619.661 46.8333 623.578 58.5C627.495 70.1667 629.453 82.75 629.453 96.25C629.453 109.75 627.578 122.333 623.828 134C620.161 145.667 614.745 155.875 607.578 164.625C600.495 173.375 591.786 180.208 581.453 185.125C571.203 190.042 559.578 192.5 546.578 192.5ZM546.578 192C556.161 192 563.911 189.375 569.828 184.125C575.745 178.792 580.286 171.625 583.453 162.625C586.62 153.542 588.786 143.292 589.953 131.875C591.12 120.375 591.703 108.458 591.703 96.125C591.703 83.875 590.995 72.0417 589.578 60.625C588.245 49.2083 585.87 39 582.453 30C579.12 20.9167 574.536 13.75 568.703 8.5C562.87 3.16666 555.495 0.499996 546.578 0.499996C537.661 0.499996 530.245 3.16666 524.328 8.5C518.495 13.75 513.87 20.9167 510.453 30C507.12 39 504.745 49.2083 503.328 60.625C501.911 72.0417 501.203 83.9167 501.203 96.25C501.203 108.5 501.786 120.375 502.953 131.875C504.12 143.375 506.286 153.625 509.453 162.625C512.703 171.625 517.286 178.792 523.203 184.125C529.203 189.375 536.995 192 546.578 192ZM666.852 2.49999V189.5H696.352V190H641.602V189.5H666.352V2.99999H641.602V2.49999H666.852ZM818.227 2.49999V2.99999H791.977V192.5H791.477L666.602 2.49999H705.727L791.477 136.625V2.99999H762.227V2.49999H818.227ZM893.809 193.75C883.642 193.75 874.934 192.125 867.684 188.875C860.517 185.625 854.475 181.25 849.559 175.75L830.059 192.5H829.559V136.75H830.059C832.059 144.167 834.684 151.25 837.934 158C841.267 164.75 845.392 170.792 850.309 176.125C855.309 181.375 861.267 185.542 868.184 188.625C875.1 191.625 883.142 193.125 892.309 193.125C900.642 193.125 907.85 191.5 913.934 188.25C920.1 185 924.85 180.417 928.184 174.5C931.6 168.583 933.309 161.583 933.309 153.5C933.309 146.5 931.475 140.625 927.809 135.875C924.142 131.042 919.309 126.875 913.309 123.375C907.309 119.875 900.684 116.583 893.434 113.5C886.267 110.417 879.059 107.125 871.809 103.625C864.642 100.125 858.059 96 852.059 91.25C846.059 86.4167 841.225 80.5833 837.559 73.75C833.892 66.8333 832.059 58.4167 832.059 48.5C832.059 38.5833 834.559 30 839.559 22.75C844.642 15.4167 851.267 9.79165 859.434 5.87499C867.684 1.95832 876.559 -1.2517e-05 886.059 -1.2517e-05C893.975 -1.2517e-05 901.184 1.24999 907.684 3.74998C914.184 6.24999 919.85 10.0833 924.684 15.25L943.809 -1.2517e-05H944.309V54.25H943.684C941.017 42.6667 937.1 32.9167 931.934 25C926.767 17 920.475 11 913.059 6.99999C905.642 2.91665 897.225 0.874984 887.809 0.874984C876.892 0.874984 868.642 3.83332 863.059 9.75C857.559 15.5833 854.809 23.0833 854.809 32.25C854.809 38.5 856.6 43.8333 860.184 48.25C863.767 52.6667 868.475 56.5833 874.309 60C880.225 63.3333 886.725 66.5833 893.809 69.75C900.975 72.9167 908.1 76.375 915.184 80.125C922.267 83.7917 928.725 88.1667 934.559 93.25C940.475 98.3333 945.225 104.458 948.809 111.625C952.475 118.792 954.309 127.5 954.309 137.75C954.309 149.083 951.725 158.958 946.559 167.375C941.392 175.708 934.225 182.208 925.059 186.875C915.975 191.458 905.559 193.75 893.809 193.75Z" fill="black"/>
</svg>
