<svg width="586" height="193" viewBox="0 0 586 193" fill="none" xmlns="http://www.w3.org/2000/svg">
<path d="M45.375 94V93.5H82.125C90.125 93.5 96.8333 91.7917 102.25 88.375C107.75 84.875 111.875 79.7917 114.625 73.125C117.458 66.4583 118.875 58.3333 118.875 48.75C118.875 39.1667 117.458 30.9583 114.625 24.125C111.875 17.2917 107.75 12.0833 102.25 8.5C96.8333 4.83333 90.125 2.99999 82.125 2.99999H0.375V2.49999H85.875C99.2083 2.49999 110.875 4.12499 120.875 7.37499C130.958 10.5417 138.792 15.5417 144.375 22.375C150.042 29.125 152.875 37.9167 152.875 48.75C152.875 59.5833 150.208 68.3333 144.875 75C139.625 81.5833 132 86.4167 122 89.5C112.083 92.5 100.042 94 85.875 94H45.375ZM0.375 190V189.5H85.125V190H0.375ZM26.25 189.75V2.75H59.125V189.75H26.25ZM147.125 191.625C139.125 191.625 132.833 190.25 128.25 187.5C123.75 184.75 120.458 181.083 118.375 176.5C116.292 171.833 114.958 166.625 114.375 160.875C113.792 155.042 113.458 149.042 113.375 142.875C113.292 136.625 113 130.625 112.5 124.875C112 119.042 110.792 113.833 108.875 109.25C106.958 104.583 103.833 100.875 99.5 98.125C95.25 95.375 89.2917 94 81.625 94H45.375V93.5H95.625C107.542 93.5 117 95.25 124 98.75C131 102.25 136.208 106.875 139.625 112.625C143.042 118.292 145.25 124.542 146.25 131.375C147.333 138.208 147.875 145.083 147.875 152C147.958 158.833 148.083 165.125 148.25 170.875C148.417 176.542 149.292 181.125 150.875 184.625C152.458 188.125 155.458 189.875 159.875 189.875C162.542 189.875 165.083 189.583 167.5 189C170 188.333 172.125 187.583 173.875 186.75L174.125 187C172.125 188.083 168.792 189.125 164.125 190.125C159.458 191.125 153.792 191.625 147.125 191.625ZM178.783 190V189.5H206.158V2.99999H178.783V2.49999H269.033V2.99999H239.033V189.5H269.033V190H178.783ZM369.035 192.5C351.118 192.5 335.577 188.375 322.41 180.125C309.243 171.792 299.035 160.375 291.785 145.875C284.618 131.375 281.035 114.833 281.035 96.25C281.035 77.6667 284.618 61.125 291.785 46.625C299.035 32.125 309.243 20.75 322.41 12.5C335.577 4.16666 351.118 -1.2517e-05 369.035 -1.2517e-05C377.118 -1.2517e-05 384.618 1.41666 391.535 4.24999C398.452 7.08333 404.535 11 409.785 16L429.535 2.49999H430.035V56H429.41C427.743 45.4167 424.118 36 418.535 27.75C412.952 19.5 406.077 13.0417 397.91 8.37499C389.827 3.62499 381.035 1.24999 371.535 1.24999C361.618 1.24999 353.243 4.04165 346.41 9.62499C339.66 15.125 334.243 22.5 330.16 31.75C326.16 40.9167 323.243 51.125 321.41 62.375C319.66 73.5417 318.785 84.8333 318.785 96.25C318.785 107.583 319.66 118.875 321.41 130.125C323.243 141.375 326.16 151.625 330.16 160.875C334.243 170.042 339.66 177.417 346.41 183C353.243 188.5 361.618 191.25 371.535 191.25C380.118 191.25 387.868 189.833 394.785 187C401.785 184.083 407.868 180.083 413.035 175C418.202 169.833 422.368 164 425.535 157.5C428.785 150.917 430.91 143.917 431.91 136.5H432.535V190H432.035L413.91 175.125C408.577 180.542 402.077 184.792 394.41 187.875C386.827 190.958 378.368 192.5 369.035 192.5ZM444.535 190V189.5H466.91V2.99999H444.535V2.49999H582.41V53.75H582.035C581.285 44.8333 578.952 36.5417 575.035 28.875C571.202 21.125 565.827 14.875 558.91 10.125C552.077 5.375 543.785 2.99999 534.035 2.99999H499.785V189.5H531.535C542.952 189.5 552.41 187.083 559.91 182.25C567.493 177.333 573.285 170.667 577.285 162.25C581.368 153.833 583.785 144.333 584.535 133.75H585.035V190H444.535ZM541.785 122.75C541.035 117.167 539.118 112.167 536.035 107.75C532.952 103.25 529.202 99.7083 524.785 97.125C520.368 94.5417 515.785 93.25 511.035 93.25H489.41V92.75H511.035C515.785 92.75 520.368 91.5833 524.785 89.25C529.202 86.8333 532.952 83.5 536.035 79.25C539.118 75 541.035 70.0833 541.785 64.5H542.285V122.75H541.785Z" fill="black"/>
</svg>
