<svg width="961" height="193" viewBox="0 0 961 193" fill="none" xmlns="http://www.w3.org/2000/svg">
<path d="M97 118.5H172V119H158.5V150.25C155.333 154.333 151.667 158.833 147.5 163.75C143.333 168.583 138.417 173.208 132.75 177.625C127.083 181.958 120.417 185.542 112.75 188.375C105.083 191.125 96.1667 192.5 86 192.5C67.9167 192.5 52.5 188.458 39.75 180.375C27 172.292 17.2083 161.042 10.375 146.625C3.625 132.125 0.25 115.333 0.25 96.25C0.25 82 2.5 68.9583 7 57.125C11.5833 45.2917 17.9167 35.125 26 26.625C34.0833 18.125 43.5417 11.5833 54.375 6.99999C65.2917 2.33332 77.0833 -1.2517e-05 89.75 -1.2517e-05C97.5 -1.2517e-05 104.833 1.37499 111.75 4.12499C118.75 6.87499 124.917 10.6667 130.25 15.5L151.75 2.49999H152.25V56H151.75C151 48.8333 148.875 42 145.375 35.5C141.958 28.9167 137.542 23.0833 132.125 18C126.708 12.8333 120.625 8.79166 113.875 5.87499C107.125 2.87499 100.042 1.37499 92.625 1.37499C82.7083 1.37499 74.25 4.12499 67.25 9.62499C60.3333 15.125 54.7083 22.5 50.375 31.75C46.125 40.9167 43 51.125 41 62.375C39 73.5417 38 84.8333 38 96.25C38 107.583 38.7083 118.917 40.125 130.25C41.5417 141.583 44 151.917 47.5 161.25C51.0833 170.5 55.9583 177.958 62.125 183.625C68.375 189.208 76.3333 192 86 192C92.25 192 97.5417 190.708 101.875 188.125C106.292 185.542 109.917 182.375 112.75 178.625C115.583 174.792 117.833 171.042 119.5 167.375C121.25 163.708 122.5 160.833 123.25 158.75V119H97V118.5ZM176.201 190V189.5H203.576V2.99999H176.201V2.49999H266.451V2.99999H236.451V189.5H266.451V190H176.201ZM297.828 2.49999V189.5H327.328V190H272.578V189.5H297.328V2.99999H272.578V2.49999H297.828ZM449.203 2.49999V2.99999H422.953V192.5H422.453L297.578 2.49999H336.703L422.453 136.625V2.99999H393.203V2.49999H449.203ZM558.006 118.5H633.006V119H619.506V150.25C616.339 154.333 612.673 158.833 608.506 163.75C604.339 168.583 599.423 173.208 593.756 177.625C588.089 181.958 581.423 185.542 573.756 188.375C566.089 191.125 557.173 192.5 547.006 192.5C528.923 192.5 513.506 188.458 500.756 180.375C488.006 172.292 478.214 161.042 471.381 146.625C464.631 132.125 461.256 115.333 461.256 96.25C461.256 82 463.506 68.9583 468.006 57.125C472.589 45.2917 478.923 35.125 487.006 26.625C495.089 18.125 504.548 11.5833 515.381 6.99999C526.298 2.33332 538.089 -1.2517e-05 550.756 -1.2517e-05C558.506 -1.2517e-05 565.839 1.37499 572.756 4.12499C579.756 6.87499 585.923 10.6667 591.256 15.5L612.756 2.49999H613.256V56H612.756C612.006 48.8333 609.881 42 606.381 35.5C602.964 28.9167 598.548 23.0833 593.131 18C587.714 12.8333 581.631 8.79166 574.881 5.87499C568.131 2.87499 561.048 1.37499 553.631 1.37499C543.714 1.37499 535.256 4.12499 528.256 9.62499C521.339 15.125 515.714 22.5 511.381 31.75C507.131 40.9167 504.006 51.125 502.006 62.375C500.006 73.5417 499.006 84.8333 499.006 96.25C499.006 107.583 499.714 118.917 501.131 130.25C502.548 141.583 505.006 151.917 508.506 161.25C512.089 170.5 516.964 177.958 523.131 183.625C529.381 189.208 537.339 192 547.006 192C553.256 192 558.548 190.708 562.881 188.125C567.298 185.542 570.923 182.375 573.756 178.625C576.589 174.792 578.839 171.042 580.506 167.375C582.256 163.708 583.506 160.833 584.256 158.75V119H558.006V118.5ZM637.207 190V189.5H659.582V2.99999H637.207V2.49999H775.082V53.75H774.707C773.957 44.8333 771.624 36.5417 767.707 28.875C763.874 21.125 758.499 14.875 751.582 10.125C744.749 5.375 736.457 2.99999 726.707 2.99999H692.457V189.5H724.207C735.624 189.5 745.082 187.083 752.582 182.25C760.165 177.333 765.957 170.667 769.957 162.25C774.04 153.833 776.457 144.333 777.207 133.75H777.707V190H637.207ZM734.457 122.75C733.707 117.167 731.79 112.167 728.707 107.75C725.624 103.25 721.874 99.7083 717.457 97.125C713.04 94.5417 708.457 93.25 703.707 93.25H682.082V92.75H703.707C708.457 92.75 713.04 91.5833 717.457 89.25C721.874 86.8333 725.624 83.5 728.707 79.25C731.79 75 733.707 70.0833 734.457 64.5H734.957V122.75H734.457ZM831.807 94V93.5H868.557C876.557 93.5 883.265 91.7917 888.682 88.375C894.182 84.875 898.307 79.7917 901.057 73.125C903.89 66.4583 905.307 58.3333 905.307 48.75C905.307 39.1667 903.89 30.9583 901.057 24.125C898.307 17.2917 894.182 12.0833 888.682 8.5C883.265 4.83333 876.557 2.99999 868.557 2.99999H786.807V2.49999H872.307C885.64 2.49999 897.307 4.12499 907.307 7.37499C917.39 10.5417 925.223 15.5417 930.807 22.375C936.473 29.125 939.307 37.9167 939.307 48.75C939.307 59.5833 936.64 68.3333 931.307 75C926.057 81.5833 918.432 86.4167 908.432 89.5C898.515 92.5 886.473 94 872.307 94H831.807ZM786.807 190V189.5H871.557V190H786.807ZM812.682 189.75V2.75H845.557V189.75H812.682ZM933.557 191.625C925.557 191.625 919.265 190.25 914.682 187.5C910.182 184.75 906.89 181.083 904.807 176.5C902.723 171.833 901.39 166.625 900.807 160.875C900.223 155.042 899.89 149.042 899.807 142.875C899.723 136.625 899.432 130.625 898.932 124.875C898.432 119.042 897.223 113.833 895.307 109.25C893.39 104.583 890.265 100.875 885.932 98.125C881.682 95.375 875.723 94 868.057 94H831.807V93.5H882.057C893.973 93.5 903.432 95.25 910.432 98.75C917.432 102.25 922.64 106.875 926.057 112.625C929.473 118.292 931.682 124.542 932.682 131.375C933.765 138.208 934.307 145.083 934.307 152C934.39 158.833 934.515 165.125 934.682 170.875C934.848 176.542 935.723 181.125 937.307 184.625C938.89 188.125 941.89 189.875 946.307 189.875C948.973 189.875 951.515 189.583 953.932 189C956.432 188.333 958.557 187.583 960.307 186.75L960.557 187C958.557 188.083 955.223 189.125 950.557 190.125C945.89 191.125 940.223 191.625 933.557 191.625Z" fill="black"/>
</svg>
