<svg width="543" height="137" viewBox="0 0 543 137" fill="none" xmlns="http://www.w3.org/2000/svg">
<mask id="path-1-outside-1_486_139" maskUnits="userSpaceOnUse" x="-2" y="-2" width="547" height="141" fill="black">
<rect fill="white" x="-2" y="-2" width="547" height="141"/>
<path d="M46.3945 126.555H63.7773C72.8268 126.555 78.7188 124.797 81.4531 121.281C84.1875 117.701 85.5547 109.53 85.5547 96.7695C85.5547 84.8555 83.9271 76.9453 80.6719 73.0391C77.4167 69.1328 70.8737 67.1797 61.043 67.1797H46.3945V126.555ZM46.3945 61.6133H58.7969C68.3021 61.6133 74.5521 59.9857 77.5469 56.7305C80.5417 53.4753 82.0391 46.3138 82.0391 35.2461C82.0391 23.2018 80.7044 15.8125 78.0352 13.0781C75.431 10.3438 68.6276 8.97656 57.625 8.97656H46.3945V61.6133ZM0.0078125 126.555H13.9727V8.97656H0.0078125V3.01953H72.5664C86.1081 3.01953 96.7852 5.81901 104.598 11.418C112.475 16.9518 116.414 24.4714 116.414 33.9766C116.414 41.8542 113.289 48.2669 107.039 53.2148C100.789 58.0977 91.5117 61.418 79.207 63.1758V64.8359C93.2695 66.0078 103.849 69.3281 110.945 74.7969C118.042 80.2005 121.59 87.6549 121.59 97.1602C121.59 108.163 117.065 116.887 108.016 123.332C98.9661 129.777 86.694 133 71.1992 133H0.0078125V126.555ZM140.977 133V126.555H154.355V8.97656H140.977V3.01953H205.82V8.97656H187.754V126.555H206.797C217.474 126.555 225.84 123.723 231.895 118.059C237.949 112.395 242.702 102.922 246.152 89.6406H252.402L250.938 133H140.977ZM300.109 68.1562C300.109 84.8229 300.37 96.3138 300.891 102.629C301.477 108.879 302.486 113.534 303.918 116.594C306.001 121.346 308.964 124.764 312.805 126.848C316.646 128.931 321.854 129.973 328.43 129.973C335.07 129.973 340.311 128.931 344.152 126.848C347.993 124.764 350.956 121.346 353.039 116.594C354.536 113.273 355.578 108.293 356.164 101.652C356.75 95.0117 357.043 83.8464 357.043 68.1562C357.043 52.5312 356.75 41.3984 356.164 34.7578C355.578 28.1172 354.536 23.1367 353.039 19.8164C350.956 15.0638 347.993 11.6458 344.152 9.5625C340.311 7.47917 335.07 6.4375 328.43 6.4375C321.854 6.4375 316.646 7.47917 312.805 9.5625C308.964 11.6458 306.001 15.0638 303.918 19.8164C302.486 22.8763 301.477 27.5638 300.891 33.8789C300.37 40.1289 300.109 51.5547 300.109 68.1562ZM261.242 68.1562C261.242 59.4323 262.935 51.0664 266.32 43.0586C269.706 35.0508 274.621 27.694 281.066 20.9883C287.967 14.0221 295.292 8.84635 303.039 5.46094C310.786 2.07552 319.25 0.382812 328.43 0.382812C337.674 0.382812 346.171 2.07552 353.918 5.46094C361.665 8.84635 368.99 14.0221 375.891 20.9883C382.401 27.694 387.349 35.0833 390.734 43.1562C394.185 51.1641 395.91 59.4974 395.91 68.1562C395.91 77.0104 394.185 85.474 390.734 93.5469C387.349 101.62 382.401 108.977 375.891 115.617C369.185 122.518 361.926 127.661 354.113 131.047C346.301 134.367 337.74 136.027 328.43 136.027C319.185 136.027 310.689 134.367 302.941 131.047C295.194 127.661 287.902 122.518 281.066 115.617C274.621 108.977 269.706 101.62 266.32 93.5469C262.935 85.4089 261.242 76.9453 261.242 68.1562ZM542.348 89.1523H530.336V90.8125C530.336 104.94 525.714 116.008 516.469 124.016C507.224 132.023 494.464 136.027 478.188 136.027C471.612 136.027 465.525 135.214 459.926 133.586C454.327 131.958 449.151 129.484 444.398 126.164C434.698 119.458 427.276 111.158 422.133 101.262C416.99 91.3008 414.418 80.2656 414.418 68.1562C414.418 58.7812 416.208 49.9271 419.789 41.5938C423.435 33.1953 428.839 25.5456 436 18.6445C442.12 12.6549 448.793 8.13021 456.02 5.07031C463.311 1.94531 470.896 0.382812 478.773 0.382812C485.284 0.382812 491.143 1.22917 496.352 2.92188C501.56 4.61458 506.117 7.1862 510.023 10.6367L517.348 2.82422H523.207L524.184 40.4219H516.957C513.572 29.2891 508.819 20.8581 502.699 15.1289C496.579 9.33464 489.288 6.4375 480.824 6.4375C474.574 6.4375 469.529 7.51172 465.688 9.66016C461.846 11.7435 458.949 15.0638 456.996 19.6211C455.499 23.0065 454.457 27.8893 453.871 34.2695C453.285 40.5846 452.992 53.2148 452.992 72.1602C452.992 98.8529 454.62 115.161 457.875 121.086C461.13 127.01 467.38 129.973 476.625 129.973C482.94 129.973 487.79 128.573 491.176 125.773C494.626 122.974 496.352 118.97 496.352 113.762V89.1523H479.359V83H542.348V89.1523Z"/>
</mask>
<path d="M46.3945 126.555H44.3945V128.555H46.3945V126.555ZM81.4531 121.281L83.0318 122.509L83.0373 122.502L83.0427 122.495L81.4531 121.281ZM46.3945 67.1797V65.1797H44.3945V67.1797H46.3945ZM46.3945 61.6133H44.3945V63.6133H46.3945V61.6133ZM78.0352 13.0781L76.5869 14.4574L76.5954 14.4664L76.604 14.4752L78.0352 13.0781ZM46.3945 8.97656V6.97656H44.3945V8.97656H46.3945ZM0.0078125 126.555V124.555H-1.99219V126.555H0.0078125ZM13.9727 126.555V128.555H15.9727V126.555H13.9727ZM13.9727 8.97656H15.9727V6.97656H13.9727V8.97656ZM0.0078125 8.97656H-1.99219V10.9766H0.0078125V8.97656ZM0.0078125 3.01953V1.01953H-1.99219V3.01953H0.0078125ZM104.598 11.418L103.433 13.0436L103.44 13.0491L103.448 13.0545L104.598 11.418ZM107.039 53.2148L108.27 54.7909L108.28 54.7829L107.039 53.2148ZM79.207 63.1758L78.9242 61.1959L77.207 61.4412V63.1758H79.207ZM79.207 64.8359H77.207V66.6762L79.0409 66.829L79.207 64.8359ZM110.945 74.7969L109.724 76.3811L109.734 76.3881L110.945 74.7969ZM0.0078125 133H-1.99219V135H0.0078125V133ZM46.3945 128.555H63.7773V124.555H46.3945V128.555ZM63.7773 128.555C68.4135 128.555 72.3586 128.107 75.5552 127.153C78.7522 126.199 81.328 124.7 83.0318 122.509L79.8744 120.053C78.8438 121.378 77.1065 122.516 74.4116 123.32C71.7163 124.124 68.1907 124.555 63.7773 124.555V128.555ZM83.0427 122.495C84.7115 120.31 85.8025 116.977 86.5019 112.798C87.2107 108.562 87.5547 103.208 87.5547 96.7695H83.5547C83.5547 103.091 83.2151 108.203 82.5567 112.138C81.8889 116.129 80.9291 118.672 79.8636 120.067L83.0427 122.495ZM87.5547 96.7695C87.5547 90.7345 87.1436 85.6324 86.2929 81.4983C85.4479 77.3912 84.1357 74.0716 82.2083 71.7587L79.1354 74.3194C80.4632 75.9128 81.5925 78.5014 82.375 82.3044C83.152 86.0805 83.5547 90.8905 83.5547 96.7695H87.5547ZM82.2083 71.7587C78.3392 67.1158 70.9645 65.1797 61.043 65.1797V69.1797C70.7829 69.1797 76.4941 71.1499 79.1354 74.3194L82.2083 71.7587ZM61.043 65.1797H46.3945V69.1797H61.043V65.1797ZM44.3945 67.1797V126.555H48.3945V67.1797H44.3945ZM46.3945 63.6133H58.7969V59.6133H46.3945V63.6133ZM58.7969 63.6133C63.6476 63.6133 67.7702 63.1997 71.1173 62.328C74.4524 61.4595 77.1675 60.0968 79.0187 58.0846L76.075 55.3764C74.9314 56.6194 73.0241 57.6981 70.1093 58.4571C67.2063 59.2131 63.4514 59.6133 58.7969 59.6133V63.6133ZM79.0187 58.0846C80.8715 56.0707 82.0942 53.055 82.8737 49.3273C83.6609 45.5622 84.0391 40.8551 84.0391 35.2461H80.0391C80.0391 40.7048 79.6685 45.1123 78.9584 48.5086C78.2404 51.9424 77.217 54.135 76.075 55.3764L79.0187 58.0846ZM84.0391 35.2461C84.0391 29.1668 83.7035 24.1758 83.0062 20.3154C82.3251 16.5443 81.2419 13.4999 79.4663 11.6811L76.604 14.4752C77.4977 15.3907 78.4164 17.4082 79.0699 21.0264C79.7073 24.5553 80.0391 29.2811 80.0391 35.2461H84.0391ZM79.4834 11.6988C77.7454 9.87392 74.8862 8.74705 71.3735 8.04115C67.7896 7.32095 63.1914 6.97656 57.625 6.97656V10.9766C63.0612 10.9766 67.366 11.3158 70.5855 11.9628C73.8762 12.624 75.7207 13.548 76.5869 14.4574L79.4834 11.6988ZM57.625 6.97656H46.3945V10.9766H57.625V6.97656ZM44.3945 8.97656V61.6133H48.3945V8.97656H44.3945ZM0.0078125 128.555H13.9727V124.555H0.0078125V128.555ZM15.9727 126.555V8.97656H11.9727V126.555H15.9727ZM13.9727 6.97656H0.0078125V10.9766H13.9727V6.97656ZM2.00781 8.97656V3.01953H-1.99219V8.97656H2.00781ZM0.0078125 5.01953H72.5664V1.01953H0.0078125V5.01953ZM72.5664 5.01953C85.8556 5.01953 96.0733 7.76942 103.433 13.0436L105.763 9.79234C97.497 3.8686 86.3605 1.01953 72.5664 1.01953V5.01953ZM103.448 13.0545C110.801 18.2196 114.414 25.1327 114.414 33.9766H118.414C118.414 23.81 114.15 15.684 105.747 9.78141L103.448 13.0545ZM114.414 33.9766C114.414 41.2346 111.575 47.0729 105.798 51.6468L108.28 54.7829C115.003 49.461 118.414 42.4738 118.414 33.9766H114.414ZM105.808 51.6388C99.947 56.2175 91.0613 59.462 78.9242 61.1959L79.4899 65.1557C91.9621 63.3739 101.631 59.9778 108.27 54.7909L105.808 51.6388ZM77.207 63.1758V64.8359H81.207V63.1758H77.207ZM79.0409 66.829C92.9222 67.9858 103.062 71.2463 109.724 76.381L112.166 73.2127C104.636 67.4099 93.6169 64.0298 79.3731 62.8428L79.0409 66.829ZM109.734 76.3881C116.297 81.3855 119.59 88.2317 119.59 97.1602H123.59C123.59 87.0782 119.787 79.0155 112.157 73.2057L109.734 76.3881ZM119.59 97.1602C119.59 107.508 115.384 115.629 106.855 121.703L109.176 124.961C118.746 118.145 123.59 108.817 123.59 97.1602H119.59ZM106.855 121.703C98.2548 127.829 86.4375 131 71.1992 131V135C86.9505 135 99.6775 131.726 109.176 124.961L106.855 121.703ZM71.1992 131H0.0078125V135H71.1992V131ZM2.00781 133V126.555H-1.99219V133H2.00781ZM140.977 133H138.977V135H140.977V133ZM140.977 126.555V124.555H138.977V126.555H140.977ZM154.355 126.555V128.555H156.355V126.555H154.355ZM154.355 8.97656H156.355V6.97656H154.355V8.97656ZM140.977 8.97656H138.977V10.9766H140.977V8.97656ZM140.977 3.01953V1.01953H138.977V3.01953H140.977ZM205.82 3.01953H207.82V1.01953H205.82V3.01953ZM205.82 8.97656V10.9766H207.82V8.97656H205.82ZM187.754 8.97656V6.97656H185.754V8.97656H187.754ZM187.754 126.555H185.754V128.555H187.754V126.555ZM246.152 89.6406V87.6406H244.606L244.217 89.1377L246.152 89.6406ZM252.402 89.6406L254.401 89.7082L254.471 87.6406H252.402V89.6406ZM250.938 133V135H252.871L252.936 133.068L250.938 133ZM142.977 133V126.555H138.977V133H142.977ZM140.977 128.555H154.355V124.555H140.977V128.555ZM156.355 126.555V8.97656H152.355V126.555H156.355ZM154.355 6.97656H140.977V10.9766H154.355V6.97656ZM142.977 8.97656V3.01953H138.977V8.97656H142.977ZM140.977 5.01953H205.82V1.01953H140.977V5.01953ZM203.82 3.01953V8.97656H207.82V3.01953H203.82ZM205.82 6.97656H187.754V10.9766H205.82V6.97656ZM185.754 8.97656V126.555H189.754V8.97656H185.754ZM187.754 128.555H206.797V124.555H187.754V128.555ZM206.797 128.555C217.83 128.555 226.738 125.621 233.261 119.519L230.528 116.598C224.941 121.824 217.118 124.555 206.797 124.555V128.555ZM233.261 119.519C239.719 113.478 244.598 103.576 248.088 90.1435L244.217 89.1377C240.805 102.268 236.179 111.312 230.528 116.598L233.261 119.519ZM246.152 91.6406H252.402V87.6406H246.152V91.6406ZM250.403 89.5731L248.939 132.932L252.936 133.068L254.401 89.7082L250.403 89.5731ZM250.938 131H140.977V135H250.938V131ZM300.891 102.629L298.897 102.793L298.898 102.804L298.899 102.816L300.891 102.629ZM303.918 116.594L305.75 115.791L305.74 115.768L305.729 115.746L303.918 116.594ZM312.805 126.848L311.851 128.606L312.805 126.848ZM344.152 126.848L343.199 125.09L344.152 126.848ZM353.039 116.594L351.216 115.772L351.212 115.781L351.207 115.791L353.039 116.594ZM353.039 19.8164L351.207 20.6194L351.212 20.629L351.216 20.6386L353.039 19.8164ZM312.805 9.5625L311.851 7.80444L312.805 9.5625ZM303.918 19.8164L305.729 20.6643L305.74 20.642L305.75 20.6194L303.918 19.8164ZM300.891 33.8789L298.899 33.6941L298.898 33.7035L298.898 33.7128L300.891 33.8789ZM281.066 20.9883L279.646 19.5807L279.635 19.5915L279.624 19.6023L281.066 20.9883ZM303.039 5.46094L303.84 7.2936L303.039 5.46094ZM353.918 5.46094L353.117 7.2936L353.918 5.46094ZM375.891 20.9883L377.326 19.5951L377.319 19.5879L377.311 19.5807L375.891 20.9883ZM390.734 43.1562L388.89 43.9297L388.894 43.9387L388.898 43.9477L390.734 43.1562ZM390.734 93.5469L388.895 92.7608L388.89 92.7734L390.734 93.5469ZM375.891 115.617L374.462 114.217L374.456 114.223L375.891 115.617ZM354.113 131.047L354.896 132.888L354.909 132.882L354.113 131.047ZM302.941 131.047L302.141 132.88L302.147 132.882L302.154 132.885L302.941 131.047ZM281.066 115.617L279.631 117.01L279.638 117.017L279.646 117.025L281.066 115.617ZM266.32 93.5469L264.474 94.3151L264.476 94.3203L266.32 93.5469ZM298.109 68.1562C298.109 84.8174 298.369 96.3854 298.897 102.793L302.884 102.465C302.371 96.2422 302.109 84.8285 302.109 68.1562H298.109ZM298.899 102.816C299.492 109.133 300.526 114.065 302.107 117.442L305.729 115.746C304.445 113.003 303.461 108.625 302.882 102.442L298.899 102.816ZM302.086 117.397C304.313 122.477 307.55 126.273 311.851 128.606L313.758 125.09C310.378 123.256 307.689 120.215 305.75 115.791L302.086 117.397ZM311.851 128.606C316.096 130.908 321.676 131.973 328.43 131.973V127.973C322.033 127.973 317.196 126.954 313.758 125.09L311.851 128.606ZM328.43 131.973C335.245 131.973 340.859 130.909 345.106 128.606L343.199 125.09C339.764 126.953 334.896 127.973 328.43 127.973V131.973ZM345.106 128.606C349.407 126.273 352.644 122.477 354.871 117.397L351.207 115.791C349.268 120.215 346.58 123.256 343.199 125.09L345.106 128.606ZM354.862 117.416C356.499 113.787 357.564 108.539 358.156 101.828L354.172 101.477C353.592 108.047 352.574 112.76 351.216 115.772L354.862 117.416ZM358.156 101.828C358.751 95.0913 359.043 83.848 359.043 68.1562H355.043C355.043 83.8447 354.749 94.9321 354.172 101.477L358.156 101.828ZM359.043 68.1562C359.043 52.5293 358.751 41.3187 358.156 34.582L354.172 34.9336C354.749 41.4782 355.043 52.5332 355.043 68.1562H359.043ZM358.156 34.582C357.564 27.8713 356.499 22.6234 354.862 18.9942L351.216 20.6386C352.574 23.65 353.592 28.3631 354.172 34.9336L358.156 34.582ZM354.871 19.0135C352.644 13.9328 349.407 10.1375 345.106 7.80444L343.199 11.3206C346.58 13.1542 349.268 16.1948 351.207 20.6194L354.871 19.0135ZM345.106 7.80444C340.859 5.50085 335.245 4.4375 328.43 4.4375V8.4375C334.896 8.4375 339.764 9.45749 343.199 11.3206L345.106 7.80444ZM328.43 4.4375C321.676 4.4375 316.096 5.50209 311.851 7.80444L313.758 11.3206C317.196 9.45625 322.033 8.4375 328.43 8.4375V4.4375ZM311.851 7.80444C307.55 10.1375 304.313 13.9328 302.086 19.0135L305.75 20.6194C307.689 16.1948 310.378 13.1542 313.758 11.3206L311.851 7.80444ZM302.107 18.9685C300.525 22.3477 299.491 27.3141 298.899 33.6941L302.882 34.0637C303.462 27.8135 304.447 23.4049 305.729 20.6643L302.107 18.9685ZM298.898 33.7128C298.369 40.0567 298.109 51.5607 298.109 68.1562H302.109C302.109 51.5487 302.371 40.2011 302.884 34.045L298.898 33.7128ZM263.242 68.1562C263.242 59.6989 264.882 51.5979 268.162 43.8374L264.478 42.2798C260.988 50.5349 259.242 59.1657 259.242 68.1562H263.242ZM268.162 43.8374C271.446 36.07 276.22 28.9161 282.508 22.3742L279.624 19.6023C273.022 26.4719 267.965 34.0315 264.478 42.2798L268.162 43.8374ZM282.487 22.3958C289.238 15.581 296.358 10.563 303.84 7.2936L302.238 3.62827C294.225 7.12975 286.697 12.4633 279.646 19.5807L282.487 22.3958ZM303.84 7.2936C311.314 4.02773 319.502 2.38281 328.43 2.38281V-1.61719C318.998 -1.61719 310.259 0.123314 302.238 3.62827L303.84 7.2936ZM328.43 2.38281C337.425 2.38281 345.645 4.0285 353.117 7.2936L354.719 3.62827C346.696 0.122543 337.924 -1.61719 328.43 -1.61719V2.38281ZM353.117 7.2936C360.599 10.563 367.719 15.581 374.47 22.3958L377.311 19.5807C370.261 12.4633 362.732 7.12975 354.719 3.62827L353.117 7.2936ZM374.456 22.3814C380.804 28.9202 385.608 36.1023 388.89 43.9297L392.579 42.3828C389.09 34.0643 383.998 26.4678 377.326 19.5951L374.456 22.3814ZM388.898 43.9477C392.241 51.7074 393.91 59.7715 393.91 68.1562H397.91C397.91 59.2233 396.129 50.6208 392.571 42.3648L388.898 43.9477ZM393.91 68.1562C393.91 76.7426 392.239 84.9385 388.895 92.7608L392.573 94.3329C396.131 86.0094 397.91 77.2782 397.91 68.1562H393.91ZM388.89 92.7734C385.608 100.599 380.807 107.746 374.462 114.217L377.319 117.017C383.995 110.207 389.09 102.641 392.579 94.3203L388.89 92.7734ZM374.456 114.223C367.909 120.961 360.861 125.943 353.318 129.212L354.909 132.882C362.99 129.38 370.461 124.075 377.325 117.011L374.456 114.223ZM353.331 129.206C345.789 132.412 337.497 134.027 328.43 134.027V138.027C337.982 138.027 346.813 136.323 354.896 132.888L353.331 129.206ZM328.43 134.027C319.429 134.027 311.205 132.412 303.729 129.209L302.154 132.885C310.173 136.322 318.94 138.027 328.43 138.027V134.027ZM303.742 129.214C296.258 125.944 289.172 120.958 282.487 114.21L279.646 117.025C286.633 124.079 294.13 129.379 302.141 132.88L303.742 129.214ZM282.502 114.224C276.22 107.752 271.448 100.603 268.165 92.7734L264.476 94.3203C267.963 102.636 273.022 110.201 279.631 117.01L282.502 114.224ZM268.167 92.7787C264.882 84.8834 263.242 76.6809 263.242 68.1562H259.242C259.242 77.2097 260.987 85.9343 264.474 94.3151L268.167 92.7787ZM542.348 89.1523V91.1523H544.348V89.1523H542.348ZM530.336 89.1523V87.1523H528.336V89.1523H530.336ZM444.398 126.164L445.544 124.525L445.536 124.519L444.398 126.164ZM422.133 101.262L420.356 102.179L420.358 102.184L422.133 101.262ZM419.789 41.5938L417.954 40.7973L417.952 40.8042L419.789 41.5938ZM436 18.6445L437.388 20.0847L437.393 20.0793L437.399 20.0739L436 18.6445ZM456.02 5.07031L456.799 6.91204L456.807 6.9086L456.02 5.07031ZM510.023 10.6367L508.699 12.1357L510.155 13.4211L511.482 12.0046L510.023 10.6367ZM517.348 2.82422V0.824219H516.481L515.889 1.45634L517.348 2.82422ZM523.207 2.82422L525.206 2.77229L525.156 0.824219H523.207V2.82422ZM524.184 40.4219V42.4219H526.236L526.183 40.3699L524.184 40.4219ZM516.957 40.4219L515.044 41.0038L515.475 42.4219H516.957V40.4219ZM502.699 15.1289L501.324 16.5812L501.332 16.589L502.699 15.1289ZM465.688 9.66016L466.641 11.4182L466.652 11.412L466.664 11.4057L465.688 9.66016ZM456.996 19.6211L458.825 20.4301L458.83 20.4195L458.834 20.4089L456.996 19.6211ZM453.871 34.2695L455.863 34.4543L455.863 34.4524L453.871 34.2695ZM491.176 125.773L489.916 124.22L489.908 124.226L489.901 124.232L491.176 125.773ZM496.352 89.1523H498.352V87.1523H496.352V89.1523ZM479.359 89.1523H477.359V91.1523H479.359V89.1523ZM479.359 83V81H477.359V83H479.359ZM542.348 83H544.348V81H542.348V83ZM542.348 87.1523H530.336V91.1523H542.348V87.1523ZM528.336 89.1523V90.8125H532.336V89.1523H528.336ZM528.336 90.8125C528.336 104.46 523.895 114.937 515.159 122.504L517.778 125.527C527.532 117.079 532.336 105.421 532.336 90.8125H528.336ZM515.159 122.504C506.384 130.105 494.144 134.027 478.188 134.027V138.027C494.784 138.027 508.064 133.942 517.778 125.527L515.159 122.504ZM478.188 134.027C471.777 134.027 465.88 133.234 460.484 131.665L459.367 135.506C465.169 137.193 471.447 138.027 478.188 138.027V134.027ZM460.484 131.665C455.094 130.098 450.116 127.719 445.544 124.525L443.253 127.804C448.186 131.25 453.56 133.818 459.367 135.506L460.484 131.665ZM445.536 124.519C436.088 117.988 428.892 109.929 423.907 100.339L420.358 102.184C425.66 112.386 433.308 120.929 443.261 127.809L445.536 124.519ZM423.91 100.344C418.925 90.6893 416.418 79.9725 416.418 68.1562H412.418C412.418 80.5587 415.054 91.9123 420.356 102.179L423.91 100.344ZM416.418 68.1562C416.418 59.0434 418.157 50.4588 421.627 42.3833L417.952 40.8042C414.26 49.3954 412.418 58.5191 412.418 68.1562H416.418ZM421.624 42.3902C425.156 34.2538 430.4 26.8186 437.388 20.0847L434.612 17.2044C427.277 24.2725 421.714 32.1368 417.954 40.7973L421.624 42.3902ZM437.399 20.0739C443.356 14.2432 449.823 9.86584 456.799 6.91202L455.24 3.22861C447.763 6.39457 440.883 11.0667 434.601 17.2152L437.399 20.0739ZM456.807 6.9086C463.852 3.88952 471.169 2.38281 478.773 2.38281V-1.61719C470.623 -1.61719 462.771 0.00110245 455.232 3.23202L456.807 6.9086ZM478.773 2.38281C485.112 2.38281 490.758 3.20703 495.733 4.82394L496.97 1.01981C491.528 -0.748695 485.455 -1.61719 478.773 -1.61719V2.38281ZM495.733 4.82394C500.695 6.43639 505.009 8.87557 508.699 12.1357L511.348 9.13777C507.226 5.49683 502.425 2.79277 496.97 1.01981L495.733 4.82394ZM511.482 12.0046L518.807 4.1921L515.889 1.45634L508.564 9.26884L511.482 12.0046ZM517.348 4.82422H523.207V0.824219H517.348V4.82422ZM521.208 2.87615L522.184 40.4738L526.183 40.3699L525.206 2.77229L521.208 2.87615ZM524.184 38.4219H516.957V42.4219H524.184V38.4219ZM518.871 39.84C515.421 28.4957 510.522 19.7131 504.066 13.6689L501.332 16.589C507.116 22.0031 511.722 30.0824 515.044 41.0038L518.871 39.84ZM504.074 13.6766C497.581 7.52897 489.797 4.4375 480.824 4.4375V8.4375C488.779 8.4375 495.578 11.1403 501.324 16.5812L504.074 13.6766ZM480.824 4.4375C474.368 4.4375 468.95 5.5438 464.711 7.91464L466.664 11.4057C470.107 9.47963 474.781 8.4375 480.824 8.4375V4.4375ZM464.734 7.90209C460.444 10.2286 457.263 13.9209 455.158 18.8333L458.834 20.4089C460.635 16.2067 463.248 13.2584 466.641 11.4182L464.734 7.90209ZM455.167 18.8121C453.54 22.4898 452.473 27.6239 451.879 34.0866L455.863 34.4524C456.441 28.1547 457.457 23.5232 458.825 20.4301L455.167 18.8121ZM451.88 34.0848C451.284 40.5073 450.992 53.2301 450.992 72.1602H454.992C454.992 53.1996 455.287 40.6619 455.863 34.4543L451.88 34.0848ZM450.992 72.1602C450.992 85.5373 451.4 96.3616 452.223 104.61C453.036 112.755 454.277 118.691 456.122 122.049L459.628 120.123C458.218 117.557 457.018 112.375 456.203 104.213C455.399 96.1521 454.992 85.4758 454.992 72.1602H450.992ZM456.122 122.049C459.855 128.842 466.956 131.973 476.625 131.973V127.973C467.805 127.973 462.406 125.179 459.628 120.123L456.122 122.049ZM476.625 131.973C483.206 131.973 488.578 130.517 492.45 127.315L489.901 124.232C487.003 126.629 482.674 127.973 476.625 127.973V131.973ZM492.436 127.327C496.438 124.08 498.352 119.457 498.352 113.762H494.352C494.352 118.483 492.815 121.868 489.916 124.22L492.436 127.327ZM498.352 113.762V89.1523H494.352V113.762H498.352ZM496.352 87.1523H479.359V91.1523H496.352V87.1523ZM481.359 89.1523V83H477.359V89.1523H481.359ZM479.359 85H542.348V81H479.359V85ZM540.348 83V89.1523H544.348V83H540.348Z" fill="#B78F4A" mask="url(#path-1-outside-1_486_139)"/>
</svg>
