<svg width="1773" height="272" viewBox="0 0 1773 272" fill="none" xmlns="http://www.w3.org/2000/svg">
<path d="M123.55 271.5C98.4667 271.5 76.7083 265.725 58.275 254.175C39.8417 242.508 25.55 226.525 15.4 206.225C5.36667 185.925 0.35 162.767 0.35 136.75C0.35 110.733 5.36667 87.575 15.4 67.275C25.55 46.975 39.8417 31.05 58.275 19.5C76.7083 7.83332 98.4667 1.99998 123.55 1.99998C134.867 1.99998 145.367 3.98332 155.05 7.94999C164.733 11.9167 173.25 17.4 180.6 24.4L208.25 5.49998H208.95V80.4H208.075C205.742 65.5833 200.667 52.4 192.85 40.85C185.033 29.3 175.408 20.2583 163.975 13.725C152.658 7.07498 140.35 3.74998 127.05 3.74998C113.167 3.74998 101.442 7.65832 91.875 15.475C82.425 23.175 74.8417 33.5 69.125 46.45C63.525 59.2833 59.4417 73.575 56.875 89.325C54.425 104.958 53.2 120.767 53.2 136.75C53.2 152.617 54.425 168.425 56.875 184.175C59.4417 199.925 63.525 214.275 69.125 227.225C74.8417 240.058 82.425 250.383 91.875 258.2C101.442 265.9 113.167 269.75 127.05 269.75C139.067 269.75 149.917 267.767 159.6 263.8C169.4 259.717 177.917 254.117 185.15 247C192.383 239.767 198.217 231.6 202.65 222.5C207.2 213.283 210.175 203.483 211.575 193.1H212.45V268H211.75L186.375 247.175C178.908 254.758 169.808 260.708 159.075 265.025C148.458 269.342 136.617 271.5 123.55 271.5ZM293.125 182.775V182.075H397.425V182.775H293.125ZM367.325 0.249984L459.9 267.3H484.75V268H372.75V267.3H406.875L338.275 55.025L263.9 267.3H306.25V268H229.25V267.3H263.025L356.65 0.249984H367.325ZM493.377 268V267.3H524.702V6.19999H493.377V5.49998H602.052V6.19999H570.727V267.3H613.777C627.077 267.3 638.277 265.375 647.377 261.525C656.477 257.558 663.885 252.075 669.602 245.075C675.319 237.958 679.635 229.675 682.552 220.225C685.469 210.658 687.277 200.333 687.977 189.25H688.677V268H493.377ZM829.798 271.5C804.715 271.5 782.956 265.725 764.523 254.175C746.09 242.508 731.798 226.525 721.648 206.225C711.615 185.925 706.598 162.767 706.598 136.75C706.598 110.733 711.615 87.575 721.648 67.275C731.798 46.975 746.09 31.05 764.523 19.5C782.956 7.83332 804.715 1.99998 829.798 1.99998C841.115 1.99998 851.615 3.98332 861.298 7.94999C870.981 11.9167 879.498 17.4 886.848 24.4L914.498 5.49998H915.198V80.4H914.323C911.99 65.5833 906.915 52.4 899.098 40.85C891.281 29.3 881.656 20.2583 870.223 13.725C858.906 7.07498 846.598 3.74998 833.298 3.74998C819.415 3.74998 807.69 7.65832 798.123 15.475C788.673 23.175 781.09 33.5 775.373 46.45C769.773 59.2833 765.69 73.575 763.123 89.325C760.673 104.958 759.448 120.767 759.448 136.75C759.448 152.617 760.673 168.425 763.123 184.175C765.69 199.925 769.773 214.275 775.373 227.225C781.09 240.058 788.673 250.383 798.123 258.2C807.69 265.9 819.415 269.75 833.298 269.75C845.315 269.75 856.165 267.767 865.848 263.8C875.648 259.717 884.165 254.117 891.398 247C898.631 239.767 904.465 231.6 908.898 222.5C913.448 213.283 916.423 203.483 917.823 193.1H918.698V268H917.998L892.623 247.175C885.156 254.758 876.056 260.708 865.323 265.025C854.706 269.342 842.865 271.5 829.798 271.5ZM935.498 268V267.3H973.823V6.19999H935.498V5.49998H1061.85V6.19999H1019.85V267.3H1061.85V268H935.498ZM1105.78 5.49998V267.3H1147.08V268H1070.43V267.3H1105.08V6.19999H1070.43V5.49998H1105.78ZM1317.7 5.49998V6.19999H1280.95V271.5H1280.25L1105.43 5.49998H1160.2L1280.25 193.275V6.19999H1239.3V5.49998H1317.7ZM1326.35 268V267.3H1357.67V6.19999H1326.35V5.49998H1519.37V77.25H1518.85C1517.8 64.7667 1514.53 53.1583 1509.05 42.425C1503.68 31.575 1496.16 22.825 1486.47 16.175C1476.91 9.52499 1465.3 6.19999 1451.65 6.19999H1403.7V267.3H1448.15C1464.13 267.3 1477.37 263.917 1487.87 257.15C1498.49 250.267 1506.6 240.933 1512.2 229.15C1517.92 217.367 1521.3 204.067 1522.35 189.25H1523.05V268H1326.35ZM1462.5 173.85C1461.45 166.033 1458.77 159.033 1454.45 152.85C1450.13 146.55 1444.88 141.592 1438.7 137.975C1432.52 134.358 1426.1 132.55 1419.45 132.55H1389.17V131.85H1419.45C1426.1 131.85 1432.52 130.217 1438.7 126.95C1444.88 123.567 1450.13 118.9 1454.45 112.95C1458.77 107 1461.45 100.117 1462.5 92.3H1463.2V173.85H1462.5ZM1642.01 5.49998C1669.08 5.49998 1692.3 11.1 1711.66 22.3C1731.15 33.5 1746.14 49.0167 1756.64 68.85C1767.14 88.5667 1772.39 111.2 1772.39 136.75C1772.39 155.883 1769.24 173.5 1762.94 189.6C1756.64 205.583 1747.71 219.467 1736.16 231.25C1724.73 242.917 1711.02 251.958 1695.04 258.375C1679.17 264.792 1661.5 268 1642.01 268H1535.79V267.3H1567.11V6.19999H1535.79V5.49998H1642.01ZM1613.14 267.3H1642.01C1656.6 267.3 1668.79 263.683 1678.59 256.45C1688.51 249.217 1696.44 239.475 1702.39 227.225C1708.46 214.858 1712.77 200.858 1715.34 185.225C1718.02 169.592 1719.36 153.375 1719.36 136.575C1719.36 119.892 1717.85 103.792 1714.81 88.275C1711.9 72.6417 1707.35 58.7 1701.16 46.45C1694.98 34.0833 1686.99 24.2833 1677.19 17.05C1667.51 9.81666 1655.78 6.19999 1642.01 6.19999H1613.14V267.3Z" fill="black"/>
</svg>
