<svg width="1690" height="231" viewBox="0 0 1690 231" fill="none" xmlns="http://www.w3.org/2000/svg">
<path d="M54.25 112.8V112.2H98.35C107.95 112.2 116 110.15 122.5 106.05C129.1 101.85 134.05 95.75 137.35 87.75C140.75 79.75 142.45 70 142.45 58.5C142.45 47 140.75 37.15 137.35 28.95C134.05 20.75 129.1 14.5 122.5 10.2C116 5.79999 107.95 3.59999 98.35 3.59999H0.25V2.99998H102.85C118.85 2.99998 132.85 4.94998 144.85 8.84999C156.95 12.65 166.35 18.65 173.05 26.85C179.85 34.95 183.25 45.5 183.25 58.5C183.25 71.5 180.05 82 173.65 90C167.35 97.9 158.2 103.7 146.2 107.4C134.3 111 119.85 112.8 102.85 112.8H54.25ZM0.25 228V227.4H101.95V228H0.25ZM31.3 227.7V3.3H70.75V227.7H31.3ZM176.35 229.95C166.75 229.95 159.2 228.3 153.7 225C148.3 221.7 144.35 217.3 141.85 211.8C139.35 206.2 137.75 199.95 137.05 193.05C136.35 186.05 135.95 178.85 135.85 171.45C135.75 163.95 135.4 156.75 134.8 149.85C134.2 142.85 132.75 136.6 130.45 131.1C128.15 125.5 124.4 121.05 119.2 117.75C114.1 114.45 106.95 112.8 97.75 112.8H54.25V112.2H114.55C128.85 112.2 140.2 114.3 148.6 118.5C157 122.7 163.25 128.25 167.35 135.15C171.45 141.95 174.1 149.45 175.3 157.65C176.6 165.85 177.25 174.1 177.25 182.4C177.35 190.6 177.5 198.15 177.7 205.05C177.9 211.85 178.95 217.35 180.85 221.55C182.75 225.75 186.35 227.85 191.65 227.85C194.85 227.85 197.9 227.5 200.8 226.8C203.8 226 206.35 225.1 208.45 224.1L208.75 224.4C206.35 225.7 202.35 226.95 196.75 228.15C191.15 229.35 184.35 229.95 176.35 229.95ZM214.34 228V227.4H241.19V3.59999H214.34V2.99998H379.79V64.5H379.34C378.44 53.8 375.64 43.85 370.94 34.65C366.34 25.35 359.89 17.85 351.59 12.15C343.39 6.44999 333.44 3.59999 321.74 3.59999H280.64V227.4H318.74C332.44 227.4 343.79 224.5 352.79 218.7C361.89 212.8 368.84 204.8 373.64 194.7C378.54 184.6 381.44 173.2 382.34 160.5H382.94V228H214.34ZM331.04 147.3C330.14 140.6 327.84 134.6 324.14 129.3C320.44 123.9 315.94 119.65 310.64 116.55C305.34 113.45 299.84 111.9 294.14 111.9H268.19V111.3H294.14C299.84 111.3 305.34 109.9 310.64 107.1C315.94 104.2 320.44 100.2 324.14 95.1C327.84 90 330.14 84.1 331.04 77.4H331.64V147.3H331.04ZM484.909 2.99998C508.109 2.99998 528.009 7.79999 544.609 17.4C561.309 27 574.159 40.3 583.159 57.3C592.159 74.2 596.659 93.6 596.659 115.5C596.659 131.9 593.959 147 588.559 160.8C583.159 174.5 575.509 186.4 565.609 196.5C555.809 206.5 544.059 214.25 530.359 219.75C516.759 225.25 501.609 228 484.909 228H393.859V227.4H420.709V3.59999H393.859V2.99998H484.909ZM460.159 227.4H484.909C497.409 227.4 507.859 224.3 516.259 218.1C524.759 211.9 531.559 203.55 536.659 193.05C541.859 182.45 545.559 170.45 547.759 157.05C550.059 143.65 551.209 129.75 551.209 115.35C551.209 101.05 549.909 87.25 547.309 73.95C544.809 60.55 540.909 48.6 535.609 38.1C530.309 27.5 523.459 19.1 515.059 12.9C506.759 6.69999 496.709 3.59999 484.909 3.59999H460.159V227.4ZM795.822 231C774.322 231 755.672 226.05 739.872 216.15C724.072 206.15 711.822 192.45 703.122 175.05C694.522 157.65 690.222 137.8 690.222 115.5C690.222 93.2 694.522 73.35 703.122 55.95C711.822 38.55 724.072 24.9 739.872 15C755.672 4.99999 774.322 -1.50204e-05 795.822 -1.50204e-05C805.522 -1.50204e-05 814.522 1.69999 822.822 5.09999C831.122 8.49999 838.422 13.2 844.722 19.2L868.422 2.99998H869.022V67.2H868.272C866.272 54.5 861.922 43.2 855.222 33.3C848.522 23.4 840.272 15.65 830.472 10.05C820.772 4.34999 810.222 1.49998 798.822 1.49998C786.922 1.49998 776.872 4.84999 768.672 11.55C760.572 18.15 754.072 27 749.172 38.1C744.372 49.1 740.872 61.35 738.672 74.85C736.572 88.25 735.522 101.8 735.522 115.5C735.522 129.1 736.572 142.65 738.672 156.15C740.872 169.65 744.372 181.95 749.172 193.05C754.072 204.05 760.572 212.9 768.672 219.6C776.872 226.2 786.922 229.5 798.822 229.5C809.122 229.5 818.422 227.8 826.722 224.4C835.122 220.9 842.422 216.1 848.622 210C854.822 203.8 859.822 196.8 863.622 189C867.522 181.1 870.072 172.7 871.272 163.8H872.022V228H871.422L849.672 210.15C843.272 216.65 835.472 221.75 826.272 225.45C817.172 229.15 807.022 231 795.822 231ZM1107.22 2.99998V3.59999H1080.07V227.4H1107.22V228H1012.72V227.4H1040.92V117.3H952.722V227.4H980.922V228H886.422V227.4H913.272V3.59999H886.422V2.99998H980.922V3.59999H952.722V116.7H1040.92V3.59999H1012.72V2.99998H1107.22ZM1114.57 228V227.4H1147.42V3.59999H1114.57V2.99998H1222.87V3.59999H1186.87V227.4H1222.87V228H1114.57ZM1230.23 228V227.4H1257.08V3.59999H1230.23V2.99998H1323.38V3.59999H1296.53V227.4H1333.43C1344.83 227.4 1354.43 225.75 1362.23 222.45C1370.03 219.05 1376.38 214.35 1381.28 208.35C1386.18 202.25 1389.88 195.15 1392.38 187.05C1394.88 178.85 1396.43 170 1397.03 160.5H1397.63V228H1230.23ZM1405.94 228V227.4H1432.79V3.59999H1405.94V2.99998H1499.09V3.59999H1472.24V227.4H1509.14C1520.54 227.4 1530.14 225.75 1537.94 222.45C1545.74 219.05 1552.09 214.35 1556.99 208.35C1561.89 202.25 1565.59 195.15 1568.09 187.05C1570.59 178.85 1572.14 170 1572.74 160.5H1573.34V228H1405.94ZM1581.65 228V227.4H1614.5V3.59999H1581.65V2.99998H1689.95V3.59999H1653.95V227.4H1689.95V228H1581.65Z" fill="#4BA040"/>
</svg>
