<svg width="1690" height="231" viewBox="0 0 1690 231" fill="none" xmlns="http://www.w3.org/2000/svg">
<g opacity="0.62">
<mask id="path-1-outside-1_168_135" maskUnits="userSpaceOnUse" x="-1" y="-1" width="1692" height="233" fill="black">
<rect fill="white" x="-1" y="-1" width="1692" height="233"/>
<path d="M54.25 112.8V112.2H98.35C107.95 112.2 116 110.15 122.5 106.05C129.1 101.85 134.05 95.75 137.35 87.75C140.75 79.75 142.45 70 142.45 58.5C142.45 47 140.75 37.15 137.35 28.95C134.05 20.75 129.1 14.5 122.5 10.2C116 5.79999 107.95 3.59999 98.35 3.59999H0.25V2.99998H102.85C118.85 2.99998 132.85 4.94998 144.85 8.84999C156.95 12.65 166.35 18.65 173.05 26.85C179.85 34.95 183.25 45.5 183.25 58.5C183.25 71.5 180.05 82 173.65 90C167.35 97.9 158.2 103.7 146.2 107.4C134.3 111 119.85 112.8 102.85 112.8H54.25ZM0.25 228V227.4H101.95V228H0.25ZM31.3 227.7V3.3H70.75V227.7H31.3ZM176.35 229.95C166.75 229.95 159.2 228.3 153.7 225C148.3 221.7 144.35 217.3 141.85 211.8C139.35 206.2 137.75 199.95 137.05 193.05C136.35 186.05 135.95 178.85 135.85 171.45C135.75 163.95 135.4 156.75 134.8 149.85C134.2 142.85 132.75 136.6 130.45 131.1C128.15 125.5 124.4 121.05 119.2 117.75C114.1 114.45 106.95 112.8 97.75 112.8H54.25V112.2H114.55C128.85 112.2 140.2 114.3 148.6 118.5C157 122.7 163.25 128.25 167.35 135.15C171.45 141.95 174.1 149.45 175.3 157.65C176.6 165.85 177.25 174.1 177.25 182.4C177.35 190.6 177.5 198.15 177.7 205.05C177.9 211.85 178.95 217.35 180.85 221.55C182.75 225.75 186.35 227.85 191.65 227.85C194.85 227.85 197.9 227.5 200.8 226.8C203.8 226 206.35 225.1 208.45 224.1L208.75 224.4C206.35 225.7 202.35 226.95 196.75 228.15C191.15 229.35 184.35 229.95 176.35 229.95ZM214.34 228V227.4H241.19V3.59999H214.34V2.99998H379.79V64.5H379.34C378.44 53.8 375.64 43.85 370.94 34.65C366.34 25.35 359.89 17.85 351.59 12.15C343.39 6.44999 333.44 3.59999 321.74 3.59999H280.64V227.4H318.74C332.44 227.4 343.79 224.5 352.79 218.7C361.89 212.8 368.84 204.8 373.64 194.7C378.54 184.6 381.44 173.2 382.34 160.5H382.94V228H214.34ZM331.04 147.3C330.14 140.6 327.84 134.6 324.14 129.3C320.44 123.9 315.94 119.65 310.64 116.55C305.34 113.45 299.84 111.9 294.14 111.9H268.19V111.3H294.14C299.84 111.3 305.34 109.9 310.64 107.1C315.94 104.2 320.44 100.2 324.14 95.1C327.84 90 330.14 84.1 331.04 77.4H331.64V147.3H331.04ZM484.909 2.99998C508.109 2.99998 528.009 7.79999 544.609 17.4C561.309 27 574.159 40.3 583.159 57.3C592.159 74.2 596.659 93.6 596.659 115.5C596.659 131.9 593.959 147 588.559 160.8C583.159 174.5 575.509 186.4 565.609 196.5C555.809 206.5 544.059 214.25 530.359 219.75C516.759 225.25 501.609 228 484.909 228H393.859V227.4H420.709V3.59999H393.859V2.99998H484.909ZM460.159 227.4H484.909C497.409 227.4 507.859 224.3 516.259 218.1C524.759 211.9 531.559 203.55 536.659 193.05C541.859 182.45 545.559 170.45 547.759 157.05C550.059 143.65 551.209 129.75 551.209 115.35C551.209 101.05 549.909 87.25 547.309 73.95C544.809 60.55 540.909 48.6 535.609 38.1C530.309 27.5 523.459 19.1 515.059 12.9C506.759 6.69999 496.709 3.59999 484.909 3.59999H460.159V227.4ZM795.822 231C774.322 231 755.672 226.05 739.872 216.15C724.072 206.15 711.822 192.45 703.122 175.05C694.522 157.65 690.222 137.8 690.222 115.5C690.222 93.2 694.522 73.35 703.122 55.95C711.822 38.55 724.072 24.9 739.872 15C755.672 4.99999 774.322 -1.50204e-05 795.822 -1.50204e-05C805.522 -1.50204e-05 814.522 1.69999 822.822 5.09999C831.122 8.49999 838.422 13.2 844.722 19.2L868.422 2.99998H869.022V67.2H868.272C866.272 54.5 861.922 43.2 855.222 33.3C848.522 23.4 840.272 15.65 830.472 10.05C820.772 4.34999 810.222 1.49998 798.822 1.49998C786.922 1.49998 776.872 4.84999 768.672 11.55C760.572 18.15 754.072 27 749.172 38.1C744.372 49.1 740.872 61.35 738.672 74.85C736.572 88.25 735.522 101.8 735.522 115.5C735.522 129.1 736.572 142.65 738.672 156.15C740.872 169.65 744.372 181.95 749.172 193.05C754.072 204.05 760.572 212.9 768.672 219.6C776.872 226.2 786.922 229.5 798.822 229.5C809.122 229.5 818.422 227.8 826.722 224.4C835.122 220.9 842.422 216.1 848.622 210C854.822 203.8 859.822 196.8 863.622 189C867.522 181.1 870.072 172.7 871.272 163.8H872.022V228H871.422L849.672 210.15C843.272 216.65 835.472 221.75 826.272 225.45C817.172 229.15 807.022 231 795.822 231ZM1107.22 2.99998V3.59999H1080.07V227.4H1107.22V228H1012.72V227.4H1040.92V117.3H952.722V227.4H980.922V228H886.422V227.4H913.272V3.59999H886.422V2.99998H980.922V3.59999H952.722V116.7H1040.92V3.59999H1012.72V2.99998H1107.22ZM1114.57 228V227.4H1147.42V3.59999H1114.57V2.99998H1222.87V3.59999H1186.87V227.4H1222.87V228H1114.57ZM1230.23 228V227.4H1257.08V3.59999H1230.23V2.99998H1323.38V3.59999H1296.53V227.4H1333.43C1344.83 227.4 1354.43 225.75 1362.23 222.45C1370.03 219.05 1376.38 214.35 1381.28 208.35C1386.18 202.25 1389.88 195.15 1392.38 187.05C1394.88 178.85 1396.43 170 1397.03 160.5H1397.63V228H1230.23ZM1405.94 228V227.4H1432.79V3.59999H1405.94V2.99998H1499.09V3.59999H1472.24V227.4H1509.14C1520.54 227.4 1530.14 225.75 1537.94 222.45C1545.74 219.05 1552.09 214.35 1556.99 208.35C1561.89 202.25 1565.59 195.15 1568.09 187.05C1570.59 178.85 1572.14 170 1572.74 160.5H1573.34V228H1405.94ZM1581.65 228V227.4H1614.5V3.59999H1581.65V2.99998H1689.95V3.59999H1653.95V227.4H1689.95V228H1581.65Z"/>
</mask>
<path d="M54.25 112.8H53.25V113.8H54.25V112.8ZM54.25 112.2V111.2H53.25V112.2H54.25ZM122.5 106.05L123.034 106.896L123.037 106.894L122.5 106.05ZM137.35 87.75L136.43 87.3588L136.426 87.3687L137.35 87.75ZM137.35 28.95L136.422 29.3234L136.426 29.333L137.35 28.95ZM122.5 10.2L121.939 11.0281L121.947 11.0331L121.954 11.0379L122.5 10.2ZM0.25 3.59999H-0.75V4.59999H0.25V3.59999ZM0.25 2.99998V1.99998H-0.75V2.99998H0.25ZM144.85 8.84999L144.541 9.80107L144.55 9.80405L144.85 8.84999ZM173.05 26.85L172.276 27.4828L172.284 27.493L173.05 26.85ZM173.65 90L172.869 89.3753L172.868 89.3765L173.65 90ZM146.2 107.4L146.49 108.357L146.495 108.356L146.2 107.4ZM0.25 228H-0.75V229H0.25V228ZM0.25 227.4V226.4H-0.75V227.4H0.25ZM101.95 227.4H102.95V226.4H101.95V227.4ZM101.95 228V229H102.95V228H101.95ZM31.3 227.7H30.3V228.7H31.3V227.7ZM31.3 3.3V2.3H30.3V3.3H31.3ZM70.75 3.3H71.75V2.3H70.75V3.3ZM70.75 227.7V228.7H71.75V227.7H70.75ZM153.7 225L153.179 225.853L153.186 225.857L153.7 225ZM141.85 211.8L140.937 212.208L140.94 212.214L141.85 211.8ZM137.05 193.05L136.055 193.15L136.055 193.151L137.05 193.05ZM135.85 171.45L134.85 171.463V171.464L135.85 171.45ZM134.8 149.85L133.804 149.935L133.804 149.937L134.8 149.85ZM130.45 131.1L129.525 131.48L129.527 131.486L130.45 131.1ZM119.2 117.75L118.657 118.59L118.664 118.594L119.2 117.75ZM54.25 112.8H53.25V113.8H54.25V112.8ZM54.25 112.2V111.2H53.25V112.2H54.25ZM167.35 135.15L166.49 135.661L166.494 135.666L167.35 135.15ZM175.3 157.65L174.31 157.795L174.312 157.807L175.3 157.65ZM177.25 182.4H176.25L176.25 182.412L177.25 182.4ZM177.7 205.05L176.7 205.079L176.7 205.079L177.7 205.05ZM180.85 221.55L181.761 221.138V221.138L180.85 221.55ZM200.8 226.8L201.035 227.772L201.046 227.769L201.058 227.766L200.8 226.8ZM208.45 224.1L209.157 223.393L208.658 222.893L208.02 223.197L208.45 224.1ZM208.75 224.4L209.226 225.279L210.405 224.641L209.457 223.693L208.75 224.4ZM196.75 228.15L196.96 229.128L196.75 228.15ZM55.25 112.8V112.2H53.25V112.8H55.25ZM54.25 113.2H98.35V111.2H54.25V113.2ZM98.35 113.2C108.092 113.2 116.338 111.119 123.034 106.896L121.966 105.204C115.662 109.181 107.808 111.2 98.35 111.2V113.2ZM123.037 106.894C129.829 102.571 134.905 96.3005 138.274 88.1313L136.426 87.3687C133.195 95.1995 128.371 101.129 121.963 105.206L123.037 106.894ZM138.27 88.1411C141.737 79.9844 143.45 70.0932 143.45 58.5H141.45C141.45 69.9068 139.763 79.5155 136.43 87.3589L138.27 88.1411ZM143.45 58.5C143.45 46.9056 141.737 36.9185 138.274 28.567L136.426 29.333C139.763 37.3815 141.45 47.0944 141.45 58.5H143.45ZM138.278 28.5767C134.911 20.2105 129.838 13.7876 123.046 9.36214L121.954 11.0379C128.362 15.2124 133.189 21.2895 136.422 29.3233L138.278 28.5767ZM123.061 9.37189C116.361 4.83703 108.105 2.59999 98.35 2.59999V4.59999C107.795 4.59999 115.639 6.76295 121.939 11.0281L123.061 9.37189ZM98.35 2.59999H0.25V4.59999H98.35V2.59999ZM1.25 3.59999V2.99998H-0.75V3.59999H1.25ZM0.25 3.99998H102.85V1.99998H0.25V3.99998ZM102.85 3.99998C118.772 3.99998 132.663 5.94081 144.541 9.80102L145.159 7.89896C133.037 3.95916 118.928 1.99998 102.85 1.99998V3.99998ZM144.55 9.80405C156.501 13.5573 165.722 19.4615 172.276 27.4827L173.824 26.2173C166.978 17.8384 157.399 11.7427 145.15 7.89593L144.55 9.80405ZM172.284 27.493C178.901 35.3743 182.25 45.6794 182.25 58.5H184.25C184.25 45.3206 180.799 34.5257 173.816 26.207L172.284 27.493ZM182.25 58.5C182.25 71.3351 179.093 81.5957 172.869 89.3753L174.431 90.6247C181.007 82.4043 184.25 71.6649 184.25 58.5H182.25ZM172.868 89.3765C166.721 97.0849 157.76 102.789 145.905 106.444L146.495 108.356C158.64 104.611 167.979 98.7151 174.432 90.6235L172.868 89.3765ZM145.91 106.443C134.132 110.006 119.785 111.8 102.85 111.8V113.8C119.915 113.8 134.468 111.994 146.49 108.357L145.91 106.443ZM102.85 111.8H54.25V113.8H102.85V111.8ZM1.25 228V227.4H-0.75V228H1.25ZM0.25 228.4H101.95V226.4H0.25V228.4ZM100.95 227.4V228H102.95V227.4H100.95ZM101.95 227H0.25V229H101.95V227ZM32.3 227.7V3.3H30.3V227.7H32.3ZM31.3 4.3H70.75V2.3H31.3V4.3ZM69.75 3.3V227.7H71.75V3.3H69.75ZM70.75 226.7H31.3V228.7H70.75V226.7ZM176.35 228.95C166.848 228.95 159.5 227.314 154.215 224.143L153.186 225.857C158.9 229.286 166.652 230.95 176.35 230.95V228.95ZM154.221 224.147C148.984 220.946 145.174 216.695 142.76 211.386L140.94 212.214C143.526 217.905 147.616 222.454 153.179 225.853L154.221 224.147ZM142.763 211.392C140.312 205.901 138.736 199.757 138.045 192.949L136.055 193.151C136.764 200.143 138.388 206.499 140.937 212.208L142.763 211.392ZM138.045 192.951C137.348 185.98 136.95 178.809 136.85 171.436L134.85 171.464C134.95 178.891 135.352 186.119 136.055 193.15L138.045 192.951ZM136.85 171.437C136.75 163.914 136.399 156.69 135.796 149.763L133.804 149.937C134.401 156.81 134.75 163.986 134.85 171.463L136.85 171.437ZM135.796 149.765C135.189 142.679 133.719 136.325 131.373 130.714L129.527 131.486C131.781 136.875 133.211 143.021 133.804 149.935L135.796 149.765ZM131.375 130.72C128.995 124.925 125.107 120.314 119.736 116.906L118.664 118.594C123.693 121.786 127.305 126.075 129.525 131.48L131.375 130.72ZM119.743 116.91C114.418 113.465 107.05 111.8 97.75 111.8V113.8C106.85 113.8 113.782 115.435 118.657 118.59L119.743 116.91ZM97.75 111.8H54.25V113.8H97.75V111.8ZM55.25 112.8V112.2H53.25V112.8H55.25ZM54.25 113.2H114.55V111.2H54.25V113.2ZM114.55 113.2C128.769 113.2 139.945 115.291 148.153 119.394L149.047 117.606C140.455 113.309 128.931 111.2 114.55 111.2V113.2ZM148.153 119.394C156.411 123.524 162.504 128.952 166.49 135.661L168.21 134.639C163.996 127.548 157.589 121.876 149.047 117.606L148.153 119.394ZM166.494 135.666C170.522 142.348 173.129 149.72 174.311 157.795L176.289 157.505C175.071 149.18 172.378 141.552 168.206 134.634L166.494 135.666ZM174.312 157.807C175.604 165.955 176.25 174.152 176.25 182.4H178.25C178.25 174.048 177.596 165.745 176.288 157.493L174.312 157.807ZM176.25 182.412C176.35 190.617 176.5 198.172 176.7 205.079L178.7 205.021C178.5 198.128 178.35 190.583 178.25 182.388L176.25 182.412ZM176.7 205.079C176.903 211.954 177.965 217.599 179.939 221.962L181.761 221.138C179.935 217.101 178.897 211.746 178.7 205.021L176.7 205.079ZM179.939 221.962C180.965 224.23 182.473 225.973 184.471 227.139C186.46 228.299 188.87 228.85 191.65 228.85V226.85C189.13 226.85 187.09 226.351 185.479 225.411C183.877 224.477 182.635 223.07 181.761 221.138L179.939 221.962ZM191.65 228.85C194.923 228.85 198.052 228.492 201.035 227.772L200.565 225.828C197.748 226.508 194.777 226.85 191.65 226.85V228.85ZM201.058 227.766C204.099 226.955 206.71 226.036 208.88 225.003L208.02 223.197C205.99 224.164 203.501 225.045 200.542 225.834L201.058 227.766ZM207.743 224.807L208.043 225.107L209.457 223.693L209.157 223.393L207.743 224.807ZM208.274 223.521C206.007 224.748 202.126 225.975 196.54 227.172L196.96 229.128C202.574 227.925 206.693 226.652 209.226 225.279L208.274 223.521ZM196.54 227.172C191.03 228.353 184.305 228.95 176.35 228.95V230.95C184.395 230.95 191.27 230.347 196.96 229.128L196.54 227.172ZM214.34 228H213.34V229H214.34V228ZM214.34 227.4V226.4H213.34V227.4H214.34ZM241.19 227.4V228.4H242.19V227.4H241.19ZM241.19 3.59999H242.19V2.59999H241.19V3.59999ZM214.34 3.59999H213.34V4.59999H214.34V3.59999ZM214.34 2.99998V1.99998H213.34V2.99998H214.34ZM379.79 2.99998H380.79V1.99998H379.79V2.99998ZM379.79 64.5V65.5H380.79V64.5H379.79ZM379.34 64.5L378.343 64.5838L378.42 65.5H379.34V64.5ZM370.94 34.65L370.043 35.0934L370.049 35.1049L370.94 34.65ZM351.59 12.15L351.019 12.9711L351.024 12.9743L351.59 12.15ZM280.64 3.59999V2.59999H279.64V3.59999H280.64ZM280.64 227.4H279.64V228.4H280.64V227.4ZM352.79 218.7L353.332 219.541L353.334 219.539L352.79 218.7ZM373.64 194.7L372.74 194.263L372.737 194.271L373.64 194.7ZM382.34 160.5V159.5H381.408L381.342 160.429L382.34 160.5ZM382.94 160.5H383.94V159.5H382.94V160.5ZM382.94 228V229H383.94V228H382.94ZM331.04 147.3L330.049 147.433L330.165 148.3H331.04V147.3ZM324.14 129.3L323.315 129.865L323.32 129.872L324.14 129.3ZM310.64 116.55L311.145 115.687L310.64 116.55ZM268.19 111.9H267.19V112.9H268.19V111.9ZM268.19 111.3V110.3H267.19V111.3H268.19ZM310.64 107.1L311.107 107.984L311.113 107.981L311.12 107.977L310.64 107.1ZM331.04 77.4V76.4H330.165L330.049 77.2669L331.04 77.4ZM331.64 77.4H332.64V76.4H331.64V77.4ZM331.64 147.3V148.3H332.64V147.3H331.64ZM215.34 228V227.4H213.34V228H215.34ZM214.34 228.4H241.19V226.4H214.34V228.4ZM242.19 227.4V3.59999H240.19V227.4H242.19ZM241.19 2.59999H214.34V4.59999H241.19V2.59999ZM215.34 3.59999V2.99998H213.34V3.59999H215.34ZM214.34 3.99998H379.79V1.99998H214.34V3.99998ZM378.79 2.99998V64.5H380.79V2.99998H378.79ZM379.79 63.5H379.34V65.5H379.79V63.5ZM380.336 64.4162C379.426 53.5919 376.592 43.5153 371.83 34.1951L370.049 35.1049C374.688 44.1847 377.454 54.008 378.343 64.5838L380.336 64.4162ZM371.836 34.2066C367.163 24.7584 360.601 17.1254 352.156 11.3257L351.024 12.9743C359.179 18.5746 365.517 25.9416 370.043 35.0934L371.836 34.2066ZM352.161 11.3289C343.766 5.49345 333.608 2.59999 321.74 2.59999V4.59999C333.272 4.59999 343.014 7.40653 351.019 12.9711L352.161 11.3289ZM321.74 2.59999H280.64V4.59999H321.74V2.59999ZM279.64 3.59999V227.4H281.64V3.59999H279.64ZM280.64 228.4H318.74V226.4H280.64V228.4ZM318.74 228.4C332.579 228.4 344.13 225.47 353.332 219.541L352.248 217.859C343.449 223.53 332.301 226.4 318.74 226.4V228.4ZM353.334 219.539C362.594 213.535 369.666 205.391 374.543 195.129L372.737 194.271C368.014 204.209 361.185 212.065 352.246 217.861L353.334 219.539ZM374.54 195.136C379.502 184.908 382.43 173.381 383.337 160.571L381.342 160.429C380.45 173.019 377.578 184.292 372.74 194.264L374.54 195.136ZM382.34 161.5H382.94V159.5H382.34V161.5ZM381.94 160.5V228H383.94V160.5H381.94ZM382.94 227H214.34V229H382.94V227ZM332.031 147.167C331.111 140.316 328.755 134.164 324.96 128.728L323.32 129.872C326.924 135.036 329.169 140.884 330.049 147.433L332.031 147.167ZM324.965 128.735C321.187 123.221 316.58 118.866 311.145 115.687L310.135 117.413C315.299 120.434 319.693 124.579 323.315 129.865L324.965 128.735ZM311.145 115.687C305.704 112.504 300.031 110.9 294.14 110.9V112.9C299.649 112.9 304.976 114.396 310.135 117.413L311.145 115.687ZM294.14 110.9H268.19V112.9H294.14V110.9ZM269.19 111.9V111.3H267.19V111.9H269.19ZM268.19 112.3H294.14V110.3H268.19V112.3ZM294.14 112.3C300.011 112.3 305.671 110.856 311.107 107.984L310.173 106.216C305.009 108.944 299.669 110.3 294.14 110.3V112.3ZM311.12 107.977C316.555 105.003 321.166 100.902 324.949 95.6872L323.33 94.5128C319.714 99.4982 315.324 103.397 310.16 106.223L311.12 107.977ZM324.949 95.6872C328.754 90.4435 331.111 84.3849 332.031 77.5331L330.049 77.2669C329.169 83.8151 326.926 89.5565 323.33 94.5128L324.949 95.6872ZM331.04 78.4H331.64V76.4H331.04V78.4ZM330.64 77.4V147.3H332.64V77.4H330.64ZM331.64 146.3H331.04V148.3H331.64V146.3ZM544.609 17.4L544.109 18.2657L544.111 18.267L544.609 17.4ZM583.159 57.3L582.276 57.7679L582.277 57.7701L583.159 57.3ZM588.559 160.8L589.49 161.167L589.491 161.164L588.559 160.8ZM565.609 196.5L564.895 195.8L564.895 195.8L565.609 196.5ZM530.359 219.75L529.987 218.822L529.984 218.823L530.359 219.75ZM393.859 228H392.859V229H393.859V228ZM393.859 227.4V226.4H392.859V227.4H393.859ZM420.709 227.4V228.4H421.709V227.4H420.709ZM420.709 3.59999H421.709V2.59999H420.709V3.59999ZM393.859 3.59999H392.859V4.59999H393.859V3.59999ZM393.859 2.99998V1.99998H392.859V2.99998H393.859ZM460.159 227.4H459.159V228.4H460.159V227.4ZM516.259 218.1L515.67 217.292L515.666 217.295L516.259 218.1ZM536.659 193.05L535.762 192.61L535.76 192.613L536.659 193.05ZM547.759 157.05L546.774 156.881L546.773 156.888L547.759 157.05ZM547.309 73.95L546.326 74.1334L546.328 74.1418L547.309 73.95ZM535.609 38.1L534.715 38.5472L534.717 38.5506L535.609 38.1ZM515.059 12.9L514.461 13.7012L514.466 13.7046L515.059 12.9ZM460.159 3.59999V2.59999H459.159V3.59999H460.159ZM484.909 3.99998C507.97 3.99998 527.69 8.77042 544.109 18.2657L545.11 16.5343C528.329 6.82955 508.248 1.99998 484.909 1.99998V3.99998ZM544.111 18.267C560.648 27.7731 573.364 40.9348 582.276 57.7679L584.043 56.8321C574.955 39.6651 561.971 26.2269 545.108 16.533L544.111 18.267ZM582.277 57.7701C591.189 74.5057 595.659 93.7401 595.659 115.5H597.659C597.659 93.4598 593.13 73.8943 584.042 56.83L582.277 57.7701ZM595.659 115.5C595.659 131.789 592.978 146.763 587.628 160.436L589.491 161.164C594.941 147.237 597.659 132.011 597.659 115.5H595.659ZM587.629 160.433C582.276 174.014 574.698 185.799 564.895 195.8L566.324 197.2C576.321 187.001 584.043 174.986 589.49 161.167L587.629 160.433ZM564.895 195.8C555.197 205.696 543.565 213.371 529.987 218.822L530.732 220.678C544.553 215.129 556.422 207.304 566.324 197.2L564.895 195.8ZM529.984 218.823C516.519 224.269 501.499 227 484.909 227V229C501.72 229 517 226.231 530.734 220.677L529.984 218.823ZM484.909 227H393.859V229H484.909V227ZM394.859 228V227.4H392.859V228H394.859ZM393.859 228.4H420.709V226.4H393.859V228.4ZM421.709 227.4V3.59999H419.709V227.4H421.709ZM420.709 2.59999H393.859V4.59999H420.709V2.59999ZM394.859 3.59999V2.99998H392.859V3.59999H394.859ZM393.859 3.99998H484.909V1.99998H393.859V3.99998ZM460.159 228.4H484.909V226.4H460.159V228.4ZM484.909 228.4C497.58 228.4 508.249 225.255 516.853 218.905L515.666 217.295C507.469 223.345 497.239 226.4 484.909 226.4V228.4ZM516.849 218.908C525.495 212.601 532.395 204.118 537.559 193.487L535.76 192.613C530.723 202.982 524.024 211.199 515.67 217.292L516.849 218.908ZM537.557 193.49C542.806 182.79 546.533 170.694 548.746 157.212L546.773 156.888C544.586 170.206 540.913 182.11 535.762 192.61L537.557 193.49ZM548.745 157.219C551.055 143.76 552.209 129.803 552.209 115.35H550.209C550.209 129.697 549.064 143.54 546.774 156.881L548.745 157.219ZM552.209 115.35C552.209 100.989 550.904 87.1247 548.291 73.7581L546.328 74.1418C548.915 87.3753 550.209 101.111 550.209 115.35H552.209ZM548.292 73.7666C545.778 60.2881 541.851 48.2459 536.502 37.6494L534.717 38.5506C539.968 48.9541 543.841 60.8119 546.326 74.1334L548.292 73.7666ZM536.504 37.6528C531.143 26.9308 524.196 18.4011 515.653 12.0954L514.466 13.7046C522.722 19.7988 529.476 28.0692 534.715 38.5472L536.504 37.6528ZM515.658 12.0988C507.161 5.75218 496.894 2.59999 484.909 2.59999V4.59999C496.525 4.59999 506.357 7.6478 514.461 13.7012L515.658 12.0988ZM484.909 2.59999H460.159V4.59999H484.909V2.59999ZM459.159 3.59999V227.4H461.159V3.59999H459.159ZM739.872 216.15L739.337 216.995L739.341 216.997L739.872 216.15ZM703.122 175.05L702.225 175.493L702.227 175.497L703.122 175.05ZM703.122 55.95L702.227 55.5028L702.225 55.5069L703.122 55.95ZM739.872 15L740.403 15.8474L740.407 15.845L739.872 15ZM844.722 19.2L844.032 19.9241L844.618 20.4822L845.286 20.0256L844.722 19.2ZM868.422 2.99998V1.99998H868.113L867.858 2.17442L868.422 2.99998ZM869.022 2.99998H870.022V1.99998H869.022V2.99998ZM869.022 67.2V68.2H870.022V67.2H869.022ZM868.272 67.2L867.284 67.3556L867.417 68.2H868.272V67.2ZM855.222 33.3L856.05 32.7395L855.222 33.3ZM830.472 10.05L829.965 10.9122L829.976 10.9182L830.472 10.05ZM768.672 11.55L769.304 12.3252L769.305 12.3244L768.672 11.55ZM749.172 38.1L748.257 37.6962L748.255 37.7001L749.172 38.1ZM738.672 74.85L737.685 74.6891L737.684 74.6952L738.672 74.85ZM738.672 156.15L737.684 156.304L737.685 156.311L738.672 156.15ZM749.172 193.05L748.254 193.447L748.258 193.457L749.172 193.05ZM768.672 219.6L768.034 220.371L768.045 220.379L768.672 219.6ZM826.722 224.4L827.101 225.325L827.107 225.323L826.722 224.4ZM848.622 210L849.323 210.713L849.329 210.707L848.622 210ZM863.622 189L862.725 188.557L862.723 188.562L863.622 189ZM871.272 163.8V162.8H870.398L870.281 163.666L871.272 163.8ZM872.022 163.8H873.022V162.8H872.022V163.8ZM872.022 228V229H873.022V228H872.022ZM871.422 228L870.787 228.773L871.064 229H871.422V228ZM849.672 210.15L850.306 209.377L849.6 208.798L848.959 209.448L849.672 210.15ZM826.272 225.45L825.899 224.522L825.895 224.524L826.272 225.45ZM795.822 230C774.48 230 756.021 225.088 740.403 215.303L739.341 216.997C755.323 227.012 774.163 232 795.822 232V230ZM740.407 215.305C724.767 205.406 712.638 191.847 704.016 174.603L702.227 175.497C711.005 193.053 723.377 206.894 739.337 216.995L740.407 215.305ZM704.018 174.607C695.496 157.364 691.222 137.669 691.222 115.5H689.222C689.222 137.931 693.548 157.936 702.225 175.493L704.018 174.607ZM691.222 115.5C691.222 93.3307 695.496 73.6361 704.018 56.3931L702.225 55.5069C693.548 73.0639 689.222 93.0692 689.222 115.5H691.222ZM704.016 56.3972C712.638 39.154 724.765 25.6456 740.403 15.8474L739.341 14.1526C723.378 24.1544 711.006 37.946 702.227 55.5028L704.016 56.3972ZM740.407 15.845C756.024 5.9607 774.482 0.999985 795.822 0.999985V-1.00002C774.162 -1.00002 755.32 4.03927 739.337 14.155L740.407 15.845ZM795.822 0.999985C805.403 0.999985 814.273 2.67853 822.443 6.02536L823.201 4.17462C814.771 0.721443 805.641 -1.00002 795.822 -1.00002V0.999985ZM822.443 6.02536C830.631 9.37968 837.825 14.0126 844.032 19.9241L845.412 18.4758C839.019 12.3874 831.612 7.62031 823.201 4.17462L822.443 6.02536ZM845.286 20.0256L868.986 3.82555L867.858 2.17442L844.158 18.3744L845.286 20.0256ZM868.422 3.99998H869.022V1.99998H868.422V3.99998ZM868.022 2.99998V67.2H870.022V2.99998H868.022ZM869.022 66.2H868.272V68.2H869.022V66.2ZM869.26 67.0444C867.239 54.2105 862.838 42.7701 856.05 32.7395L854.394 33.8605C861.005 43.6299 865.305 54.7895 867.284 67.3556L869.26 67.0444ZM856.05 32.7395C849.27 22.7206 840.909 14.8621 830.968 9.18175L829.976 10.9182C839.635 16.4379 847.774 24.0794 854.394 33.8605L856.05 32.7395ZM830.979 9.18783C821.123 3.39632 810.398 0.499985 798.822 0.499985V2.49998C810.046 2.49998 820.421 5.30365 829.965 10.9122L830.979 9.18783ZM798.822 0.499985C786.722 0.499985 776.44 3.91162 768.039 10.7756L769.305 12.3244C777.304 5.78835 787.122 2.49998 798.822 2.49998V0.499985ZM768.04 10.7747C759.799 17.4894 753.211 26.4751 748.257 37.6962L750.087 38.5038C754.933 27.5249 761.344 18.8106 769.304 12.3252L768.04 10.7747ZM748.255 37.7001C743.418 48.7863 739.896 61.1181 737.685 74.6891L739.659 75.0108C741.847 61.5819 745.326 49.4137 750.088 38.4999L748.255 37.7001ZM737.684 74.6952C735.576 88.1469 734.522 101.749 734.522 115.5H736.522C736.522 101.851 737.568 88.3531 739.66 75.0048L737.684 74.6952ZM734.522 115.5C734.522 129.152 735.576 142.753 737.684 156.304L739.66 155.996C737.568 142.547 736.522 129.048 736.522 115.5H734.522ZM737.685 156.311C739.896 169.882 743.417 182.262 748.254 193.447L750.09 192.653C745.326 181.638 741.847 169.418 739.659 155.989L737.685 156.311ZM748.258 193.457C753.212 204.577 759.799 213.559 768.034 220.371L769.309 218.829C761.344 212.241 754.932 203.523 750.085 192.643L748.258 193.457ZM768.045 220.379C776.446 227.141 786.725 230.5 798.822 230.5V228.5C787.119 228.5 777.298 225.259 769.299 218.821L768.045 220.379ZM798.822 230.5C809.233 230.5 818.664 228.781 827.101 225.325L826.343 223.475C818.18 226.819 809.011 228.5 798.822 228.5V230.5ZM827.107 225.323C835.619 221.776 843.028 216.907 849.323 210.713L847.921 209.287C841.816 215.293 834.625 220.024 826.337 223.477L827.107 225.323ZM849.329 210.707C855.607 204.43 860.672 197.339 864.521 189.438L862.723 188.562C858.972 196.261 854.037 203.171 847.915 209.293L849.329 210.707ZM864.519 189.443C868.467 181.444 871.049 172.939 872.263 163.934L870.281 163.666C869.095 172.461 866.576 180.756 862.725 188.557L864.519 189.443ZM871.272 164.8H872.022V162.8H871.272V164.8ZM871.022 163.8V228H873.022V163.8H871.022ZM872.022 227H871.422V229H872.022V227ZM872.056 227.227L850.306 209.377L849.037 210.923L870.787 228.773L872.056 227.227ZM848.959 209.448C842.664 215.842 834.982 220.869 825.899 224.522L826.645 226.378C835.961 222.631 843.88 217.458 850.384 210.852L848.959 209.448ZM825.895 224.524C816.93 228.169 806.911 230 795.822 230V232C807.133 232 817.413 230.131 826.648 226.376L825.895 224.524ZM1107.22 2.99998H1108.22V1.99998H1107.22V2.99998ZM1107.22 3.59999V4.59999H1108.22V3.59999H1107.22ZM1080.07 3.59999V2.59999H1079.07V3.59999H1080.07ZM1080.07 227.4H1079.07V228.4H1080.07V227.4ZM1107.22 227.4H1108.22V226.4H1107.22V227.4ZM1107.22 228V229H1108.22V228H1107.22ZM1012.72 228H1011.72V229H1012.72V228ZM1012.72 227.4V226.4H1011.72V227.4H1012.72ZM1040.92 227.4V228.4H1041.92V227.4H1040.92ZM1040.92 117.3H1041.92V116.3H1040.92V117.3ZM952.722 117.3V116.3H951.722V117.3H952.722ZM952.722 227.4H951.722V228.4H952.722V227.4ZM980.922 227.4H981.922V226.4H980.922V227.4ZM980.922 228V229H981.922V228H980.922ZM886.422 228H885.422V229H886.422V228ZM886.422 227.4V226.4H885.422V227.4H886.422ZM913.272 227.4V228.4H914.272V227.4H913.272ZM913.272 3.59999H914.272V2.59999H913.272V3.59999ZM886.422 3.59999H885.422V4.59999H886.422V3.59999ZM886.422 2.99998V1.99998H885.422V2.99998H886.422ZM980.922 2.99998H981.922V1.99998H980.922V2.99998ZM980.922 3.59999V4.59999H981.922V3.59999H980.922ZM952.722 3.59999V2.59999H951.722V3.59999H952.722ZM952.722 116.7H951.722V117.7H952.722V116.7ZM1040.92 116.7V117.7H1041.92V116.7H1040.92ZM1040.92 3.59999H1041.92V2.59999H1040.92V3.59999ZM1012.72 3.59999H1011.72V4.59999H1012.72V3.59999ZM1012.72 2.99998V1.99998H1011.72V2.99998H1012.72ZM1106.22 2.99998V3.59999H1108.22V2.99998H1106.22ZM1107.22 2.59999H1080.07V4.59999H1107.22V2.59999ZM1079.07 3.59999V227.4H1081.07V3.59999H1079.07ZM1080.07 228.4H1107.22V226.4H1080.07V228.4ZM1106.22 227.4V228H1108.22V227.4H1106.22ZM1107.22 227H1012.72V229H1107.22V227ZM1013.72 228V227.4H1011.72V228H1013.72ZM1012.72 228.4H1040.92V226.4H1012.72V228.4ZM1041.92 227.4V117.3H1039.92V227.4H1041.92ZM1040.92 116.3H952.722V118.3H1040.92V116.3ZM951.722 117.3V227.4H953.722V117.3H951.722ZM952.722 228.4H980.922V226.4H952.722V228.4ZM979.922 227.4V228H981.922V227.4H979.922ZM980.922 227H886.422V229H980.922V227ZM887.422 228V227.4H885.422V228H887.422ZM886.422 228.4H913.272V226.4H886.422V228.4ZM914.272 227.4V3.59999H912.272V227.4H914.272ZM913.272 2.59999H886.422V4.59999H913.272V2.59999ZM887.422 3.59999V2.99998H885.422V3.59999H887.422ZM886.422 3.99998H980.922V1.99998H886.422V3.99998ZM979.922 2.99998V3.59999H981.922V2.99998H979.922ZM980.922 2.59999H952.722V4.59999H980.922V2.59999ZM951.722 3.59999V116.7H953.722V3.59999H951.722ZM952.722 117.7H1040.92V115.7H952.722V117.7ZM1041.92 116.7V3.59999H1039.92V116.7H1041.92ZM1040.92 2.59999H1012.72V4.59999H1040.92V2.59999ZM1013.72 3.59999V2.99998H1011.72V3.59999H1013.72ZM1012.72 3.99998H1107.22V1.99998H1012.72V3.99998ZM1114.57 228H1113.57V229H1114.57V228ZM1114.57 227.4V226.4H1113.57V227.4H1114.57ZM1147.42 227.4V228.4H1148.42V227.4H1147.42ZM1147.42 3.59999H1148.42V2.59999H1147.42V3.59999ZM1114.57 3.59999H1113.57V4.59999H1114.57V3.59999ZM1114.57 2.99998V1.99998H1113.57V2.99998H1114.57ZM1222.87 2.99998H1223.87V1.99998H1222.87V2.99998ZM1222.87 3.59999V4.59999H1223.87V3.59999H1222.87ZM1186.87 3.59999V2.59999H1185.87V3.59999H1186.87ZM1186.87 227.4H1185.87V228.4H1186.87V227.4ZM1222.87 227.4H1223.87V226.4H1222.87V227.4ZM1222.87 228V229H1223.87V228H1222.87ZM1115.57 228V227.4H1113.57V228H1115.57ZM1114.57 228.4H1147.42V226.4H1114.57V228.4ZM1148.42 227.4V3.59999H1146.42V227.4H1148.42ZM1147.42 2.59999H1114.57V4.59999H1147.42V2.59999ZM1115.57 3.59999V2.99998H1113.57V3.59999H1115.57ZM1114.57 3.99998H1222.87V1.99998H1114.57V3.99998ZM1221.87 2.99998V3.59999H1223.87V2.99998H1221.87ZM1222.87 2.59999H1186.87V4.59999H1222.87V2.59999ZM1185.87 3.59999V227.4H1187.87V3.59999H1185.87ZM1186.87 228.4H1222.87V226.4H1186.87V228.4ZM1221.87 227.4V228H1223.87V227.4H1221.87ZM1222.87 227H1114.57V229H1222.87V227ZM1230.23 228H1229.23V229H1230.23V228ZM1230.23 227.4V226.4H1229.23V227.4H1230.23ZM1257.08 227.4V228.4H1258.08V227.4H1257.08ZM1257.08 3.59999H1258.08V2.59999H1257.08V3.59999ZM1230.23 3.59999H1229.23V4.59999H1230.23V3.59999ZM1230.23 2.99998V1.99998H1229.23V2.99998H1230.23ZM1323.38 2.99998H1324.38V1.99998H1323.38V2.99998ZM1323.38 3.59999V4.59999H1324.38V3.59999H1323.38ZM1296.53 3.59999V2.59999H1295.53V3.59999H1296.53ZM1296.53 227.4H1295.53V228.4H1296.53V227.4ZM1362.23 222.45L1362.62 223.371L1362.63 223.367L1362.23 222.45ZM1381.28 208.35L1382.05 208.983L1382.06 208.976L1381.28 208.35ZM1392.38 187.05L1393.33 187.345L1393.33 187.342L1392.38 187.05ZM1397.03 160.5V159.5H1396.09L1396.03 160.437L1397.03 160.5ZM1397.63 160.5H1398.63V159.5H1397.63V160.5ZM1397.63 228V229H1398.63V228H1397.63ZM1231.23 228V227.4H1229.23V228H1231.23ZM1230.23 228.4H1257.08V226.4H1230.23V228.4ZM1258.08 227.4V3.59999H1256.08V227.4H1258.08ZM1257.08 2.59999H1230.23V4.59999H1257.08V2.59999ZM1231.23 3.59999V2.99998H1229.23V3.59999H1231.23ZM1230.23 3.99998H1323.38V1.99998H1230.23V3.99998ZM1322.38 2.99998V3.59999H1324.38V2.99998H1322.38ZM1323.38 2.59999H1296.53V4.59999H1323.38V2.59999ZM1295.53 3.59999V227.4H1297.53V3.59999H1295.53ZM1296.53 228.4H1333.43V226.4H1296.53V228.4ZM1333.43 228.4C1344.92 228.4 1354.66 226.738 1362.62 223.371L1361.84 221.529C1354.19 224.762 1344.74 226.4 1333.43 226.4V228.4ZM1362.63 223.367C1370.56 219.91 1377.04 215.117 1382.05 208.983L1380.5 207.717C1375.71 213.582 1369.5 218.19 1361.83 221.533L1362.63 223.367ZM1382.06 208.976C1387.04 202.77 1390.8 195.555 1393.33 187.345L1391.42 186.755C1388.96 194.745 1385.31 201.73 1380.5 207.724L1382.06 208.976ZM1393.33 187.342C1395.86 179.06 1397.42 170.132 1398.02 160.563L1396.03 160.437C1395.43 169.868 1393.9 178.64 1391.42 186.758L1393.33 187.342ZM1397.03 161.5H1397.63V159.5H1397.03V161.5ZM1396.63 160.5V228H1398.63V160.5H1396.63ZM1397.63 227H1230.23V229H1397.63V227ZM1405.94 228H1404.94V229H1405.94V228ZM1405.94 227.4V226.4H1404.94V227.4H1405.94ZM1432.79 227.4V228.4H1433.79V227.4H1432.79ZM1432.79 3.59999H1433.79V2.59999H1432.79V3.59999ZM1405.94 3.59999H1404.94V4.59999H1405.94V3.59999ZM1405.94 2.99998V1.99998H1404.94V2.99998H1405.94ZM1499.09 2.99998H1500.09V1.99998H1499.09V2.99998ZM1499.09 3.59999V4.59999H1500.09V3.59999H1499.09ZM1472.24 3.59999V2.59999H1471.24V3.59999H1472.24ZM1472.24 227.4H1471.24V228.4H1472.24V227.4ZM1537.94 222.45L1538.33 223.371L1538.34 223.367L1537.94 222.45ZM1556.99 208.35L1557.76 208.983L1557.77 208.976L1556.99 208.35ZM1568.09 187.05L1569.04 187.345L1569.04 187.342L1568.09 187.05ZM1572.74 160.5V159.5H1571.8L1571.74 160.437L1572.74 160.5ZM1573.34 160.5H1574.34V159.5H1573.34V160.5ZM1573.34 228V229H1574.34V228H1573.34ZM1406.94 228V227.4H1404.94V228H1406.94ZM1405.94 228.4H1432.79V226.4H1405.94V228.4ZM1433.79 227.4V3.59999H1431.79V227.4H1433.79ZM1432.79 2.59999H1405.94V4.59999H1432.79V2.59999ZM1406.94 3.59999V2.99998H1404.94V3.59999H1406.94ZM1405.94 3.99998H1499.09V1.99998H1405.94V3.99998ZM1498.09 2.99998V3.59999H1500.09V2.99998H1498.09ZM1499.09 2.59999H1472.24V4.59999H1499.09V2.59999ZM1471.24 3.59999V227.4H1473.24V3.59999H1471.24ZM1472.24 228.4H1509.14V226.4H1472.24V228.4ZM1509.14 228.4C1520.63 228.4 1530.37 226.738 1538.33 223.371L1537.55 221.529C1529.91 224.762 1520.45 226.4 1509.14 226.4V228.4ZM1538.34 223.367C1546.27 219.91 1552.75 215.117 1557.76 208.983L1556.21 207.717C1551.42 213.582 1545.21 218.19 1537.54 221.533L1538.34 223.367ZM1557.77 208.976C1562.75 202.77 1566.51 195.555 1569.04 187.345L1567.13 186.755C1564.67 194.745 1561.02 201.73 1556.21 207.724L1557.77 208.976ZM1569.04 187.342C1571.57 179.06 1573.13 170.132 1573.74 160.563L1571.74 160.437C1571.14 169.868 1569.61 178.64 1567.13 186.758L1569.04 187.342ZM1572.74 161.5H1573.34V159.5H1572.74V161.5ZM1572.34 160.5V228H1574.34V160.5H1572.34ZM1573.34 227H1405.94V229H1573.34V227ZM1581.65 228H1580.65V229H1581.65V228ZM1581.65 227.4V226.4H1580.65V227.4H1581.65ZM1614.5 227.4V228.4H1615.5V227.4H1614.5ZM1614.5 3.59999H1615.5V2.59999H1614.5V3.59999ZM1581.65 3.59999H1580.65V4.59999H1581.65V3.59999ZM1581.65 2.99998V1.99998H1580.65V2.99998H1581.65ZM1689.95 2.99998H1690.95V1.99998H1689.95V2.99998ZM1689.95 3.59999V4.59999H1690.95V3.59999H1689.95ZM1653.95 3.59999V2.59999H1652.95V3.59999H1653.95ZM1653.95 227.4H1652.95V228.4H1653.95V227.4ZM1689.95 227.4H1690.95V226.4H1689.95V227.4ZM1689.95 228V229H1690.95V228H1689.95ZM1582.65 228V227.4H1580.65V228H1582.65ZM1581.65 228.4H1614.5V226.4H1581.65V228.4ZM1615.5 227.4V3.59999H1613.5V227.4H1615.5ZM1614.5 2.59999H1581.65V4.59999H1614.5V2.59999ZM1582.65 3.59999V2.99998H1580.65V3.59999H1582.65ZM1581.65 3.99998H1689.95V1.99998H1581.65V3.99998ZM1688.95 2.99998V3.59999H1690.95V2.99998H1688.95ZM1689.95 2.59999H1653.95V4.59999H1689.95V2.59999ZM1652.95 3.59999V227.4H1654.95V3.59999H1652.95ZM1653.95 228.4H1689.95V226.4H1653.95V228.4ZM1688.95 227.4V228H1690.95V227.4H1688.95ZM1689.95 227H1581.65V229H1689.95V227Z" fill="#4BA040" mask="url(#path-1-outside-1_168_135)"/>
</g>
</svg>
