<svg width="1240" height="171" viewBox="0 0 1240 171" fill="none" xmlns="http://www.w3.org/2000/svg">
<path d="M40.45 83.52V83.08H72.79C79.83 83.08 85.7333 81.5767 90.5 78.57C95.34 75.49 98.97 71.0167 101.39 65.15C103.883 59.2833 105.13 52.1333 105.13 43.7C105.13 35.2667 103.883 28.0433 101.39 22.03C98.97 16.0167 95.34 11.4333 90.5 8.28C85.7333 5.05333 79.83 3.43999 72.79 3.43999H0.85V2.99999H76.09C87.8233 2.99999 98.09 4.42999 106.89 7.28999C115.763 10.0767 122.657 14.4767 127.57 20.49C132.557 26.43 135.05 34.1667 135.05 43.7C135.05 53.2333 132.703 60.9333 128.01 66.8C123.39 72.5933 116.68 76.8467 107.88 79.56C99.1533 82.2 88.5567 83.52 76.09 83.52H40.45ZM0.85 168V167.56H75.43V168H0.85ZM23.62 167.78V3.22H52.55V167.78H23.62ZM129.99 169.43C122.95 169.43 117.413 168.22 113.38 165.8C109.42 163.38 106.523 160.153 104.69 156.12C102.857 152.013 101.683 147.43 101.17 142.37C100.657 137.237 100.363 131.957 100.29 126.53C100.217 121.03 99.96 115.75 99.52 110.69C99.08 105.557 98.0167 100.973 96.33 96.94C94.6433 92.8333 91.8933 89.57 88.08 87.15C84.34 84.73 79.0967 83.52 72.35 83.52H40.45V83.08H84.67C95.1567 83.08 103.48 84.62 109.64 87.7C115.8 90.78 120.383 94.85 123.39 99.91C126.397 104.897 128.34 110.397 129.22 116.41C130.173 122.423 130.65 128.473 130.65 134.56C130.723 140.573 130.833 146.11 130.98 151.17C131.127 156.157 131.897 160.19 133.29 163.27C134.683 166.35 137.323 167.89 141.21 167.89C143.557 167.89 145.793 167.633 147.92 167.12C150.12 166.533 151.99 165.873 153.53 165.14L153.75 165.36C151.99 166.313 149.057 167.23 144.95 168.11C140.843 168.99 135.857 169.43 129.99 169.43ZM157.849 168V167.56H177.539V3.43999H157.849V2.99999H279.179V48.1H278.849C278.189 40.2533 276.136 32.9567 272.689 26.21C269.316 19.39 264.586 13.89 258.499 9.71C252.486 5.53 245.189 3.43999 236.609 3.43999H206.469V167.56H234.409C244.456 167.56 252.779 165.433 259.379 161.18C266.053 156.853 271.149 150.987 274.669 143.58C278.263 136.173 280.389 127.813 281.049 118.5H281.489V168H157.849ZM243.429 108.82C242.769 103.907 241.083 99.5067 238.369 95.62C235.656 91.66 232.356 88.5433 228.469 86.27C224.583 83.9967 220.549 82.86 216.369 82.86H197.339V82.42H216.369C220.549 82.42 224.583 81.3933 228.469 79.34C232.356 77.2133 235.656 74.28 238.369 70.54C241.083 66.8 242.769 62.4733 243.429 57.56H243.869V108.82H243.429ZM356.267 2.99999C373.28 2.99999 387.874 6.51999 400.047 13.56C412.294 20.6 421.717 30.3533 428.317 42.82C434.917 55.2133 438.217 69.44 438.217 85.5C438.217 97.5267 436.237 108.6 432.277 118.72C428.317 128.767 422.707 137.493 415.447 144.9C408.26 152.233 399.644 157.917 389.597 161.95C379.624 165.983 368.514 168 356.267 168H289.497V167.56H309.187V3.43999H289.497V2.99999H356.267ZM338.117 167.56H356.267C365.434 167.56 373.097 165.287 379.257 160.74C385.49 156.193 390.477 150.07 394.217 142.37C398.03 134.597 400.744 125.797 402.357 115.97C404.044 106.143 404.887 95.95 404.887 85.39C404.887 74.9033 403.934 64.7833 402.027 55.03C400.194 45.2033 397.334 36.44 393.447 28.74C389.56 20.9667 384.537 14.8067 378.377 10.26C372.29 5.71333 364.92 3.43999 356.267 3.43999H338.117V167.56ZM584.269 170.2C568.503 170.2 554.826 166.57 543.239 159.31C531.653 151.977 522.669 141.93 516.289 129.17C509.983 116.41 506.829 101.853 506.829 85.5C506.829 69.1467 509.983 54.59 516.289 41.83C522.669 29.07 531.653 19.06 543.239 11.8C554.826 4.46666 568.503 0.799989 584.269 0.799989C591.383 0.799989 597.983 2.04666 604.069 4.53999C610.156 7.03333 615.509 10.48 620.129 14.88L637.509 2.99999H637.949V50.08H637.399C635.933 40.7667 632.743 32.48 627.829 25.22C622.916 17.96 616.866 12.2767 609.679 8.16999C602.566 3.98999 594.829 1.89999 586.469 1.89999C577.743 1.89999 570.373 4.35666 564.359 9.26999C558.419 14.11 553.653 20.6 550.059 28.74C546.539 36.8067 543.973 45.79 542.359 55.69C540.819 65.5167 540.049 75.4533 540.049 85.5C540.049 95.4733 540.819 105.41 542.359 115.31C543.973 125.21 546.539 134.23 550.059 142.37C553.653 150.437 558.419 156.927 564.359 161.84C570.373 166.68 577.743 169.1 586.469 169.1C594.023 169.1 600.843 167.853 606.929 165.36C613.089 162.793 618.443 159.273 622.989 154.8C627.536 150.253 631.203 145.12 633.989 139.4C636.849 133.607 638.719 127.447 639.599 120.92H640.149V168H639.709L623.759 154.91C619.066 159.677 613.346 163.417 606.599 166.13C599.926 168.843 592.483 170.2 584.269 170.2ZM812.629 2.99999V3.43999H792.719V167.56H812.629V168H743.329V167.56H764.009V86.82H699.329V167.56H720.009V168H650.709V167.56H670.399V3.43999H650.709V2.99999H720.009V3.43999H699.329V86.38H764.009V3.43999H743.329V2.99999H812.629ZM818.021 168V167.56H842.111V3.43999H818.021V2.99999H897.441V3.43999H871.041V167.56H897.441V168H818.021ZM902.833 168V167.56H922.523V3.43999H902.833V2.99999H971.143V3.43999H951.453V167.56H978.513C986.873 167.56 993.913 166.35 999.633 163.93C1005.35 161.437 1010.01 157.99 1013.6 153.59C1017.2 149.117 1019.91 143.91 1021.74 137.97C1023.58 131.957 1024.71 125.467 1025.15 118.5H1025.59V168H902.833ZM1031.69 168V167.56H1051.38V3.43999H1031.69V2.99999H1100V3.43999H1080.31V167.56H1107.37C1115.73 167.56 1122.77 166.35 1128.49 163.93C1134.21 161.437 1138.86 157.99 1142.46 153.59C1146.05 149.117 1148.76 143.91 1150.6 137.97C1152.43 131.957 1153.57 125.467 1154.01 118.5H1154.45V168H1031.69ZM1160.54 168V167.56H1184.63V3.43999H1160.54V2.99999H1239.96V3.43999H1213.56V167.56H1239.96V168H1160.54Z" fill="black"/>
</svg>
