<svg width="1070" height="308" viewBox="0 0 1070 308" fill="none" xmlns="http://www.w3.org/2000/svg">
<path d="M141.2 308C112.533 308 87.6667 301.4 66.6 288.2C45.5333 274.867 29.2 256.6 17.6 233.4C6.13333 210.2 0.4 183.733 0.4 154C0.4 124.267 6.13333 97.8 17.6 74.6C29.2 51.4 45.5333 33.2 66.6 20C87.6667 6.66665 112.533 -2.00272e-05 141.2 -2.00272e-05C154.133 -2.00272e-05 166.133 2.26665 177.2 6.79999C188.267 11.3333 198 17.6 206.4 25.6L238 3.99998H238.8V89.6H237.8C235.133 72.6667 229.333 57.6 220.4 44.4C211.467 31.2 200.467 20.8667 187.4 13.4C174.467 5.79998 160.4 1.99998 145.2 1.99998C129.333 1.99998 115.933 6.46665 105 15.4C94.2 24.2 85.5333 36 79 50.8C72.6 65.4667 67.9333 81.8 65 99.8C62.2 117.667 60.8 135.733 60.8 154C60.8 172.133 62.2 190.2 65 208.2C67.9333 226.2 72.6 242.6 79 257.4C85.5333 272.067 94.2 283.867 105 292.8C115.933 301.6 129.333 306 145.2 306C158.933 306 171.333 303.733 182.4 299.2C193.6 294.533 203.333 288.133 211.6 280C219.867 271.733 226.533 262.4 231.6 252C236.8 241.467 240.2 230.267 241.8 218.4H242.8V304H242L213 280.2C204.467 288.867 194.067 295.667 181.8 300.6C169.667 305.533 156.133 308 141.2 308ZM404.4 308C383.467 308 364.8 304.067 348.4 296.2C332 288.333 318.067 277.4 306.6 263.4C295.133 249.4 286.4 233.067 280.4 214.4C274.4 195.733 271.4 175.6 271.4 154C271.4 132.4 274.533 112.267 280.8 93.6C287.2 74.9333 296.2 58.6 307.8 44.6C319.533 30.6 333.533 19.6667 349.8 11.8C366.2 3.93331 384.4 -2.00272e-05 404.4 -2.00272e-05C424.267 -2.00272e-05 442.333 3.93331 458.6 11.8C474.867 19.6667 488.867 30.6 500.6 44.6C512.333 58.6 521.333 74.9333 527.6 93.6C533.867 112.267 537 132.4 537 154C537 175.6 534 195.733 528 214.4C522.133 233.067 513.467 249.4 502 263.4C490.667 277.4 476.733 288.333 460.2 296.2C443.8 304.067 425.2 308 404.4 308ZM404.4 307.2C419.733 307.2 432.133 303 441.6 294.6C451.067 286.067 458.333 274.6 463.4 260.2C468.467 245.667 471.933 229.267 473.8 211C475.667 192.6 476.6 173.533 476.6 153.8C476.6 134.2 475.467 115.267 473.2 97C471.067 78.7333 467.267 62.4 461.8 48C456.467 33.4667 449.133 22 439.8 13.6C430.467 5.06666 418.667 0.799994 404.4 0.799994C390.133 0.799994 378.267 5.06666 368.8 13.6C359.467 22 352.067 33.4667 346.6 48C341.267 62.4 337.467 78.7333 335.2 97C332.933 115.267 331.8 134.267 331.8 154C331.8 173.6 332.733 192.6 334.6 211C336.467 229.4 339.933 245.8 345 260.2C350.2 274.6 357.533 286.067 367 294.6C376.6 303 389.067 307.2 404.4 307.2ZM602.438 217.2L774.438 4.79999H726.038V3.99998H821.838V4.79999H775.638L603.638 217.2H602.438ZM556.438 304V303.2H592.238V4.79999H556.438V3.99998H684.838V4.79999H644.838V303.2H682.438V304H556.438ZM704.038 304V303.2H746.038L658.038 148.6L692.438 107.6L808.438 303.2H839.838V304H704.038ZM844.625 304V303.2H880.425V4.79999H844.625V3.99998H1065.23V86H1064.63C1063.43 71.7333 1059.69 58.4667 1053.42 46.2C1047.29 33.8 1038.69 23.8 1027.63 16.2C1016.69 8.59999 1003.43 4.79999 987.825 4.79999H933.025V303.2H983.825C1002.09 303.2 1017.23 299.333 1029.23 291.6C1041.36 283.733 1050.63 273.067 1057.03 259.6C1063.56 246.133 1067.43 230.933 1068.63 214H1069.43V304H844.625ZM1000.23 196.4C999.025 187.467 995.958 179.467 991.025 172.4C986.092 165.2 980.092 159.533 973.025 155.4C965.958 151.267 958.625 149.2 951.025 149.2H916.425V148.4H951.025C958.625 148.4 965.958 146.533 973.025 142.8C980.092 138.933 986.092 133.6 991.025 126.8C995.958 120 999.025 112.133 1000.23 103.2H1001.03V196.4H1000.23Z" fill="black"/>
</svg>
