<svg width="1311" height="193" viewBox="0 0 1311 193" fill="none" xmlns="http://www.w3.org/2000/svg">
<path d="M76.25 2.49999C95.5833 2.49999 112.167 6.49999 126 14.5C139.917 22.5 150.625 33.5833 158.125 47.75C165.625 61.8333 169.375 78 169.375 96.25C169.375 109.917 167.125 122.5 162.625 134C158.125 145.417 151.75 155.333 143.5 163.75C135.333 172.083 125.542 178.542 114.125 183.125C102.792 187.708 90.1667 190 76.25 190H0.375V189.5H22.75V2.99999H0.375V2.49999H76.25ZM55.625 189.5H76.25C86.6667 189.5 95.375 186.917 102.375 181.75C109.458 176.583 115.125 169.625 119.375 160.875C123.708 152.042 126.792 142.042 128.625 130.875C130.542 119.708 131.5 108.125 131.5 96.125C131.5 84.2083 130.417 72.7083 128.25 61.625C126.167 50.4583 122.917 40.5 118.5 31.75C114.083 22.9167 108.375 15.9167 101.375 10.75C94.4583 5.58333 86.0833 2.99999 76.25 2.99999H55.625V189.5ZM270.469 192.5C257.385 192.5 245.719 190.042 235.469 185.125C225.219 180.208 216.51 173.375 209.344 164.625C202.177 155.875 196.719 145.667 192.969 134C189.219 122.333 187.344 109.75 187.344 96.25C187.344 82.75 189.302 70.1667 193.219 58.5C197.219 46.8333 202.844 36.625 210.094 27.875C217.427 19.125 226.177 12.2917 236.344 7.37499C246.594 2.45832 257.969 -1.2517e-05 270.469 -1.2517e-05C282.885 -1.2517e-05 294.177 2.45832 304.344 7.37499C314.51 12.2917 323.26 19.125 330.594 27.875C337.927 36.625 343.552 46.8333 347.469 58.5C351.385 70.1667 353.344 82.75 353.344 96.25C353.344 109.75 351.469 122.333 347.719 134C344.052 145.667 338.635 155.875 331.469 164.625C324.385 173.375 315.677 180.208 305.344 185.125C295.094 190.042 283.469 192.5 270.469 192.5ZM270.469 192C280.052 192 287.802 189.375 293.719 184.125C299.635 178.792 304.177 171.625 307.344 162.625C310.51 153.542 312.677 143.292 313.844 131.875C315.01 120.375 315.594 108.458 315.594 96.125C315.594 83.875 314.885 72.0417 313.469 60.625C312.135 49.2083 309.76 39 306.344 30C303.01 20.9167 298.427 13.75 292.594 8.5C286.76 3.16666 279.385 0.499996 270.469 0.499996C261.552 0.499996 254.135 3.16666 248.219 8.5C242.385 13.75 237.76 20.9167 234.344 30C231.01 39 228.635 49.2083 227.219 60.625C225.802 72.0417 225.094 83.9167 225.094 96.25C225.094 108.5 225.677 120.375 226.844 131.875C228.01 143.375 230.177 153.625 233.344 162.625C236.594 171.625 241.177 178.792 247.094 184.125C253.094 189.375 260.885 192 270.469 192ZM365.492 190V189.5H387.867V2.99999H365.492V2.49999H443.117V2.99999H420.742V189.5H451.492C460.992 189.5 468.992 188.125 475.492 185.375C481.992 182.542 487.284 178.625 491.367 173.625C495.451 168.542 498.534 162.625 500.617 155.875C502.701 149.042 503.992 141.667 504.492 133.75H504.992V190H365.492ZM600.918 192.5C587.835 192.5 576.168 190.042 565.918 185.125C555.668 180.208 546.96 173.375 539.793 164.625C532.626 155.875 527.168 145.667 523.418 134C519.668 122.333 517.793 109.75 517.793 96.25C517.793 82.75 519.751 70.1667 523.668 58.5C527.668 46.8333 533.293 36.625 540.543 27.875C547.876 19.125 556.626 12.2917 566.793 7.37499C577.043 2.45832 588.418 -1.2517e-05 600.918 -1.2517e-05C613.335 -1.2517e-05 624.626 2.45832 634.793 7.37499C644.96 12.2917 653.71 19.125 661.043 27.875C668.376 36.625 674.001 46.8333 677.918 58.5C681.835 70.1667 683.793 82.75 683.793 96.25C683.793 109.75 681.918 122.333 678.168 134C674.501 145.667 669.085 155.875 661.918 164.625C654.835 173.375 646.126 180.208 635.793 185.125C625.543 190.042 613.918 192.5 600.918 192.5ZM600.918 192C610.501 192 618.251 189.375 624.168 184.125C630.085 178.792 634.626 171.625 637.793 162.625C640.96 153.542 643.126 143.292 644.293 131.875C645.46 120.375 646.043 108.458 646.043 96.125C646.043 83.875 645.335 72.0417 643.918 60.625C642.585 49.2083 640.21 39 636.793 30C633.46 20.9167 628.876 13.75 623.043 8.5C617.21 3.16666 609.835 0.499996 600.918 0.499996C592.001 0.499996 584.585 3.16666 578.668 8.5C572.835 13.75 568.21 20.9167 564.793 30C561.46 39 559.085 49.2083 557.668 60.625C556.251 72.0417 555.543 83.9167 555.543 96.25C555.543 108.5 556.126 120.375 557.293 131.875C558.46 143.375 560.626 153.625 563.793 162.625C567.043 171.625 571.626 178.792 577.543 184.125C583.543 189.375 591.335 192 600.918 192ZM784.941 192.5L715.441 2.49999H748.316L801.441 145.125L851.941 2.49999H852.441L785.441 192.5H784.941ZM715.691 2.49999V189.5H735.066V190H697.066V189.5H715.191V2.99999H695.941V2.49999H715.691ZM902.441 2.49999V2.99999H884.941V189.5H902.441V190H832.066V189.5H852.191V2.49999H902.441ZM908.529 190V189.5H935.904V2.99999H908.529V2.49999H998.779V2.99999H968.779V189.5H998.779V190H908.529ZM1041.6 190V189.5H1069.1V2.99999H1049.35C1042.35 2.99999 1036.35 4.49999 1031.35 7.5C1026.43 10.5 1022.31 14.7083 1018.97 20.125C1015.72 25.4583 1013.18 31.625 1011.35 38.625C1009.6 45.625 1008.43 53.0833 1007.85 61H1007.35V2.49999H1163.6V61H1162.97C1162.39 53.0833 1161.18 45.625 1159.35 38.625C1157.6 31.625 1155.06 25.4583 1151.72 20.125C1148.47 14.7083 1144.35 10.5 1139.35 7.5C1134.43 4.49999 1128.51 2.99999 1121.6 2.99999H1101.85V189.5H1129.35V190H1041.6ZM1169.64 190V189.5H1192.02V2.99999H1169.64V2.49999H1307.52V53.75H1307.14C1306.39 44.8333 1304.06 36.5417 1300.14 28.875C1296.31 21.125 1290.93 14.875 1284.02 10.125C1277.18 5.375 1268.89 2.99999 1259.14 2.99999H1224.89V189.5H1256.64C1268.06 189.5 1277.52 187.083 1285.02 182.25C1292.6 177.333 1298.39 170.667 1302.39 162.25C1306.48 153.833 1308.89 144.333 1309.64 133.75H1310.14V190H1169.64ZM1266.89 122.75C1266.14 117.167 1264.23 112.167 1261.14 107.75C1258.06 103.25 1254.31 99.7083 1249.89 97.125C1245.48 94.5417 1240.89 93.25 1236.14 93.25H1214.52V92.75H1236.14C1240.89 92.75 1245.48 91.5833 1249.89 89.25C1254.31 86.8333 1258.06 83.5 1261.14 79.25C1264.23 75 1266.14 70.0833 1266.89 64.5H1267.39V122.75H1266.89Z" fill="black"/>
</svg>
