<svg width="1729" height="347" viewBox="0 0 1729 347" fill="none" xmlns="http://www.w3.org/2000/svg">
<path d="M174.6 213.3H309.6V214.2H285.3V270.45C279.6 277.8 273 285.9 265.5 294.75C258 303.45 249.15 311.775 238.95 319.725C228.75 327.525 216.75 333.975 202.95 339.075C189.15 344.025 173.1 346.5 154.8 346.5C122.25 346.5 94.5 339.225 71.55 324.675C48.6 310.125 30.975 289.875 18.675 263.925C6.525 237.825 0.450001 207.6 0.450001 173.25C0.450001 147.6 4.5 124.125 12.6 102.825C20.85 81.525 32.25 63.225 46.8 47.925C61.35 32.625 78.375 20.85 97.875 12.6C117.525 4.19998 138.75 -2.25306e-05 161.55 -2.25306e-05C175.5 -2.25306e-05 188.7 2.47498 201.15 7.42498C213.75 12.375 224.85 19.2 234.45 27.9L273.15 4.49997H274.05V100.8H273.15C271.8 87.9 267.975 75.6 261.675 63.9C255.525 52.05 247.575 41.55 237.825 32.4C228.075 23.1 217.125 15.825 204.975 10.575C192.825 5.17499 180.075 2.47499 166.725 2.47499C148.875 2.47499 133.65 7.42498 121.05 17.325C108.6 27.225 98.475 40.5 90.675 57.15C83.025 73.65 77.4 92.025 73.8 112.275C70.2 132.375 68.4 152.7 68.4 173.25C68.4 193.65 69.675 214.05 72.225 234.45C74.775 254.85 79.2 273.45 85.5 290.25C91.95 306.9 100.725 320.325 111.825 330.525C123.075 340.575 137.4 345.6 154.8 345.6C166.05 345.6 175.575 343.275 183.375 338.625C191.325 333.975 197.85 328.275 202.95 321.525C208.05 314.625 212.1 307.875 215.1 301.275C218.25 294.675 220.5 289.5 221.85 285.75V214.2H174.6V213.3ZM317.162 342V341.1H366.437V5.39999H317.162V4.49997H479.612V5.39999H425.612V341.1H479.612V342H317.162ZM536.091 4.49997V341.1H589.191V342H490.641V341.1H535.191V5.39999H490.641V4.49997H536.091ZM808.566 4.49997V5.39999H761.316V346.5H760.416L535.641 4.49997H606.066L760.416 245.925V5.39999H707.766V4.49997H808.566ZM1004.41 213.3H1139.41V214.2H1115.11V270.45C1109.41 277.8 1102.81 285.9 1095.31 294.75C1087.81 303.45 1078.96 311.775 1068.76 319.725C1058.56 327.525 1046.56 333.975 1032.76 339.075C1018.96 344.025 1002.91 346.5 984.611 346.5C952.061 346.5 924.311 339.225 901.361 324.675C878.411 310.125 860.786 289.875 848.486 263.925C836.336 237.825 830.261 207.6 830.261 173.25C830.261 147.6 834.311 124.125 842.411 102.825C850.661 81.525 862.061 63.225 876.611 47.925C891.161 32.625 908.186 20.85 927.686 12.6C947.336 4.19998 968.561 -2.25306e-05 991.361 -2.25306e-05C1005.31 -2.25306e-05 1018.51 2.47498 1030.96 7.42498C1043.56 12.375 1054.66 19.2 1064.26 27.9L1102.96 4.49997H1103.86V100.8H1102.96C1101.61 87.9 1097.79 75.6 1091.49 63.9C1085.34 52.05 1077.39 41.55 1067.64 32.4C1057.89 23.1 1046.94 15.825 1034.79 10.575C1022.64 5.17499 1009.89 2.47499 996.536 2.47499C978.686 2.47499 963.461 7.42498 950.861 17.325C938.411 27.225 928.286 40.5 920.486 57.15C912.836 73.65 907.211 92.025 903.611 112.275C900.011 132.375 898.211 152.7 898.211 173.25C898.211 193.65 899.486 214.05 902.036 234.45C904.586 254.85 909.011 273.45 915.311 290.25C921.761 306.9 930.536 320.325 941.636 330.525C952.886 340.575 967.211 345.6 984.611 345.6C995.861 345.6 1005.39 343.275 1013.19 338.625C1021.14 333.975 1027.66 328.275 1032.76 321.525C1037.86 314.625 1041.91 307.875 1044.91 301.275C1048.06 294.675 1050.31 289.5 1051.66 285.75V214.2H1004.41V213.3ZM1146.97 342V341.1H1187.25V5.39999H1146.97V4.49997H1395.15V96.75H1394.47C1393.12 80.7 1388.92 65.775 1381.87 51.975C1374.97 38.025 1365.3 26.775 1352.85 18.225C1340.55 9.67499 1325.62 5.39999 1308.07 5.39999H1246.42V341.1H1303.57C1324.12 341.1 1341.15 336.75 1354.65 328.05C1368.3 319.2 1378.72 307.2 1385.92 292.05C1393.27 276.9 1397.62 259.8 1398.97 240.75H1399.87V342H1146.97ZM1322.02 220.95C1320.67 210.9 1317.22 201.9 1311.67 193.95C1306.12 185.85 1299.37 179.475 1291.42 174.825C1283.47 170.175 1275.22 167.85 1266.67 167.85H1227.75V166.95H1266.67C1275.22 166.95 1283.47 164.85 1291.42 160.65C1299.37 156.3 1306.12 150.3 1311.67 142.65C1317.22 135 1320.67 126.15 1322.02 116.1H1322.92V220.95H1322.02ZM1497.25 169.2V168.3H1563.4C1577.8 168.3 1589.88 165.225 1599.63 159.075C1609.53 152.775 1616.95 143.625 1621.9 131.625C1627 119.625 1629.55 105 1629.55 87.75C1629.55 70.5 1627 55.725 1621.9 43.425C1616.95 31.125 1609.53 21.75 1599.63 15.3C1589.88 8.69999 1577.8 5.39999 1563.4 5.39999H1416.25V4.49997H1570.15C1594.15 4.49997 1615.15 7.42498 1633.15 13.275C1651.3 18.975 1665.4 27.975 1675.45 40.275C1685.65 52.425 1690.75 68.25 1690.75 87.75C1690.75 107.25 1685.95 123 1676.35 135C1666.9 146.85 1653.18 155.55 1635.18 161.1C1617.33 166.5 1595.65 169.2 1570.15 169.2H1497.25ZM1416.25 342V341.1H1568.8V342H1416.25ZM1462.83 341.55V4.94999H1522V341.55H1462.83ZM1680.4 344.925C1666 344.925 1654.68 342.45 1646.43 337.5C1638.33 332.55 1632.4 325.95 1628.65 317.7C1624.9 309.3 1622.5 299.925 1621.45 289.575C1620.4 279.075 1619.8 268.275 1619.65 257.175C1619.5 245.925 1618.98 235.125 1618.08 224.775C1617.18 214.275 1615 204.9 1611.55 196.65C1608.1 188.25 1602.48 181.575 1594.68 176.625C1587.03 171.675 1576.3 169.2 1562.5 169.2H1497.25V168.3H1587.7C1609.15 168.3 1626.18 171.45 1638.78 177.75C1651.38 184.05 1660.75 192.375 1666.9 202.725C1673.05 212.925 1677.03 224.175 1678.83 236.475C1680.78 248.775 1681.75 261.15 1681.75 273.6C1681.9 285.9 1682.13 297.225 1682.43 307.575C1682.73 317.775 1684.3 326.025 1687.15 332.325C1690 338.625 1695.4 341.775 1703.35 341.775C1708.15 341.775 1712.73 341.25 1717.08 340.2C1721.58 339 1725.4 337.65 1728.55 336.15L1729 336.6C1725.4 338.55 1719.4 340.425 1711 342.225C1702.6 344.025 1692.4 344.925 1680.4 344.925Z" fill="#4BA040"/>
</svg>
