<svg width="1729" height="347" viewBox="0 0 1729 347" fill="none" xmlns="http://www.w3.org/2000/svg">
<g opacity="0.62">
<mask id="path-1-outside-1_168_135" maskUnits="userSpaceOnUse" x="-1" y="-1" width="1732" height="349" fill="black">
<rect fill="white" x="-1" y="-1" width="1732" height="349"/>
<path d="M174.6 213.3H309.6V214.2H285.3V270.45C279.6 277.8 273 285.9 265.5 294.75C258 303.45 249.15 311.775 238.95 319.725C228.75 327.525 216.75 333.975 202.95 339.075C189.15 344.025 173.1 346.5 154.8 346.5C122.25 346.5 94.5 339.225 71.55 324.675C48.6 310.125 30.975 289.875 18.675 263.925C6.525 237.825 0.450001 207.6 0.450001 173.25C0.450001 147.6 4.5 124.125 12.6 102.825C20.85 81.525 32.25 63.225 46.8 47.925C61.35 32.625 78.375 20.85 97.875 12.6C117.525 4.19998 138.75 -2.25306e-05 161.55 -2.25306e-05C175.5 -2.25306e-05 188.7 2.47498 201.15 7.42498C213.75 12.375 224.85 19.2 234.45 27.9L273.15 4.49997H274.05V100.8H273.15C271.8 87.9 267.975 75.6 261.675 63.9C255.525 52.05 247.575 41.55 237.825 32.4C228.075 23.1 217.125 15.825 204.975 10.575C192.825 5.17499 180.075 2.47499 166.725 2.47499C148.875 2.47499 133.65 7.42498 121.05 17.325C108.6 27.225 98.475 40.5 90.675 57.15C83.025 73.65 77.4 92.025 73.8 112.275C70.2 132.375 68.4 152.7 68.4 173.25C68.4 193.65 69.675 214.05 72.225 234.45C74.775 254.85 79.2 273.45 85.5 290.25C91.95 306.9 100.725 320.325 111.825 330.525C123.075 340.575 137.4 345.6 154.8 345.6C166.05 345.6 175.575 343.275 183.375 338.625C191.325 333.975 197.85 328.275 202.95 321.525C208.05 314.625 212.1 307.875 215.1 301.275C218.25 294.675 220.5 289.5 221.85 285.75V214.2H174.6V213.3ZM317.162 342V341.1H366.437V5.39999H317.162V4.49997H479.612V5.39999H425.612V341.1H479.612V342H317.162ZM536.091 4.49997V341.1H589.191V342H490.641V341.1H535.191V5.39999H490.641V4.49997H536.091ZM808.566 4.49997V5.39999H761.316V346.5H760.416L535.641 4.49997H606.066L760.416 245.925V5.39999H707.766V4.49997H808.566ZM1004.41 213.3H1139.41V214.2H1115.11V270.45C1109.41 277.8 1102.81 285.9 1095.31 294.75C1087.81 303.45 1078.96 311.775 1068.76 319.725C1058.56 327.525 1046.56 333.975 1032.76 339.075C1018.96 344.025 1002.91 346.5 984.611 346.5C952.061 346.5 924.311 339.225 901.361 324.675C878.411 310.125 860.786 289.875 848.486 263.925C836.336 237.825 830.261 207.6 830.261 173.25C830.261 147.6 834.311 124.125 842.411 102.825C850.661 81.525 862.061 63.225 876.611 47.925C891.161 32.625 908.186 20.85 927.686 12.6C947.336 4.19998 968.561 -2.25306e-05 991.361 -2.25306e-05C1005.31 -2.25306e-05 1018.51 2.47498 1030.96 7.42498C1043.56 12.375 1054.66 19.2 1064.26 27.9L1102.96 4.49997H1103.86V100.8H1102.96C1101.61 87.9 1097.79 75.6 1091.49 63.9C1085.34 52.05 1077.39 41.55 1067.64 32.4C1057.89 23.1 1046.94 15.825 1034.79 10.575C1022.64 5.17499 1009.89 2.47499 996.536 2.47499C978.686 2.47499 963.461 7.42498 950.861 17.325C938.411 27.225 928.286 40.5 920.486 57.15C912.836 73.65 907.211 92.025 903.611 112.275C900.011 132.375 898.211 152.7 898.211 173.25C898.211 193.65 899.486 214.05 902.036 234.45C904.586 254.85 909.011 273.45 915.311 290.25C921.761 306.9 930.536 320.325 941.636 330.525C952.886 340.575 967.211 345.6 984.611 345.6C995.861 345.6 1005.39 343.275 1013.19 338.625C1021.14 333.975 1027.66 328.275 1032.76 321.525C1037.86 314.625 1041.91 307.875 1044.91 301.275C1048.06 294.675 1050.31 289.5 1051.66 285.75V214.2H1004.41V213.3ZM1146.97 342V341.1H1187.25V5.39999H1146.97V4.49997H1395.15V96.75H1394.47C1393.12 80.7 1388.92 65.775 1381.87 51.975C1374.97 38.025 1365.3 26.775 1352.85 18.225C1340.55 9.67499 1325.62 5.39999 1308.07 5.39999H1246.42V341.1H1303.57C1324.12 341.1 1341.15 336.75 1354.65 328.05C1368.3 319.2 1378.72 307.2 1385.92 292.05C1393.27 276.9 1397.62 259.8 1398.97 240.75H1399.87V342H1146.97ZM1322.02 220.95C1320.67 210.9 1317.22 201.9 1311.67 193.95C1306.12 185.85 1299.37 179.475 1291.42 174.825C1283.47 170.175 1275.22 167.85 1266.67 167.85H1227.75V166.95H1266.67C1275.22 166.95 1283.47 164.85 1291.42 160.65C1299.37 156.3 1306.12 150.3 1311.67 142.65C1317.22 135 1320.67 126.15 1322.02 116.1H1322.92V220.95H1322.02ZM1497.25 169.2V168.3H1563.4C1577.8 168.3 1589.88 165.225 1599.63 159.075C1609.53 152.775 1616.95 143.625 1621.9 131.625C1627 119.625 1629.55 105 1629.55 87.75C1629.55 70.5 1627 55.725 1621.9 43.425C1616.95 31.125 1609.53 21.75 1599.63 15.3C1589.88 8.69999 1577.8 5.39999 1563.4 5.39999H1416.25V4.49997H1570.15C1594.15 4.49997 1615.15 7.42498 1633.15 13.275C1651.3 18.975 1665.4 27.975 1675.45 40.275C1685.65 52.425 1690.75 68.25 1690.75 87.75C1690.75 107.25 1685.95 123 1676.35 135C1666.9 146.85 1653.18 155.55 1635.18 161.1C1617.33 166.5 1595.65 169.2 1570.15 169.2H1497.25ZM1416.25 342V341.1H1568.8V342H1416.25ZM1462.83 341.55V4.94999H1522V341.55H1462.83ZM1680.4 344.925C1666 344.925 1654.68 342.45 1646.43 337.5C1638.33 332.55 1632.4 325.95 1628.65 317.7C1624.9 309.3 1622.5 299.925 1621.45 289.575C1620.4 279.075 1619.8 268.275 1619.65 257.175C1619.5 245.925 1618.98 235.125 1618.08 224.775C1617.18 214.275 1615 204.9 1611.55 196.65C1608.1 188.25 1602.48 181.575 1594.68 176.625C1587.03 171.675 1576.3 169.2 1562.5 169.2H1497.25V168.3H1587.7C1609.15 168.3 1626.18 171.45 1638.78 177.75C1651.38 184.05 1660.75 192.375 1666.9 202.725C1673.05 212.925 1677.03 224.175 1678.83 236.475C1680.78 248.775 1681.75 261.15 1681.75 273.6C1681.9 285.9 1682.13 297.225 1682.43 307.575C1682.73 317.775 1684.3 326.025 1687.15 332.325C1690 338.625 1695.4 341.775 1703.35 341.775C1708.15 341.775 1712.73 341.25 1717.08 340.2C1721.58 339 1725.4 337.65 1728.55 336.15L1729 336.6C1725.4 338.55 1719.4 340.425 1711 342.225C1702.6 344.025 1692.4 344.925 1680.4 344.925Z"/>
</mask>
<path d="M174.6 213.3V212.3H173.6V213.3H174.6ZM309.6 213.3H310.6V212.3H309.6V213.3ZM309.6 214.2V215.2H310.6V214.2H309.6ZM285.3 214.2V213.2H284.3V214.2H285.3ZM285.3 270.45L286.09 271.063L286.3 270.792V270.45H285.3ZM265.5 294.75L266.257 295.403L266.263 295.397L265.5 294.75ZM238.95 319.725L239.557 320.519L239.565 320.514L238.95 319.725ZM202.95 339.075L203.288 340.016L203.297 340.013L202.95 339.075ZM71.55 324.675L72.0855 323.83L71.55 324.675ZM18.675 263.925L17.7684 264.347L17.7714 264.353L18.675 263.925ZM12.6 102.825L11.6675 102.464L11.6653 102.47L12.6 102.825ZM97.875 12.6L98.2647 13.521L98.2681 13.5195L97.875 12.6ZM201.15 7.42497L200.781 8.35423L200.784 8.35573L201.15 7.42497ZM234.45 27.9L233.779 28.641L234.33 29.141L234.967 28.7557L234.45 27.9ZM273.15 4.49997V3.49997H272.871L272.633 3.64424L273.15 4.49997ZM274.05 4.49997H275.05V3.49997H274.05V4.49997ZM274.05 100.8V101.8H275.05V100.8H274.05ZM273.15 100.8L272.155 100.904L272.249 101.8H273.15V100.8ZM261.675 63.9L260.787 64.3606L260.791 64.3674L260.795 64.3741L261.675 63.9ZM237.825 32.4L237.135 33.1236L237.141 33.1292L237.825 32.4ZM204.975 10.575L204.569 11.4888L204.578 11.493L204.975 10.575ZM121.05 17.325L120.432 16.5387L120.428 16.5423L121.05 17.325ZM90.675 57.15L89.7694 56.7258L89.7678 56.7294L90.675 57.15ZM73.8 112.275L74.7843 112.451L74.7846 112.45L73.8 112.275ZM72.225 234.45L73.2173 234.326L72.225 234.45ZM85.5 290.25L84.5636 290.601L84.5675 290.611L85.5 290.25ZM111.825 330.525L111.148 331.261L111.159 331.271L111.825 330.525ZM183.375 338.625L182.87 337.762L182.863 337.766L183.375 338.625ZM202.95 321.525L203.748 322.128L203.754 322.119L202.95 321.525ZM215.1 301.275L214.198 300.844L214.193 300.853L214.19 300.861L215.1 301.275ZM221.85 285.75L222.791 286.089L222.85 285.925V285.75H221.85ZM221.85 214.2H222.85V213.2H221.85V214.2ZM174.6 214.2H173.6V215.2H174.6V214.2ZM174.6 214.3H309.6V212.3H174.6V214.3ZM308.6 213.3V214.2H310.6V213.3H308.6ZM309.6 213.2H285.3V215.2H309.6V213.2ZM284.3 214.2V270.45H286.3V214.2H284.3ZM284.51 269.837C278.82 277.173 272.23 285.262 264.737 294.103L266.263 295.397C273.77 286.538 280.38 278.427 286.09 271.063L284.51 269.837ZM264.743 294.097C257.291 302.741 248.49 311.022 238.335 318.936L239.565 320.514C249.81 312.528 258.709 304.159 266.257 295.403L264.743 294.097ZM238.343 318.931C228.232 326.662 216.323 333.067 202.603 338.137L203.297 340.013C217.177 334.883 229.268 328.388 239.557 320.519L238.343 318.931ZM202.612 338.134C188.944 343.037 173.012 345.5 154.8 345.5V347.5C173.188 347.5 189.356 345.013 203.288 340.016L202.612 338.134ZM154.8 345.5C122.402 345.5 94.8461 338.26 72.0855 323.83L71.0146 325.52C94.1539 340.19 122.098 347.5 154.8 347.5V345.5ZM72.0855 323.83C49.3043 309.387 31.8025 289.286 19.5786 263.497L17.7714 264.353C30.1475 290.464 47.8957 310.863 71.0146 325.52L72.0855 323.83ZM19.5816 263.503C7.50385 237.558 1.45 207.482 1.45 173.25H-0.549999C-0.549999 207.718 5.54615 238.092 17.7684 264.347L19.5816 263.503ZM1.45 173.25C1.45 147.706 5.48295 124.354 13.5347 103.18L11.6653 102.47C3.51705 123.896 -0.549999 147.494 -0.549999 173.25H1.45ZM13.5325 103.186C21.7392 81.998 33.0718 63.8119 47.5247 48.6141L46.0754 47.2359C31.4282 62.6381 19.9608 81.052 11.6675 102.464L13.5325 103.186ZM47.5247 48.6141C61.9798 33.4138 78.8907 21.7176 98.2646 13.521L97.4854 11.679C77.8593 19.9823 60.7202 31.8361 46.0754 47.2359L47.5247 48.6141ZM98.2681 13.5195C117.786 5.17609 138.876 0.999985 161.55 0.999985V-1.00002C138.624 -1.00002 117.264 3.22388 97.4819 11.6805L98.2681 13.5195ZM161.55 0.999985C175.379 0.999985 188.453 3.45288 200.781 8.35422L201.519 6.49573C188.947 1.49707 175.621 -1.00002 161.55 -1.00002V0.999985ZM200.784 8.35573C213.277 13.2635 224.272 20.0258 233.779 28.641L235.122 27.159C225.428 18.3741 214.223 11.4865 201.516 6.49422L200.784 8.35573ZM234.967 28.7557L273.667 5.3557L272.633 3.64424L233.933 27.0443L234.967 28.7557ZM273.15 5.49997H274.05V3.49997H273.15V5.49997ZM273.05 4.49997V100.8H275.05V4.49997H273.05ZM274.05 99.8H273.15V101.8H274.05V99.8ZM274.145 100.696C272.781 87.6631 268.916 75.2377 262.555 63.4259L260.795 64.3741C267.034 75.9622 270.819 88.1369 272.155 100.904L274.145 100.696ZM262.563 63.4393C256.36 51.4888 248.342 40.8981 238.509 31.6708L237.141 33.1292C246.808 42.2019 254.69 52.6111 260.787 64.3606L262.563 63.4393ZM238.515 31.6764C228.681 22.2962 217.632 14.9548 205.372 9.65701L204.578 11.493C216.618 16.6952 227.469 23.9037 237.135 33.1236L238.515 31.6764ZM205.381 9.66118C193.103 4.20412 180.214 1.47499 166.725 1.47499V3.47499C179.936 3.47499 192.547 6.14586 204.569 11.4888L205.381 9.66118ZM166.725 1.47499C148.678 1.47499 133.228 6.48442 120.432 16.5387L121.668 18.1113C134.072 8.36554 149.072 3.47499 166.725 3.47499V1.47499ZM120.428 16.5423C107.839 26.5523 97.6247 39.9578 89.7694 56.7258L91.5806 57.5742C99.3253 41.0421 109.361 27.8977 121.672 18.1077L120.428 16.5423ZM89.7678 56.7294C82.0771 73.317 76.4286 91.776 72.8154 112.1L74.7846 112.45C78.3714 92.274 83.9729 73.983 91.5822 57.5706L89.7678 56.7294ZM72.8157 112.099C69.2052 132.257 67.4 152.641 67.4 173.25H69.4C69.4 152.759 71.1948 132.493 74.7843 112.451L72.8157 112.099ZM67.4 173.25C67.4 193.692 68.6776 214.133 71.2327 234.574L73.2173 234.326C70.6724 213.967 69.4 193.608 69.4 173.25H67.4ZM71.2327 234.574C73.7911 255.041 78.2326 273.718 84.5637 290.601L86.4363 289.899C80.1674 273.182 75.759 254.659 73.2173 234.326L71.2327 234.574ZM84.5675 290.611C91.0628 307.378 99.9165 320.94 111.148 331.261L112.502 329.789C101.534 319.71 92.8372 306.422 86.4325 289.889L84.5675 290.611ZM111.159 331.271C122.62 341.509 137.194 346.6 154.8 346.6V344.6C137.606 344.6 123.53 339.641 112.491 329.779L111.159 331.271ZM154.8 346.6C166.188 346.6 175.899 344.246 183.887 339.484L182.863 337.766C175.251 342.304 165.913 344.6 154.8 344.6V346.6ZM183.88 339.488C191.934 334.778 198.562 328.992 203.748 322.128L202.152 320.922C197.138 327.558 190.716 333.172 182.87 337.762L183.88 339.488ZM203.754 322.119C208.888 315.173 212.977 308.363 216.01 301.689L214.19 300.861C211.223 307.387 207.212 314.077 202.146 320.931L203.754 322.119ZM216.002 301.706C219.157 295.096 221.424 289.886 222.791 286.089L220.909 285.411C219.576 289.114 217.343 294.254 214.198 300.844L216.002 301.706ZM222.85 285.75V214.2H220.85V285.75H222.85ZM221.85 213.2H174.6V215.2H221.85V213.2ZM175.6 214.2V213.3H173.6V214.2H175.6ZM317.162 342H316.162V343H317.162V342ZM317.162 341.1V340.1H316.162V341.1H317.162ZM366.437 341.1V342.1H367.437V341.1H366.437ZM366.437 5.39999H367.437V4.39999H366.437V5.39999ZM317.162 5.39999H316.162V6.39999H317.162V5.39999ZM317.162 4.49997V3.49997H316.162V4.49997H317.162ZM479.612 4.49997H480.612V3.49997H479.612V4.49997ZM479.612 5.39999V6.39999H480.612V5.39999H479.612ZM425.612 5.39999V4.39999H424.612V5.39999H425.612ZM425.612 341.1H424.612V342.1H425.612V341.1ZM479.612 341.1H480.612V340.1H479.612V341.1ZM479.612 342V343H480.612V342H479.612ZM318.162 342V341.1H316.162V342H318.162ZM317.162 342.1H366.437V340.1H317.162V342.1ZM367.437 341.1V5.39999H365.437V341.1H367.437ZM366.437 4.39999H317.162V6.39999H366.437V4.39999ZM318.162 5.39999V4.49997H316.162V5.39999H318.162ZM317.162 5.49997H479.612V3.49997H317.162V5.49997ZM478.612 4.49997V5.39999H480.612V4.49997H478.612ZM479.612 4.39999H425.612V6.39999H479.612V4.39999ZM424.612 5.39999V341.1H426.612V5.39999H424.612ZM425.612 342.1H479.612V340.1H425.612V342.1ZM478.612 341.1V342H480.612V341.1H478.612ZM479.612 341H317.162V343H479.612V341ZM536.091 4.49997H537.091V3.49997H536.091V4.49997ZM536.091 341.1H535.091V342.1H536.091V341.1ZM589.191 341.1H590.191V340.1H589.191V341.1ZM589.191 342V343H590.191V342H589.191ZM490.641 342H489.641V343H490.641V342ZM490.641 341.1V340.1H489.641V341.1H490.641ZM535.191 341.1V342.1H536.191V341.1H535.191ZM535.191 5.39999H536.191V4.39999H535.191V5.39999ZM490.641 5.39999H489.641V6.39999H490.641V5.39999ZM490.641 4.49997V3.49997H489.641V4.49997H490.641ZM808.566 4.49997H809.566V3.49997H808.566V4.49997ZM808.566 5.39999V6.39999H809.566V5.39999H808.566ZM761.316 5.39999V4.39999H760.316V5.39999H761.316ZM761.316 346.5V347.5H762.316V346.5H761.316ZM760.416 346.5L759.58 347.049L759.876 347.5H760.416V346.5ZM535.641 4.49997V3.49997H533.787L534.805 5.04921L535.641 4.49997ZM606.066 4.49997L606.908 3.96132L606.613 3.49997H606.066V4.49997ZM760.416 245.925L759.573 246.464L761.416 249.346V245.925H760.416ZM760.416 5.39999H761.416V4.39999H760.416V5.39999ZM707.766 5.39999H706.766V6.39999H707.766V5.39999ZM707.766 4.49997V3.49997H706.766V4.49997H707.766ZM535.091 4.49997V341.1H537.091V4.49997H535.091ZM536.091 342.1H589.191V340.1H536.091V342.1ZM588.191 341.1V342H590.191V341.1H588.191ZM589.191 341H490.641V343H589.191V341ZM491.641 342V341.1H489.641V342H491.641ZM490.641 342.1H535.191V340.1H490.641V342.1ZM536.191 341.1V5.39999H534.191V341.1H536.191ZM535.191 4.39999H490.641V6.39999H535.191V4.39999ZM491.641 5.39999V4.49997H489.641V5.39999H491.641ZM490.641 5.49997H536.091V3.49997H490.641V5.49997ZM807.566 4.49997V5.39999H809.566V4.49997H807.566ZM808.566 4.39999H761.316V6.39999H808.566V4.39999ZM760.316 5.39999V346.5H762.316V5.39999H760.316ZM761.316 345.5H760.416V347.5H761.316V345.5ZM761.251 345.951L536.476 3.95074L534.805 5.04921L759.58 347.049L761.251 345.951ZM535.641 5.49997H606.066V3.49997H535.641V5.49997ZM605.223 5.03862L759.573 246.464L761.258 245.386L606.908 3.96132L605.223 5.03862ZM761.416 245.925V5.39999H759.416V245.925H761.416ZM760.416 4.39999H707.766V6.39999H760.416V4.39999ZM708.766 5.39999V4.49997H706.766V5.39999H708.766ZM707.766 5.49997H808.566V3.49997H707.766V5.49997ZM1004.41 213.3V212.3H1003.41V213.3H1004.41ZM1139.41 213.3H1140.41V212.3H1139.41V213.3ZM1139.41 214.2V215.2H1140.41V214.2H1139.41ZM1115.11 214.2V213.2H1114.11V214.2H1115.11ZM1115.11 270.45L1115.9 271.063L1116.11 270.792V270.45H1115.11ZM1095.31 294.75L1096.07 295.403L1096.07 295.397L1095.31 294.75ZM1068.76 319.725L1069.37 320.519L1069.38 320.514L1068.76 319.725ZM1032.76 339.075L1033.1 340.016L1033.11 340.013L1032.76 339.075ZM901.361 324.675L901.896 323.83L901.361 324.675ZM848.486 263.925L847.579 264.347L847.582 264.353L848.486 263.925ZM842.411 102.825L841.478 102.464L841.476 102.47L842.411 102.825ZM927.686 12.6L928.075 13.521L928.079 13.5195L927.686 12.6ZM1030.96 7.42497L1030.59 8.35423L1030.59 8.35573L1030.96 7.42497ZM1064.26 27.9L1063.59 28.641L1064.14 29.141L1064.78 28.7557L1064.26 27.9ZM1102.96 4.49997V3.49997H1102.68L1102.44 3.64424L1102.96 4.49997ZM1103.86 4.49997H1104.86V3.49997H1103.86V4.49997ZM1103.86 100.8V101.8H1104.86V100.8H1103.86ZM1102.96 100.8L1101.97 100.904L1102.06 101.8H1102.96V100.8ZM1091.49 63.9L1090.6 64.3606L1090.6 64.3674L1090.61 64.3741L1091.49 63.9ZM1067.64 32.4L1066.95 33.1236L1066.95 33.1292L1067.64 32.4ZM1034.79 10.575L1034.38 11.4888L1034.39 11.493L1034.79 10.575ZM950.861 17.325L950.243 16.5387L950.238 16.5423L950.861 17.325ZM920.486 57.15L919.58 56.7258L919.578 56.7294L920.486 57.15ZM903.611 112.275L904.595 112.451L904.595 112.45L903.611 112.275ZM902.036 234.45L903.028 234.326L902.036 234.45ZM915.311 290.25L914.374 290.601L914.378 290.611L915.311 290.25ZM941.636 330.525L940.959 331.261L940.969 331.271L941.636 330.525ZM1013.19 338.625L1012.68 337.762L1012.67 337.766L1013.19 338.625ZM1032.76 321.525L1033.56 322.128L1033.56 322.119L1032.76 321.525ZM1044.91 301.275L1044.01 300.844L1044 300.853L1044 300.861L1044.91 301.275ZM1051.66 285.75L1052.6 286.089L1052.66 285.925V285.75H1051.66ZM1051.66 214.2H1052.66V213.2H1051.66V214.2ZM1004.41 214.2H1003.41V215.2H1004.41V214.2ZM1004.41 214.3H1139.41V212.3H1004.41V214.3ZM1138.41 213.3V214.2H1140.41V213.3H1138.41ZM1139.41 213.2H1115.11V215.2H1139.41V213.2ZM1114.11 214.2V270.45H1116.11V214.2H1114.11ZM1114.32 269.837C1108.63 277.173 1102.04 285.262 1094.55 294.103L1096.07 295.397C1103.58 286.538 1110.19 278.427 1115.9 271.063L1114.32 269.837ZM1094.55 294.097C1087.1 302.741 1078.3 311.022 1068.15 318.936L1069.38 320.514C1079.62 312.528 1088.52 304.159 1096.07 295.403L1094.55 294.097ZM1068.15 318.931C1058.04 326.662 1046.13 333.067 1032.41 338.137L1033.11 340.013C1046.99 334.883 1059.08 328.388 1069.37 320.519L1068.15 318.931ZM1032.42 338.134C1018.75 343.037 1002.82 345.5 984.611 345.5V347.5C1003 347.5 1019.17 345.013 1033.1 340.016L1032.42 338.134ZM984.611 345.5C952.212 345.5 924.657 338.26 901.896 323.83L900.825 325.52C923.964 340.19 951.909 347.5 984.611 347.5V345.5ZM901.896 323.83C879.115 309.387 861.613 289.286 849.389 263.497L847.582 264.353C859.958 290.464 877.706 310.863 900.825 325.52L901.896 323.83ZM849.392 263.503C837.314 237.558 831.261 207.482 831.261 173.25H829.261C829.261 207.718 835.357 238.092 847.579 264.347L849.392 263.503ZM831.261 173.25C831.261 147.706 835.294 124.354 843.345 103.18L841.476 102.47C833.328 123.896 829.261 147.494 829.261 173.25H831.261ZM843.343 103.186C851.55 81.998 862.882 63.8119 877.335 48.6141L875.886 47.2359C861.239 62.6381 849.771 81.052 841.478 102.464L843.343 103.186ZM877.335 48.6141C891.79 33.4138 908.701 21.7176 928.075 13.521L927.296 11.679C907.67 19.9823 890.531 31.8361 875.886 47.2359L877.335 48.6141ZM928.079 13.5195C947.596 5.17609 968.687 0.999985 991.361 0.999985V-1.00002C968.435 -1.00002 947.075 3.22388 927.292 11.6805L928.079 13.5195ZM991.361 0.999985C1005.19 0.999985 1018.26 3.45288 1030.59 8.35422L1031.33 6.49573C1018.76 1.49707 1005.43 -1.00002 991.361 -1.00002V0.999985ZM1030.59 8.35573C1043.09 13.2635 1054.08 20.0258 1063.59 28.641L1064.93 27.159C1055.24 18.3741 1044.03 11.4865 1031.33 6.49422L1030.59 8.35573ZM1064.78 28.7557L1103.48 5.3557L1102.44 3.64424L1063.74 27.0443L1064.78 28.7557ZM1102.96 5.49997H1103.86V3.49997H1102.96V5.49997ZM1102.86 4.49997V100.8H1104.86V4.49997H1102.86ZM1103.86 99.8H1102.96V101.8H1103.86V99.8ZM1103.96 100.696C1102.59 87.6631 1098.73 75.2377 1092.37 63.4259L1090.61 64.3741C1096.84 75.9622 1100.63 88.1369 1101.97 100.904L1103.96 100.696ZM1092.37 63.4393C1086.17 51.4888 1078.15 40.8981 1068.32 31.6708L1066.95 33.1292C1076.62 42.2019 1084.5 52.6111 1090.6 64.3606L1092.37 63.4393ZM1068.33 31.6764C1058.49 22.2962 1047.44 14.9548 1035.18 9.65701L1034.39 11.493C1046.43 16.6952 1057.28 23.9037 1066.95 33.1236L1068.33 31.6764ZM1035.19 9.66118C1022.91 4.20412 1010.02 1.47499 996.536 1.47499V3.47499C1009.75 3.47499 1022.36 6.14586 1034.38 11.4888L1035.19 9.66118ZM996.536 1.47499C978.489 1.47499 963.039 6.48442 950.243 16.5387L951.478 18.1113C963.882 8.36554 978.883 3.47499 996.536 3.47499V1.47499ZM950.238 16.5423C937.65 26.5523 927.435 39.9578 919.58 56.7258L921.391 57.5742C929.136 41.0421 939.171 27.8977 951.483 18.1077L950.238 16.5423ZM919.578 56.7294C911.888 73.317 906.239 91.776 902.626 112.1L904.595 112.45C908.182 92.274 913.783 73.983 921.393 57.5706L919.578 56.7294ZM902.626 112.099C899.016 132.257 897.211 152.641 897.211 173.25H899.211C899.211 152.759 901.005 132.493 904.595 112.451L902.626 112.099ZM897.211 173.25C897.211 193.692 898.488 214.133 901.043 234.574L903.028 234.326C900.483 213.967 899.211 193.608 899.211 173.25H897.211ZM901.043 234.574C903.602 255.041 908.043 273.718 914.374 290.601L916.247 289.899C909.978 273.182 905.57 254.659 903.028 234.326L901.043 234.574ZM914.378 290.611C920.873 307.378 929.727 320.94 940.959 331.261L942.312 329.789C931.344 319.71 922.648 306.422 916.243 289.889L914.378 290.611ZM940.969 331.271C952.431 341.509 967.005 346.6 984.611 346.6V344.6C967.416 344.6 953.341 339.641 942.302 329.779L940.969 331.271ZM984.611 346.6C995.998 346.6 1005.71 344.246 1013.7 339.484L1012.67 337.766C1005.06 342.304 995.723 344.6 984.611 344.6V346.6ZM1013.69 339.488C1021.74 334.778 1028.37 328.992 1033.56 322.128L1031.96 320.922C1026.95 327.558 1020.53 333.172 1012.68 337.762L1013.69 339.488ZM1033.56 322.119C1038.7 315.173 1042.79 308.363 1045.82 301.689L1044 300.861C1041.03 307.387 1037.02 314.077 1031.96 320.931L1033.56 322.119ZM1045.81 301.706C1048.97 295.096 1051.23 289.886 1052.6 286.089L1050.72 285.411C1049.39 289.114 1047.15 294.254 1044.01 300.844L1045.81 301.706ZM1052.66 285.75V214.2H1050.66V285.75H1052.66ZM1051.66 213.2H1004.41V215.2H1051.66V213.2ZM1005.41 214.2V213.3H1003.41V214.2H1005.41ZM1146.97 342H1145.97V343H1146.97V342ZM1146.97 341.1V340.1H1145.97V341.1H1146.97ZM1187.25 341.1V342.1H1188.25V341.1H1187.25ZM1187.25 5.39999H1188.25V4.39999H1187.25V5.39999ZM1146.97 5.39999H1145.97V6.39999H1146.97V5.39999ZM1146.97 4.49997V3.49997H1145.97V4.49997H1146.97ZM1395.15 4.49997H1396.15V3.49997H1395.15V4.49997ZM1395.15 96.75V97.75H1396.15V96.75H1395.15ZM1394.47 96.75L1393.48 96.8338L1393.55 97.75H1394.47V96.75ZM1381.87 51.975L1380.98 52.4184L1380.98 52.4299L1381.87 51.975ZM1352.85 18.225L1352.28 19.0461L1352.28 19.0493L1352.85 18.225ZM1246.42 5.39999V4.39999H1245.42V5.39999H1246.42ZM1246.42 341.1H1245.42V342.1H1246.42V341.1ZM1354.65 328.05L1355.19 328.891L1355.19 328.889L1354.65 328.05ZM1385.92 292.05L1385.02 291.613L1385.02 291.621L1385.92 292.05ZM1398.97 240.75V239.75H1398.04L1397.98 240.679L1398.97 240.75ZM1399.87 240.75H1400.87V239.75H1399.87V240.75ZM1399.87 342V343H1400.87V342H1399.87ZM1322.02 220.95L1321.03 221.083L1321.15 221.95H1322.02V220.95ZM1311.67 193.95L1310.85 194.515L1310.85 194.522L1311.67 193.95ZM1291.42 174.825L1291.93 173.962L1291.42 174.825ZM1227.75 167.85H1226.75V168.85H1227.75V167.85ZM1227.75 166.95V165.95H1226.75V166.95H1227.75ZM1291.42 160.65L1291.89 161.534L1291.9 161.531L1291.9 161.527L1291.42 160.65ZM1322.02 116.1V115.1H1321.15L1321.03 115.967L1322.02 116.1ZM1322.92 116.1H1323.92V115.1H1322.92V116.1ZM1322.92 220.95V221.95H1323.92V220.95H1322.92ZM1147.97 342V341.1H1145.97V342H1147.97ZM1146.97 342.1H1187.25V340.1H1146.97V342.1ZM1188.25 341.1V5.39999H1186.25V341.1H1188.25ZM1187.25 4.39999H1146.97V6.39999H1187.25V4.39999ZM1147.97 5.39999V4.49997H1145.97V5.39999H1147.97ZM1146.97 5.49997H1395.15V3.49997H1146.97V5.49997ZM1394.15 4.49997V96.75H1396.15V4.49997H1394.15ZM1395.15 95.75H1394.47V97.75H1395.15V95.75ZM1395.47 96.6662C1394.11 80.492 1389.87 65.4403 1382.76 51.5201L1380.98 52.4299C1387.97 66.1097 1392.14 80.908 1393.48 96.8338L1395.47 96.6662ZM1382.77 51.5316C1375.8 37.4334 1366.01 26.0504 1353.41 17.4007L1352.28 19.0493C1364.59 27.4996 1374.15 38.6166 1380.98 52.4184L1382.77 51.5316ZM1353.42 17.4039C1340.92 8.71844 1325.79 4.39999 1308.07 4.39999V6.39999C1325.45 6.39999 1340.17 10.6315 1352.28 19.0461L1353.42 17.4039ZM1308.07 4.39999H1246.42V6.39999H1308.07V4.39999ZM1245.42 5.39999V341.1H1247.42V5.39999H1245.42ZM1246.42 342.1H1303.57V340.1H1246.42V342.1ZM1303.57 342.1C1324.26 342.1 1341.49 337.72 1355.19 328.891L1354.11 327.209C1340.81 335.78 1323.98 340.1 1303.57 340.1V342.1ZM1355.19 328.889C1369 319.935 1379.55 307.791 1386.83 292.479L1385.02 291.621C1377.9 306.609 1367.59 318.465 1354.1 327.211L1355.19 328.889ZM1386.82 292.486C1394.23 277.208 1398.61 259.981 1399.97 240.821L1397.98 240.679C1396.63 259.619 1392.31 276.592 1385.02 291.613L1386.82 292.486ZM1398.97 241.75H1399.87V239.75H1398.97V241.75ZM1398.87 240.75V342H1400.87V240.75H1398.87ZM1399.87 341H1146.97V343H1399.87V341ZM1323.01 220.817C1321.64 210.616 1318.14 201.464 1312.49 193.378L1310.85 194.522C1316.31 202.336 1319.7 211.184 1321.03 221.083L1323.01 220.817ZM1312.5 193.385C1306.87 185.171 1300.01 178.691 1291.93 173.962L1290.92 175.688C1298.73 180.259 1305.38 186.529 1310.85 194.515L1312.5 193.385ZM1291.93 173.962C1283.84 169.229 1275.41 166.85 1266.67 166.85V168.85C1275.03 168.85 1283.11 171.121 1290.92 175.688L1291.93 173.962ZM1266.67 166.85H1227.75V168.85H1266.67V166.85ZM1228.75 167.85V166.95H1226.75V167.85H1228.75ZM1227.75 167.95H1266.67V165.95H1227.75V167.95ZM1266.67 167.95C1275.39 167.95 1283.8 165.806 1291.89 161.534L1290.96 159.766C1283.14 163.894 1275.05 165.95 1266.67 165.95V167.95ZM1291.9 161.527C1299.99 157.103 1306.85 151.002 1312.48 143.237L1310.86 142.063C1305.4 149.598 1298.76 155.497 1290.94 159.773L1291.9 161.527ZM1312.48 143.237C1318.14 135.444 1321.64 126.435 1323.01 116.233L1321.03 115.967C1319.7 125.865 1316.31 134.556 1310.86 142.063L1312.48 143.237ZM1322.02 117.1H1322.92V115.1H1322.02V117.1ZM1321.92 116.1V220.95H1323.92V116.1H1321.92ZM1322.92 219.95H1322.02V221.95H1322.92V219.95ZM1497.25 169.2H1496.25V170.2H1497.25V169.2ZM1497.25 168.3V167.3H1496.25V168.3H1497.25ZM1599.63 159.075L1600.16 159.921L1600.16 159.919L1599.63 159.075ZM1621.9 131.625L1620.98 131.234L1620.98 131.244L1621.9 131.625ZM1621.9 43.425L1620.97 43.7984L1620.98 43.808L1621.9 43.425ZM1599.63 15.3L1599.07 16.1281L1599.07 16.133L1599.08 16.1379L1599.63 15.3ZM1416.25 5.39999H1415.25V6.39999H1416.25V5.39999ZM1416.25 4.49997V3.49997H1415.25V4.49997H1416.25ZM1633.15 13.275L1632.84 14.2261L1632.85 14.229L1633.15 13.275ZM1675.45 40.275L1674.68 40.9078L1674.69 40.918L1675.45 40.275ZM1676.35 135L1675.57 134.375L1675.57 134.376L1676.35 135ZM1635.18 161.1L1635.47 162.057L1635.47 162.056L1635.18 161.1ZM1416.25 342H1415.25V343H1416.25V342ZM1416.25 341.1V340.1H1415.25V341.1H1416.25ZM1568.8 341.1H1569.8V340.1H1568.8V341.1ZM1568.8 342V343H1569.8V342H1568.8ZM1462.83 341.55H1461.83V342.55H1462.83V341.55ZM1462.83 4.95V3.95H1461.83V4.95H1462.83ZM1522 4.95H1523V3.95H1522V4.95ZM1522 341.55V342.55H1523V341.55H1522ZM1646.43 337.5L1645.91 338.353L1645.91 338.357L1646.43 337.5ZM1628.65 317.7L1627.74 318.108L1627.74 318.114L1628.65 317.7ZM1621.45 289.575L1620.46 289.674L1620.46 289.676L1621.45 289.575ZM1619.65 257.175L1618.65 257.188V257.189L1619.65 257.175ZM1618.08 224.775L1617.08 224.86L1617.08 224.862L1618.08 224.775ZM1611.55 196.65L1610.63 197.03L1610.63 197.036L1611.55 196.65ZM1594.68 176.625L1594.13 177.465L1594.14 177.469L1594.68 176.625ZM1497.25 169.2H1496.25V170.2H1497.25V169.2ZM1497.25 168.3V167.3H1496.25V168.3H1497.25ZM1666.9 202.725L1666.04 203.236L1666.05 203.241L1666.9 202.725ZM1678.83 236.475L1677.84 236.62L1677.84 236.632L1678.83 236.475ZM1681.75 273.6H1680.75L1680.75 273.612L1681.75 273.6ZM1682.43 307.575L1681.43 307.604V307.604L1682.43 307.575ZM1687.15 332.325L1688.06 331.913L1687.15 332.325ZM1717.08 340.2L1717.31 341.172L1717.32 341.169L1717.33 341.166L1717.08 340.2ZM1728.55 336.15L1729.26 335.443L1728.76 334.943L1728.12 335.247L1728.55 336.15ZM1729 336.6L1729.48 337.479L1730.66 336.841L1729.71 335.893L1729 336.6ZM1711 342.225L1711.21 343.203L1711 342.225ZM1498.25 169.2V168.3H1496.25V169.2H1498.25ZM1497.25 169.3H1563.4V167.3H1497.25V169.3ZM1563.4 169.3C1577.94 169.3 1590.22 166.194 1600.16 159.921L1599.09 158.229C1589.54 164.256 1577.66 167.3 1563.4 167.3V169.3ZM1600.16 159.919C1610.26 153.496 1617.81 144.176 1622.83 132.006L1620.98 131.244C1616.1 143.074 1608.8 152.054 1599.09 158.231L1600.16 159.919ZM1622.82 132.016C1627.99 119.859 1630.55 105.093 1630.55 87.75H1628.55C1628.55 104.907 1626.02 119.391 1620.98 131.234L1622.82 132.016ZM1630.55 87.75C1630.55 70.4056 1627.99 55.4935 1622.83 43.042L1620.98 43.808C1626.02 55.9565 1628.55 70.5944 1628.55 87.75H1630.55ZM1622.83 43.0517C1617.81 30.5855 1610.27 21.0376 1600.17 14.4621L1599.08 16.1379C1608.79 22.4624 1616.09 31.6645 1620.97 43.7983L1622.83 43.0517ZM1600.19 14.4719C1590.24 7.73703 1577.96 4.39999 1563.4 4.39999V6.39999C1577.65 6.39999 1589.52 9.66295 1599.07 16.1281L1600.19 14.4719ZM1563.4 4.39999H1416.25V6.39999H1563.4V4.39999ZM1417.25 5.39999V4.49997H1415.25V5.39999H1417.25ZM1416.25 5.49997H1570.15V3.49997H1416.25V5.49997ZM1570.15 5.49997C1594.07 5.49997 1614.97 8.4158 1632.84 14.226L1633.46 12.3239C1615.34 6.43416 1594.23 3.49997 1570.15 3.49997V5.49997ZM1632.85 14.229C1650.85 19.8823 1664.77 28.7865 1674.68 40.9077L1676.23 39.6423C1666.03 27.1634 1651.75 18.0677 1633.45 12.3209L1632.85 14.229ZM1674.69 40.918C1684.7 52.8493 1689.75 68.4294 1689.75 87.75H1691.75C1691.75 68.0706 1686.6 52.0007 1676.22 39.632L1674.69 40.918ZM1689.75 87.75C1689.75 107.085 1684.99 122.596 1675.57 134.375L1677.13 135.625C1686.91 123.404 1691.75 107.415 1691.75 87.75H1689.75ZM1675.57 134.376C1666.27 146.035 1652.74 154.639 1634.88 160.144L1635.47 162.056C1653.62 156.461 1667.53 147.665 1677.13 135.623L1675.57 134.376ZM1634.89 160.143C1617.16 165.506 1595.59 168.2 1570.15 168.2V170.2C1595.72 170.2 1617.5 167.494 1635.47 162.057L1634.89 160.143ZM1570.15 168.2H1497.25V170.2H1570.15V168.2ZM1417.25 342V341.1H1415.25V342H1417.25ZM1416.25 342.1H1568.8V340.1H1416.25V342.1ZM1567.8 341.1V342H1569.8V341.1H1567.8ZM1568.8 341H1416.25V343H1568.8V341ZM1463.83 341.55V4.95H1461.83V341.55H1463.83ZM1462.83 5.95H1522V3.95H1462.83V5.95ZM1521 4.95V341.55H1523V4.95H1521ZM1522 340.55H1462.83V342.55H1522V340.55ZM1680.4 343.925C1666.1 343.925 1654.98 341.464 1646.94 336.643L1645.91 338.357C1654.38 343.436 1665.9 345.925 1680.4 345.925V343.925ZM1646.95 336.647C1639.01 331.796 1633.23 325.345 1629.56 317.286L1627.74 318.114C1631.58 326.555 1637.64 333.304 1645.91 338.353L1646.95 336.647ZM1629.57 317.292C1625.86 309.001 1623.49 299.732 1622.45 289.474L1620.46 289.676C1621.52 300.118 1623.94 309.599 1627.74 318.108L1629.57 317.292ZM1622.45 289.475C1621.4 279.005 1620.8 268.234 1620.65 257.161L1618.65 257.189C1618.8 268.316 1619.4 279.145 1620.46 289.674L1622.45 289.475ZM1620.65 257.162C1620.5 245.889 1619.98 235.065 1619.07 224.688L1617.08 224.862C1617.98 235.185 1618.5 245.961 1618.65 257.188L1620.65 257.162ZM1619.07 224.69C1618.17 214.104 1615.97 204.625 1612.47 196.264L1610.63 197.036C1614.03 205.175 1616.19 214.446 1617.08 224.86L1619.07 224.69ZM1612.48 196.27C1608.95 187.675 1603.18 180.839 1595.21 175.781L1594.14 177.469C1601.77 182.311 1607.26 188.825 1610.63 197.03L1612.48 196.27ZM1595.22 175.785C1587.35 170.69 1576.4 168.2 1562.5 168.2V170.2C1576.2 170.2 1586.71 172.66 1594.13 177.465L1595.22 175.785ZM1562.5 168.2H1497.25V170.2H1562.5V168.2ZM1498.25 169.2V168.3H1496.25V169.2H1498.25ZM1497.25 169.3H1587.7V167.3H1497.25V169.3ZM1587.7 169.3C1609.07 169.3 1625.92 172.441 1638.33 178.644L1639.22 176.856C1626.43 170.459 1609.23 167.3 1587.7 167.3V169.3ZM1638.33 178.644C1650.79 184.874 1660.01 193.077 1666.04 203.236L1667.76 202.214C1661.5 191.673 1651.97 183.226 1639.22 176.856L1638.33 178.644ZM1666.05 203.241C1672.12 213.323 1676.06 224.445 1677.84 236.62L1679.82 236.33C1678 223.905 1673.98 212.527 1667.76 202.209L1666.05 203.241ZM1677.84 236.632C1679.78 248.88 1680.75 261.202 1680.75 273.6H1682.75C1682.75 261.098 1681.77 248.67 1679.81 236.318L1677.84 236.632ZM1680.75 273.612C1680.9 285.917 1681.13 297.247 1681.43 307.604L1683.43 307.546C1683.13 297.203 1682.9 285.883 1682.75 273.588L1680.75 273.612ZM1681.43 307.604C1681.73 317.879 1683.32 326.274 1686.24 332.737L1688.06 331.913C1685.29 325.776 1683.72 317.671 1683.43 307.546L1681.43 307.604ZM1686.24 332.737C1687.74 336.055 1689.94 338.586 1692.84 340.276C1695.72 341.962 1699.25 342.775 1703.35 342.775V340.775C1699.51 340.775 1696.35 340.013 1693.84 338.549C1691.34 337.089 1689.41 334.895 1688.06 331.913L1686.24 332.737ZM1703.35 342.775C1708.23 342.775 1712.88 342.242 1717.31 341.172L1716.84 339.228C1712.57 340.258 1708.08 340.775 1703.35 340.775V342.775ZM1717.33 341.166C1721.88 339.955 1725.76 338.586 1728.98 337.053L1728.12 335.247C1725.04 336.714 1721.28 338.045 1716.82 339.234L1717.33 341.166ZM1727.84 336.857L1728.29 337.307L1729.71 335.893L1729.26 335.443L1727.84 336.857ZM1728.53 335.721C1725.06 337.598 1719.18 339.45 1710.79 341.247L1711.21 343.203C1719.63 341.4 1725.74 339.502 1729.48 337.479L1728.53 335.721ZM1710.79 341.247C1702.48 343.028 1692.36 343.925 1680.4 343.925V345.925C1692.45 345.925 1702.72 345.022 1711.21 343.203L1710.79 341.247Z" fill="#4BA040" mask="url(#path-1-outside-1_168_135)"/>
</g>
</svg>
