<svg width="1302" height="216" viewBox="0 0 1302 216" fill="none" xmlns="http://www.w3.org/2000/svg">
<path d="M0.9 213V212.44H25.96V3.55999H0.9V2.99998H87.84V3.55999H62.78V212.44H97.22C107.86 212.44 116.82 210.9 124.1 207.82C131.38 204.647 137.307 200.26 141.88 194.66C146.453 188.967 149.907 182.34 152.24 174.78C154.573 167.127 156.02 158.867 156.58 150H157.14V213H0.9ZM202.977 42.2C197.19 42.2 192.244 40.1467 188.137 36.04C184.124 31.9333 182.117 26.9867 182.117 21.2C182.117 15.2267 184.124 10.2333 188.137 6.21998C192.244 2.20665 197.19 0.199986 202.977 0.199986C208.95 0.199986 213.944 2.20665 217.957 6.21998C221.97 10.2333 223.977 15.2267 223.977 21.2C223.977 26.9867 221.97 31.9333 217.957 36.04C213.944 40.1467 208.95 42.2 202.977 42.2ZM219.777 84.2V212.44H237.417V213H168.537V212.44H186.177V84.76H168.537V84.2H219.777ZM300.069 84.2V212.44H314.769V213H248.829V212.44H266.609V84.76H248.829V84.2H300.069ZM379.869 123.68V212.44H394.569V213H331.569V212.44H346.409V125.08C346.409 117.24 346.129 110.427 345.569 104.64C345.009 98.76 343.702 94.2333 341.649 91.06C339.689 87.7933 336.656 86.16 332.549 86.16C325.736 86.16 320.182 88.26 315.889 92.46C311.689 96.66 308.422 102.027 306.089 108.56C303.756 115.093 302.169 122.093 301.329 129.56C300.489 136.933 300.069 143.933 300.069 150.56L299.509 151.54C299.509 144.727 299.882 137.307 300.629 129.28C301.469 121.253 303.242 113.6 305.949 106.32C308.749 99.04 312.996 93.0667 318.689 88.4C324.476 83.7333 332.222 81.4 341.929 81.4C351.449 81.4 358.962 83.22 364.469 86.86C370.069 90.5 374.036 95.54 376.369 101.98C378.702 108.327 379.869 115.56 379.869 123.68ZM459.669 123.68V212.44H477.309V213H411.369V212.44H426.069V125.08C426.069 117.24 425.789 110.427 425.229 104.64C424.669 98.76 423.409 94.2333 421.449 91.06C419.489 87.7933 416.456 86.16 412.349 86.16C405.536 86.16 399.982 88.26 395.689 92.46C391.489 96.66 388.222 102.027 385.889 108.56C383.649 115.093 382.062 122.093 381.129 129.56C380.289 136.933 379.869 143.933 379.869 150.56L379.309 151.54C379.309 144.727 379.729 137.307 380.569 129.28C381.409 121.253 383.182 113.6 385.889 106.32C388.596 99.04 392.796 93.0667 398.489 88.4C404.276 83.7333 412.022 81.4 421.729 81.4C431.249 81.4 438.762 83.22 444.269 86.86C449.869 90.5 453.836 95.54 456.169 101.98C458.502 108.327 459.669 115.56 459.669 123.68ZM560.108 215.8C547.415 215.8 535.981 213.187 525.808 207.96C515.635 202.64 507.608 194.987 501.728 185C495.848 175.013 492.908 162.88 492.908 148.6C492.908 134.32 495.755 122.187 501.448 112.2C507.235 102.213 515.121 94.6067 525.108 89.38C535.188 84.06 546.575 81.4 559.268 81.4C573.175 81.4 584.561 84.2 593.428 89.8C602.295 95.3067 608.828 102.54 613.028 111.5C617.228 120.46 619.328 130.027 619.328 140.2H511.668V139.64H582.648C582.648 133.76 582.368 127.507 581.808 120.88C581.341 114.16 580.315 107.86 578.728 101.98C577.235 96.1 574.901 91.2933 571.728 87.56C568.648 83.8267 564.495 81.96 559.268 81.96C553.668 81.96 549.001 83.8267 545.268 87.56C541.535 91.2 538.595 96.1933 536.448 102.54C534.301 108.793 532.761 115.747 531.828 123.4C530.988 131.053 530.568 138.893 530.568 146.92C530.568 155.507 531.035 163.86 531.968 171.98C532.995 180.007 534.768 187.193 537.288 193.54C539.808 199.887 543.308 204.973 547.788 208.8C552.268 212.533 558.008 214.4 565.008 214.4C578.915 214.4 590.535 210.433 599.868 202.5C609.201 194.473 615.595 184.627 619.048 172.96H619.608C615.968 185.093 609.248 195.267 599.448 203.48C589.648 211.693 576.535 215.8 560.108 215.8ZM640.265 215.8V174.08H640.825C642.225 182.107 645.398 189.2 650.345 195.36C655.291 201.52 661.405 206.373 668.685 209.92C675.965 213.373 683.851 215.1 692.345 215.1C698.225 215.1 703.591 214.26 708.445 212.58C713.391 210.807 717.311 208.193 720.205 204.74C723.191 201.193 724.685 196.667 724.685 191.16C724.685 185.56 722.725 181.173 718.805 178C714.885 174.827 709.798 172.213 703.545 170.16C697.385 168.013 690.805 165.913 683.805 163.86C676.898 161.713 670.365 159.007 664.205 155.74C658.045 152.473 653.005 148.087 649.085 142.58C645.165 137.073 643.205 129.84 643.205 120.88C643.205 114.067 644.838 107.72 648.105 101.84C651.371 95.8667 656.085 91.0133 662.245 87.28C668.498 83.5467 676.058 81.68 684.925 81.68C691.645 81.68 697.711 82.8 703.125 85.04C708.538 87.1867 713.251 90.0333 717.265 93.58L732.665 81.4H733.225V120.6H732.665C731.171 114.16 728.325 108.047 724.125 102.26C719.925 96.38 714.511 91.5733 707.885 87.84C701.351 84.1067 693.745 82.24 685.065 82.24C679.651 82.24 674.891 83.0333 670.785 84.62C666.771 86.2067 663.645 88.4933 661.405 91.48C659.165 94.4667 658.045 97.92 658.045 101.84C658.045 107.16 660.098 111.453 664.205 114.72C668.311 117.893 673.585 120.647 680.025 122.98C686.465 125.22 693.278 127.507 700.465 129.84C707.651 132.08 714.465 134.88 720.905 138.24C727.438 141.6 732.711 145.987 736.725 151.4C740.831 156.813 742.885 163.813 742.885 172.4C742.885 181.547 740.598 189.34 736.025 195.78C731.451 202.22 725.385 207.167 717.825 210.62C710.265 214.073 702.098 215.8 693.325 215.8C686.138 215.8 679.418 214.633 673.165 212.3C666.911 209.967 661.358 206.7 656.505 202.5L640.825 215.8H640.265ZM801.538 214.96C793.045 214.96 786.651 213.373 782.358 210.2C778.158 207.027 775.358 202.873 773.958 197.74C772.558 192.607 771.858 187.053 771.858 181.08V56.2C777.271 56.2 783.198 55.4067 789.638 53.82C796.078 52.2333 801.351 50.2267 805.458 47.8V191.02C805.458 198.02 806.298 202.92 807.978 205.72C809.658 208.427 812.365 209.78 816.098 209.78C820.951 209.78 825.945 207.4 831.078 202.64C836.211 197.88 840.271 191.813 843.258 184.44H843.818C840.458 193.4 835.138 200.727 827.858 206.42C820.578 212.113 811.805 214.96 801.538 214.96ZM751.418 84.76V84.2H835.418V84.76H751.418ZM922.336 215.8C908.71 215.8 896.903 212.72 886.916 206.56C876.93 200.4 869.23 192.233 863.816 182.06C858.496 171.887 855.836 160.733 855.836 148.6C855.836 136.467 858.496 125.313 863.816 115.14C869.23 104.967 876.93 96.8 886.916 90.64C896.903 84.48 908.71 81.4 922.336 81.4C936.15 81.4 948.003 84.48 957.896 90.64C967.883 96.8 975.536 104.967 980.856 115.14C986.27 125.313 988.976 136.467 988.976 148.6C988.976 160.733 986.27 171.887 980.856 182.06C975.536 192.233 967.883 200.4 957.896 206.56C948.003 212.72 936.15 215.8 922.336 215.8ZM922.336 215.24C928.59 215.24 933.63 213.233 937.456 209.22C941.376 205.207 944.363 199.933 946.416 193.4C948.563 186.773 950.056 179.54 950.896 171.7C951.736 163.86 952.156 156.16 952.156 148.6C952.156 140.947 951.736 133.247 950.896 125.5C950.056 117.66 948.563 110.473 946.416 103.94C944.363 97.3133 941.376 91.9933 937.456 87.98C933.63 83.9667 928.59 81.96 922.336 81.96C916.176 81.96 911.136 83.9667 907.216 87.98C903.39 91.9933 900.403 97.3133 898.256 103.94C896.203 110.473 894.756 117.66 893.916 125.5C893.076 133.247 892.656 140.947 892.656 148.6C892.656 156.16 893.076 163.86 893.916 171.7C894.756 179.54 896.203 186.773 898.256 193.4C900.403 199.933 903.39 205.207 907.216 209.22C911.136 213.233 916.176 215.24 922.336 215.24ZM1055.8 84.2V212.44H1070.92V213H1004.56V212.44H1022.34V84.76H1004.56V84.2H1055.8ZM1141.2 123.68V212.44H1158.84V213H1092.48V212.44H1107.6V125.08C1107.6 117.24 1107.27 110.427 1106.62 104.64C1105.96 98.76 1104.56 94.2333 1102.42 91.06C1100.36 87.7933 1097.1 86.16 1092.62 86.16C1084.5 86.16 1077.96 88.3067 1073.02 92.6C1068.07 96.8933 1064.34 102.353 1061.82 108.98C1059.39 115.607 1057.76 122.653 1056.92 130.12C1056.17 137.493 1055.8 144.307 1055.8 150.56L1055.24 151.54C1055.24 144.727 1055.66 137.307 1056.5 129.28C1057.34 121.253 1059.2 113.6 1062.1 106.32C1065.08 99.04 1069.7 93.0667 1075.96 88.4C1082.21 83.7333 1090.7 81.4 1101.44 81.4C1112.08 81.4 1120.24 83.22 1125.94 86.86C1131.72 90.5 1135.69 95.54 1137.84 101.98C1140.08 108.327 1141.2 115.56 1141.2 123.68ZM1241.73 215.8C1229.04 215.8 1217.61 213.187 1207.43 207.96C1197.26 202.64 1189.23 194.987 1183.35 185C1177.47 175.013 1174.53 162.88 1174.53 148.6C1174.53 134.32 1177.38 122.187 1183.07 112.2C1188.86 102.213 1196.75 94.6067 1206.73 89.38C1216.81 84.06 1228.2 81.4 1240.89 81.4C1254.8 81.4 1266.19 84.2 1275.05 89.8C1283.92 95.3067 1290.45 102.54 1294.65 111.5C1298.85 120.46 1300.95 130.027 1300.95 140.2H1193.29V139.64H1264.27C1264.27 133.76 1263.99 127.507 1263.43 120.88C1262.97 114.16 1261.94 107.86 1260.35 101.98C1258.86 96.1 1256.53 91.2933 1253.35 87.56C1250.27 83.8267 1246.12 81.96 1240.89 81.96C1235.29 81.96 1230.63 83.8267 1226.89 87.56C1223.16 91.2 1220.22 96.1933 1218.07 102.54C1215.93 108.793 1214.39 115.747 1213.45 123.4C1212.61 131.053 1212.19 138.893 1212.19 146.92C1212.19 155.507 1212.66 163.86 1213.59 171.98C1214.62 180.007 1216.39 187.193 1218.91 193.54C1221.43 199.887 1224.93 204.973 1229.41 208.8C1233.89 212.533 1239.63 214.4 1246.63 214.4C1260.54 214.4 1272.16 210.433 1281.49 202.5C1290.83 194.473 1297.22 184.627 1300.67 172.96H1301.23C1297.59 185.093 1290.87 195.267 1281.07 203.48C1271.27 211.693 1258.16 215.8 1241.73 215.8Z" fill="black"/>
</svg>
