<svg width="1702" height="233" viewBox="0 0 1702 233" fill="none" xmlns="http://www.w3.org/2000/svg">
<path d="M0.25 228V227.4H27.1V3.59999H0.25V2.99998H93.4V3.59999H66.55V227.4H103.45C114.85 227.4 124.45 225.75 132.25 222.45C140.05 219.05 146.4 214.35 151.3 208.35C156.2 202.25 159.9 195.15 162.4 187.05C164.9 178.85 166.45 170 167.05 160.5H167.65V228H0.25ZM175.961 228V227.4H208.811V3.59999H175.961V2.99998H284.261V3.59999H248.261V227.4H284.261V228H175.961ZM398.413 231L315.013 2.99998H354.463L418.213 174.15L478.813 2.99998H479.413L399.013 231H398.413ZM315.313 2.99998V227.4H338.563V228H292.963V227.4H314.713V3.59999H291.613V2.99998H315.313ZM539.413 2.99998V3.59999H518.413V227.4H539.413V228H454.963V227.4H479.113V2.99998H539.413ZM546.719 228V227.4H573.569V3.59999H546.719V2.99998H712.169V64.5H711.719C710.819 53.8 708.019 43.85 703.319 34.65C698.719 25.35 692.269 17.85 683.969 12.15C675.769 6.44999 665.819 3.59999 654.119 3.59999H613.019V227.4H651.119C664.819 227.4 676.169 224.5 685.169 218.7C694.269 212.8 701.219 204.8 706.019 194.7C710.919 184.6 713.819 173.2 714.719 160.5H715.319V228H546.719ZM663.419 147.3C662.519 140.6 660.219 134.6 656.519 129.3C652.819 123.9 648.319 119.65 643.019 116.55C637.719 113.45 632.219 111.9 626.519 111.9H600.569V111.3H626.519C632.219 111.3 637.719 109.9 643.019 107.1C648.319 104.2 652.819 100.2 656.519 95.1C660.219 90 662.519 84.1 663.419 77.4H664.019V147.3H663.419ZM810.988 232.5C798.788 232.5 788.338 230.55 779.638 226.65C771.038 222.75 763.788 217.5 757.888 210.9L734.488 231H733.888V164.1H734.488C736.888 173 740.038 181.5 743.938 189.6C747.938 197.7 752.888 204.95 758.788 211.35C764.788 217.65 771.938 222.65 780.238 226.35C788.538 229.95 798.188 231.75 809.188 231.75C819.188 231.75 827.838 229.8 835.138 225.9C842.538 222 848.238 216.5 852.238 209.4C856.338 202.3 858.388 193.9 858.388 184.2C858.388 175.8 856.188 168.75 851.788 163.05C847.388 157.25 841.588 152.25 834.388 148.05C827.188 143.85 819.238 139.9 810.538 136.2C801.938 132.5 793.288 128.55 784.588 124.35C775.988 120.15 768.088 115.2 760.888 109.5C753.688 103.7 747.888 96.7 743.488 88.5C739.088 80.2 736.888 70.1 736.888 58.2C736.888 46.3 739.888 36 745.888 27.3C751.988 18.5 759.938 11.75 769.738 7.04999C779.638 2.34999 790.288 -1.50204e-05 801.688 -1.50204e-05C811.188 -1.50204e-05 819.838 1.49998 827.638 4.49998C835.438 7.49999 842.238 12.1 848.038 18.3L870.988 -1.50204e-05H871.588V65.1H870.838C867.638 51.2 862.938 39.5 856.738 30C850.538 20.4 842.988 13.2 834.088 8.39998C825.188 3.49998 815.088 1.04998 803.788 1.04998C790.688 1.04998 780.788 4.59999 774.088 11.7C767.488 18.7 764.188 27.7 764.188 38.7C764.188 46.2 766.338 52.6 770.638 57.9C774.938 63.2 780.588 67.9 787.588 72C794.688 76 802.488 79.9 810.988 83.7C819.588 87.5 828.138 91.65 836.638 96.15C845.138 100.55 852.888 105.8 859.888 111.9C866.988 118 872.688 125.35 876.988 133.95C881.388 142.55 883.588 153 883.588 165.3C883.588 178.9 880.488 190.75 874.288 200.85C868.088 210.85 859.488 218.65 848.488 224.25C837.588 229.75 825.088 232.5 810.988 232.5ZM938.655 228V227.4H971.655V3.59999H947.955C939.555 3.59999 932.355 5.39999 926.355 8.99999C920.455 12.6 915.505 17.65 911.505 24.15C907.605 30.55 904.555 37.95 902.355 46.35C900.255 54.75 898.855 63.7 898.155 73.2H897.555V2.99998H1085.05V73.2H1084.3C1083.6 63.7 1082.15 54.75 1079.95 46.35C1077.85 37.95 1074.8 30.55 1070.8 24.15C1066.9 17.65 1061.95 12.6 1055.95 8.99999C1050.05 5.39999 1042.95 3.59999 1034.65 3.59999H1010.95V227.4H1043.95V228H938.655ZM1199.11 231C1183.41 231 1169.41 228.05 1157.11 222.15C1144.81 216.25 1134.36 208.05 1125.76 197.55C1117.16 187.05 1110.61 174.8 1106.11 160.8C1101.61 146.8 1099.36 131.7 1099.36 115.5C1099.36 99.3 1101.71 84.2 1106.41 70.2C1111.21 56.2 1118.01 43.95 1126.81 33.45C1135.61 22.95 1146.11 14.75 1158.31 8.84999C1170.51 2.94999 1184.11 -1.50204e-05 1199.11 -1.50204e-05C1214.01 -1.50204e-05 1227.56 2.94999 1239.76 8.84999C1251.96 14.75 1262.46 22.95 1271.26 33.45C1280.06 43.95 1286.81 56.2 1291.51 70.2C1296.21 84.2 1298.56 99.3 1298.56 115.5C1298.56 131.7 1296.31 146.8 1291.81 160.8C1287.41 174.8 1280.91 187.1 1272.31 197.7C1263.81 208.2 1253.36 216.4 1240.96 222.3C1228.66 228.1 1214.71 231 1199.11 231ZM1199.11 230.4C1210.61 230.4 1219.91 227.25 1227.01 220.95C1234.11 214.55 1239.56 205.95 1243.36 195.15C1247.16 184.25 1249.76 171.95 1251.16 158.25C1252.56 144.45 1253.26 130.2 1253.26 115.5C1253.26 100.7 1252.41 86.45 1250.71 72.75C1249.11 59.05 1246.26 46.8 1242.16 36C1238.16 25.1 1232.66 16.5 1225.66 10.2C1218.66 3.8 1209.81 0.599995 1199.11 0.599995C1188.41 0.599995 1179.51 3.8 1172.41 10.2C1165.41 16.5 1159.86 25.1 1155.76 36C1151.76 46.8 1148.91 59.05 1147.21 72.75C1145.51 86.45 1144.66 100.7 1144.66 115.5C1144.66 130.2 1145.36 144.45 1146.76 158.25C1148.16 172.05 1150.76 184.35 1154.56 195.15C1158.46 205.95 1163.96 214.55 1171.06 220.95C1178.26 227.25 1187.61 230.4 1199.11 230.4ZM1343.44 2.99998V227.4H1378.84V228H1313.14V227.4H1342.84V3.59999H1313.14V2.99998H1343.44ZM1525.09 2.99998V3.59999H1493.59V231H1492.99L1343.14 2.99998H1390.09L1492.99 163.95V3.59999H1457.89V2.99998H1525.09ZM1532.5 228V227.4H1559.35V3.59999H1532.5V2.99998H1697.95V64.5H1697.5C1696.6 53.8 1693.8 43.85 1689.1 34.65C1684.5 25.35 1678.05 17.85 1669.75 12.15C1661.55 6.44999 1651.6 3.59999 1639.9 3.59999H1598.8V227.4H1636.9C1650.6 227.4 1661.95 224.5 1670.95 218.7C1680.05 212.8 1687 204.8 1691.8 194.7C1696.7 184.6 1699.6 173.2 1700.5 160.5H1701.1V228H1532.5ZM1649.2 147.3C1648.3 140.6 1646 134.6 1642.3 129.3C1638.6 123.9 1634.1 119.65 1628.8 116.55C1623.5 113.45 1618 111.9 1612.3 111.9H1586.35V111.3H1612.3C1618 111.3 1623.5 109.9 1628.8 107.1C1634.1 104.2 1638.6 100.2 1642.3 95.1C1646 90 1648.3 84.1 1649.2 77.4H1649.8V147.3H1649.2Z" fill="black"/>
</svg>
