<svg width="1700" height="233" viewBox="0 0 1700 233" fill="none" xmlns="http://www.w3.org/2000/svg">
<g opacity="0.56">
<mask id="path-1-outside-1_32_8794" maskUnits="userSpaceOnUse" x="-1" y="-1" width="1702" height="235" fill="black">
<rect fill="white" x="-1" y="-1" width="1702" height="235"/>
<path d="M0.25 228V227.4H27.1V3.59999H0.25V2.99998H93.4V3.59999H66.55V227.4H103.45C114.85 227.4 124.45 225.75 132.25 222.45C140.05 219.05 146.4 214.35 151.3 208.35C156.2 202.25 159.9 195.15 162.4 187.05C164.9 178.85 166.45 170 167.05 160.5H167.65V228H0.25ZM175.961 228V227.4H208.811V3.59999H175.961V2.99998H284.261V3.59999H248.261V227.4H284.261V228H175.961ZM398.413 231L315.013 2.99998H354.463L418.213 174.15L478.813 2.99998H479.413L399.013 231H398.413ZM315.313 2.99998V227.4H338.563V228H292.963V227.4H314.713V3.59999H291.613V2.99998H315.313ZM539.413 2.99998V3.59999H518.413V227.4H539.413V228H454.963V227.4H479.113V2.99998H539.413ZM546.719 228V227.4H573.569V3.59999H546.719V2.99998H712.169V64.5H711.719C710.819 53.8 708.019 43.85 703.319 34.65C698.719 25.35 692.269 17.85 683.969 12.15C675.769 6.44999 665.819 3.59999 654.119 3.59999H613.019V227.4H651.119C664.819 227.4 676.169 224.5 685.169 218.7C694.269 212.8 701.219 204.8 706.019 194.7C710.919 184.6 713.819 173.2 714.719 160.5H715.319V228H546.719ZM663.419 147.3C662.519 140.6 660.219 134.6 656.519 129.3C652.819 123.9 648.319 119.65 643.019 116.55C637.719 113.45 632.219 111.9 626.519 111.9H600.569V111.3H626.519C632.219 111.3 637.719 109.9 643.019 107.1C648.319 104.2 652.819 100.2 656.519 95.1C660.219 90 662.519 84.1 663.419 77.4H664.019V147.3H663.419ZM810.988 232.5C798.788 232.5 788.338 230.55 779.638 226.65C771.038 222.75 763.788 217.5 757.888 210.9L734.488 231H733.888V164.1H734.488C736.888 173 740.038 181.5 743.938 189.6C747.938 197.7 752.888 204.95 758.788 211.35C764.788 217.65 771.938 222.65 780.238 226.35C788.538 229.95 798.188 231.75 809.188 231.75C819.188 231.75 827.838 229.8 835.138 225.9C842.538 222 848.238 216.5 852.238 209.4C856.338 202.3 858.388 193.9 858.388 184.2C858.388 175.8 856.188 168.75 851.788 163.05C847.388 157.25 841.588 152.25 834.388 148.05C827.188 143.85 819.238 139.9 810.538 136.2C801.938 132.5 793.288 128.55 784.588 124.35C775.988 120.15 768.088 115.2 760.888 109.5C753.688 103.7 747.888 96.7 743.488 88.5C739.088 80.2 736.888 70.1 736.888 58.2C736.888 46.3 739.888 36 745.888 27.3C751.988 18.5 759.938 11.75 769.738 7.04999C779.638 2.34999 790.288 -1.50204e-05 801.688 -1.50204e-05C811.188 -1.50204e-05 819.838 1.49998 827.638 4.49998C835.438 7.49999 842.238 12.1 848.038 18.3L870.988 -1.50204e-05H871.588V65.1H870.838C867.638 51.2 862.938 39.5 856.738 30C850.538 20.4 842.988 13.2 834.088 8.39998C825.188 3.49998 815.088 1.04998 803.788 1.04998C790.688 1.04998 780.788 4.59999 774.088 11.7C767.488 18.7 764.188 27.7 764.188 38.7C764.188 46.2 766.338 52.6 770.638 57.9C774.938 63.2 780.588 67.9 787.588 72C794.688 76 802.488 79.9 810.988 83.7C819.588 87.5 828.138 91.65 836.638 96.15C845.138 100.55 852.888 105.8 859.888 111.9C866.988 118 872.688 125.35 876.988 133.95C881.388 142.55 883.588 153 883.588 165.3C883.588 178.9 880.488 190.75 874.288 200.85C868.088 210.85 859.488 218.65 848.488 224.25C837.588 229.75 825.088 232.5 810.988 232.5ZM936.604 228V227.4H969.604V3.59999H945.904C937.504 3.59999 930.304 5.39999 924.304 8.99999C918.404 12.6 913.454 17.65 909.454 24.15C905.554 30.55 902.504 37.95 900.304 46.35C898.204 54.75 896.804 63.7 896.104 73.2H895.504V2.99998H1083V73.2H1082.25C1081.55 63.7 1080.1 54.75 1077.9 46.35C1075.8 37.95 1072.75 30.55 1068.75 24.15C1064.85 17.65 1059.9 12.6 1053.9 8.99999C1048 5.39999 1040.9 3.59999 1032.6 3.59999H1008.9V227.4H1041.9V228H936.604ZM1197.06 231C1181.36 231 1167.36 228.05 1155.06 222.15C1142.76 216.25 1132.31 208.05 1123.71 197.55C1115.11 187.05 1108.56 174.8 1104.06 160.8C1099.56 146.8 1097.31 131.7 1097.31 115.5C1097.31 99.3 1099.66 84.2 1104.36 70.2C1109.16 56.2 1115.91 43.95 1124.61 33.45C1133.41 22.95 1143.91 14.75 1156.11 8.84999C1168.41 2.94999 1182.06 -1.50204e-05 1197.06 -1.50204e-05C1211.96 -1.50204e-05 1225.51 2.94999 1237.71 8.84999C1249.91 14.75 1260.41 22.95 1269.21 33.45C1278.01 43.95 1284.76 56.2 1289.46 70.2C1294.16 84.2 1296.51 99.3 1296.51 115.5C1296.51 131.7 1294.26 146.8 1289.76 160.8C1285.36 174.8 1278.86 187.05 1270.26 197.55C1261.76 208.05 1251.31 216.25 1238.91 222.15C1226.61 228.05 1212.66 231 1197.06 231ZM1197.06 230.4C1208.56 230.4 1217.86 227.25 1224.96 220.95C1232.06 214.55 1237.51 205.95 1241.31 195.15C1245.11 184.25 1247.71 171.95 1249.11 158.25C1250.51 144.45 1251.21 130.15 1251.21 115.35C1251.21 100.65 1250.36 86.45 1248.66 72.75C1247.06 59.05 1244.21 46.8 1240.11 36C1236.11 25.1 1230.61 16.5 1223.61 10.2C1216.61 3.8 1207.76 0.599995 1197.06 0.599995C1186.36 0.599995 1177.46 3.8 1170.36 10.2C1163.36 16.5 1157.81 25.1 1153.71 36C1149.71 46.8 1146.86 59.05 1145.16 72.75C1143.46 86.45 1142.61 100.7 1142.61 115.5C1142.61 130.2 1143.31 144.45 1144.71 158.25C1146.11 172.05 1148.71 184.35 1152.51 195.15C1156.41 205.95 1161.91 214.55 1169.01 220.95C1176.21 227.25 1185.56 230.4 1197.06 230.4ZM1341.39 2.99998V227.4H1376.79V228H1311.09V227.4H1340.79V3.59999H1311.09V2.99998H1341.39ZM1523.04 2.99998V3.59999H1491.54V231H1490.94L1341.09 2.99998H1388.04L1490.94 163.95V3.59999H1455.84V2.99998H1523.04ZM1530.45 228V227.4H1557.3V3.59999H1530.45V2.99998H1695.9V64.5H1695.45C1694.55 53.8 1691.75 43.85 1687.05 34.65C1682.45 25.35 1676 17.85 1667.7 12.15C1659.5 6.44999 1649.55 3.59999 1637.85 3.59999H1596.75V227.4H1634.85C1648.55 227.4 1659.9 224.5 1668.9 218.7C1678 212.8 1684.95 204.8 1689.75 194.7C1694.65 184.6 1697.55 173.2 1698.45 160.5H1699.05V228H1530.45ZM1647.15 147.3C1646.25 140.6 1643.95 134.6 1640.25 129.3C1636.55 123.9 1632.05 119.65 1626.75 116.55C1621.45 113.45 1615.95 111.9 1610.25 111.9H1584.3V111.3H1610.25C1615.95 111.3 1621.45 109.9 1626.75 107.1C1632.05 104.2 1636.55 100.2 1640.25 95.1C1643.95 90 1646.25 84.1 1647.15 77.4H1647.75V147.3H1647.15Z"/>
</mask>
<path d="M0.25 228H-0.75V229H0.25V228ZM0.25 227.4V226.4H-0.75V227.4H0.25ZM27.1 227.4V228.4H28.1V227.4H27.1ZM27.1 3.59999H28.1V2.59999H27.1V3.59999ZM0.25 3.59999H-0.75V4.59999H0.25V3.59999ZM0.25 2.99998V1.99998H-0.75V2.99998H0.25ZM93.4 2.99998H94.4V1.99998H93.4V2.99998ZM93.4 3.59999V4.59999H94.4V3.59999H93.4ZM66.55 3.59999V2.59999H65.55V3.59999H66.55ZM66.55 227.4H65.55V228.4H66.55V227.4ZM132.25 222.45L132.64 223.371L132.65 223.367L132.25 222.45ZM151.3 208.35L152.075 208.983L152.08 208.976L151.3 208.35ZM162.4 187.05L163.356 187.345L163.357 187.342L162.4 187.05ZM167.05 160.5V159.5H166.111L166.052 160.437L167.05 160.5ZM167.65 160.5H168.65V159.5H167.65V160.5ZM167.65 228V229H168.65V228H167.65ZM1.25 228V227.4H-0.75V228H1.25ZM0.25 228.4H27.1V226.4H0.25V228.4ZM28.1 227.4V3.59999H26.1V227.4H28.1ZM27.1 2.59999H0.25V4.59999H27.1V2.59999ZM1.25 3.59999V2.99998H-0.75V3.59999H1.25ZM0.25 3.99998H93.4V1.99998H0.25V3.99998ZM92.4 2.99998V3.59999H94.4V2.99998H92.4ZM93.4 2.59999H66.55V4.59999H93.4V2.59999ZM65.55 3.59999V227.4H67.55V3.59999H65.55ZM66.55 228.4H103.45V226.4H66.55V228.4ZM103.45 228.4C114.94 228.4 124.682 226.738 132.64 223.371L131.86 221.529C124.218 224.762 114.76 226.4 103.45 226.4V228.4ZM132.65 223.367C140.581 219.91 147.064 215.117 152.075 208.983L150.525 207.717C145.736 213.582 139.519 218.19 131.85 221.533L132.65 223.367ZM152.08 208.976C157.065 202.77 160.821 195.555 163.356 187.345L161.444 186.755C158.979 194.745 155.335 201.73 150.52 207.724L152.08 208.976ZM163.357 187.342C165.882 179.06 167.444 170.132 168.048 160.563L166.052 160.437C165.456 169.868 163.918 178.64 161.443 186.758L163.357 187.342ZM167.05 161.5H167.65V159.5H167.05V161.5ZM166.65 160.5V228H168.65V160.5H166.65ZM167.65 227H0.25V229H167.65V227ZM175.961 228H174.961V229H175.961V228ZM175.961 227.4V226.4H174.961V227.4H175.961ZM208.811 227.4V228.4H209.811V227.4H208.811ZM208.811 3.59999H209.811V2.59999H208.811V3.59999ZM175.961 3.59999H174.961V4.59999H175.961V3.59999ZM175.961 2.99998V1.99998H174.961V2.99998H175.961ZM284.261 2.99998H285.261V1.99998H284.261V2.99998ZM284.261 3.59999V4.59999H285.261V3.59999H284.261ZM248.261 3.59999V2.59999H247.261V3.59999H248.261ZM248.261 227.4H247.261V228.4H248.261V227.4ZM284.261 227.4H285.261V226.4H284.261V227.4ZM284.261 228V229H285.261V228H284.261ZM176.961 228V227.4H174.961V228H176.961ZM175.961 228.4H208.811V226.4H175.961V228.4ZM209.811 227.4V3.59999H207.811V227.4H209.811ZM208.811 2.59999H175.961V4.59999H208.811V2.59999ZM176.961 3.59999V2.99998H174.961V3.59999H176.961ZM175.961 3.99998H284.261V1.99998H175.961V3.99998ZM283.261 2.99998V3.59999H285.261V2.99998H283.261ZM284.261 2.59999H248.261V4.59999H284.261V2.59999ZM247.261 3.59999V227.4H249.261V3.59999H247.261ZM248.261 228.4H284.261V226.4H248.261V228.4ZM283.261 227.4V228H285.261V227.4H283.261ZM284.261 227H175.961V229H284.261V227ZM398.413 231L397.474 231.344L397.714 232H398.413V231ZM315.013 2.99998V1.99998H313.583L314.074 3.34351L315.013 2.99998ZM354.463 2.99998L355.4 2.65093L355.158 1.99998H354.463V2.99998ZM418.213 174.15L417.276 174.499L418.237 177.079L419.156 174.484L418.213 174.15ZM478.813 2.99998V1.99998H478.107L477.871 2.66621L478.813 2.99998ZM479.413 2.99998L480.356 3.33254L480.826 1.99998H479.413V2.99998ZM399.013 231V232H399.721L399.956 231.333L399.013 231ZM315.313 2.99998H316.313V1.99998H315.313V2.99998ZM315.313 227.4H314.313V228.4H315.313V227.4ZM338.563 227.4H339.563V226.4H338.563V227.4ZM338.563 228V229H339.563V228H338.563ZM292.963 228H291.963V229H292.963V228ZM292.963 227.4V226.4H291.963V227.4H292.963ZM314.713 227.4V228.4H315.713V227.4H314.713ZM314.713 3.59999H315.713V2.59999H314.713V3.59999ZM291.613 3.59999H290.613V4.59999H291.613V3.59999ZM291.613 2.99998V1.99998H290.613V2.99998H291.613ZM539.413 2.99998H540.413V1.99998H539.413V2.99998ZM539.413 3.59999V4.59999H540.413V3.59999H539.413ZM518.413 3.59999V2.59999H517.413V3.59999H518.413ZM518.413 227.4H517.413V228.4H518.413V227.4ZM539.413 227.4H540.413V226.4H539.413V227.4ZM539.413 228V229H540.413V228H539.413ZM454.963 228H453.963V229H454.963V228ZM454.963 227.4V226.4H453.963V227.4H454.963ZM479.113 227.4V228.4H480.113V227.4H479.113ZM479.113 2.99998V1.99998H478.113V2.99998H479.113ZM399.352 230.656L315.952 2.65645L314.074 3.34351L397.474 231.344L399.352 230.656ZM315.013 3.99998H354.463V1.99998H315.013V3.99998ZM353.526 3.34903L417.276 174.499L419.15 173.801L355.4 2.65093L353.526 3.34903ZM419.156 174.484L479.756 3.33375L477.871 2.66621L417.271 173.816L419.156 174.484ZM478.813 3.99998H479.413V1.99998H478.813V3.99998ZM478.47 2.66742L398.07 230.667L399.956 231.333L480.356 3.33254L478.47 2.66742ZM399.013 230H398.413V232H399.013V230ZM314.313 2.99998V227.4H316.313V2.99998H314.313ZM315.313 228.4H338.563V226.4H315.313V228.4ZM337.563 227.4V228H339.563V227.4H337.563ZM338.563 227H292.963V229H338.563V227ZM293.963 228V227.4H291.963V228H293.963ZM292.963 228.4H314.713V226.4H292.963V228.4ZM315.713 227.4V3.59999H313.713V227.4H315.713ZM314.713 2.59999H291.613V4.59999H314.713V2.59999ZM292.613 3.59999V2.99998H290.613V3.59999H292.613ZM291.613 3.99998H315.313V1.99998H291.613V3.99998ZM538.413 2.99998V3.59999H540.413V2.99998H538.413ZM539.413 2.59999H518.413V4.59999H539.413V2.59999ZM517.413 3.59999V227.4H519.413V3.59999H517.413ZM518.413 228.4H539.413V226.4H518.413V228.4ZM538.413 227.4V228H540.413V227.4H538.413ZM539.413 227H454.963V229H539.413V227ZM455.963 228V227.4H453.963V228H455.963ZM454.963 228.4H479.113V226.4H454.963V228.4ZM480.113 227.4V2.99998H478.113V227.4H480.113ZM479.113 3.99998H539.413V1.99998H479.113V3.99998ZM546.719 228H545.719V229H546.719V228ZM546.719 227.4V226.4H545.719V227.4H546.719ZM573.569 227.4V228.4H574.569V227.4H573.569ZM573.569 3.59999H574.569V2.59999H573.569V3.59999ZM546.719 3.59999H545.719V4.59999H546.719V3.59999ZM546.719 2.99998V1.99998H545.719V2.99998H546.719ZM712.169 2.99998H713.169V1.99998H712.169V2.99998ZM712.169 64.5V65.5H713.169V64.5H712.169ZM711.719 64.5L710.722 64.5838L710.799 65.5H711.719V64.5ZM703.319 34.65L702.422 35.0934L702.428 35.1049L703.319 34.65ZM683.969 12.15L683.398 12.9711L683.403 12.9743L683.969 12.15ZM613.019 3.59999V2.59999H612.019V3.59999H613.019ZM613.019 227.4H612.019V228.4H613.019V227.4ZM685.169 218.7L685.71 219.541L685.713 219.539L685.169 218.7ZM706.019 194.7L705.119 194.263L705.116 194.271L706.019 194.7ZM714.719 160.5V159.5H713.787L713.721 160.429L714.719 160.5ZM715.319 160.5H716.319V159.5H715.319V160.5ZM715.319 228V229H716.319V228H715.319ZM663.419 147.3L662.428 147.433L662.544 148.3H663.419V147.3ZM656.519 129.3L655.694 129.865L655.699 129.872L656.519 129.3ZM643.019 116.55L643.524 115.687L643.524 115.687L643.019 116.55ZM600.569 111.9H599.569V112.9H600.569V111.9ZM600.569 111.3V110.3H599.569V111.3H600.569ZM643.019 107.1L643.486 107.984L643.492 107.981L643.499 107.977L643.019 107.1ZM663.419 77.4V76.4H662.544L662.428 77.2669L663.419 77.4ZM664.019 77.4H665.019V76.4H664.019V77.4ZM664.019 147.3V148.3H665.019V147.3H664.019ZM547.719 228V227.4H545.719V228H547.719ZM546.719 228.4H573.569V226.4H546.719V228.4ZM574.569 227.4V3.59999H572.569V227.4H574.569ZM573.569 2.59999H546.719V4.59999H573.569V2.59999ZM547.719 3.59999V2.99998H545.719V3.59999H547.719ZM546.719 3.99998H712.169V1.99998H546.719V3.99998ZM711.169 2.99998V64.5H713.169V2.99998H711.169ZM712.169 63.5H711.719V65.5H712.169V63.5ZM712.715 64.4162C711.805 53.592 708.971 43.5153 704.209 34.1951L702.428 35.1049C707.067 44.1847 709.833 54.008 710.722 64.5838L712.715 64.4162ZM704.215 34.2066C699.542 24.7584 692.98 17.1254 684.535 11.3257L683.403 12.9743C691.557 18.5746 697.896 25.9416 702.422 35.0933L704.215 34.2066ZM684.54 11.3289C676.145 5.49345 665.987 2.59999 654.119 2.59999V4.59999C665.651 4.59999 675.393 7.40653 683.398 12.9711L684.54 11.3289ZM654.119 2.59999H613.019V4.59999H654.119V2.59999ZM612.019 3.59999V227.4H614.019V3.59999H612.019ZM613.019 228.4H651.119V226.4H613.019V228.4ZM651.119 228.4C664.958 228.4 676.509 225.47 685.71 219.541L684.627 217.859C675.828 223.53 664.68 226.4 651.119 226.4V228.4ZM685.713 219.539C694.973 213.535 702.045 205.391 706.922 195.129L705.116 194.271C700.392 204.209 693.564 212.065 684.625 217.861L685.713 219.539ZM706.918 195.136C711.881 184.908 714.808 173.381 715.716 160.571L713.721 160.429C712.829 173.019 709.956 184.292 705.119 194.264L706.918 195.136ZM714.719 161.5H715.319V159.5H714.719V161.5ZM714.319 160.5V228H716.319V160.5H714.319ZM715.319 227H546.719V229H715.319V227ZM664.41 147.167C663.49 140.316 661.134 134.164 657.339 128.728L655.699 129.872C659.303 135.036 661.548 140.884 662.428 147.433L664.41 147.167ZM657.344 128.735C653.566 123.221 648.959 118.866 643.524 115.687L642.514 117.413C647.678 120.434 652.072 124.579 655.694 129.865L657.344 128.735ZM643.524 115.687C638.083 112.504 632.41 110.9 626.519 110.9V112.9C632.028 112.9 637.355 114.396 642.514 117.413L643.524 115.687ZM626.519 110.9H600.569V112.9H626.519V110.9ZM601.569 111.9V111.3H599.569V111.9H601.569ZM600.569 112.3H626.519V110.3H600.569V112.3ZM626.519 112.3C632.39 112.3 638.05 110.856 643.486 107.984L642.552 106.216C637.388 108.944 632.047 110.3 626.519 110.3V112.3ZM643.499 107.977C648.934 105.003 653.545 100.902 657.328 95.6872L655.709 94.5128C652.092 99.4982 647.703 103.397 642.539 106.223L643.499 107.977ZM657.328 95.6872C661.132 90.4435 663.489 84.3849 664.41 77.5331L662.428 77.2669C661.548 83.8151 659.305 89.5565 655.709 94.5128L657.328 95.6872ZM663.419 78.4H664.019V76.4H663.419V78.4ZM663.019 77.4V147.3H665.019V77.4H663.019ZM664.019 146.3H663.419V148.3H664.019V146.3ZM779.638 226.65L779.225 227.561L779.229 227.563L779.638 226.65ZM757.888 210.9L758.634 210.234L757.98 209.503L757.237 210.141L757.888 210.9ZM734.488 231V232H734.859L735.14 231.759L734.488 231ZM733.888 231H732.888V232H733.888V231ZM733.888 164.1V163.1H732.888V164.1H733.888ZM734.488 164.1L735.454 163.84L735.254 163.1H734.488V164.1ZM743.938 189.6L743.037 190.034L743.042 190.043L743.938 189.6ZM758.788 211.35L758.053 212.028L758.059 212.034L758.064 212.04L758.788 211.35ZM780.238 226.35L779.831 227.263L779.84 227.267L780.238 226.35ZM835.138 225.9L834.672 225.015L834.667 225.018L835.138 225.9ZM852.238 209.4L851.372 208.9L851.367 208.909L852.238 209.4ZM851.788 163.05L850.992 163.654L850.997 163.661L851.788 163.05ZM834.388 148.05L834.892 147.186L834.892 147.186L834.388 148.05ZM810.538 136.2L810.143 137.119L810.147 137.12L810.538 136.2ZM784.588 124.35L784.149 125.249L784.154 125.251L784.588 124.35ZM760.888 109.5L760.261 110.279L760.268 110.284L760.888 109.5ZM743.488 88.5L742.605 88.9684L742.607 88.9728L743.488 88.5ZM745.888 27.3L745.066 26.7303L745.065 26.7323L745.888 27.3ZM769.738 7.04999L769.309 6.14662L769.306 6.14833L769.738 7.04999ZM827.638 4.49998L827.997 3.56664L827.997 3.56663L827.638 4.49998ZM848.038 18.3L847.308 18.9831L847.939 19.6579L848.662 19.0818L848.038 18.3ZM870.988 -1.50204e-05V-1.00002H870.638L870.365 -0.78188L870.988 -1.50204e-05ZM871.588 -1.50204e-05H872.588V-1.00002H871.588V-1.50204e-05ZM871.588 65.1V66.1H872.588V65.1H871.588ZM870.838 65.1L869.864 65.3243L870.042 66.1H870.838V65.1ZM856.738 30L855.898 30.5425L855.901 30.5465L856.738 30ZM834.088 8.39998L833.606 9.27602L833.614 9.28014L834.088 8.39998ZM774.088 11.7L773.361 11.0137L773.361 11.014L774.088 11.7ZM770.638 57.9L771.415 57.2699L771.415 57.2699L770.638 57.9ZM787.588 72L787.083 72.8629L787.09 72.8671L787.097 72.8712L787.588 72ZM810.988 83.7L810.58 84.6129L810.584 84.6147L810.988 83.7ZM836.638 96.15L836.17 97.0338L836.179 97.0381L836.638 96.15ZM859.888 111.9L859.231 112.654L859.237 112.658L859.888 111.9ZM876.988 133.95L876.094 134.397L876.098 134.405L876.988 133.95ZM874.288 200.85L875.138 201.377L875.141 201.373L874.288 200.85ZM848.488 224.25L848.939 225.143L848.942 225.141L848.488 224.25ZM810.988 231.5C798.891 231.5 788.588 229.566 780.047 225.737L779.229 227.563C788.089 231.534 798.685 233.5 810.988 233.5V231.5ZM780.051 225.739C771.569 221.893 764.435 216.723 758.634 210.234L757.143 211.566C763.141 218.277 770.507 223.607 779.225 227.561L780.051 225.739ZM757.237 210.141L733.837 230.241L735.14 231.759L758.54 211.659L757.237 210.141ZM734.488 230H733.888V232H734.488V230ZM734.888 231V164.1H732.888V231H734.888ZM733.888 165.1H734.488V163.1H733.888V165.1ZM733.523 164.36C735.938 173.319 739.11 181.877 743.037 190.034L744.839 189.166C740.967 181.123 737.838 172.681 735.454 163.84L733.523 164.36ZM743.042 190.043C747.082 198.225 752.086 205.555 758.053 212.028L759.524 210.672C753.691 204.345 748.794 197.175 744.835 189.157L743.042 190.043ZM758.064 212.04C764.158 218.438 771.417 223.513 779.831 227.263L780.645 225.437C772.459 221.787 765.418 216.862 759.512 210.66L758.064 212.04ZM779.84 227.267C788.29 230.932 798.08 232.75 809.188 232.75V230.75C798.296 230.75 788.787 228.968 780.636 225.433L779.84 227.267ZM809.188 232.75C819.319 232.75 828.137 230.774 835.61 226.782L834.667 225.018C827.539 228.826 819.058 230.75 809.188 230.75V232.75ZM835.605 226.785C843.17 222.798 849.013 217.163 853.11 209.891L851.367 208.909C847.464 215.837 841.907 221.202 834.672 225.015L835.605 226.785ZM853.104 209.9C857.307 202.622 859.388 194.043 859.388 184.2H857.388C857.388 193.757 855.37 201.978 851.372 208.9L853.104 209.9ZM859.388 184.2C859.388 175.617 857.137 168.342 852.58 162.439L850.997 163.661C855.24 169.158 857.388 175.983 857.388 184.2H859.388ZM852.585 162.446C848.095 156.527 842.19 151.443 834.892 147.186L833.884 148.914C840.987 153.057 846.682 157.973 850.992 163.654L852.585 162.446ZM834.892 147.186C827.651 142.962 819.663 138.994 810.93 135.28L810.147 137.12C818.813 140.806 826.725 144.738 833.884 148.914L834.892 147.186ZM810.933 135.281C802.347 131.587 793.71 127.643 785.023 123.449L784.154 125.251C792.866 129.457 801.529 133.413 810.143 137.119L810.933 135.281ZM785.027 123.451C776.489 119.282 768.65 114.37 761.509 108.716L760.268 110.284C767.526 116.03 775.488 121.018 784.149 125.249L785.027 123.451ZM761.516 108.721C754.421 103.006 748.707 96.11 744.369 88.0272L742.607 88.9728C747.07 97.29 752.956 104.394 760.261 110.279L761.516 108.721ZM744.372 88.0316C740.066 79.9093 737.888 69.9793 737.888 58.2H735.888C735.888 70.2207 738.111 80.4907 742.605 88.9684L744.372 88.0316ZM737.888 58.2C737.888 46.4763 740.841 36.3802 746.711 27.8677L745.065 26.7323C738.936 35.6198 735.888 46.1237 735.888 58.2H737.888ZM746.71 27.8697C752.71 19.2145 760.525 12.5778 770.171 7.95166L769.306 6.14833C759.352 10.9221 751.267 17.7855 745.066 26.7303L746.71 27.8697ZM770.167 7.95336C779.928 3.31956 790.431 0.999985 801.688 0.999985V-1.00002C790.146 -1.00002 779.349 1.38042 769.309 6.14663L770.167 7.95336ZM801.688 0.999985C811.082 0.999985 819.608 2.48299 827.279 5.43333L827.997 3.56663C820.068 0.516978 811.294 -1.00002 801.688 -1.00002V0.999985ZM827.279 5.43333C834.936 8.37819 841.61 12.8917 847.308 18.9831L848.769 17.6168C842.867 11.3083 835.941 6.62179 827.997 3.56664L827.279 5.43333ZM848.662 19.0818L871.612 0.78185L870.365 -0.78188L847.415 17.5181L848.662 19.0818ZM870.988 0.999985H871.588V-1.00002H870.988V0.999985ZM870.588 -1.50204e-05V65.1H872.588V-1.50204e-05H870.588ZM871.588 64.1H870.838V66.1H871.588V64.1ZM871.813 64.8756C868.593 50.8893 863.854 39.0736 857.576 29.4535L855.901 30.5465C862.022 39.9264 866.684 51.5107 869.864 65.3243L871.813 64.8756ZM857.578 29.4575C851.299 19.7346 843.63 12.4098 834.563 7.51983L833.614 9.28014C842.347 13.9902 849.778 21.0653 855.898 30.5425L857.578 29.4575ZM834.571 7.52398C825.507 2.53381 815.238 0.0499804 803.788 0.0499804V2.04998C814.939 2.04998 824.87 4.46616 833.606 9.27599L834.571 7.52398ZM803.788 0.0499804C790.511 0.0499804 780.308 3.65193 773.361 11.0137L774.816 12.3863C781.269 5.54804 790.866 2.04998 803.788 2.04998V0.0499804ZM773.361 11.014C766.56 18.2263 763.188 27.4843 763.188 38.7H765.188C765.188 27.9157 768.416 19.1736 774.816 12.386L773.361 11.014ZM763.188 38.7C763.188 46.4052 765.403 53.0339 769.862 58.53L771.415 57.2699C767.274 52.166 765.188 45.9948 765.188 38.7H763.188ZM769.862 58.53C774.25 63.9391 779.998 68.7134 787.083 72.8629L788.094 71.1371C781.178 67.0866 775.626 62.4609 771.415 57.2699L769.862 58.53ZM787.097 72.8712C794.228 76.8884 802.056 80.802 810.58 84.6129L811.396 82.7871C802.921 78.9979 795.149 75.1116 788.079 71.1287L787.097 72.8712ZM810.584 84.6147C819.162 88.4049 827.691 92.5446 836.17 97.0338L837.106 95.2662C828.586 90.7554 820.015 86.5951 811.392 82.7853L810.584 84.6147ZM836.179 97.0381C844.61 101.403 852.293 106.608 859.231 112.654L860.545 111.146C853.483 104.992 845.667 99.6975 837.098 95.2619L836.179 97.0381ZM859.237 112.658C866.233 118.67 871.852 125.913 876.094 134.397L877.883 133.503C873.525 124.787 867.744 117.33 860.54 111.141L859.237 112.658ZM876.098 134.405C880.409 142.831 882.588 153.116 882.588 165.3H884.588C884.588 152.884 882.368 142.269 877.879 133.495L876.098 134.405ZM882.588 165.3C882.588 178.743 879.526 190.406 873.436 200.327L875.141 201.373C881.451 191.094 884.588 179.057 884.588 165.3H882.588ZM873.438 200.323C867.34 210.16 858.88 217.838 848.035 223.359L848.942 225.141C860.096 219.462 868.837 211.54 875.138 201.377L873.438 200.323ZM848.038 223.357C837.298 228.777 824.956 231.5 810.988 231.5V233.5C825.22 233.5 837.879 230.723 848.939 225.143L848.038 223.357ZM936.604 228H935.604V229H936.604V228ZM936.604 227.4V226.4H935.604V227.4H936.604ZM969.604 227.4V228.4H970.604V227.4H969.604ZM969.604 3.59999H970.604V2.59999H969.604V3.59999ZM924.304 8.99999L923.789 8.14248L923.783 8.14636L924.304 8.99999ZM909.454 24.15L908.602 23.6259L908.6 23.6296L909.454 24.15ZM900.304 46.35L899.336 46.0966L899.334 46.1075L900.304 46.35ZM896.104 73.2V74.2H897.033L897.101 73.2735L896.104 73.2ZM895.504 73.2H894.504V74.2H895.504V73.2ZM895.504 2.99998V1.99998H894.504V2.99998H895.504ZM1083 2.99998H1084V1.99998H1083V2.99998ZM1083 73.2V74.2H1084V73.2H1083ZM1082.25 73.2L1081.26 73.2735L1081.32 74.2H1082.25V73.2ZM1077.9 46.35L1076.93 46.5925L1076.94 46.6033L1077.9 46.35ZM1068.75 24.15L1067.9 24.6645L1067.9 24.6723L1067.91 24.68L1068.75 24.15ZM1053.9 8.99999L1053.38 9.85366L1053.39 9.85749L1053.9 8.99999ZM1008.9 3.59999V2.59999H1007.9V3.59999H1008.9ZM1008.9 227.4H1007.9V228.4H1008.9V227.4ZM1041.9 227.4H1042.9V226.4H1041.9V227.4ZM1041.9 228V229H1042.9V228H1041.9ZM937.604 228V227.4H935.604V228H937.604ZM936.604 228.4H969.604V226.4H936.604V228.4ZM970.604 227.4V3.59999H968.604V227.4H970.604ZM969.604 2.59999H945.904V4.59999H969.604V2.59999ZM945.904 2.59999C937.359 2.59999 929.973 4.43211 923.789 8.1425L924.818 9.85749C930.634 6.36788 937.649 4.59999 945.904 4.59999V2.59999ZM923.783 8.14636C917.735 11.8368 912.676 17.0057 908.602 23.6259L910.306 24.6741C914.232 18.2943 919.073 13.3631 924.825 9.85363L923.783 8.14636ZM908.6 23.6296C904.642 30.1246 901.557 37.6171 899.337 46.0966L901.271 46.6033C903.45 38.2828 906.466 30.9754 910.308 24.6704L908.6 23.6296ZM899.334 46.1075C897.219 54.5681 895.81 63.5751 895.107 73.1265L897.101 73.2735C897.797 63.8249 899.189 54.9319 901.274 46.5925L899.334 46.1075ZM896.104 72.2H895.504V74.2H896.104V72.2ZM896.504 73.2V2.99998H894.504V73.2H896.504ZM895.504 3.99998H1083V1.99998H895.504V3.99998ZM1082 2.99998V73.2H1084V2.99998H1082ZM1083 72.2H1082.25V74.2H1083V72.2ZM1083.25 73.1265C1082.55 63.5715 1081.09 54.5609 1078.87 46.0966L1076.94 46.6033C1079.12 54.9391 1080.56 63.8284 1081.26 73.2735L1083.25 73.1265ZM1078.87 46.1075C1076.75 37.6205 1073.66 30.1208 1069.6 23.62L1067.91 24.68C1071.84 30.9792 1074.86 38.2795 1076.93 46.5925L1078.87 46.1075ZM1069.61 23.6355C1065.63 17.0068 1060.57 11.8339 1054.42 8.1425L1053.39 9.85749C1059.24 13.3661 1064.07 18.2932 1067.9 24.6645L1069.61 23.6355ZM1054.42 8.14636C1048.34 4.43298 1041.05 2.59999 1032.6 2.59999V4.59999C1040.76 4.59999 1047.67 6.367 1053.38 9.85363L1054.42 8.14636ZM1032.6 2.59999H1008.9V4.59999H1032.6V2.59999ZM1007.9 3.59999V227.4H1009.9V3.59999H1007.9ZM1008.9 228.4H1041.9V226.4H1008.9V228.4ZM1040.9 227.4V228H1042.9V227.4H1040.9ZM1041.9 227H936.604V229H1041.9V227ZM1155.06 222.15L1154.63 223.052L1154.63 223.052L1155.06 222.15ZM1123.71 197.55L1124.48 196.916L1123.71 197.55ZM1104.36 70.2L1103.41 69.8757L1103.41 69.8817L1104.36 70.2ZM1124.61 33.45L1123.84 32.8076L1123.84 32.812L1124.61 33.45ZM1156.11 8.84999L1155.68 7.94835L1155.67 7.94973L1156.11 8.84999ZM1237.71 8.84999L1237.27 9.75024L1237.27 9.75024L1237.71 8.84999ZM1269.21 33.45L1268.44 34.0923L1268.44 34.0923L1269.21 33.45ZM1289.46 70.2L1288.51 70.5183L1288.51 70.5183L1289.46 70.2ZM1289.76 160.8L1288.81 160.494L1288.8 160.5L1289.76 160.8ZM1270.26 197.55L1269.48 196.916L1269.48 196.921L1270.26 197.55ZM1238.91 222.15L1238.48 221.247L1238.48 221.248L1238.91 222.15ZM1224.96 220.95L1225.62 221.698L1225.63 221.693L1224.96 220.95ZM1241.31 195.15L1242.25 195.482L1242.25 195.479L1241.31 195.15ZM1249.11 158.25L1250.1 158.352L1250.1 158.351L1249.11 158.25ZM1248.66 72.75L1247.66 72.866L1247.67 72.8731L1248.66 72.75ZM1240.11 36L1239.17 36.3445L1239.17 36.3549L1240.11 36ZM1223.61 10.2L1222.93 10.938L1222.94 10.9433L1223.61 10.2ZM1170.36 10.2L1171.03 10.9433L1171.03 10.9428L1170.36 10.2ZM1153.71 36L1152.77 35.6479L1152.77 35.6527L1153.71 36ZM1145.16 72.75L1146.15 72.8731L1146.15 72.8731L1145.16 72.75ZM1144.71 158.25L1145.7 158.149L1145.7 158.149L1144.71 158.25ZM1152.51 195.15L1151.56 195.482L1151.57 195.49L1152.51 195.15ZM1169.01 220.95L1168.34 221.693L1168.34 221.698L1168.35 221.703L1169.01 220.95ZM1197.06 230C1181.48 230 1167.64 227.075 1155.49 221.248L1154.63 223.052C1167.08 229.025 1181.23 232 1197.06 232V230ZM1155.49 221.248C1143.32 215.411 1132.99 207.303 1124.48 196.916L1122.93 198.184C1131.63 208.797 1142.19 217.089 1154.63 223.052L1155.49 221.248ZM1124.48 196.916C1115.97 186.521 1109.47 174.385 1105.01 160.494L1103.11 161.106C1107.64 175.215 1114.25 187.579 1122.93 198.184L1124.48 196.916ZM1105.01 160.494C1100.54 146.602 1098.31 131.607 1098.31 115.5H1096.31C1096.31 131.793 1098.57 146.998 1103.11 161.106L1105.01 160.494ZM1098.31 115.5C1098.31 99.3977 1100.64 84.4062 1105.31 70.5183L1103.41 69.8817C1098.67 83.9938 1096.31 99.2022 1096.31 115.5H1098.31ZM1105.3 70.5243C1110.07 56.6289 1116.76 44.4873 1125.38 34.088L1123.84 32.812C1115.05 43.4127 1108.25 55.7711 1103.41 69.8757L1105.3 70.5243ZM1125.37 34.0923C1134.08 23.6995 1144.47 15.588 1156.54 9.75024L1155.67 7.94973C1143.34 13.912 1132.73 22.2005 1123.84 32.8077L1125.37 34.0923ZM1156.54 9.75162C1168.69 3.9226 1182.19 0.999985 1197.06 0.999985V-1.00002C1181.92 -1.00002 1168.12 1.97737 1155.68 7.94835L1156.54 9.75162ZM1197.06 0.999985C1211.82 0.999985 1225.22 3.9222 1237.27 9.75024L1238.14 7.94973C1225.79 1.97777 1212.09 -1.00002 1197.06 -1.00002V0.999985ZM1237.27 9.75024C1249.34 15.588 1259.73 23.6995 1268.44 34.0923L1269.97 32.8077C1261.08 22.2005 1250.47 13.912 1238.14 7.94973L1237.27 9.75024ZM1268.44 34.0923C1277.16 44.4894 1283.85 56.6274 1288.51 70.5183L1290.41 69.8817C1285.67 55.7726 1278.86 43.4106 1269.97 32.8077L1268.44 34.0923ZM1288.51 70.5183C1293.17 84.4062 1295.51 99.3977 1295.51 115.5H1297.51C1297.51 99.2022 1295.14 83.9938 1290.41 69.8817L1288.51 70.5183ZM1295.51 115.5C1295.51 131.607 1293.27 146.602 1288.81 160.494L1290.71 161.106C1295.24 146.998 1297.51 131.793 1297.51 115.5H1295.51ZM1288.8 160.5C1284.44 174.388 1278 186.523 1269.48 196.916L1271.03 198.184C1279.72 187.577 1286.28 175.212 1290.71 161.1L1288.8 160.5ZM1269.48 196.921C1261.08 207.303 1250.75 215.41 1238.48 221.247L1239.34 223.053C1251.87 217.09 1262.44 208.797 1271.04 198.179L1269.48 196.921ZM1238.48 221.248C1226.33 227.075 1212.53 230 1197.06 230V232C1212.79 232 1226.89 229.025 1239.34 223.052L1238.48 221.248ZM1197.06 231.4C1208.75 231.4 1218.3 228.193 1225.62 221.698L1224.29 220.202C1217.41 226.307 1208.37 229.4 1197.06 229.4V231.4ZM1225.63 221.693C1232.87 215.161 1238.41 206.409 1242.25 195.482L1240.36 194.818C1236.61 205.491 1231.24 213.939 1224.29 220.207L1225.63 221.693ZM1242.25 195.479C1246.08 184.493 1248.7 172.115 1250.1 158.352L1248.11 158.148C1246.72 171.785 1244.13 184.007 1240.36 194.821L1242.25 195.479ZM1250.1 158.351C1251.51 144.515 1252.21 130.181 1252.21 115.35H1250.21C1250.21 130.119 1249.51 144.385 1248.11 158.149L1250.1 158.351ZM1252.21 115.35C1252.21 100.611 1251.36 86.3702 1249.65 72.6268L1247.67 72.8731C1249.36 86.5297 1250.21 100.689 1250.21 115.35H1252.21ZM1249.65 72.634C1248.04 58.8675 1245.18 46.5352 1241.04 35.6451L1239.17 36.3549C1243.24 47.0648 1246.07 59.2325 1247.66 72.866L1249.65 72.634ZM1241.05 35.6555C1237 24.6377 1231.42 15.8882 1224.28 9.4567L1222.94 10.9433C1229.79 17.1118 1235.21 25.5623 1239.17 36.3445L1241.05 35.6555ZM1224.28 9.46197C1217.07 2.87157 1207.97 -0.400005 1197.06 -0.400005V1.6C1207.54 1.6 1216.14 4.72842 1222.93 10.938L1224.28 9.46197ZM1197.06 -0.400005C1186.14 -0.400005 1176.99 2.87153 1169.69 9.45722L1171.03 10.9428C1177.92 4.72846 1186.57 1.6 1197.06 1.6V-0.400005ZM1169.69 9.4567C1162.54 15.8863 1156.92 24.6329 1152.77 35.6479L1154.64 36.3521C1158.7 25.5671 1164.17 17.1137 1171.03 10.9433L1169.69 9.4567ZM1152.77 35.6527C1148.74 46.5377 1145.87 58.8649 1144.17 72.6268L1146.15 72.8731C1147.84 59.2351 1150.68 47.0623 1154.65 36.3473L1152.77 35.6527ZM1144.17 72.6268C1142.46 86.3705 1141.61 100.662 1141.61 115.5H1143.61C1143.61 100.738 1144.46 86.5295 1146.15 72.8731L1144.17 72.6268ZM1141.61 115.5C1141.61 130.232 1142.31 144.515 1143.71 158.351L1145.7 158.149C1144.31 144.385 1143.61 130.168 1143.61 115.5H1141.61ZM1143.71 158.351C1145.12 172.214 1147.73 184.593 1151.56 195.482L1153.45 194.818C1149.68 184.107 1147.1 171.886 1145.7 158.149L1143.71 158.351ZM1151.57 195.49C1155.51 206.413 1161.09 215.163 1168.34 221.693L1169.68 220.207C1162.72 213.937 1157.3 205.487 1153.45 194.81L1151.57 195.49ZM1168.35 221.703C1175.77 228.193 1185.37 231.4 1197.06 231.4V229.4C1185.75 229.4 1176.65 226.307 1169.67 220.197L1168.35 221.703ZM1341.39 2.99998H1342.39V1.99998H1341.39V2.99998ZM1341.39 227.4H1340.39V228.4H1341.39V227.4ZM1376.79 227.4H1377.79V226.4H1376.79V227.4ZM1376.79 228V229H1377.79V228H1376.79ZM1311.09 228H1310.09V229H1311.09V228ZM1311.09 227.4V226.4H1310.09V227.4H1311.09ZM1340.79 227.4V228.4H1341.79V227.4H1340.79ZM1340.79 3.59999H1341.79V2.59999H1340.79V3.59999ZM1311.09 3.59999H1310.09V4.59999H1311.09V3.59999ZM1311.09 2.99998V1.99998H1310.09V2.99998H1311.09ZM1523.04 2.99998H1524.04V1.99998H1523.04V2.99998ZM1523.04 3.59999V4.59999H1524.04V3.59999H1523.04ZM1491.54 3.59999V2.59999H1490.54V3.59999H1491.54ZM1491.54 231V232H1492.54V231H1491.54ZM1490.94 231L1490.1 231.549L1490.4 232H1490.94V231ZM1341.09 2.99998V1.99998H1339.23L1340.25 3.54921L1341.09 2.99998ZM1388.04 2.99998L1388.88 2.46133L1388.58 1.99998H1388.04V2.99998ZM1490.94 163.95L1490.09 164.489L1491.94 167.371V163.95H1490.94ZM1490.94 3.59999H1491.94V2.59999H1490.94V3.59999ZM1455.84 3.59999H1454.84V4.59999H1455.84V3.59999ZM1455.84 2.99998V1.99998H1454.84V2.99998H1455.84ZM1340.39 2.99998V227.4H1342.39V2.99998H1340.39ZM1341.39 228.4H1376.79V226.4H1341.39V228.4ZM1375.79 227.4V228H1377.79V227.4H1375.79ZM1376.79 227H1311.09V229H1376.79V227ZM1312.09 228V227.4H1310.09V228H1312.09ZM1311.09 228.4H1340.79V226.4H1311.09V228.4ZM1341.79 227.4V3.59999H1339.79V227.4H1341.79ZM1340.79 2.59999H1311.09V4.59999H1340.79V2.59999ZM1312.09 3.59999V2.99998H1310.09V3.59999H1312.09ZM1311.09 3.99998H1341.39V1.99998H1311.09V3.99998ZM1522.04 2.99998V3.59999H1524.04V2.99998H1522.04ZM1523.04 2.59999H1491.54V4.59999H1523.04V2.59999ZM1490.54 3.59999V231H1492.54V3.59999H1490.54ZM1491.54 230H1490.94V232H1491.54V230ZM1491.77 230.451L1341.92 2.45075L1340.25 3.54921L1490.1 231.549L1491.77 230.451ZM1341.09 3.99998H1388.04V1.99998H1341.09V3.99998ZM1387.19 3.53863L1490.09 164.489L1491.78 163.411L1388.88 2.46133L1387.19 3.53863ZM1491.94 163.95V3.59999H1489.94V163.95H1491.94ZM1490.94 2.59999H1455.84V4.59999H1490.94V2.59999ZM1456.84 3.59999V2.99998H1454.84V3.59999H1456.84ZM1455.84 3.99998H1523.04V1.99998H1455.84V3.99998ZM1530.45 228H1529.45V229H1530.45V228ZM1530.45 227.4V226.4H1529.45V227.4H1530.45ZM1557.3 227.4V228.4H1558.3V227.4H1557.3ZM1557.3 3.59999H1558.3V2.59999H1557.3V3.59999ZM1530.45 3.59999H1529.45V4.59999H1530.45V3.59999ZM1530.45 2.99998V1.99998H1529.45V2.99998H1530.45ZM1695.9 2.99998H1696.9V1.99998H1695.9V2.99998ZM1695.9 64.5V65.5H1696.9V64.5H1695.9ZM1695.45 64.5L1694.45 64.5838L1694.53 65.5H1695.45V64.5ZM1687.05 34.65L1686.15 35.0934L1686.16 35.1049L1687.05 34.65ZM1667.7 12.15L1667.13 12.9711L1667.13 12.9743L1667.7 12.15ZM1596.75 3.59999V2.59999H1595.75V3.59999H1596.75ZM1596.75 227.4H1595.75V228.4H1596.75V227.4ZM1668.9 218.7L1669.44 219.541L1669.44 219.539L1668.9 218.7ZM1689.75 194.7L1688.85 194.263L1688.85 194.271L1689.75 194.7ZM1698.45 160.5V159.5H1697.52L1697.45 160.429L1698.45 160.5ZM1699.05 160.5H1700.05V159.5H1699.05V160.5ZM1699.05 228V229H1700.05V228H1699.05ZM1647.15 147.3L1646.16 147.433L1646.27 148.3H1647.15V147.3ZM1640.25 129.3L1639.42 129.865L1639.43 129.872L1640.25 129.3ZM1626.75 116.55L1627.25 115.687L1627.25 115.687L1626.75 116.55ZM1584.3 111.9H1583.3V112.9H1584.3V111.9ZM1584.3 111.3V110.3H1583.3V111.3H1584.3ZM1626.75 107.1L1627.22 107.984L1627.22 107.981L1627.23 107.977L1626.75 107.1ZM1647.15 77.4V76.4H1646.27L1646.16 77.2669L1647.15 77.4ZM1647.75 77.4H1648.75V76.4H1647.75V77.4ZM1647.75 147.3V148.3H1648.75V147.3H1647.75ZM1531.45 228V227.4H1529.45V228H1531.45ZM1530.45 228.4H1557.3V226.4H1530.45V228.4ZM1558.3 227.4V3.59999H1556.3V227.4H1558.3ZM1557.3 2.59999H1530.45V4.59999H1557.3V2.59999ZM1531.45 3.59999V2.99998H1529.45V3.59999H1531.45ZM1530.45 3.99998H1695.9V1.99998H1530.45V3.99998ZM1694.9 2.99998V64.5H1696.9V2.99998H1694.9ZM1695.9 63.5H1695.45V65.5H1695.9V63.5ZM1696.45 64.4162C1695.54 53.592 1692.7 43.5153 1687.94 34.1951L1686.16 35.1049C1690.8 44.1847 1693.56 54.008 1694.45 64.5838L1696.45 64.4162ZM1687.95 34.2066C1683.27 24.7584 1676.71 17.1254 1668.27 11.3257L1667.13 12.9743C1675.29 18.5746 1681.63 25.9416 1686.15 35.0933L1687.95 34.2066ZM1668.27 11.3289C1659.88 5.49345 1649.72 2.59999 1637.85 2.59999V4.59999C1649.38 4.59999 1659.12 7.40653 1667.13 12.9711L1668.27 11.3289ZM1637.85 2.59999H1596.75V4.59999H1637.85V2.59999ZM1595.75 3.59999V227.4H1597.75V3.59999H1595.75ZM1596.75 228.4H1634.85V226.4H1596.75V228.4ZM1634.85 228.4C1648.69 228.4 1660.24 225.47 1669.44 219.541L1668.36 217.859C1659.56 223.53 1648.41 226.4 1634.85 226.4V228.4ZM1669.44 219.539C1678.7 213.535 1685.78 205.391 1690.65 195.129L1688.85 194.271C1684.12 204.209 1677.29 212.065 1668.36 217.861L1669.44 219.539ZM1690.65 195.136C1695.61 184.908 1698.54 173.381 1699.45 160.571L1697.45 160.429C1696.56 173.019 1693.69 184.292 1688.85 194.264L1690.65 195.136ZM1698.45 161.5H1699.05V159.5H1698.45V161.5ZM1698.05 160.5V228H1700.05V160.5H1698.05ZM1699.05 227H1530.45V229H1699.05V227ZM1648.14 147.167C1647.22 140.316 1644.86 134.164 1641.07 128.728L1639.43 129.872C1643.03 135.036 1645.28 140.884 1646.16 147.433L1648.14 147.167ZM1641.07 128.735C1637.3 123.221 1632.69 118.866 1627.25 115.687L1626.24 117.413C1631.41 120.434 1635.8 124.579 1639.42 129.865L1641.07 128.735ZM1627.25 115.687C1621.81 112.504 1616.14 110.9 1610.25 110.9V112.9C1615.76 112.9 1621.09 114.396 1626.24 117.413L1627.25 115.687ZM1610.25 110.9H1584.3V112.9H1610.25V110.9ZM1585.3 111.9V111.3H1583.3V111.9H1585.3ZM1584.3 112.3H1610.25V110.3H1584.3V112.3ZM1610.25 112.3C1616.12 112.3 1621.78 110.856 1627.22 107.984L1626.28 106.216C1621.12 108.944 1615.78 110.3 1610.25 110.3V112.3ZM1627.23 107.977C1632.66 105.003 1637.28 100.902 1641.06 95.6872L1639.44 94.5128C1635.82 99.4982 1631.43 103.397 1626.27 106.223L1627.23 107.977ZM1641.06 95.6872C1644.86 90.4435 1647.22 84.3849 1648.14 77.5331L1646.16 77.2669C1645.28 83.8151 1643.04 89.5565 1639.44 94.5128L1641.06 95.6872ZM1647.15 78.4H1647.75V76.4H1647.15V78.4ZM1646.75 77.4V147.3H1648.75V77.4H1646.75ZM1647.75 146.3H1647.15V148.3H1647.75V146.3Z" fill="black" mask="url(#path-1-outside-1_32_8794)"/>
</g>
</svg>
