<svg width="586" height="193" viewBox="0 0 586 193" fill="none" xmlns="http://www.w3.org/2000/svg">
<path d="M0.375 190V189.5H22.75V2.99999H0.375V2.49999H78V2.99999H55.625V189.5H86.375C95.875 189.5 103.875 188.125 110.375 185.375C116.875 182.542 122.167 178.625 126.25 173.625C130.333 168.542 133.417 162.625 135.5 155.875C137.583 149.042 138.875 141.667 139.375 133.75H139.875V190H0.375ZM235.801 192.5C222.717 192.5 211.051 190.042 200.801 185.125C190.551 180.208 181.842 173.375 174.676 164.625C167.509 155.875 162.051 145.667 158.301 134C154.551 122.333 152.676 109.75 152.676 96.25C152.676 82.75 154.634 70.1667 158.551 58.5C162.551 46.8333 168.217 36.625 175.551 27.875C182.884 19.125 191.634 12.2917 201.801 7.37499C211.967 2.45832 223.301 -1.2517e-05 235.801 -1.2517e-05C248.217 -1.2517e-05 259.509 2.45832 269.676 7.37499C279.842 12.2917 288.592 19.125 295.926 27.875C303.259 36.625 308.884 46.8333 312.801 58.5C316.717 70.1667 318.676 82.75 318.676 96.25C318.676 109.75 316.801 122.333 313.051 134C309.384 145.667 303.967 155.917 296.801 164.75C289.717 173.5 281.009 180.333 270.676 185.25C260.426 190.083 248.801 192.5 235.801 192.5ZM235.801 192C245.384 192 253.134 189.375 259.051 184.125C264.967 178.792 269.509 171.625 272.676 162.625C275.842 153.542 278.009 143.292 279.176 131.875C280.342 120.375 280.926 108.5 280.926 96.25C280.926 83.9167 280.217 72.0417 278.801 60.625C277.467 49.2083 275.092 39 271.676 30C268.342 20.9167 263.759 13.75 257.926 8.5C252.092 3.16666 244.717 0.499996 235.801 0.499996C226.884 0.499996 219.467 3.16666 213.551 8.5C207.717 13.75 203.092 20.9167 199.676 30C196.342 39 193.967 49.2083 192.551 60.625C191.134 72.0417 190.426 83.9167 190.426 96.25C190.426 108.5 191.009 120.375 192.176 131.875C193.342 143.375 195.509 153.625 198.676 162.625C201.926 171.625 206.509 178.792 212.426 184.125C218.426 189.375 226.217 192 235.801 192ZM414.574 192.5L349.824 2.99999H328.949V2.49999H524.074V2.99999H458.074L507.824 150.5L562.574 2.99999H535.949V2.49999H585.824V2.99999H563.324L492.949 192.5H488.824L424.074 2.99999H386.199L436.324 150.5L459.449 89.875L459.824 90.875L421.074 192.5H414.574ZM478.199 72.625L477.699 72L502.574 2.75H503.324L478.199 72.625Z" fill="black"/>
</svg>
