<svg width="1704" height="246" viewBox="0 0 1704 246" fill="none" xmlns="http://www.w3.org/2000/svg">
<path d="M85.64 185.4L18.92 2.99999H50.48L101.48 139.92L149.96 2.99999H150.44L86.12 185.4H85.64ZM19.16 2.99999V182.52H37.76V183H1.28V182.52H18.68V3.47999H0.2V2.99999H19.16ZM198.44 2.99999V3.47999H181.64V182.52H198.44V183H130.88V182.52H150.2V2.99999H198.44ZM304.124 185.4C299.564 185.4 295.364 184.8 291.524 183.6C287.684 182.4 284.604 180.28 282.284 177.24C279.964 174.2 278.804 170 278.804 164.64V109.92C278.804 104.16 278.324 98.36 277.364 92.52C276.404 86.6 274.364 81.68 271.244 77.76C268.124 73.84 263.364 71.88 256.964 71.88C252.884 71.88 248.604 72.4 244.124 73.44C239.724 74.4 235.604 75.88 231.764 77.88C227.924 79.88 224.804 82.4 222.404 85.44C220.004 88.4 218.804 91.88 218.804 95.88H218.564C218.564 91.24 220.244 87.52 223.604 84.72C226.964 81.92 230.764 80.52 235.004 80.52C239.564 80.52 243.564 81.8 247.004 84.36C250.524 86.92 252.284 90.6 252.284 95.4C252.284 100.76 250.484 104.76 246.884 107.4C243.364 109.96 239.404 111.24 235.004 111.24C230.284 111.24 226.324 109.92 223.124 107.28C219.924 104.56 218.324 100.76 218.324 95.88C218.324 91.72 219.564 88.08 222.044 84.96C224.604 81.76 228.004 79.12 232.244 77.04C236.484 74.96 241.204 73.4 246.404 72.36C251.684 71.24 257.044 70.68 262.484 70.68C274.244 70.68 283.404 72.48 289.964 76.08C296.524 79.68 301.084 84.48 303.644 90.48C306.284 96.4 307.604 102.88 307.604 109.92V172.08C307.604 174.8 308.244 177.16 309.524 179.16C310.804 181.08 313.084 182.04 316.364 182.04C318.844 182.04 321.804 180.84 325.244 178.44C328.684 176.04 331.484 172.48 333.644 167.76L334.004 168C331.764 173.36 327.964 177.6 322.604 180.72C317.244 183.84 311.084 185.4 304.124 185.4ZM244.124 185.4C233.724 185.4 225.404 182.76 219.164 177.48C213.004 172.12 209.924 164.88 209.924 155.76C209.924 145.04 214.484 136.84 223.604 131.16C232.724 125.4 245.804 122.52 262.844 122.52H289.964V123H267.764C261.364 123 256.244 124.72 252.404 128.16C248.644 131.52 245.924 135.56 244.244 140.28C242.644 145 241.844 149.44 241.844 153.6C241.844 157.52 242.284 161.44 243.164 165.36C244.044 169.2 245.564 172.4 247.724 174.96C249.884 177.52 252.804 178.8 256.484 178.8C260.564 178.8 264.284 177.44 267.644 174.72C271.084 172 273.804 167.76 275.804 162C277.804 156.24 278.804 148.8 278.804 139.68H279.284C279.284 149.04 278.044 157.16 275.564 164.04C273.084 170.84 269.244 176.12 264.044 179.88C258.924 183.56 252.284 185.4 244.124 185.4ZM381.318 72.6V182.52H394.278V183H337.398V182.52H352.638V73.08H337.398V72.6H381.318ZM454.518 106.44V182.52H469.638V183H412.758V182.52H425.718V107.64C425.718 100.92 425.438 95.08 424.878 90.12C424.318 85.08 423.118 81.2 421.278 78.48C419.518 75.68 416.718 74.28 412.878 74.28C405.918 74.28 400.318 76.12 396.078 79.8C391.838 83.48 388.638 88.16 386.478 93.84C384.398 99.52 382.998 105.56 382.278 111.96C381.638 118.28 381.318 124.12 381.318 129.48L380.838 130.32C380.838 124.48 381.198 118.12 381.918 111.24C382.638 104.36 384.238 97.8 386.718 91.56C389.278 85.32 393.238 80.2 398.598 76.2C403.958 72.2 411.238 70.2 420.438 70.2C429.558 70.2 436.558 71.76 441.438 74.88C446.398 78 449.798 82.32 451.638 87.84C453.558 93.28 454.518 99.48 454.518 106.44ZM534.093 245.4C526.973 245.4 520.133 244.8 513.573 243.6C507.013 242.48 501.133 240.64 495.933 238.08C490.813 235.6 486.733 232.4 483.693 228.48C480.733 224.64 479.253 219.96 479.253 214.44C479.253 209.24 480.613 204.92 483.333 201.48C486.133 198.12 489.573 195.44 493.653 193.44C497.733 191.52 501.813 190.16 505.893 189.36C509.973 188.56 513.373 188.16 516.093 188.16H516.573C512.253 190.72 509.413 193.92 508.053 197.76C506.693 201.6 506.013 206.2 506.013 211.56C506.013 216.68 507.133 221.76 509.373 226.8C511.693 231.92 515.213 236.16 519.933 239.52C524.733 242.88 530.933 244.56 538.533 244.56C544.373 244.56 550.013 243.8 555.453 242.28C560.893 240.76 565.773 238.56 570.093 235.68C574.493 232.8 577.973 229.28 580.533 225.12C583.173 220.96 584.493 216.28 584.493 211.08C584.493 205.72 582.893 201.4 579.693 198.12C576.573 194.92 572.573 192.56 567.693 191.04C562.813 189.52 557.773 188.76 552.573 188.76C550.893 188.76 548.253 188.76 544.653 188.76C541.053 188.76 537.453 188.76 533.853 188.76C530.253 188.76 527.573 188.76 525.813 188.76C514.133 188.76 504.733 187.08 497.613 183.72C490.493 180.36 486.933 174.92 486.933 167.4C486.933 162.84 488.173 159 490.653 155.88C493.213 152.76 496.613 150.28 500.853 148.44C505.093 146.52 509.853 145.12 515.133 144.24C520.493 143.36 526.013 142.92 531.693 142.92V143.4C529.293 143.4 526.653 143.64 523.773 144.12C520.893 144.52 518.093 145.24 515.373 146.28C512.653 147.24 510.413 148.56 508.653 150.24C506.973 151.84 506.133 153.8 506.133 156.12C506.133 159.72 508.213 161.96 512.373 162.84C516.533 163.72 521.893 164.16 528.453 164.16C531.253 164.16 533.853 164.16 536.253 164.16C538.653 164.08 540.973 164.04 543.213 164.04C545.453 163.96 547.693 163.92 549.933 163.92C554.413 163.92 558.933 164.44 563.493 165.48C568.133 166.44 572.333 168.32 576.093 171.12C579.933 173.84 583.013 177.76 585.333 182.88C587.653 187.92 588.813 194.52 588.813 202.68C588.813 210.04 587.373 216.4 584.493 221.76C581.693 227.12 577.733 231.52 572.613 234.96C567.493 238.48 561.653 241.08 555.093 242.76C548.533 244.52 541.533 245.4 534.093 245.4ZM531.693 143.4C526.413 143.4 521.013 142.76 515.493 141.48C510.053 140.12 505.053 138 500.493 135.12C495.933 132.24 492.213 128.48 489.333 123.84C486.533 119.12 485.133 113.44 485.133 106.8C485.133 100.16 486.533 94.52 489.333 89.88C492.213 85.24 495.933 81.52 500.493 78.72C505.053 75.84 510.053 73.72 515.493 72.36C521.013 71 526.413 70.32 531.693 70.32C537.053 70.32 542.413 71 547.773 72.36C553.133 73.72 558.053 75.84 562.533 78.72C567.013 81.52 570.613 85.24 573.333 89.88C576.053 94.52 577.413 100.16 577.413 106.8C577.413 113.44 576.053 119.12 573.333 123.84C570.613 128.48 567.013 132.24 562.533 135.12C558.053 138 553.133 140.12 547.773 141.48C542.413 142.76 537.053 143.4 531.693 143.4ZM531.693 142.92C535.613 142.92 538.773 141.16 541.173 137.64C543.653 134.12 545.453 129.64 546.573 124.2C547.693 118.68 548.253 112.88 548.253 106.8C548.253 100.56 547.693 94.68 546.573 89.16C545.453 83.64 543.653 79.2 541.173 75.84C538.773 72.48 535.613 70.8 531.693 70.8C527.853 70.8 524.693 72.48 522.213 75.84C519.813 79.2 518.013 83.64 516.813 89.16C515.693 94.68 515.133 100.56 515.133 106.8C515.133 112.88 515.453 118.68 516.093 124.2C516.733 129.64 518.213 134.12 520.533 137.64C522.853 141.16 526.573 142.92 531.693 142.92ZM599.613 106.32C596.093 106.32 592.893 105.12 590.013 102.72C587.133 100.32 585.693 96.88 585.693 92.4C585.693 87.84 587.133 84.56 590.013 82.56C592.973 80.48 596.173 79.44 599.613 79.44C602.973 79.44 606.173 80.48 609.213 82.56C612.333 84.56 613.893 87.48 613.893 91.32H613.653C613.653 86.52 611.853 82.08 608.253 78C604.653 73.92 599.413 71.88 592.533 71.88C589.013 71.88 585.213 72.72 581.133 74.4C577.053 76.08 573.333 78.92 569.973 82.92C566.613 86.84 564.133 92.28 562.533 99.24H562.053C563.653 91.96 566.213 86.32 569.733 82.32C573.253 78.32 577.053 75.52 581.133 73.92C585.293 72.24 589.093 71.4 592.533 71.4C597.173 71.4 601.093 72.4 604.293 74.4C607.493 76.32 609.933 78.8 611.613 81.84C613.293 84.88 614.133 88.04 614.133 91.32C614.133 97 612.613 100.92 609.573 103.08C606.533 105.24 603.213 106.32 599.613 106.32ZM718.799 185.4C714.239 185.4 710.039 184.8 706.199 183.6C702.359 182.4 699.279 180.28 696.959 177.24C694.639 174.2 693.479 170 693.479 164.64V109.92C693.479 104.16 692.999 98.36 692.039 92.52C691.079 86.6 689.039 81.68 685.919 77.76C682.799 73.84 678.039 71.88 671.639 71.88C667.559 71.88 663.279 72.4 658.799 73.44C654.399 74.4 650.279 75.88 646.439 77.88C642.599 79.88 639.479 82.4 637.079 85.44C634.679 88.4 633.479 91.88 633.479 95.88H633.239C633.239 91.24 634.919 87.52 638.279 84.72C641.639 81.92 645.439 80.52 649.679 80.52C654.239 80.52 658.239 81.8 661.679 84.36C665.199 86.92 666.959 90.6 666.959 95.4C666.959 100.76 665.159 104.76 661.559 107.4C658.039 109.96 654.079 111.24 649.679 111.24C644.959 111.24 640.999 109.92 637.799 107.28C634.599 104.56 632.999 100.76 632.999 95.88C632.999 91.72 634.239 88.08 636.719 84.96C639.279 81.76 642.679 79.12 646.919 77.04C651.159 74.96 655.879 73.4 661.079 72.36C666.359 71.24 671.719 70.68 677.159 70.68C688.919 70.68 698.079 72.48 704.639 76.08C711.199 79.68 715.759 84.48 718.319 90.48C720.959 96.4 722.279 102.88 722.279 109.92V172.08C722.279 174.8 722.919 177.16 724.199 179.16C725.479 181.08 727.759 182.04 731.039 182.04C733.519 182.04 736.479 180.84 739.919 178.44C743.359 176.04 746.159 172.48 748.319 167.76L748.679 168C746.439 173.36 742.639 177.6 737.279 180.72C731.919 183.84 725.759 185.4 718.799 185.4ZM658.799 185.4C648.399 185.4 640.079 182.76 633.839 177.48C627.679 172.12 624.599 164.88 624.599 155.76C624.599 145.04 629.159 136.84 638.279 131.16C647.399 125.4 660.479 122.52 677.519 122.52H704.639V123H682.439C676.039 123 670.919 124.72 667.079 128.16C663.319 131.52 660.599 135.56 658.919 140.28C657.319 145 656.519 149.44 656.519 153.6C656.519 157.52 656.959 161.44 657.839 165.36C658.719 169.2 660.239 172.4 662.399 174.96C664.559 177.52 667.479 178.8 671.159 178.8C675.239 178.8 678.959 177.44 682.319 174.72C685.759 172 688.479 167.76 690.479 162C692.479 156.24 693.479 148.8 693.479 139.68H693.959C693.959 149.04 692.719 157.16 690.239 164.04C687.759 170.84 683.919 176.12 678.719 179.88C673.599 183.56 666.959 185.4 658.799 185.4ZM795.993 72.6V182.52H808.953V183H752.073V182.52H767.313V73.08H752.073V72.6H795.993ZM869.193 106.44V182.52H884.313V183H827.433V182.52H840.393V107.64C840.393 100.92 840.113 95.08 839.553 90.12C838.993 85.08 837.793 81.2 835.953 78.48C834.193 75.68 831.393 74.28 827.553 74.28C820.593 74.28 814.993 76.12 810.753 79.8C806.513 83.48 803.313 88.16 801.153 93.84C799.073 99.52 797.673 105.56 796.953 111.96C796.313 118.28 795.993 124.12 795.993 129.48L795.513 130.32C795.513 124.48 795.873 118.12 796.593 111.24C797.313 104.36 798.913 97.8 801.393 91.56C803.953 85.32 807.913 80.2 813.273 76.2C818.633 72.2 825.913 70.2 835.113 70.2C844.233 70.2 851.233 71.76 856.113 74.88C861.073 78 864.473 82.32 866.313 87.84C868.233 93.28 869.193 99.48 869.193 106.44ZM955.368 185.4C944.488 185.4 934.688 183.16 925.968 178.68C917.248 174.12 910.368 167.56 905.328 159C900.288 150.44 897.768 140.04 897.768 127.8C897.768 115.56 900.208 105.16 905.088 96.6C910.048 88.04 916.808 81.52 925.368 77.04C934.008 72.48 943.768 70.2 954.648 70.2C966.568 70.2 976.328 72.6 983.928 77.4C991.528 82.12 997.128 88.32 1000.73 96C1004.33 103.68 1006.13 111.88 1006.13 120.6H913.848V120.12H974.688C974.688 115.08 974.448 109.72 973.968 104.04C973.568 98.28 972.688 92.88 971.328 87.84C970.048 82.8 968.048 78.68 965.328 75.48C962.688 72.28 959.128 70.68 954.648 70.68C949.848 70.68 945.848 72.28 942.648 75.48C939.448 78.6 936.928 82.88 935.088 88.32C933.248 93.68 931.928 99.64 931.128 106.2C930.408 112.76 930.048 119.48 930.048 126.36C930.048 133.72 930.448 140.88 931.248 147.84C932.128 154.72 933.648 160.88 935.808 166.32C937.968 171.76 940.968 176.12 944.808 179.4C948.648 182.6 953.568 184.2 959.568 184.2C971.488 184.2 981.448 180.8 989.448 174C997.448 167.12 1002.93 158.68 1005.89 148.68H1006.37C1003.25 159.08 997.488 167.8 989.088 174.84C980.688 181.88 969.448 185.4 955.368 185.4ZM1024.07 185.4V149.64H1024.55C1025.75 156.52 1028.47 162.6 1032.71 167.88C1036.95 173.16 1042.19 177.32 1048.43 180.36C1054.67 183.32 1061.43 184.8 1068.71 184.8C1073.75 184.8 1078.35 184.08 1082.51 182.64C1086.75 181.12 1090.11 178.88 1092.59 175.92C1095.15 172.88 1096.43 169 1096.43 164.28C1096.43 159.48 1094.75 155.72 1091.39 153C1088.03 150.28 1083.67 148.04 1078.31 146.28C1073.03 144.44 1067.39 142.64 1061.39 140.88C1055.47 139.04 1049.87 136.72 1044.59 133.92C1039.31 131.12 1034.99 127.36 1031.63 122.64C1028.27 117.92 1026.59 111.72 1026.59 104.04C1026.59 98.2 1027.99 92.76 1030.79 87.72C1033.59 82.6 1037.63 78.44 1042.91 75.24C1048.27 72.04 1054.75 70.44 1062.35 70.44C1068.11 70.44 1073.31 71.4 1077.95 73.32C1082.59 75.16 1086.63 77.6 1090.07 80.64L1103.27 70.2H1103.75V103.8H1103.27C1101.99 98.28 1099.55 93.04 1095.95 88.08C1092.35 83.04 1087.71 78.92 1082.03 75.72C1076.43 72.52 1069.91 70.92 1062.47 70.92C1057.83 70.92 1053.75 71.6 1050.23 72.96C1046.79 74.32 1044.11 76.28 1042.19 78.84C1040.27 81.4 1039.31 84.36 1039.31 87.72C1039.31 92.28 1041.07 95.96 1044.59 98.76C1048.11 101.48 1052.63 103.84 1058.15 105.84C1063.67 107.76 1069.51 109.72 1075.67 111.72C1081.83 113.64 1087.67 116.04 1093.19 118.92C1098.79 121.8 1103.31 125.56 1106.75 130.2C1110.27 134.84 1112.03 140.84 1112.03 148.2C1112.03 156.04 1110.07 162.72 1106.15 168.24C1102.23 173.76 1097.03 178 1090.55 180.96C1084.07 183.92 1077.07 185.4 1069.55 185.4C1063.39 185.4 1057.63 184.4 1052.27 182.4C1046.91 180.4 1042.15 177.6 1037.99 174L1024.55 185.4H1024.07ZM1185.41 185.4C1174.53 185.4 1164.73 183.16 1156.01 178.68C1147.29 174.12 1140.41 167.56 1135.37 159C1130.33 150.44 1127.81 140.04 1127.81 127.8C1127.81 115.56 1130.25 105.16 1135.13 96.6C1140.09 88.04 1146.85 81.52 1155.41 77.04C1164.05 72.48 1173.81 70.2 1184.69 70.2C1196.61 70.2 1206.37 72.6 1213.97 77.4C1221.57 82.12 1227.17 88.32 1230.77 96C1234.37 103.68 1236.17 111.88 1236.17 120.6H1143.89V120.12H1204.73C1204.73 115.08 1204.49 109.72 1204.01 104.04C1203.61 98.28 1202.73 92.88 1201.37 87.84C1200.09 82.8 1198.09 78.68 1195.37 75.48C1192.73 72.28 1189.17 70.68 1184.69 70.68C1179.89 70.68 1175.89 72.28 1172.69 75.48C1169.49 78.6 1166.97 82.88 1165.13 88.32C1163.29 93.68 1161.97 99.64 1161.17 106.2C1160.45 112.76 1160.09 119.48 1160.09 126.36C1160.09 133.72 1160.49 140.88 1161.29 147.84C1162.17 154.72 1163.69 160.88 1165.85 166.32C1168.01 171.76 1171.01 176.12 1174.85 179.4C1178.69 182.6 1183.61 184.2 1189.61 184.2C1201.53 184.2 1211.49 180.8 1219.49 174C1227.49 167.12 1232.97 158.68 1235.93 148.68H1236.41C1233.29 159.08 1227.53 167.8 1219.13 174.84C1210.73 181.88 1199.49 185.4 1185.41 185.4ZM1390.08 185.4C1377.52 185.4 1366.32 183.04 1356.48 178.32C1346.64 173.6 1338.28 167.04 1331.4 158.64C1324.52 150.24 1319.28 140.44 1315.68 129.24C1312.08 118.04 1310.28 105.96 1310.28 93C1310.28 80.04 1312.16 67.96 1315.92 56.76C1319.76 45.56 1325.16 35.76 1332.12 27.36C1339.16 18.96 1347.56 12.4 1357.32 7.67999C1367.16 2.95999 1378.08 0.599988 1390.08 0.599988C1402 0.599988 1412.84 2.95999 1422.6 7.67999C1432.36 12.4 1440.76 18.96 1447.8 27.36C1454.84 35.76 1460.24 45.56 1464 56.76C1467.76 67.96 1469.64 80.04 1469.64 93C1469.64 105.96 1467.84 118.04 1464.24 129.24C1460.72 140.44 1455.52 150.24 1448.64 158.64C1441.84 167.04 1433.48 173.6 1423.56 178.32C1413.72 183.04 1402.56 185.4 1390.08 185.4ZM1390.08 184.92C1399.28 184.92 1406.72 182.4 1412.4 177.36C1418.08 172.24 1422.44 165.36 1425.48 156.72C1428.52 148 1430.6 138.16 1431.72 127.2C1432.84 116.16 1433.4 104.72 1433.4 92.88C1433.4 81.12 1432.72 69.76 1431.36 58.8C1430.08 47.84 1427.8 38.04 1424.52 29.4C1421.32 20.68 1416.92 13.8 1411.32 8.76C1405.72 3.64 1398.64 1.08 1390.08 1.08C1381.52 1.08 1374.4 3.64 1368.72 8.76C1363.12 13.8 1358.68 20.68 1355.4 29.4C1352.2 38.04 1349.92 47.84 1348.56 58.8C1347.2 69.76 1346.52 81.16 1346.52 93C1346.52 104.76 1347.08 116.16 1348.2 127.2C1349.32 138.24 1351.4 148.08 1354.44 156.72C1357.56 165.36 1361.96 172.24 1367.64 177.36C1373.4 182.4 1380.88 184.92 1390.08 184.92ZM1526.66 129.84C1526.66 121.84 1527.14 114.28 1528.1 107.16C1529.06 100.04 1530.7 93.72 1533.02 88.2C1535.34 82.6 1538.58 78.2 1542.74 75C1546.98 71.8 1552.3 70.2 1558.7 70.2C1563.82 70.2 1568.18 71.32 1571.78 73.56C1575.38 75.72 1578.14 78.56 1580.06 82.08C1581.98 85.6 1582.94 89.36 1582.94 93.36C1582.94 98.32 1581.34 102.6 1578.14 106.2C1575.02 109.72 1570.78 111.48 1565.42 111.48C1559.98 111.48 1555.62 109.88 1552.34 106.68C1549.14 103.48 1547.54 99.64 1547.54 95.16C1547.54 89.72 1549.3 85.4 1552.82 82.2C1556.34 78.92 1560.46 77.28 1565.18 77.28C1568.62 77.28 1571.66 78.04 1574.3 79.56C1576.94 81.08 1579.02 83.04 1580.54 85.44C1582.06 87.84 1582.82 90.48 1582.82 93.36H1582.46C1582.46 89.44 1581.5 85.76 1579.58 82.32C1577.74 78.88 1575.06 76.08 1571.54 73.92C1568.02 71.76 1563.74 70.68 1558.7 70.68C1552.3 70.68 1547.02 72.32 1542.86 75.6C1538.78 78.8 1535.58 83.2 1533.26 88.8C1531.02 94.32 1529.42 100.64 1528.46 107.76C1527.58 114.8 1527.14 122.16 1527.14 129.84H1526.66ZM1527.14 72.6V182.52H1543.46V183H1483.22V182.52H1498.46V73.08H1483.22V72.6H1527.14ZM1652.76 185.4C1641.88 185.4 1632.08 183.16 1623.36 178.68C1614.64 174.12 1607.76 167.56 1602.72 159C1597.68 150.44 1595.16 140.04 1595.16 127.8C1595.16 115.56 1597.6 105.16 1602.48 96.6C1607.44 88.04 1614.2 81.52 1622.76 77.04C1631.4 72.48 1641.16 70.2 1652.04 70.2C1663.96 70.2 1673.72 72.6 1681.32 77.4C1688.92 82.12 1694.52 88.32 1698.12 96C1701.72 103.68 1703.52 111.88 1703.52 120.6H1611.24V120.12H1672.08C1672.08 115.08 1671.84 109.72 1671.36 104.04C1670.96 98.28 1670.08 92.88 1668.72 87.84C1667.44 82.8 1665.44 78.68 1662.72 75.48C1660.08 72.28 1656.52 70.68 1652.04 70.68C1647.24 70.68 1643.24 72.28 1640.04 75.48C1636.84 78.6 1634.32 82.88 1632.48 88.32C1630.64 93.68 1629.32 99.64 1628.52 106.2C1627.8 112.76 1627.44 119.48 1627.44 126.36C1627.44 133.72 1627.84 140.88 1628.64 147.84C1629.52 154.72 1631.04 160.88 1633.2 166.32C1635.36 171.76 1638.36 176.12 1642.2 179.4C1646.04 182.6 1650.96 184.2 1656.96 184.2C1668.88 184.2 1678.84 180.8 1686.84 174C1694.84 167.12 1700.32 158.68 1703.28 148.68H1703.76C1700.64 159.08 1694.88 167.8 1686.48 174.84C1678.08 181.88 1666.84 185.4 1652.76 185.4Z" fill="black"/>
</svg>
