<svg width="1748" height="220" viewBox="0 0 1748 220" fill="none" xmlns="http://www.w3.org/2000/svg">
<path d="M100.58 217.8L22.74 4.99998H59.56L119.06 164.74L175.62 4.99998H176.18L101.14 217.8H100.58ZM23.02 4.99998V214.44H44.72V215H2.16V214.44H22.46V5.55999H0.9V4.99998H23.02ZM232.18 4.99998V5.55999H212.58V214.44H232.18V215H153.36V214.44H175.9V4.99998H232.18ZM290.098 146.82V146.26H373.538V146.82H290.098ZM349.458 0.799987L423.518 214.44H443.398V215H353.798V214.44H381.098L326.218 44.62L266.718 214.44H300.598V215H238.998V214.44H266.018L340.918 0.799987H349.458ZM478.58 4.99998V214.44H511.62V215H450.3V214.44H478.02V5.55999H450.3V4.99998H478.58ZM648.12 4.99998V5.55999H618.72V217.8H618.16L478.3 4.99998H522.12L618.16 155.22V5.55999H585.4V4.99998H648.12ZM769.979 134.92H853.979V135.48H838.859V170.48C835.312 175.053 831.206 180.093 826.539 185.6C821.872 191.013 816.366 196.193 810.019 201.14C803.672 205.993 796.206 210.007 787.619 213.18C779.032 216.26 769.046 217.8 757.659 217.8C737.406 217.8 720.139 213.273 705.859 204.22C691.579 195.167 680.612 182.567 672.959 166.42C665.399 150.18 661.619 131.373 661.619 110C661.619 94.04 664.139 79.4333 669.179 66.18C674.312 52.9267 681.406 41.54 690.459 32.02C699.512 22.5 710.106 15.1733 722.239 10.04C734.466 4.81332 747.672 2.19999 761.859 2.19999C770.539 2.19999 778.752 3.73999 786.499 6.81998C794.339 9.89998 801.246 14.1467 807.219 19.56L831.299 4.99998H831.859V64.92H831.299C830.459 56.8933 828.079 49.24 824.159 41.96C820.332 34.5867 815.386 28.0533 809.319 22.36C803.252 16.5733 796.439 12.0467 788.879 8.77999C781.319 5.41999 773.386 3.73999 765.079 3.73999C753.972 3.73999 744.499 6.81999 736.659 12.98C728.912 19.14 722.612 27.4 717.759 37.76C712.999 48.0267 709.499 59.46 707.259 72.06C705.019 84.5667 703.899 97.2133 703.899 110C703.899 122.693 704.692 135.387 706.279 148.08C707.866 160.773 710.619 172.347 714.539 182.8C718.552 193.16 724.012 201.513 730.919 207.86C737.919 214.113 746.832 217.24 757.659 217.24C764.659 217.24 770.586 215.793 775.439 212.9C780.386 210.007 784.446 206.46 787.619 202.26C790.792 197.967 793.312 193.767 795.179 189.66C797.139 185.553 798.539 182.333 799.379 180V135.48H769.979V134.92ZM897.753 146.82V146.26H981.193V146.82H897.753ZM957.113 0.799987L1031.17 214.44H1051.05V215H961.453V214.44H988.753L933.873 44.62L874.373 214.44H908.253V215H846.653V214.44H873.673L948.573 0.799987H957.113ZM1086.23 4.99998V214.44H1119.27V215H1057.95V214.44H1085.67V5.55999H1057.95V4.99998H1086.23ZM1255.77 4.99998V5.55999H1226.37V217.8H1225.81L1085.95 4.99998H1129.77L1225.81 155.22V5.55999H1193.05V4.99998H1255.77ZM1262.69 215V214.44H1287.75V5.55999H1262.69V4.99998H1417.11V62.4H1416.69C1415.85 52.4133 1413.24 43.1267 1408.85 34.54C1404.56 25.86 1398.54 18.86 1390.79 13.54C1383.14 8.21999 1373.85 5.55999 1362.93 5.55999H1324.57V214.44H1360.13C1372.92 214.44 1383.51 211.733 1391.91 206.32C1400.41 200.813 1406.89 193.347 1411.37 183.92C1415.95 174.493 1418.65 163.853 1419.49 152H1420.05V215H1262.69ZM1371.61 139.68C1370.77 133.427 1368.63 127.827 1365.17 122.88C1361.72 117.84 1357.52 113.873 1352.57 110.98C1347.63 108.087 1342.49 106.64 1337.17 106.64H1312.95V106.08H1337.17C1342.49 106.08 1347.63 104.773 1352.57 102.16C1357.52 99.4533 1361.72 95.72 1365.17 90.96C1368.63 86.2 1370.77 80.6933 1371.61 74.44H1372.17V139.68H1371.61ZM1509.35 219.2C1497.96 219.2 1488.21 217.38 1480.09 213.74C1472.06 210.1 1465.29 205.2 1459.79 199.04L1437.95 217.8H1437.39V155.36H1437.95C1440.19 163.667 1443.13 171.6 1446.77 179.16C1450.5 186.72 1455.12 193.487 1460.63 199.46C1466.23 205.34 1472.9 210.007 1480.65 213.46C1488.39 216.82 1497.4 218.5 1507.67 218.5C1517 218.5 1525.07 216.68 1531.89 213.04C1538.79 209.4 1544.11 204.267 1547.85 197.64C1551.67 191.013 1553.59 183.173 1553.59 174.12C1553.59 166.28 1551.53 159.7 1547.43 154.38C1543.32 148.967 1537.91 144.3 1531.19 140.38C1524.47 136.46 1517.05 132.773 1508.93 129.32C1500.9 125.867 1492.83 122.18 1484.71 118.26C1476.68 114.34 1469.31 109.72 1462.59 104.4C1455.87 98.9867 1450.45 92.4533 1446.35 84.8C1442.24 77.0533 1440.19 67.6267 1440.19 56.52C1440.19 45.4133 1442.99 35.8 1448.59 27.68C1454.28 19.4667 1461.7 13.1667 1470.85 8.77999C1480.09 4.39332 1490.03 2.19999 1500.67 2.19999C1509.53 2.19999 1517.61 3.59998 1524.89 6.39998C1532.17 9.19999 1538.51 13.4933 1543.93 19.28L1565.35 2.19999H1565.91V62.96H1565.21C1562.22 49.9867 1557.83 39.0667 1552.05 30.2C1546.26 21.24 1539.21 14.52 1530.91 10.04C1522.6 5.46665 1513.17 3.17998 1502.63 3.17998C1490.4 3.17998 1481.16 6.49332 1474.91 13.12C1468.75 19.6533 1465.67 28.0533 1465.67 38.32C1465.67 45.32 1467.67 51.2933 1471.69 56.24C1475.7 61.1867 1480.97 65.5733 1487.51 69.4C1494.13 73.1333 1501.41 76.7733 1509.35 80.32C1517.37 83.8667 1525.35 87.74 1533.29 91.94C1541.22 96.0467 1548.45 100.947 1554.99 106.64C1561.61 112.333 1566.93 119.193 1570.95 127.22C1575.05 135.247 1577.11 145 1577.11 156.48C1577.11 169.173 1574.21 180.233 1568.43 189.66C1562.64 198.993 1554.61 206.273 1544.35 211.5C1534.17 216.633 1522.51 219.2 1509.35 219.2ZM1590.14 215V214.44H1615.2V5.55999H1590.14V4.99998H1744.56V62.4H1744.14C1743.3 52.4133 1740.69 43.1267 1736.3 34.54C1732.01 25.86 1725.99 18.86 1718.24 13.54C1710.59 8.21999 1701.3 5.55999 1690.38 5.55999H1652.02V214.44H1687.58C1700.37 214.44 1710.96 211.733 1719.36 206.32C1727.85 200.813 1734.34 193.347 1738.82 183.92C1743.39 174.493 1746.1 163.853 1746.94 152H1747.5V215H1590.14ZM1699.06 139.68C1698.22 133.427 1696.07 127.827 1692.62 122.88C1689.17 117.84 1684.97 113.873 1680.02 110.98C1675.07 108.087 1669.94 106.64 1664.62 106.64H1640.4V106.08H1664.62C1669.94 106.08 1675.07 104.773 1680.02 102.16C1684.97 99.4533 1689.17 95.72 1692.62 90.96C1696.07 86.2 1698.22 80.6933 1699.06 74.44H1699.62V139.68H1699.06Z" fill="black"/>
</svg>
