<svg width="1691" height="156" viewBox="0 0 1691 156" fill="none" xmlns="http://www.w3.org/2000/svg">
<path d="M71.7 155L16.1 2.99999H42.4L84.9 117.1L125.3 2.99999H125.7L72.1 155H71.7ZM16.3 2.99999V152.6H31.8V153H1.4V152.6H15.9V3.39999H0.5V2.99999H16.3ZM165.7 2.99999V3.39999H151.7V152.6H165.7V153H109.4V152.6H125.5V2.99999H165.7ZM170.57 153V152.6H188.47V3.39999H170.57V2.99999H280.87V44H280.57C279.97 36.8667 278.104 30.2333 274.97 24.1C271.904 17.9 267.604 12.9 262.07 9.1C256.604 5.3 249.97 3.39999 242.17 3.39999H214.77V152.6H240.17C249.304 152.6 256.87 150.667 262.87 146.8C268.937 142.867 273.57 137.533 276.77 130.8C280.037 124.067 281.97 116.467 282.57 108H282.97V153H170.57ZM248.37 99.2C247.77 94.7333 246.237 90.7333 243.77 87.2C241.304 83.6 238.304 80.7667 234.77 78.7C231.237 76.6333 227.57 75.6 223.77 75.6H206.47V75.2H223.77C227.57 75.2 231.237 74.2667 234.77 72.4C238.304 70.4667 241.304 67.8 243.77 64.4C246.237 61 247.77 57.0667 248.37 52.6H248.77V99.2H248.37ZM317.65 153V152.6H339.65V3.39999H323.85C318.25 3.39999 313.45 4.6 309.45 7C305.517 9.4 302.217 12.7667 299.55 17.1C296.95 21.3667 294.917 26.3 293.45 31.9C292.05 37.5 291.117 43.4667 290.65 49.8H290.25V2.99999H415.25V49.8H414.75C414.283 43.4667 413.317 37.5 411.85 31.9C410.45 26.3 408.417 21.3667 405.75 17.1C403.15 12.7667 399.85 9.4 395.85 7C391.917 4.6 387.183 3.39999 381.65 3.39999H365.85V152.6H387.85V153H317.65ZM441.938 104.3V103.9H501.538V104.3H441.938ZM484.338 -9.05991e-06L537.238 152.6H551.438V153H487.438V152.6H506.938L467.738 31.3L425.238 152.6H449.438V153H405.438V152.6H424.738L478.238 -9.05991e-06H484.338ZM556.367 153V152.6H574.267V3.39999H556.367V2.99999H618.467V3.39999H600.567V152.6H625.167C632.767 152.6 639.167 151.5 644.367 149.3C649.567 147.033 653.801 143.9 657.067 139.9C660.334 135.833 662.801 131.1 664.467 125.7C666.134 120.233 667.167 114.333 667.567 108H667.967V153H556.367ZM673.508 153V152.6H691.408V3.39999H673.508V2.99999H735.608V3.39999H717.708V152.6H742.308C749.908 152.6 756.308 151.5 761.508 149.3C766.708 147.033 770.941 143.9 774.208 139.9C777.474 135.833 779.941 131.1 781.608 125.7C783.274 120.233 784.308 114.333 784.708 108H785.108V153H673.508ZM922.342 2.99999V3.39999H902.542V107C902.542 123.467 898.976 135.767 891.842 143.9C884.776 151.967 873.176 156 857.042 156C838.909 156 825.642 152.167 817.242 144.5C808.842 136.767 804.642 124.267 804.642 107V3.39999H786.742V2.99999H850.942V3.39999H830.942V105C830.942 111.6 831.376 117.9 832.242 123.9C833.109 129.833 834.676 135.1 836.942 139.7C839.209 144.3 842.442 147.933 846.642 150.6C850.909 153.267 856.409 154.6 863.142 154.6C871.476 154.6 878.542 152.9 884.342 149.5C890.142 146.1 894.542 140.9 897.542 133.9C900.609 126.833 902.142 117.867 902.142 107V3.39999H883.242V2.99999H922.342ZM963.32 76.2V75.8H992.72C999.12 75.8 1004.49 74.4333 1008.82 71.7C1013.22 68.9 1016.52 64.8333 1018.72 59.5C1020.99 54.1667 1022.12 47.6667 1022.12 40C1022.12 32.3333 1020.99 25.7667 1018.72 20.3C1016.52 14.8333 1013.22 10.6667 1008.82 7.8C1004.49 4.86666 999.12 3.39999 992.72 3.39999H927.32V2.99999H995.72C1006.39 2.99999 1015.72 4.29999 1023.72 6.89999C1031.79 9.43332 1038.05 13.4333 1042.52 18.9C1047.05 24.3 1049.32 31.3333 1049.32 40C1049.32 48.6667 1047.19 55.6667 1042.92 61C1038.72 66.2667 1032.62 70.1333 1024.62 72.6C1016.69 75 1007.05 76.2 995.72 76.2H963.32ZM927.32 153V152.6H995.12V153H927.32ZM948.02 152.8V3.2H974.32V152.8H948.02ZM1044.72 154.3C1038.32 154.3 1033.29 153.2 1029.62 151C1026.02 148.8 1023.39 145.867 1021.72 142.2C1020.05 138.467 1018.99 134.3 1018.52 129.7C1018.05 125.033 1017.79 120.233 1017.72 115.3C1017.65 110.3 1017.42 105.5 1017.02 100.9C1016.62 96.2333 1015.65 92.0667 1014.12 88.4C1012.59 84.6667 1010.09 81.7 1006.62 79.5C1003.22 77.3 998.454 76.2 992.32 76.2H963.32V75.8H1003.52C1013.05 75.8 1020.62 77.2 1026.22 80C1031.82 82.8 1035.99 86.5 1038.72 91.1C1041.45 95.6333 1043.22 100.633 1044.02 106.1C1044.89 111.567 1045.32 117.067 1045.32 122.6C1045.39 128.067 1045.49 133.1 1045.62 137.7C1045.75 142.233 1046.45 145.9 1047.72 148.7C1048.99 151.5 1051.39 152.9 1054.92 152.9C1057.05 152.9 1059.09 152.667 1061.02 152.2C1063.02 151.667 1064.72 151.067 1066.12 150.4L1066.32 150.6C1064.72 151.467 1062.05 152.3 1058.32 153.1C1054.59 153.9 1050.05 154.3 1044.72 154.3ZM1152.15 95.8H1212.15V96.2H1201.35V121.2C1198.81 124.467 1195.88 128.067 1192.55 132C1189.21 135.867 1185.28 139.567 1180.75 143.1C1176.21 146.567 1170.88 149.433 1164.75 151.7C1158.61 153.9 1151.48 155 1143.35 155C1128.88 155 1116.55 151.767 1106.35 145.3C1096.15 138.833 1088.31 129.833 1082.85 118.3C1077.45 106.7 1074.75 93.2667 1074.75 78C1074.75 66.6 1076.55 56.1667 1080.15 46.7C1083.81 37.2333 1088.88 29.1 1095.35 22.3C1101.81 15.5 1109.38 10.2667 1118.05 6.59999C1126.78 2.86666 1136.21 0.99999 1146.35 0.99999C1152.55 0.99999 1158.41 2.09999 1163.95 4.29999C1169.55 6.49999 1174.48 9.53332 1178.75 13.4L1195.95 2.99999H1196.35V45.8H1195.95C1195.35 40.0667 1193.65 34.6 1190.85 29.4C1188.11 24.1333 1184.58 19.4667 1180.25 15.4C1175.91 11.2667 1171.05 8.03333 1165.65 5.7C1160.25 3.29999 1154.58 2.09999 1148.65 2.09999C1140.71 2.09999 1133.95 4.29999 1128.35 8.69999C1122.81 13.1 1118.31 19 1114.85 26.4C1111.45 33.7333 1108.95 41.9 1107.35 50.9C1105.75 59.8333 1104.95 68.8667 1104.95 78C1104.95 87.0667 1105.51 96.1333 1106.65 105.2C1107.78 114.267 1109.75 122.533 1112.55 130C1115.41 137.4 1119.31 143.367 1124.25 147.9C1129.25 152.367 1135.61 154.6 1143.35 154.6C1148.35 154.6 1152.58 153.567 1156.05 151.5C1159.58 149.433 1162.48 146.9 1164.75 143.9C1167.01 140.833 1168.81 137.833 1170.15 134.9C1171.55 131.967 1172.55 129.667 1173.15 128V96.2H1152.15V95.8ZM1215.51 153V152.6H1237.41V3.39999H1215.51V2.99999H1287.71V3.39999H1263.71V152.6H1287.71V153H1215.51ZM1367.71 155C1353.38 155 1340.94 151.7 1330.41 145.1C1319.88 138.433 1311.71 129.3 1305.91 117.7C1300.18 106.1 1297.31 92.8667 1297.31 78C1297.31 63.1333 1300.18 49.9 1305.91 38.3C1311.71 26.7 1319.88 17.6 1330.41 11C1340.94 4.33332 1353.38 0.99999 1367.71 0.99999C1374.18 0.99999 1380.18 2.13332 1385.71 4.39999C1391.24 6.66666 1396.11 9.8 1400.31 13.8L1416.11 2.99999H1416.51V45.8H1416.01C1414.68 37.3333 1411.78 29.8 1407.31 23.2C1402.84 16.6 1397.34 11.4333 1390.81 7.69999C1384.34 3.89999 1377.31 1.99999 1369.71 1.99999C1361.78 1.99999 1355.08 4.23332 1349.61 8.69999C1344.21 13.1 1339.88 19 1336.61 26.4C1333.41 33.7333 1331.08 41.9 1329.61 50.9C1328.21 59.8333 1327.51 68.8667 1327.51 78C1327.51 87.0667 1328.21 96.1 1329.61 105.1C1331.08 114.1 1333.41 122.3 1336.61 129.7C1339.88 137.033 1344.21 142.933 1349.61 147.4C1355.08 151.8 1361.78 154 1369.71 154C1376.58 154 1382.78 152.867 1388.31 150.6C1393.91 148.267 1398.78 145.067 1402.91 141C1407.04 136.867 1410.38 132.2 1412.91 127C1415.51 121.733 1417.21 116.133 1418.01 110.2H1418.51V153H1418.11L1403.61 141.1C1399.34 145.433 1394.14 148.833 1388.01 151.3C1381.94 153.767 1375.18 155 1367.71 155ZM1464.61 104.3V103.9H1524.21V104.3H1464.61ZM1507.01 -9.05991e-06L1559.91 152.6H1574.11V153H1510.11V152.6H1529.61L1490.41 31.3L1447.91 152.6H1472.11V153H1428.11V152.6H1447.41L1500.91 -9.05991e-06H1507.01ZM1579.04 153V152.6H1596.94V3.39999H1579.04V2.99999H1641.14V3.39999H1623.24V152.6H1647.84C1655.44 152.6 1661.84 151.5 1667.04 149.3C1672.24 147.033 1676.47 143.9 1679.74 139.9C1683.01 135.833 1685.47 131.1 1687.14 125.7C1688.81 120.233 1689.84 114.333 1690.24 108H1690.64V153H1579.04Z" fill="black"/>
</svg>
