<svg width="1620" height="154" viewBox="0 0 1620 154" fill="none" xmlns="http://www.w3.org/2000/svg">
<path d="M68.2 154C57.5333 154 48 152.067 39.6 148.2C31.2 144.333 24.0667 138.9 18.2 131.9C12.3333 124.9 7.83333 116.733 4.7 107.4C1.63333 98.0667 0.1 87.9333 0.1 77C0.1 66.0667 1.73333 55.9333 5 46.6C8.26667 37.2667 12.9 29.1 18.9 22.1C24.9 15.1 32.0667 9.66666 40.4 5.8C48.8 1.93333 58.0667 -1.00136e-05 68.2 -1.00136e-05C78.4 -1.00136e-05 87.6333 1.93333 95.9 5.8C104.233 9.66666 111.4 15.1 117.4 22.1C123.467 29.1 128.1 37.2667 131.3 46.6C134.567 55.9333 136.2 66.0667 136.2 77C136.2 87.9333 134.667 98.0667 131.6 107.4C128.533 116.733 124.067 124.9 118.2 131.9C112.333 138.9 105.2 144.333 96.8 148.2C88.4 152.067 78.8667 154 68.2 154ZM68.2 153.6C75.2 153.6 80.8333 151.6 85.1 147.6C89.4333 143.533 92.7667 137.967 95.1 130.9C97.4333 123.767 99 115.6 99.8 106.4C100.667 97.1333 101.1 87.3 101.1 76.9C101.1 66.5667 100.567 56.8 99.5 47.6C98.5 38.4 96.7667 30.2667 94.3 23.2C91.8333 16.0667 88.4667 10.5 84.2 6.5C80 2.43333 74.6667 0.399997 68.2 0.399997C61.8 0.399997 56.4333 2.43333 52.1 6.5C47.8333 10.5667 44.4667 16.1333 42 23.2C39.5333 30.2667 37.7667 38.4 36.7 47.6C35.7 56.8 35.2 66.6 35.2 77C35.2 87.3333 35.6333 97.1333 36.5 106.4C37.3667 115.6 38.9667 123.733 41.3 130.8C43.6333 137.867 46.9667 143.433 51.3 147.5C55.6333 151.567 61.2667 153.6 68.2 153.6ZM228.244 102.4C227.244 97.9333 225.477 93.8333 222.944 90.1C220.41 86.3 217.177 83.2667 213.244 81C209.377 78.7333 204.877 77.6 199.744 77.6H186.744V77.2H199.744C204.877 77.2 209.377 76.1667 213.244 74.1C217.177 71.9667 220.41 69.1 222.944 65.5C225.477 61.9 227.244 57.8667 228.244 53.4H228.644V102.4H228.244ZM256.744 1.99999V43H256.344C255.344 35.8667 253.21 29.2333 249.944 23.1C246.744 16.9 242.41 11.9 236.944 8.1C231.544 4.3 225.11 2.39999 217.644 2.39999H194.744V151.6H214.744V152H145.644V151.6H163.644V2.39999H145.644V1.99999H256.744ZM311.761 152V151.6H329.761V2.39999H311.761V1.99999H425.761V43H425.461C424.461 35.8667 422.161 29.2333 418.561 23.1C414.961 16.9 410.228 11.9 404.361 8.1C398.494 4.3 391.661 2.39999 383.861 2.39999H360.861V151.6H381.761C390.961 151.6 398.761 149.667 405.161 145.8C411.561 141.867 416.594 136.533 420.261 129.8C423.994 123.067 426.361 115.467 427.361 107H427.861V152H311.761ZM394.461 99.4C393.461 94.9333 391.561 90.8333 388.761 87.1C386.028 83.3 382.794 80.2667 379.061 78C375.394 75.7333 371.661 74.6 367.861 74.6H352.361V74.2H367.861C371.661 74.2 375.394 73.1667 379.061 71.1C382.794 68.9667 386.028 66.1 388.761 62.5C391.561 58.9 393.461 54.8667 394.461 50.4H394.861V99.4H394.461ZM519.656 152V151.6H538.656L452.856 2.39999H440.656V1.99999H508.656V2.39999H488.056L574.656 151.6H587.656V152H519.656ZM433.656 152V151.6H456.056L510.956 68.6H511.656L456.656 151.6H481.656V152H433.656ZM510.156 76.6L557.056 2.39999H532.656V1.99999H576.656V2.39999H557.556L510.756 76.6H510.156ZM667.669 154C652.802 154 639.969 150.7 629.169 144.1C618.435 137.433 610.135 128.3 604.269 116.7C598.469 105.1 595.569 91.8667 595.569 77C595.569 62.1333 598.469 48.9 604.269 37.3C610.135 25.7 618.435 16.6 629.169 9.99999C639.969 3.33332 652.802 -1.00136e-05 667.669 -1.00136e-05C673.869 -1.00136e-05 679.602 1.06666 684.869 3.2C690.135 5.33333 694.802 8.36666 698.869 12.3L717.269 1.99999H717.669V46H717.069C714.802 37.4 711.369 29.7 706.769 22.9C702.235 16.1 696.802 10.7667 690.469 6.89999C684.135 2.96666 677.202 0.999989 669.669 0.999989C662.202 0.999989 655.935 3.23332 650.869 7.69999C645.869 12.1 641.902 18 638.969 25.4C636.035 32.7333 633.902 40.9 632.569 49.9C631.302 58.8333 630.669 67.8667 630.669 77C630.669 86.0667 631.302 95.1 632.569 104.1C633.902 113.1 636.035 121.3 638.969 128.7C641.902 136.033 645.869 141.933 650.869 146.4C655.935 150.8 662.202 153 669.669 153C676.469 153 682.602 151.833 688.069 149.5C693.535 147.1 698.335 143.833 702.469 139.7C706.669 135.5 710.135 130.7 712.869 125.3C715.669 119.833 717.769 114.067 719.169 108H719.669V152H719.269L702.569 140.6C698.302 144.733 693.235 148 687.369 150.4C681.502 152.8 674.935 154 667.669 154ZM729.003 152V151.6H747.003V2.39999H729.003V1.99999H843.003V43H842.703C841.703 35.8667 839.403 29.2333 835.803 23.1C832.203 16.9 827.47 11.9 821.603 8.1C815.736 4.3 808.903 2.39999 801.103 2.39999H778.103V151.6H799.003C808.203 151.6 816.003 149.667 822.403 145.8C828.803 141.867 833.836 136.533 837.503 129.8C841.236 123.067 843.603 115.467 844.603 107H845.103V152H729.003ZM811.703 99.4C810.703 94.9333 808.803 90.8333 806.003 87.1C803.27 83.3 800.036 80.2667 796.303 78C792.636 75.7333 788.903 74.6 785.103 74.6H769.603V74.2H785.103C788.903 74.2 792.636 73.1667 796.303 71.1C800.036 68.9667 803.27 66.1 806.003 62.5C808.803 58.9 810.703 54.8667 811.703 50.4H812.103V99.4H811.703ZM852.198 152V151.6H870.198V2.39999H852.198V1.99999H919.198V2.39999H901.298V151.6H921.698C929.098 151.6 935.498 150.5 940.898 148.3C946.298 146.033 950.798 142.9 954.398 138.9C958.065 134.833 960.932 130.1 962.998 124.7C965.132 119.233 966.565 113.333 967.298 107H967.698V152H852.198ZM973.05 152V151.6H991.05V2.39999H973.05V1.99999H1040.05V2.39999H1022.15V151.6H1042.55C1049.95 151.6 1056.35 150.5 1061.75 148.3C1067.15 146.033 1071.65 142.9 1075.25 138.9C1078.92 134.833 1081.78 130.1 1083.85 124.7C1085.98 119.233 1087.42 113.333 1088.15 107H1088.55V152H973.05ZM1093.9 152V151.6H1111.9V2.39999H1093.9V1.99999H1207.9V43H1207.6C1206.6 35.8667 1204.3 29.2333 1200.7 23.1C1197.1 16.9 1192.37 11.9 1186.5 8.1C1180.63 4.3 1173.8 2.39999 1166 2.39999H1143V151.6H1163.9C1173.1 151.6 1180.9 149.667 1187.3 145.8C1193.7 141.867 1198.73 136.533 1202.4 129.8C1206.13 123.067 1208.5 115.467 1209.5 107H1210V152H1093.9ZM1176.6 99.4C1175.6 94.9333 1173.7 90.8333 1170.9 87.1C1168.17 83.3 1164.93 80.2667 1161.2 78C1157.53 75.7333 1153.8 74.6 1150 74.6H1134.5V74.2H1150C1153.8 74.2 1157.53 73.1667 1161.2 71.1C1164.93 68.9667 1168.17 66.1 1170.9 62.5C1173.7 58.9 1175.6 54.8667 1176.6 50.4H1177V99.4H1176.6ZM1237.3 1.99999V151.6H1260.5V152H1217.1V151.6H1236.9V2.39999H1217.1V1.99999H1237.3ZM1360.1 1.99999V2.39999H1339.1V154H1338.7L1237.1 1.99999H1274.1L1338.7 101.1V2.39999H1315.7V1.99999H1360.1ZM1441.61 154C1426.74 154 1413.91 150.7 1403.11 144.1C1392.37 137.433 1384.07 128.3 1378.21 116.7C1372.41 105.1 1369.51 91.8667 1369.51 77C1369.51 62.1333 1372.41 48.9 1378.21 37.3C1384.07 25.7 1392.37 16.6 1403.11 9.99999C1413.91 3.33332 1426.74 -1.00136e-05 1441.61 -1.00136e-05C1447.81 -1.00136e-05 1453.54 1.06666 1458.81 3.2C1464.07 5.33333 1468.74 8.36666 1472.81 12.3L1491.21 1.99999H1491.61V46H1491.01C1488.74 37.4 1485.31 29.7 1480.71 22.9C1476.17 16.1 1470.74 10.7667 1464.41 6.89999C1458.07 2.96666 1451.14 0.999989 1443.61 0.999989C1436.14 0.999989 1429.87 3.23332 1424.81 7.69999C1419.81 12.1 1415.84 18 1412.91 25.4C1409.97 32.7333 1407.84 40.9 1406.51 49.9C1405.24 58.8333 1404.61 67.8667 1404.61 77C1404.61 86.0667 1405.24 95.1 1406.51 104.1C1407.84 113.1 1409.97 121.3 1412.91 128.7C1415.84 136.033 1419.81 141.933 1424.81 146.4C1429.87 150.8 1436.14 153 1443.61 153C1450.41 153 1456.54 151.833 1462.01 149.5C1467.47 147.1 1472.27 143.833 1476.41 139.7C1480.61 135.5 1484.07 130.7 1486.81 125.3C1489.61 119.833 1491.71 114.067 1493.11 108H1493.61V152H1493.21L1476.51 140.6C1472.24 144.733 1467.17 148 1461.31 150.4C1455.44 152.8 1448.87 154 1441.61 154ZM1502.94 152V151.6H1520.94V2.39999H1502.94V1.99999H1616.94V43H1616.64C1615.64 35.8667 1613.34 29.2333 1609.74 23.1C1606.14 16.9 1601.41 11.9 1595.54 8.1C1589.67 4.3 1582.84 2.39999 1575.04 2.39999H1552.04V151.6H1572.94C1582.14 151.6 1589.94 149.667 1596.34 145.8C1602.74 141.867 1607.77 136.533 1611.44 129.8C1615.17 123.067 1617.54 115.467 1618.54 107H1619.04V152H1502.94ZM1585.64 99.4C1584.64 94.9333 1582.74 90.8333 1579.94 87.1C1577.21 83.3 1573.97 80.2667 1570.24 78C1566.57 75.7333 1562.84 74.6 1559.04 74.6H1543.54V74.2H1559.04C1562.84 74.2 1566.57 73.1667 1570.24 71.1C1573.97 68.9667 1577.21 66.1 1579.94 62.5C1582.74 58.9 1584.64 54.8667 1585.64 50.4H1586.04V99.4H1585.64Z" fill="black"/>
</svg>
