<svg width="1527" height="310" viewBox="0 0 1527 310" fill="none" xmlns="http://www.w3.org/2000/svg">
<g opacity="0.74">
<mask id="path-1-outside-1_168_109" maskUnits="userSpaceOnUse" x="-1" y="-1" width="1529" height="312" fill="black">
<rect fill="white" x="-1" y="-1" width="1529" height="312"/>
<path d="M133.4 308C112.467 308 93.8 304.067 77.4 296.2C61 288.333 47.0667 277.4 35.6 263.4C24.1333 249.4 15.4 233.067 9.4 214.4C3.4 195.733 0.4 175.6 0.4 154C0.4 132.4 3.53333 112.267 9.8 93.6C16.2 74.9333 25.2 58.6 36.8 44.6C48.5333 30.6 62.5333 19.6667 78.8 11.8C95.2 3.93331 113.4 -2.00272e-05 133.4 -2.00272e-05C153.267 -2.00272e-05 171.333 3.93331 187.6 11.8C203.867 19.6667 217.867 30.6 229.6 44.6C241.333 58.6 250.333 74.9333 256.6 93.6C262.867 112.267 266 132.4 266 154C266 175.6 263 195.733 257 214.4C251.133 233.067 242.467 249.4 231 263.4C219.667 277.4 205.733 288.333 189.2 296.2C172.8 304.067 154.2 308 133.4 308ZM133.4 307.2C148.733 307.2 161.133 303 170.6 294.6C180.067 286.067 187.333 274.6 192.4 260.2C197.467 245.667 200.933 229.267 202.8 211C204.667 192.6 205.6 173.533 205.6 153.8C205.6 134.2 204.467 115.267 202.2 97C200.067 78.7333 196.267 62.4 190.8 48C185.467 33.4667 178.133 22 168.8 13.6C159.467 5.06666 147.667 0.799994 133.4 0.799994C119.133 0.799994 107.267 5.06666 97.8 13.6C88.4667 22 81.0667 33.4667 75.6 48C70.2667 62.4 66.4667 78.7333 64.2 97C61.9333 115.267 60.8 134.267 60.8 154C60.8 173.6 61.7333 192.6 63.6 211C65.4667 229.4 68.9333 245.8 74 260.2C79.2 274.6 86.5333 286.067 96 294.6C105.6 303 118.067 307.2 133.4 307.2ZM325.838 3.99998V303.2H373.038V304H285.438V303.2H325.038V4.79999H285.438V3.99998H325.838ZM568.038 3.99998V4.79999H526.038V308H525.238L325.438 3.99998H388.038L525.238 218.6V4.79999H478.438V3.99998H568.038ZM577.922 304V303.2H621.722V4.79999H577.922V3.99998H722.322V4.79999H674.322V303.2H722.322V304H577.922ZM874.525 308C853.592 308 834.925 304.067 818.525 296.2C802.125 288.333 788.192 277.4 776.725 263.4C765.258 249.4 756.525 233.067 750.525 214.4C744.525 195.733 741.525 175.6 741.525 154C741.525 132.4 744.658 112.267 750.925 93.6C757.325 74.9333 766.325 58.6 777.925 44.6C789.658 30.6 803.658 19.6667 819.925 11.8C836.325 3.93331 854.525 -2.00272e-05 874.525 -2.00272e-05C894.392 -2.00272e-05 912.458 3.93331 928.725 11.8C944.992 19.6667 958.992 30.6 970.725 44.6C982.458 58.6 991.458 74.9333 997.725 93.6C1003.99 112.267 1007.13 132.4 1007.13 154C1007.13 175.6 1004.13 195.733 998.125 214.4C992.258 233.067 983.592 249.4 972.125 263.4C960.792 277.4 946.858 288.333 930.325 296.2C913.925 304.067 895.325 308 874.525 308ZM874.525 307.2C889.858 307.2 902.258 303 911.725 294.6C921.192 286.067 928.458 274.6 933.525 260.2C938.592 245.667 942.058 229.267 943.925 211C945.792 192.6 946.725 173.533 946.725 153.8C946.725 134.2 945.592 115.267 943.325 97C941.192 78.7333 937.392 62.4 931.925 48C926.592 33.4667 919.258 22 909.925 13.6C900.592 5.06666 888.792 0.799994 874.525 0.799994C860.258 0.799994 848.392 5.06666 838.925 13.6C829.592 22 822.192 33.4667 816.725 48C811.392 62.4 807.592 78.7333 805.325 97C803.058 115.267 801.925 134.267 801.925 154C801.925 173.6 802.858 192.6 804.725 211C806.592 229.4 810.058 245.8 815.125 260.2C820.325 274.6 827.658 286.067 837.125 294.6C846.725 303 859.192 307.2 874.525 307.2ZM1066.96 3.99998V303.2H1114.16V304H1026.56V303.2H1066.16V4.79999H1026.56V3.99998H1066.96ZM1309.16 3.99998V4.79999H1267.16V308H1266.36L1066.56 3.99998H1129.16L1266.36 218.6V4.79999H1219.56V3.99998H1309.16ZM1430.09 310C1413.83 310 1399.89 307.4 1388.29 302.2C1376.83 297 1367.16 290 1359.29 281.2L1328.09 308H1327.29V218.8H1328.09C1331.29 230.667 1335.49 242 1340.69 252.8C1346.03 263.6 1352.63 273.267 1360.49 281.8C1368.49 290.2 1378.03 296.867 1389.09 301.8C1400.16 306.6 1413.03 309 1427.69 309C1441.03 309 1452.56 306.4 1462.29 301.2C1472.16 296 1479.76 288.667 1485.09 279.2C1490.56 269.733 1493.29 258.533 1493.29 245.6C1493.29 234.4 1490.36 225 1484.49 217.4C1478.63 209.667 1470.89 203 1461.29 197.4C1451.69 191.8 1441.09 186.533 1429.49 181.6C1418.03 176.667 1406.49 171.4 1394.89 165.8C1383.43 160.2 1372.89 153.6 1363.29 146C1353.69 138.267 1345.96 128.933 1340.09 118C1334.23 106.933 1331.29 93.4667 1331.29 77.6C1331.29 61.7333 1335.29 48 1343.29 36.4C1351.43 24.6666 1362.03 15.6666 1375.09 9.39999C1388.29 3.13332 1402.49 -2.00272e-05 1417.69 -2.00272e-05C1430.36 -2.00272e-05 1441.89 1.99998 1452.29 5.99997C1462.69 9.99999 1471.76 16.1333 1479.49 24.4L1510.09 -2.00272e-05H1510.89V86.8H1509.89C1505.63 68.2667 1499.36 52.6667 1491.09 40C1482.83 27.2 1472.76 17.6 1460.89 11.2C1449.03 4.66664 1435.56 1.39997 1420.49 1.39997C1403.03 1.39997 1389.83 6.13331 1380.89 15.6C1372.09 24.9333 1367.69 36.9333 1367.69 51.6C1367.69 61.6 1370.56 70.1333 1376.29 77.2C1382.03 84.2667 1389.56 90.5333 1398.89 96C1408.36 101.333 1418.76 106.533 1430.09 111.6C1441.56 116.667 1452.96 122.2 1464.29 128.2C1475.63 134.067 1485.96 141.067 1495.29 149.2C1504.76 157.333 1512.36 167.133 1518.09 178.6C1523.96 190.067 1526.89 204 1526.89 220.4C1526.89 238.533 1522.76 254.333 1514.49 267.8C1506.23 281.133 1494.76 291.533 1480.09 299C1465.56 306.333 1448.89 310 1430.09 310Z"/>
</mask>
<path d="M77.4 296.2L76.9675 297.102L77.4 296.2ZM35.6 263.4L36.3736 262.766L35.6 263.4ZM9.4 214.4L8.44797 214.706L9.4 214.4ZM9.8 93.6L8.85404 93.2757L8.852 93.2817L9.8 93.6ZM36.8 44.6L36.0336 43.9576L36.03 43.962L36.8 44.6ZM78.8 11.8L78.3675 10.8983L78.3646 10.8997L78.8 11.8ZM187.6 11.8L187.165 12.7002L187.6 11.8ZM229.6 44.6L228.834 45.2423L229.6 44.6ZM256.6 93.6L255.652 93.9182L256.6 93.6ZM257 214.4L256.048 214.094L256.046 214.1L257 214.4ZM231 263.4L230.226 262.766L230.223 262.771L231 263.4ZM189.2 296.2L188.77 295.297L188.768 295.298L189.2 296.2ZM170.6 294.6L171.264 295.348L171.27 295.343L170.6 294.6ZM192.4 260.2L193.343 260.532L193.344 260.529L192.4 260.2ZM202.8 211L203.795 211.102L203.795 211.101L202.8 211ZM202.2 97L201.207 97.116L201.208 97.1231L202.2 97ZM190.8 48L189.861 48.3445L189.865 48.3549L190.8 48ZM168.8 13.6L168.125 14.338L168.131 14.3433L168.8 13.6ZM97.8 13.6L98.469 14.3433L98.4695 14.3428L97.8 13.6ZM75.6 48L74.664 47.6479L74.6623 47.6527L75.6 48ZM64.2 97L65.1924 97.1231L64.2 97ZM63.6 211L64.5949 210.899L63.6 211ZM74 260.2L73.0567 260.532L73.0594 260.54L74 260.2ZM96 294.6L95.3305 295.343L95.3359 295.348L95.3415 295.353L96 294.6ZM133.4 307C112.594 307 94.0785 303.091 77.8325 295.298L76.9675 297.102C93.5215 305.042 112.34 309 133.4 309V307ZM77.8325 295.298C61.5638 287.495 47.7471 276.653 36.3736 262.766L34.8264 264.034C46.3863 278.147 60.4363 289.172 76.9675 297.102L77.8325 295.298ZM36.3736 262.766C24.9929 248.871 16.3169 232.651 10.352 214.094L8.44797 214.706C14.4831 233.482 23.2738 249.929 34.8264 264.034L36.3736 262.766ZM10.352 214.094C4.38687 195.536 1.4 175.507 1.4 154H-0.599999C-0.599999 175.693 2.41313 195.931 8.44797 214.706L10.352 214.094ZM1.4 154C1.4 132.498 4.51895 112.473 10.748 93.9182L8.852 93.2817C2.54772 112.06 -0.599999 132.302 -0.599999 154H1.4ZM10.7459 93.9243C17.1101 75.3622 26.0535 59.1373 37.57 45.238L36.03 43.962C24.3465 58.0627 15.2899 74.5045 8.85406 93.2757L10.7459 93.9243ZM37.5664 45.2423C49.2099 31.3495 63.0975 20.5046 79.2354 12.7002L78.3646 10.8997C61.9692 18.8287 47.8568 29.8504 36.0336 43.9577L37.5664 45.2423ZM79.2325 12.7016C95.4845 4.90593 113.535 0.999985 133.4 0.999985V-1.00002C113.265 -1.00002 94.9155 2.96071 78.3675 10.8983L79.2325 12.7016ZM133.4 0.999985C153.131 0.999985 171.047 4.90553 187.165 12.7002L188.035 10.8997C171.62 2.96111 153.402 -1.00002 133.4 -1.00002V0.999985ZM187.165 12.7002C203.303 20.5046 217.19 31.3495 228.834 45.2423L230.366 43.9577C218.543 29.8504 204.431 18.8287 188.035 10.8997L187.165 12.7002ZM228.834 45.2423C240.481 59.1394 249.422 75.3607 255.652 93.9182L257.548 93.2817C251.245 74.5059 242.186 58.0606 230.366 43.9577L228.834 45.2423ZM255.652 93.9182C261.881 112.473 265 132.498 265 154H267C267 132.302 263.852 112.06 257.548 93.2817L255.652 93.9182ZM265 154C265 175.507 262.013 195.536 256.048 214.094L257.952 214.706C263.987 195.931 267 175.693 267 154H265ZM256.046 214.1C250.214 232.655 241.606 248.873 230.226 262.766L231.774 264.034C243.328 249.927 252.052 233.478 257.954 214.7L256.046 214.1ZM230.223 262.771C218.985 276.653 205.171 287.493 188.77 295.297L189.63 297.103C206.296 289.173 220.348 278.147 231.777 264.029L230.223 262.771ZM188.768 295.298C172.521 303.092 154.072 307 133.4 307V309C154.328 309 173.079 305.042 189.632 297.102L188.768 295.298ZM133.4 308.2C148.924 308.2 161.577 303.943 171.264 295.348L169.936 293.852C160.689 302.057 148.543 306.2 133.4 306.2V308.2ZM171.27 295.343C180.883 286.677 188.232 275.059 193.343 260.532L191.457 259.868C186.435 274.141 179.251 285.456 169.93 293.857L171.27 295.343ZM193.344 260.529C198.441 245.91 201.922 229.431 203.795 211.102L201.805 210.898C199.945 229.102 196.492 245.424 191.456 259.871L193.344 260.529ZM203.795 211.101C205.665 192.665 206.6 173.565 206.6 153.8H204.6C204.6 173.502 203.668 192.535 201.805 210.899L203.795 211.101ZM206.6 153.8C206.6 134.161 205.464 115.187 203.192 96.8768L201.208 97.1231C203.469 115.346 204.6 134.239 204.6 153.8H206.6ZM203.193 96.884C201.052 78.5509 197.236 62.1352 191.735 47.6451L189.865 48.3549C195.298 62.6648 199.081 78.9158 201.207 97.116L203.193 96.884ZM191.739 47.6555C186.362 33.0043 178.948 21.3882 169.469 12.8567L168.131 14.3433C177.318 22.6118 184.571 33.929 189.861 48.3445L191.739 47.6555ZM169.475 12.862C159.933 4.13824 147.882 -0.200012 133.4 -0.200012V1.79999C147.451 1.79999 159 5.99509 168.125 14.338L169.475 12.862ZM133.4 -0.200012C118.918 -0.200012 106.803 4.1382 97.1305 12.8572L98.4695 14.3428C107.73 5.99513 119.349 1.79999 133.4 1.79999V-0.200012ZM97.131 12.8567C87.6537 21.3863 80.174 32.9995 74.664 47.6479L76.536 48.3521C81.9594 33.9338 89.2796 22.6137 98.469 14.3433L97.131 12.8567ZM74.6623 47.6527C69.2974 62.1376 65.482 78.5482 63.2076 96.8768L65.1924 97.1231C67.4514 78.9184 71.2359 62.6623 76.5378 48.3473L74.6623 47.6527ZM63.2076 96.8768C60.9355 115.187 59.8 134.228 59.8 154H61.8C61.8 134.305 62.9311 115.346 65.1924 97.1231L63.2076 96.8768ZM59.8 154C59.8 173.632 60.7348 192.665 62.6051 211.101L64.5949 210.899C62.7318 192.535 61.8 173.568 61.8 154H59.8ZM62.6051 211.101C64.4781 229.564 67.9589 246.043 73.0567 260.532L74.9433 259.868C69.9078 245.557 66.4552 229.236 64.5949 210.899L62.6051 211.101ZM73.0594 260.54C78.3041 275.063 85.7194 286.679 95.3305 295.343L96.6695 293.857C87.3473 285.454 80.0959 274.137 74.9406 259.86L73.0594 260.54ZM95.3415 295.353C105.159 303.943 117.876 308.2 133.4 308.2V306.2C118.258 306.2 106.041 302.057 96.6585 293.847L95.3415 295.353ZM325.837 3.99997H326.837V2.99997H325.837V3.99997ZM325.837 303.2H324.837V304.2H325.837V303.2ZM373.038 303.2H374.038V302.2H373.038V303.2ZM373.038 304V305H374.038V304H373.038ZM285.438 304H284.438V305H285.438V304ZM285.438 303.2V302.2H284.438V303.2H285.438ZM325.038 303.2V304.2H326.038V303.2H325.038ZM325.038 4.79999H326.038V3.79999H325.038V4.79999ZM285.438 4.79999H284.438V5.79999H285.438V4.79999ZM285.438 3.99997V2.99997H284.438V3.99997H285.438ZM568.038 3.99997H569.038V2.99997H568.038V3.99997ZM568.038 4.79999V5.79999H569.038V4.79999H568.038ZM526.038 4.79999V3.79999H525.038V4.79999H526.038ZM526.038 308V309H527.038V308H526.038ZM525.237 308L524.402 308.549L524.698 309H525.237V308ZM325.438 3.99997V2.99997H323.584L324.602 4.54921L325.438 3.99997ZM388.038 3.99997L388.88 3.46132L388.585 2.99997H388.038V3.99997ZM525.237 218.6L524.395 219.139L526.237 222.021V218.6H525.237ZM525.237 4.79999H526.237V3.79999H525.237V4.79999ZM478.438 4.79999H477.438V5.79999H478.438V4.79999ZM478.438 3.99997V2.99997H477.438V3.99997H478.438ZM324.837 3.99997V303.2H326.837V3.99997H324.837ZM325.837 304.2H373.038V302.2H325.837V304.2ZM372.038 303.2V304H374.038V303.2H372.038ZM373.038 303H285.438V305H373.038V303ZM286.438 304V303.2H284.438V304H286.438ZM285.438 304.2H325.038V302.2H285.438V304.2ZM326.038 303.2V4.79999H324.038V303.2H326.038ZM325.038 3.79999H285.438V5.79999H325.038V3.79999ZM286.438 4.79999V3.99997H284.438V4.79999H286.438ZM285.438 4.99997H325.837V2.99997H285.438V4.99997ZM567.038 3.99997V4.79999H569.038V3.99997H567.038ZM568.038 3.79999H526.038V5.79999H568.038V3.79999ZM525.038 4.79999V308H527.038V4.79999H525.038ZM526.038 307H525.237V309H526.038V307ZM526.073 307.451L326.273 3.45074L324.602 4.54921L524.402 308.549L526.073 307.451ZM325.438 4.99997H388.038V2.99997H325.438V4.99997ZM387.195 4.53864L524.395 219.139L526.08 218.061L388.88 3.46132L387.195 4.53864ZM526.237 218.6V4.79999H524.237V218.6H526.237ZM525.237 3.79999H478.438V5.79999H525.237V3.79999ZM479.438 4.79999V3.99997H477.438V4.79999H479.438ZM478.438 4.99997H568.038V2.99997H478.438V4.99997ZM577.922 304H576.922V305H577.922V304ZM577.922 303.2V302.2H576.922V303.2H577.922ZM621.722 303.2V304.2H622.722V303.2H621.722ZM621.722 4.79999H622.722V3.79999H621.722V4.79999ZM577.922 4.79999H576.922V5.79999H577.922V4.79999ZM577.922 3.99997V2.99997H576.922V3.99997H577.922ZM722.322 3.99997H723.322V2.99997H722.322V3.99997ZM722.322 4.79999V5.79999H723.322V4.79999H722.322ZM674.322 4.79999V3.79999H673.322V4.79999H674.322ZM674.322 303.2H673.322V304.2H674.322V303.2ZM722.322 303.2H723.322V302.2H722.322V303.2ZM722.322 304V305H723.322V304H722.322ZM578.922 304V303.2H576.922V304H578.922ZM577.922 304.2H621.722V302.2H577.922V304.2ZM622.722 303.2V4.79999H620.722V303.2H622.722ZM621.722 3.79999H577.922V5.79999H621.722V3.79999ZM578.922 4.79999V3.99997H576.922V4.79999H578.922ZM577.922 4.99997H722.322V2.99997H577.922V4.99997ZM721.322 3.99997V4.79999H723.322V3.99997H721.322ZM722.322 3.79999H674.322V5.79999H722.322V3.79999ZM673.322 4.79999V303.2H675.322V4.79999H673.322ZM674.322 304.2H722.322V302.2H674.322V304.2ZM721.322 303.2V304H723.322V303.2H721.322ZM722.322 303H577.922V305H722.322V303ZM818.525 296.2L818.093 297.102L818.525 296.2ZM776.725 263.4L777.499 262.766L776.725 263.4ZM750.525 214.4L749.573 214.706L750.525 214.4ZM750.925 93.6L749.979 93.2757L749.977 93.2817L750.925 93.6ZM777.925 44.6L777.159 43.9576L777.155 43.962L777.925 44.6ZM819.925 11.8L819.492 10.8983L819.49 10.8997L819.925 11.8ZM928.725 11.8L928.29 12.7002L928.725 11.8ZM970.725 44.6L969.959 45.2423L970.725 44.6ZM997.725 93.6L996.777 93.9182L997.725 93.6ZM998.125 214.4L997.173 214.094L997.171 214.1L998.125 214.4ZM972.125 263.4L971.351 262.766L971.348 262.771L972.125 263.4ZM930.325 296.2L929.895 295.297L929.893 295.298L930.325 296.2ZM911.725 294.6L912.389 295.348L912.395 295.343L911.725 294.6ZM933.525 260.2L934.468 260.532L934.469 260.529L933.525 260.2ZM943.925 211L944.92 211.102L944.92 211.101L943.925 211ZM943.325 97L942.332 97.116L942.333 97.1231L943.325 97ZM931.925 48L930.986 48.3445L930.99 48.3549L931.925 48ZM909.925 13.6L909.25 14.338L909.256 14.3433L909.925 13.6ZM838.925 13.6L839.594 14.3433L839.595 14.3428L838.925 13.6ZM816.725 48L815.789 47.6479L815.787 47.6527L816.725 48ZM805.325 97L806.317 97.1231L805.325 97ZM804.725 211L805.72 210.899L804.725 211ZM815.125 260.2L814.182 260.532L814.184 260.54L815.125 260.2ZM837.125 294.6L836.455 295.343L836.461 295.348L836.466 295.353L837.125 294.6ZM874.525 307C853.719 307 835.204 303.091 818.958 295.298L818.093 297.102C834.646 305.042 853.465 309 874.525 309V307ZM818.958 295.298C802.689 287.495 788.872 276.653 777.499 262.766L775.951 264.034C787.511 278.147 801.561 289.172 818.093 297.102L818.958 295.298ZM777.499 262.766C766.118 248.871 757.442 232.651 751.477 214.094L749.573 214.706C755.608 233.482 764.399 249.929 775.951 264.034L777.499 262.766ZM751.477 214.094C745.512 195.536 742.525 175.507 742.525 154H740.525C740.525 175.693 743.538 195.931 749.573 214.706L751.477 214.094ZM742.525 154C742.525 132.498 745.644 112.473 751.873 93.9182L749.977 93.2817C743.673 112.06 740.525 132.302 740.525 154H742.525ZM751.871 93.9243C758.235 75.3622 767.178 59.1373 778.695 45.238L777.155 43.962C765.471 58.0627 756.415 74.5045 749.979 93.2757L751.871 93.9243ZM778.691 45.2423C790.335 31.3495 804.222 20.5046 820.36 12.7002L819.49 10.8997C803.094 18.8287 788.982 29.8504 777.159 43.9577L778.691 45.2423ZM820.357 12.7016C836.61 4.90593 854.66 0.999985 874.525 0.999985V-1.00002C854.39 -1.00002 836.04 2.96071 819.492 10.8983L820.357 12.7016ZM874.525 0.999985C894.256 0.999985 912.172 4.90553 928.29 12.7002L929.16 10.8997C912.745 2.96111 894.527 -1.00002 874.525 -1.00002V0.999985ZM928.29 12.7002C944.428 20.5046 958.315 31.3495 969.959 45.2423L971.491 43.9577C959.668 29.8504 945.556 18.8287 929.16 10.8997L928.29 12.7002ZM969.959 45.2423C981.606 59.1394 990.547 75.3607 996.777 93.9182L998.673 93.2817C992.37 74.5059 983.311 58.0606 971.491 43.9577L969.959 45.2423ZM996.777 93.9182C1003.01 112.473 1006.12 132.498 1006.12 154H1008.12C1008.12 132.302 1004.98 112.06 998.673 93.2817L996.777 93.9182ZM1006.12 154C1006.12 175.507 1003.14 195.536 997.173 214.094L999.077 214.706C1005.11 195.931 1008.12 175.693 1008.12 154H1006.12ZM997.171 214.1C991.339 232.655 982.731 248.873 971.351 262.766L972.899 264.034C984.453 249.927 993.177 233.478 999.079 214.7L997.171 214.1ZM971.348 262.771C960.11 276.653 946.296 287.493 929.895 295.297L930.755 297.103C947.421 289.173 961.473 278.147 972.902 264.029L971.348 262.771ZM929.893 295.298C913.646 303.092 895.197 307 874.525 307V309C895.453 309 914.204 305.042 930.758 297.102L929.893 295.298ZM874.525 308.2C890.049 308.2 902.702 303.943 912.389 295.348L911.061 293.852C901.814 302.057 889.668 306.2 874.525 306.2V308.2ZM912.395 295.343C922.008 286.677 929.357 275.059 934.468 260.532L932.582 259.868C927.56 274.141 920.376 285.456 911.055 293.857L912.395 295.343ZM934.469 260.529C939.566 245.91 943.047 229.431 944.92 211.102L942.93 210.898C941.07 229.102 937.617 245.424 932.581 259.871L934.469 260.529ZM944.92 211.101C946.79 192.665 947.725 173.565 947.725 153.8H945.725C945.725 173.502 944.793 192.535 942.93 210.899L944.92 211.101ZM947.725 153.8C947.725 134.161 946.589 115.187 944.317 96.8768L942.333 97.1231C944.594 115.346 945.725 134.239 945.725 153.8H947.725ZM944.318 96.884C942.177 78.5509 938.361 62.1352 932.86 47.6451L930.99 48.3549C936.423 62.6648 940.206 78.9158 942.332 97.116L944.318 96.884ZM932.864 47.6555C927.487 33.0043 920.073 21.3882 910.594 12.8567L909.256 14.3433C918.443 22.6118 925.696 33.929 930.986 48.3445L932.864 47.6555ZM910.6 12.862C901.058 4.13824 889.007 -0.200012 874.525 -0.200012V1.79999C888.576 1.79999 900.125 5.99509 909.25 14.338L910.6 12.862ZM874.525 -0.200012C860.043 -0.200012 847.928 4.1382 838.255 12.8572L839.595 14.3428C848.855 5.99513 860.474 1.79999 874.525 1.79999V-0.200012ZM838.256 12.8567C828.779 21.3863 821.299 32.9995 815.789 47.6479L817.661 48.3521C823.084 33.9338 830.405 22.6137 839.594 14.3433L838.256 12.8567ZM815.787 47.6527C810.422 62.1376 806.607 78.5482 804.333 96.8768L806.317 97.1231C808.576 78.9184 812.361 62.6623 817.663 48.3473L815.787 47.6527ZM804.333 96.8768C802.061 115.187 800.925 134.228 800.925 154H802.925C802.925 134.305 804.056 115.346 806.317 97.1231L804.333 96.8768ZM800.925 154C800.925 173.632 801.86 192.665 803.73 211.101L805.72 210.899C803.857 192.535 802.925 173.568 802.925 154H800.925ZM803.73 211.101C805.603 229.564 809.084 246.043 814.182 260.532L816.068 259.868C811.033 245.557 807.58 229.236 805.72 210.899L803.73 211.101ZM814.184 260.54C819.429 275.063 826.844 286.679 836.455 295.343L837.795 293.857C828.472 285.454 821.221 274.137 816.066 259.86L814.184 260.54ZM836.466 295.353C846.284 303.943 859.001 308.2 874.525 308.2V306.2C859.383 306.2 847.166 302.057 837.784 293.847L836.466 295.353ZM1066.96 3.99997H1067.96V2.99997H1066.96V3.99997ZM1066.96 303.2H1065.96V304.2H1066.96V303.2ZM1114.16 303.2H1115.16V302.2H1114.16V303.2ZM1114.16 304V305H1115.16V304H1114.16ZM1026.56 304H1025.56V305H1026.56V304ZM1026.56 303.2V302.2H1025.56V303.2H1026.56ZM1066.16 303.2V304.2H1067.16V303.2H1066.16ZM1066.16 4.79999H1067.16V3.79999H1066.16V4.79999ZM1026.56 4.79999H1025.56V5.79999H1026.56V4.79999ZM1026.56 3.99997V2.99997H1025.56V3.99997H1026.56ZM1309.16 3.99997H1310.16V2.99997H1309.16V3.99997ZM1309.16 4.79999V5.79999H1310.16V4.79999H1309.16ZM1267.16 4.79999V3.79999H1266.16V4.79999H1267.16ZM1267.16 308V309H1268.16V308H1267.16ZM1266.36 308L1265.53 308.549L1265.82 309H1266.36V308ZM1066.56 3.99997V2.99997H1064.71L1065.73 4.54921L1066.56 3.99997ZM1129.16 3.99997L1130.01 3.46132L1129.71 2.99997H1129.16V3.99997ZM1266.36 218.6L1265.52 219.139L1267.36 222.021V218.6H1266.36ZM1266.36 4.79999H1267.36V3.79999H1266.36V4.79999ZM1219.56 4.79999H1218.56V5.79999H1219.56V4.79999ZM1219.56 3.99997V2.99997H1218.56V3.99997H1219.56ZM1065.96 3.99997V303.2H1067.96V3.99997H1065.96ZM1066.96 304.2H1114.16V302.2H1066.96V304.2ZM1113.16 303.2V304H1115.16V303.2H1113.16ZM1114.16 303H1026.56V305H1114.16V303ZM1027.56 304V303.2H1025.56V304H1027.56ZM1026.56 304.2H1066.16V302.2H1026.56V304.2ZM1067.16 303.2V4.79999H1065.16V303.2H1067.16ZM1066.16 3.79999H1026.56V5.79999H1066.16V3.79999ZM1027.56 4.79999V3.99997H1025.56V4.79999H1027.56ZM1026.56 4.99997H1066.96V2.99997H1026.56V4.99997ZM1308.16 3.99997V4.79999H1310.16V3.99997H1308.16ZM1309.16 3.79999H1267.16V5.79999H1309.16V3.79999ZM1266.16 4.79999V308H1268.16V4.79999H1266.16ZM1267.16 307H1266.36V309H1267.16V307ZM1267.2 307.451L1067.4 3.45074L1065.73 4.54921L1265.53 308.549L1267.2 307.451ZM1066.56 4.99997H1129.16V2.99997H1066.56V4.99997ZM1128.32 4.53864L1265.52 219.139L1267.21 218.061L1130.01 3.46132L1128.32 4.53864ZM1267.36 218.6V4.79999H1265.36V218.6H1267.36ZM1266.36 3.79999H1219.56V5.79999H1266.36V3.79999ZM1220.56 4.79999V3.99997H1218.56V4.79999H1220.56ZM1219.56 4.99997H1309.16V2.99997H1219.56V4.99997ZM1388.29 302.2L1387.88 303.111L1387.88 303.113L1388.29 302.2ZM1359.29 281.2L1360.04 280.534L1359.39 279.803L1358.64 280.441L1359.29 281.2ZM1328.09 308V309H1328.46L1328.75 308.759L1328.09 308ZM1327.29 308H1326.29V309H1327.29V308ZM1327.29 218.8V217.8H1326.29V218.8H1327.29ZM1328.09 218.8L1329.06 218.54L1328.86 217.8H1328.09V218.8ZM1340.69 252.8L1339.79 253.234L1339.8 253.243L1340.69 252.8ZM1360.49 281.8L1359.76 282.478L1359.76 282.484L1359.77 282.49L1360.49 281.8ZM1389.09 301.8L1388.69 302.713L1388.7 302.717L1389.09 301.8ZM1462.29 301.2L1461.83 300.315L1461.82 300.318L1462.29 301.2ZM1485.09 279.2L1484.23 278.7L1484.22 278.709L1485.09 279.2ZM1484.49 217.4L1483.7 218.004L1483.7 218.011L1484.49 217.4ZM1461.29 197.4L1461.8 196.536L1461.29 197.4ZM1429.49 181.6L1429.1 182.519L1429.1 182.52L1429.49 181.6ZM1394.89 165.8L1394.45 166.699L1394.46 166.701L1394.89 165.8ZM1363.29 146L1362.67 146.779L1362.67 146.784L1363.29 146ZM1340.09 118L1339.21 118.468L1339.21 118.473L1340.09 118ZM1343.29 36.4L1342.47 35.8303L1342.47 35.8323L1343.29 36.4ZM1375.09 9.39999L1374.66 8.49661L1374.66 8.49832L1375.09 9.39999ZM1452.29 5.99997L1452.65 5.06664L1452.29 5.99997ZM1479.49 24.4L1478.76 25.0831L1479.39 25.7579L1480.12 25.1818L1479.49 24.4ZM1510.09 -1.52588e-05V-1.00002H1509.74L1509.47 -0.781891L1510.09 -1.52588e-05ZM1510.89 -1.52588e-05H1511.89V-1.00002H1510.89V-1.52588e-05ZM1510.89 86.8V87.8H1511.89V86.8H1510.89ZM1509.89 86.8L1508.92 87.0243L1509.1 87.8H1509.89V86.8ZM1491.09 40L1490.25 40.5425L1490.26 40.5465L1491.09 40ZM1460.89 11.2L1460.41 12.076L1460.42 12.0801L1460.89 11.2ZM1380.89 15.6L1380.17 14.9137L1380.17 14.914L1380.89 15.6ZM1376.29 77.2L1377.07 76.5699L1376.29 77.2ZM1398.89 96L1398.39 96.8629L1398.4 96.8671L1398.4 96.8712L1398.89 96ZM1430.09 111.6L1429.69 112.513L1429.69 112.515L1430.09 111.6ZM1464.29 128.2L1463.83 129.084L1463.83 129.088L1464.29 128.2ZM1495.29 149.2L1494.64 149.954L1494.64 149.958L1495.29 149.2ZM1518.09 178.6L1517.2 179.047L1517.2 179.055L1518.09 178.6ZM1514.49 267.8L1515.34 268.327L1515.35 268.323L1514.49 267.8ZM1480.09 299L1480.54 299.893L1480.55 299.891L1480.09 299ZM1430.09 309C1413.93 309 1400.14 306.416 1388.7 301.287L1387.88 303.113C1399.64 308.384 1413.72 311 1430.09 311V309ZM1388.71 301.289C1377.36 296.143 1367.81 289.223 1360.04 280.534L1358.55 281.866C1366.51 290.777 1376.3 297.857 1387.88 303.111L1388.71 301.289ZM1358.64 280.441L1327.44 307.241L1328.75 308.759L1359.95 281.959L1358.64 280.441ZM1328.09 307H1327.29V309H1328.09V307ZM1328.29 308V218.8H1326.29V308H1328.29ZM1327.29 219.8H1328.09V217.8H1327.29V219.8ZM1327.13 219.06C1330.34 230.985 1334.57 242.377 1339.79 253.234L1341.59 252.366C1336.42 241.623 1332.24 230.348 1329.06 218.54L1327.13 219.06ZM1339.8 253.243C1345.17 264.125 1351.82 273.872 1359.76 282.478L1361.23 281.122C1353.43 272.662 1346.88 263.075 1341.59 252.357L1339.8 253.243ZM1359.77 282.49C1367.86 290.988 1377.51 297.729 1388.69 302.713L1389.5 300.887C1378.55 296.004 1369.12 289.412 1361.22 281.11L1359.77 282.49ZM1388.7 302.717C1399.91 307.582 1412.92 310 1427.69 310V308C1413.14 308 1400.41 305.618 1389.49 300.883L1388.7 302.717ZM1427.69 310C1441.16 310 1452.86 307.374 1462.77 302.082L1461.82 300.318C1452.26 305.426 1440.9 308 1427.69 308V310ZM1462.76 302.085C1472.79 296.798 1480.53 289.33 1485.96 279.691L1484.22 278.709C1478.99 288.004 1471.53 295.202 1461.83 300.315L1462.76 302.085ZM1485.96 279.7C1491.53 270.056 1494.29 258.677 1494.29 245.6H1492.29C1492.29 258.39 1489.59 269.411 1484.23 278.7L1485.96 279.7ZM1494.29 245.6C1494.29 234.217 1491.31 224.592 1485.29 216.789L1483.7 218.011C1489.41 225.408 1492.29 234.583 1492.29 245.6H1494.29ZM1485.29 216.796C1479.33 208.943 1471.49 202.193 1461.8 196.536L1460.79 198.264C1470.29 203.807 1477.92 210.39 1483.7 218.004L1485.29 216.796ZM1461.8 196.536C1452.16 190.912 1441.52 185.627 1429.89 180.68L1429.1 182.52C1440.67 187.439 1451.23 192.688 1460.79 198.264L1461.8 196.536ZM1429.89 180.681C1418.44 175.754 1406.92 170.493 1395.33 164.899L1394.46 166.701C1406.07 172.307 1417.62 177.579 1429.1 182.519L1429.89 180.681ZM1395.33 164.901C1383.93 159.332 1373.46 152.77 1363.91 145.216L1362.67 146.784C1372.33 154.43 1382.93 161.068 1394.45 166.699L1395.33 164.901ZM1363.92 145.221C1354.43 137.572 1346.78 128.343 1340.97 117.527L1339.21 118.473C1345.14 129.523 1352.96 138.961 1362.67 146.779L1363.92 145.221ZM1340.98 117.532C1335.2 106.643 1332.29 93.3459 1332.29 77.6H1330.29C1330.29 93.5874 1333.25 107.224 1339.21 118.468L1340.98 117.532ZM1332.29 77.6C1332.29 61.9096 1336.25 48.3802 1344.12 36.9677L1342.47 35.8323C1334.34 47.6198 1330.29 61.5571 1330.29 77.6H1332.29ZM1344.12 36.9697C1352.15 25.3811 1362.61 16.4945 1375.53 10.3017L1374.66 8.49832C1361.44 14.8388 1350.71 23.9522 1342.47 35.8303L1344.12 36.9697ZM1375.52 10.3034C1388.58 4.10289 1402.64 0.999985 1417.69 0.999985V-1.00002C1402.35 -1.00002 1388 2.16374 1374.66 8.49663L1375.52 10.3034ZM1417.69 0.999985C1430.25 0.999985 1441.66 2.98299 1451.93 6.93332L1452.65 5.06664C1442.12 1.01697 1430.47 -1.00002 1417.69 -1.00002V0.999985ZM1451.93 6.93332C1462.19 10.8782 1471.13 16.925 1478.76 25.0831L1480.22 23.7168C1472.39 15.3416 1463.2 9.1218 1452.65 5.06664L1451.93 6.93332ZM1480.12 25.1818L1510.72 0.781845L1509.47 -0.781891L1478.87 23.6181L1480.12 25.1818ZM1510.09 0.999985H1510.89V-1.00002H1510.09V0.999985ZM1509.89 -1.52588e-05V86.8H1511.89V-1.52588e-05H1509.89ZM1510.89 85.8H1509.89V87.8H1510.89V85.8ZM1510.87 86.5756C1506.58 67.956 1500.28 52.2403 1491.93 39.4534L1490.26 40.5465C1498.44 53.093 1504.67 68.5774 1508.92 87.0243L1510.87 86.5756ZM1491.93 39.4575C1483.59 26.5347 1473.4 16.8098 1461.37 10.3198L1460.42 12.0801C1472.12 18.3902 1482.07 27.8653 1490.25 40.5425L1491.93 39.4575ZM1461.38 10.324C1449.35 3.70047 1435.71 0.399979 1420.49 0.399979V2.39998C1435.41 2.39998 1448.71 5.63281 1460.41 12.076L1461.38 10.324ZM1420.49 0.399979C1402.85 0.399979 1389.35 5.18526 1380.17 14.9137L1381.62 16.2863C1390.31 7.08138 1403.2 2.39998 1420.49 2.39998V0.399979ZM1380.17 14.914C1371.17 24.4597 1366.69 36.7176 1366.69 51.6H1368.69C1368.69 37.149 1373.02 25.407 1381.62 16.286L1380.17 14.914ZM1366.69 51.6C1366.69 61.8052 1369.62 70.5673 1375.52 77.83L1377.07 76.5699C1371.5 69.6994 1368.69 61.3948 1368.69 51.6H1366.69ZM1375.52 77.83C1381.34 85.0057 1388.97 91.3467 1398.39 96.8629L1399.4 95.1371C1390.15 89.72 1382.72 83.5276 1377.07 76.5699L1375.52 77.83ZM1398.4 96.8712C1407.9 102.222 1418.33 107.435 1429.69 112.513L1430.5 110.687C1419.19 105.631 1408.82 100.445 1399.38 95.1287L1398.4 96.8712ZM1429.69 112.515C1441.13 117.572 1452.51 123.095 1463.83 129.084L1464.76 127.316C1453.41 121.305 1441.99 115.762 1430.5 110.685L1429.69 112.515ZM1463.83 129.088C1475.1 134.919 1485.37 141.875 1494.64 149.954L1495.95 148.446C1486.56 140.259 1476.16 133.214 1464.75 127.312L1463.83 129.088ZM1494.64 149.958C1504.01 158.003 1511.52 167.696 1517.2 179.047L1518.99 178.153C1513.2 166.571 1505.52 156.664 1495.95 148.441L1494.64 149.958ZM1517.2 179.055C1522.98 190.348 1525.89 204.116 1525.89 220.4H1527.89C1527.89 203.884 1524.94 189.785 1518.98 178.145L1517.2 179.055ZM1525.89 220.4C1525.89 238.376 1521.8 253.99 1513.64 267.277L1515.35 268.323C1523.72 254.677 1527.89 238.69 1527.89 220.4H1525.89ZM1513.64 267.273C1505.48 280.443 1494.15 290.721 1479.64 298.109L1480.55 299.891C1495.37 292.346 1506.98 281.823 1515.34 268.327L1513.64 267.273ZM1479.64 298.107C1465.27 305.36 1448.76 309 1430.09 309V311C1449.03 311 1465.85 307.307 1480.54 299.893L1479.64 298.107Z" fill="#4BA040" mask="url(#path-1-outside-1_168_109)"/>
</g>
</svg>
