<svg width="1527" height="310" viewBox="0 0 1527 310" fill="none" xmlns="http://www.w3.org/2000/svg">
<path d="M133.4 308C112.467 308 93.8 304.067 77.4 296.2C61 288.333 47.0667 277.4 35.6 263.4C24.1333 249.4 15.4 233.067 9.4 214.4C3.4 195.733 0.4 175.6 0.4 154C0.4 132.4 3.53333 112.267 9.8 93.6C16.2 74.9333 25.2 58.6 36.8 44.6C48.5333 30.6 62.5333 19.6667 78.8 11.8C95.2 3.93331 113.4 -2.00272e-05 133.4 -2.00272e-05C153.267 -2.00272e-05 171.333 3.93331 187.6 11.8C203.867 19.6667 217.867 30.6 229.6 44.6C241.333 58.6 250.333 74.9333 256.6 93.6C262.867 112.267 266 132.4 266 154C266 175.6 263 195.733 257 214.4C251.133 233.067 242.467 249.4 231 263.4C219.667 277.4 205.733 288.333 189.2 296.2C172.8 304.067 154.2 308 133.4 308ZM133.4 307.2C148.733 307.2 161.133 303 170.6 294.6C180.067 286.067 187.333 274.6 192.4 260.2C197.467 245.667 200.933 229.267 202.8 211C204.667 192.6 205.6 173.533 205.6 153.8C205.6 134.2 204.467 115.267 202.2 97C200.067 78.7333 196.267 62.4 190.8 48C185.467 33.4667 178.133 22 168.8 13.6C159.467 5.06666 147.667 0.799994 133.4 0.799994C119.133 0.799994 107.267 5.06666 97.8 13.6C88.4667 22 81.0667 33.4667 75.6 48C70.2667 62.4 66.4667 78.7333 64.2 97C61.9333 115.267 60.8 134.267 60.8 154C60.8 173.6 61.7333 192.6 63.6 211C65.4667 229.4 68.9333 245.8 74 260.2C79.2 274.6 86.5333 286.067 96 294.6C105.6 303 118.067 307.2 133.4 307.2ZM325.838 3.99998V303.2H373.038V304H285.438V303.2H325.038V4.79999H285.438V3.99998H325.838ZM568.038 3.99998V4.79999H526.038V308H525.238L325.438 3.99998H388.038L525.238 218.6V4.79999H478.438V3.99998H568.038ZM577.922 304V303.2H621.722V4.79999H577.922V3.99998H722.322V4.79999H674.322V303.2H722.322V304H577.922ZM874.525 308C853.592 308 834.925 304.067 818.525 296.2C802.125 288.333 788.192 277.4 776.725 263.4C765.258 249.4 756.525 233.067 750.525 214.4C744.525 195.733 741.525 175.6 741.525 154C741.525 132.4 744.658 112.267 750.925 93.6C757.325 74.9333 766.325 58.6 777.925 44.6C789.658 30.6 803.658 19.6667 819.925 11.8C836.325 3.93331 854.525 -2.00272e-05 874.525 -2.00272e-05C894.392 -2.00272e-05 912.458 3.93331 928.725 11.8C944.992 19.6667 958.992 30.6 970.725 44.6C982.458 58.6 991.458 74.9333 997.725 93.6C1003.99 112.267 1007.13 132.4 1007.13 154C1007.13 175.6 1004.13 195.733 998.125 214.4C992.258 233.067 983.592 249.4 972.125 263.4C960.792 277.4 946.858 288.333 930.325 296.2C913.925 304.067 895.325 308 874.525 308ZM874.525 307.2C889.858 307.2 902.258 303 911.725 294.6C921.192 286.067 928.458 274.6 933.525 260.2C938.592 245.667 942.058 229.267 943.925 211C945.792 192.6 946.725 173.533 946.725 153.8C946.725 134.2 945.592 115.267 943.325 97C941.192 78.7333 937.392 62.4 931.925 48C926.592 33.4667 919.258 22 909.925 13.6C900.592 5.06666 888.792 0.799994 874.525 0.799994C860.258 0.799994 848.392 5.06666 838.925 13.6C829.592 22 822.192 33.4667 816.725 48C811.392 62.4 807.592 78.7333 805.325 97C803.058 115.267 801.925 134.267 801.925 154C801.925 173.6 802.858 192.6 804.725 211C806.592 229.4 810.058 245.8 815.125 260.2C820.325 274.6 827.658 286.067 837.125 294.6C846.725 303 859.192 307.2 874.525 307.2ZM1066.96 3.99998V303.2H1114.16V304H1026.56V303.2H1066.16V4.79999H1026.56V3.99998H1066.96ZM1309.16 3.99998V4.79999H1267.16V308H1266.36L1066.56 3.99998H1129.16L1266.36 218.6V4.79999H1219.56V3.99998H1309.16ZM1430.09 310C1413.83 310 1399.89 307.4 1388.29 302.2C1376.83 297 1367.16 290 1359.29 281.2L1328.09 308H1327.29V218.8H1328.09C1331.29 230.667 1335.49 242 1340.69 252.8C1346.03 263.6 1352.63 273.267 1360.49 281.8C1368.49 290.2 1378.03 296.867 1389.09 301.8C1400.16 306.6 1413.03 309 1427.69 309C1441.03 309 1452.56 306.4 1462.29 301.2C1472.16 296 1479.76 288.667 1485.09 279.2C1490.56 269.733 1493.29 258.533 1493.29 245.6C1493.29 234.4 1490.36 225 1484.49 217.4C1478.63 209.667 1470.89 203 1461.29 197.4C1451.69 191.8 1441.09 186.533 1429.49 181.6C1418.03 176.667 1406.49 171.4 1394.89 165.8C1383.43 160.2 1372.89 153.6 1363.29 146C1353.69 138.267 1345.96 128.933 1340.09 118C1334.23 106.933 1331.29 93.4667 1331.29 77.6C1331.29 61.7333 1335.29 48 1343.29 36.4C1351.43 24.6666 1362.03 15.6666 1375.09 9.39999C1388.29 3.13332 1402.49 -2.00272e-05 1417.69 -2.00272e-05C1430.36 -2.00272e-05 1441.89 1.99998 1452.29 5.99997C1462.69 9.99999 1471.76 16.1333 1479.49 24.4L1510.09 -2.00272e-05H1510.89V86.8H1509.89C1505.63 68.2667 1499.36 52.6667 1491.09 40C1482.83 27.2 1472.76 17.6 1460.89 11.2C1449.03 4.66664 1435.56 1.39997 1420.49 1.39997C1403.03 1.39997 1389.83 6.13331 1380.89 15.6C1372.09 24.9333 1367.69 36.9333 1367.69 51.6C1367.69 61.6 1370.56 70.1333 1376.29 77.2C1382.03 84.2667 1389.56 90.5333 1398.89 96C1408.36 101.333 1418.76 106.533 1430.09 111.6C1441.56 116.667 1452.96 122.2 1464.29 128.2C1475.63 134.067 1485.96 141.067 1495.29 149.2C1504.76 157.333 1512.36 167.133 1518.09 178.6C1523.96 190.067 1526.89 204 1526.89 220.4C1526.89 238.533 1522.76 254.333 1514.49 267.8C1506.23 281.133 1494.76 291.533 1480.09 299C1465.56 306.333 1448.89 310 1430.09 310Z" fill="#4BA040"/>
</svg>
