<svg width="796" height="308" viewBox="0 0 796 308" fill="none" xmlns="http://www.w3.org/2000/svg">
<path d="M133.4 308C112.467 308 93.8 304.067 77.4 296.2C61 288.333 47.0667 277.4 35.6 263.4C24.1333 249.4 15.4 233.067 9.4 214.4C3.4 195.733 0.4 175.6 0.4 154C0.4 132.4 3.53333 112.267 9.8 93.6C16.2 74.9333 25.2 58.6 36.8 44.6C48.5333 30.6 62.5333 19.6667 78.8 11.8C95.2 3.93331 113.4 -2.00272e-05 133.4 -2.00272e-05C153.267 -2.00272e-05 171.333 3.93331 187.6 11.8C203.867 19.6667 217.867 30.6 229.6 44.6C241.333 58.6 250.333 74.9333 256.6 93.6C262.867 112.267 266 132.4 266 154C266 175.6 263 195.733 257 214.4C251.133 233.067 242.467 249.4 231 263.4C219.667 277.4 205.733 288.333 189.2 296.2C172.8 304.067 154.2 308 133.4 308ZM133.4 307.2C148.733 307.2 161.133 303 170.6 294.6C180.067 286.067 187.333 274.6 192.4 260.2C197.467 245.667 200.933 229.267 202.8 211C204.667 192.6 205.6 173.533 205.6 153.8C205.6 134.2 204.467 115.267 202.2 97C200.067 78.7333 196.267 62.4 190.8 48C185.467 33.4667 178.133 22 168.8 13.6C159.467 5.06666 147.667 0.799994 133.4 0.799994C119.133 0.799994 107.267 5.06666 97.8 13.6C88.4667 22 81.0667 33.4667 75.6 48C70.2667 62.4 66.4667 78.7333 64.2 97C61.9333 115.267 60.8 134.267 60.8 154C60.8 173.6 61.7333 192.6 63.6 211C65.4667 229.4 68.9333 245.8 74 260.2C79.2 274.6 86.5333 286.067 96 294.6C105.6 303 118.067 307.2 133.4 307.2ZM357.438 150.4V149.6H416.238C429.038 149.6 439.771 146.867 448.438 141.4C457.238 135.8 463.838 127.667 468.238 117C472.771 106.333 475.038 93.3333 475.038 78C475.038 62.6667 472.771 49.5333 468.238 38.6C463.838 27.6667 457.238 19.3333 448.438 13.6C439.771 7.73333 429.038 4.79999 416.238 4.79999H285.438V3.99998H422.238C443.571 3.99998 462.238 6.59998 478.238 11.8C494.371 16.8666 506.904 24.8666 515.838 35.8C524.904 46.6 529.438 60.6667 529.438 78C529.438 95.3333 525.171 109.333 516.638 120C508.238 130.533 496.038 138.267 480.038 143.2C464.171 148 444.904 150.4 422.238 150.4H357.438ZM285.438 304V303.2H421.038V304H285.438ZM326.838 303.6V4.39999H379.437V303.6H326.838ZM520.238 306.6C507.438 306.6 497.371 304.4 490.038 300C482.838 295.6 477.571 289.733 474.238 282.4C470.904 274.933 468.771 266.6 467.838 257.4C466.904 248.067 466.371 238.467 466.238 228.6C466.104 218.6 465.638 209 464.838 199.8C464.038 190.467 462.104 182.133 459.038 174.8C455.971 167.333 450.971 161.4 444.038 157C437.238 152.6 427.704 150.4 415.438 150.4H357.438V149.6H437.838C456.904 149.6 472.038 152.4 483.238 158C494.438 163.6 502.771 171 508.238 180.2C513.704 189.267 517.238 199.267 518.838 210.2C520.571 221.133 521.438 232.133 521.438 243.2C521.571 254.133 521.771 264.2 522.038 273.4C522.304 282.467 523.704 289.8 526.238 295.4C528.771 301 533.571 303.8 540.638 303.8C544.904 303.8 548.971 303.333 552.838 302.4C556.838 301.333 560.238 300.133 563.038 298.8L563.438 299.2C560.238 300.933 554.904 302.6 547.438 304.2C539.971 305.8 530.904 306.6 520.238 306.6ZM570.891 304V303.2H606.691V4.79999H570.891V3.99998H791.491V86H790.891C789.691 71.7333 785.957 58.4667 779.691 46.2C773.557 33.8 764.957 23.8 753.891 16.2C742.957 8.59999 729.691 4.79999 714.091 4.79999H659.291V303.2H710.091C728.357 303.2 743.491 299.333 755.491 291.6C767.624 283.733 776.891 273.067 783.291 259.6C789.824 246.133 793.691 230.933 794.891 214H795.691V304H570.891ZM726.491 196.4C725.291 187.467 722.224 179.467 717.291 172.4C712.357 165.2 706.357 159.533 699.291 155.4C692.224 151.267 684.891 149.2 677.291 149.2H642.691V148.4H677.291C684.891 148.4 692.224 146.533 699.291 142.8C706.357 138.933 712.357 133.6 717.291 126.8C722.224 120 725.291 112.133 726.491 103.2H727.291V196.4H726.491Z" fill="black"/>
</svg>
