<svg width="1185" height="283" viewBox="0 0 1185 283" fill="none" xmlns="http://www.w3.org/2000/svg">
<path d="M146.08 283C129.653 283 116.493 281.787 106.6 279.36C96.8 276.933 89.38 272.967 84.34 267.46C79.3 262.047 75.94 254.813 74.26 245.76C72.58 236.8 71.74 225.74 71.74 212.58C79.02 214.633 86.0667 215.66 92.88 215.66C99.7867 215.66 106.787 214.633 113.88 212.58C113.88 225.273 114.16 236.053 114.72 244.92C115.373 253.88 116.727 261.113 118.78 266.62C120.833 272.127 124.007 276.14 128.3 278.66C132.687 281.18 138.613 282.44 146.08 282.44V283ZM93.58 215.8C78.9267 215.8 65.86 213.047 54.38 207.54C42.9 202.033 33.1467 194.38 25.12 184.58C17.0933 174.78 10.98 163.347 6.78 150.28C2.58 137.213 0.48 123.12 0.48 108C0.48 92.88 2.67333 78.7867 7.06 65.72C11.54 52.6533 17.8867 41.22 26.1 31.42C34.3133 21.62 44.1133 13.9667 55.5 8.45999C66.8867 2.95332 79.58 0.199986 93.58 0.199986C107.487 0.199986 120.133 2.95332 131.52 8.45999C142.907 13.9667 152.707 21.62 160.92 31.42C169.133 41.22 175.433 52.6533 179.82 65.72C184.207 78.7867 186.4 92.88 186.4 108C186.4 123.12 184.3 137.213 180.1 150.28C175.993 163.347 169.927 174.827 161.9 184.72C153.967 194.52 144.213 202.173 132.64 207.68C121.16 213.093 108.14 215.8 93.58 215.8ZM93.58 215.24C104.313 215.24 112.993 212.3 119.62 206.42C126.247 200.447 131.333 192.42 134.88 182.34C138.427 172.167 140.853 160.687 142.16 147.9C143.467 135.02 144.12 121.72 144.12 108C144.12 94.1867 143.327 80.8867 141.74 68.1C140.247 55.3133 137.587 43.88 133.76 33.8C130.027 23.6267 124.893 15.6 118.36 9.72C111.827 3.74666 103.567 0.759995 93.58 0.759995C83.5933 0.759995 75.2867 3.74666 68.66 9.72C62.1267 15.6 56.9467 23.6267 53.12 33.8C49.3867 43.88 46.7267 55.3133 45.14 68.1C43.5533 80.8867 42.76 94.1867 42.76 108C42.76 121.72 43.4133 135.02 44.72 147.9C46.0267 160.78 48.4533 172.26 52 182.34C55.64 192.42 60.7733 200.447 67.4 206.42C74.12 212.3 82.8467 215.24 93.58 215.24ZM259.786 215.8C249.146 215.8 240.933 213.98 235.146 210.34C229.453 206.607 225.486 201.567 223.246 195.22C221.1 188.873 220.026 181.64 220.026 173.52V84.76H202.246V84.2H253.486V172.12C253.486 179.96 253.766 186.82 254.326 192.7C254.98 198.487 256.38 203.013 258.526 206.28C260.673 209.453 263.986 211.04 268.466 211.04C276.586 211.04 283.12 208.893 288.066 204.6C293.013 200.307 296.7 194.847 299.126 188.22C301.646 181.593 303.28 174.593 304.026 167.22C304.866 159.753 305.286 152.893 305.286 146.64L305.986 145.66C305.986 152.473 305.52 159.893 304.586 167.92C303.746 175.947 301.833 183.6 298.846 190.88C295.953 198.16 291.38 204.133 285.126 208.8C278.966 213.467 270.52 215.8 259.786 215.8ZM305.286 213V84.76H286.526V84.2H338.886V212.44H356.526V213H305.286ZM482.124 215.8C476.804 215.8 471.904 215.1 467.424 213.7C462.944 212.3 459.35 209.827 456.644 206.28C453.937 202.733 452.584 197.833 452.584 191.58V127.74C452.584 121.02 452.024 114.253 450.904 107.44C449.784 100.533 447.404 94.7933 443.764 90.22C440.124 85.6467 434.57 83.36 427.104 83.36C422.344 83.36 417.35 83.9667 412.124 85.18C406.99 86.3 402.184 88.0267 397.704 90.36C393.224 92.6933 389.584 95.6333 386.784 99.18C383.984 102.633 382.584 106.693 382.584 111.36H382.304C382.304 105.947 384.264 101.607 388.184 98.34C392.104 95.0733 396.537 93.44 401.484 93.44C406.804 93.44 411.47 94.9333 415.484 97.92C419.59 100.907 421.644 105.2 421.644 110.8C421.644 117.053 419.544 121.72 415.344 124.8C411.237 127.787 406.617 129.28 401.484 129.28C395.977 129.28 391.357 127.74 387.624 124.66C383.89 121.487 382.024 117.053 382.024 111.36C382.024 106.507 383.47 102.26 386.364 98.62C389.35 94.8867 393.317 91.8067 398.264 89.38C403.21 86.9533 408.717 85.1333 414.784 83.92C420.944 82.6133 427.197 81.96 433.544 81.96C447.264 81.96 457.95 84.06 465.604 88.26C473.257 92.46 478.577 98.06 481.564 105.06C484.644 111.967 486.184 119.527 486.184 127.74V200.26C486.184 203.433 486.93 206.187 488.424 208.52C489.917 210.76 492.577 211.88 496.404 211.88C499.297 211.88 502.75 210.48 506.764 207.68C510.777 204.88 514.044 200.727 516.564 195.22L516.984 195.5C514.37 201.753 509.937 206.7 503.684 210.34C497.43 213.98 490.244 215.8 482.124 215.8ZM412.124 215.8C399.99 215.8 390.284 212.72 383.004 206.56C375.817 200.307 372.224 191.86 372.224 181.22C372.224 168.713 377.544 159.147 388.184 152.52C398.824 145.8 414.084 142.44 433.964 142.44H465.604V143H439.704C432.237 143 426.264 145.007 421.784 149.02C417.397 152.94 414.224 157.653 412.264 163.16C410.397 168.667 409.464 173.847 409.464 178.7C409.464 183.273 409.977 187.847 411.004 192.42C412.03 196.9 413.804 200.633 416.324 203.62C418.844 206.607 422.25 208.1 426.544 208.1C431.304 208.1 435.644 206.513 439.564 203.34C443.577 200.167 446.75 195.22 449.084 188.5C451.417 181.78 452.584 173.1 452.584 162.46H453.144C453.144 173.38 451.697 182.853 448.804 190.88C445.91 198.813 441.43 204.973 435.364 209.36C429.39 213.653 421.644 215.8 412.124 215.8ZM571.623 150.98C571.623 141.647 572.183 132.827 573.303 124.52C574.423 116.213 576.336 108.84 579.043 102.4C581.75 95.8667 585.53 90.7333 590.383 87C595.33 83.2667 601.536 81.4 609.003 81.4C614.976 81.4 620.063 82.7067 624.263 85.32C628.463 87.84 631.683 91.1533 633.923 95.26C636.163 99.3667 637.283 103.753 637.283 108.42C637.283 114.207 635.416 119.2 631.683 123.4C628.043 127.507 623.096 129.56 616.843 129.56C610.496 129.56 605.41 127.693 601.583 123.96C597.85 120.227 595.983 115.747 595.983 110.52C595.983 104.173 598.036 99.1333 602.143 95.4C606.25 91.5733 611.056 89.66 616.563 89.66C620.576 89.66 624.123 90.5467 627.203 92.32C630.283 94.0933 632.71 96.38 634.483 99.18C636.256 101.98 637.143 105.06 637.143 108.42H636.723C636.723 103.847 635.603 99.5533 633.363 95.54C631.216 91.5267 628.09 88.26 623.983 85.74C619.876 83.22 614.883 81.96 609.003 81.96C601.536 81.96 595.376 83.8733 590.523 87.7C585.763 91.4333 582.03 96.5667 579.323 103.1C576.71 109.54 574.843 116.913 573.723 125.22C572.696 133.433 572.183 142.02 572.183 150.98H571.623ZM572.183 84.2V212.44H591.223V213H520.943V212.44H538.723V84.76H520.943V84.2H572.183ZM694.526 214.96C686.032 214.96 679.639 213.373 675.346 210.2C671.146 207.027 668.346 202.873 666.946 197.74C665.546 192.607 664.846 187.053 664.846 181.08V56.2C670.259 56.2 676.186 55.4067 682.626 53.82C689.066 52.2333 694.339 50.2267 698.446 47.8V191.02C698.446 198.02 699.286 202.92 700.966 205.72C702.646 208.427 705.352 209.78 709.086 209.78C713.939 209.78 718.932 207.4 724.066 202.64C729.199 197.88 733.259 191.813 736.246 184.44H736.806C733.446 193.4 728.126 200.727 720.846 206.42C713.566 212.113 704.792 214.96 694.526 214.96ZM644.406 84.76V84.2H728.406V84.76H644.406ZM743.224 213V212.44L819.804 84.76H794.884C785.364 84.76 777.524 86.7667 771.364 90.78C765.297 94.7933 760.677 100.393 757.504 107.58C754.33 114.673 752.324 122.933 751.484 132.36H750.924V84.2H858.724V84.76L781.724 212.44H812.804C821.577 212.44 828.997 211.413 835.064 209.36C841.13 207.307 846.077 204.18 849.904 199.98C853.73 195.78 856.624 190.507 858.584 184.16C860.637 177.72 861.99 170.16 862.644 161.48H863.204V213H743.224ZM910.414 42.2C904.628 42.2 899.681 40.1467 895.574 36.04C891.561 31.9333 889.554 26.9867 889.554 21.2C889.554 15.2267 891.561 10.2333 895.574 6.21998C899.681 2.20665 904.628 0.199986 910.414 0.199986C916.388 0.199986 921.381 2.20665 925.394 6.21998C929.408 10.2333 931.414 15.2267 931.414 21.2C931.414 26.9867 929.408 31.9333 925.394 36.04C921.381 40.1467 916.388 42.2 910.414 42.2ZM927.214 84.2V212.44H944.854V213H875.974V212.44H893.614V84.76H875.974V84.2H927.214ZM1003.59 214.96C995.093 214.96 988.7 213.373 984.407 210.2C980.207 207.027 977.407 202.873 976.007 197.74C974.607 192.607 973.907 187.053 973.907 181.08V56.2C979.32 56.2 985.247 55.4067 991.687 53.82C998.127 52.2333 1003.4 50.2267 1007.51 47.8V191.02C1007.51 198.02 1008.35 202.92 1010.03 205.72C1011.71 208.427 1014.41 209.78 1018.15 209.78C1023 209.78 1027.99 207.4 1033.13 202.64C1038.26 197.88 1042.32 191.813 1045.31 184.44H1045.87C1042.51 193.4 1037.19 200.727 1029.91 206.42C1022.63 212.113 1013.85 214.96 1003.59 214.96ZM953.467 84.76V84.2H1037.47V84.76H953.467ZM1125.08 215.8C1112.39 215.8 1100.96 213.187 1090.78 207.96C1080.61 202.64 1072.58 194.987 1066.7 185C1060.82 175.013 1057.88 162.88 1057.88 148.6C1057.88 134.32 1060.73 122.187 1066.42 112.2C1072.21 102.213 1080.1 94.6067 1090.08 89.38C1100.16 84.06 1111.55 81.4 1124.24 81.4C1138.15 81.4 1149.54 84.2 1158.4 89.8C1167.27 95.3067 1173.8 102.54 1178 111.5C1182.2 120.46 1184.3 130.027 1184.3 140.2H1076.64V139.64H1147.62C1147.62 133.76 1147.34 127.507 1146.78 120.88C1146.32 114.16 1145.29 107.86 1143.7 101.98C1142.21 96.1 1139.88 91.2933 1136.7 87.56C1133.62 83.8267 1129.47 81.96 1124.24 81.96C1118.64 81.96 1113.98 83.8267 1110.24 87.56C1106.51 91.2 1103.57 96.1933 1101.42 102.54C1099.28 108.793 1097.74 115.747 1096.8 123.4C1095.96 131.053 1095.54 138.893 1095.54 146.92C1095.54 155.507 1096.01 163.86 1096.94 171.98C1097.97 180.007 1099.74 187.193 1102.26 193.54C1104.78 199.887 1108.28 204.973 1112.76 208.8C1117.24 212.533 1122.98 214.4 1129.98 214.4C1143.89 214.4 1155.51 210.433 1164.84 202.5C1174.18 194.473 1180.57 184.627 1184.02 172.96H1184.58C1180.94 185.093 1174.22 195.267 1164.42 203.48C1154.62 211.693 1141.51 215.8 1125.08 215.8Z" fill="black"/>
</svg>
