<svg width="1692" height="305" viewBox="0 0 1692 305" fill="none" xmlns="http://www.w3.org/2000/svg">
<g opacity="0.56">
<mask id="path-1-outside-1_32_8792" maskUnits="userSpaceOnUse" x="-1" y="-1" width="1694" height="307" fill="black">
<rect fill="white" x="-1" y="-1" width="1694" height="307"/>
<path d="M156.3 305C138.7 305 124.6 303.7 114 301.1C103.5 298.5 95.55 294.25 90.15 288.35C84.75 282.55 81.15 274.8 79.35 265.1C77.55 255.5 76.65 243.65 76.65 229.55C84.45 231.75 92 232.85 99.3 232.85C106.7 232.85 114.2 231.75 121.8 229.55C121.8 243.15 122.1 254.7 122.7 264.2C123.4 273.8 124.85 281.55 127.05 287.45C129.25 293.35 132.65 297.65 137.25 300.35C141.95 303.05 148.3 304.4 156.3 304.4V305ZM100.05 233C84.35 233 70.35 230.05 58.05 224.15C45.75 218.25 35.3 210.05 26.7 199.55C18.1 189.05 11.55 176.8 7.05 162.8C2.55 148.8 0.3 133.7 0.3 117.5C0.3 101.3 2.65 86.2 7.35 72.2C12.15 58.2 18.9 45.95 27.6 35.45C36.4 24.95 46.9 16.75 59.1 10.85C71.4 4.94999 85.05 1.99998 100.05 1.99998C114.95 1.99998 128.5 4.94999 140.7 10.85C152.9 16.75 163.4 24.95 172.2 35.45C181 45.95 187.75 58.2 192.45 72.2C197.15 86.2 199.5 101.3 199.5 117.5C199.5 133.7 197.25 148.8 192.75 162.8C188.35 176.8 181.85 189.05 173.25 199.55C164.75 210.05 154.3 218.25 141.9 224.15C129.6 230.05 115.65 233 100.05 233ZM100.05 232.4C111.55 232.4 120.85 229.25 127.95 222.95C135.05 216.55 140.5 207.95 144.3 197.15C148.1 186.25 150.7 173.95 152.1 160.25C153.5 146.45 154.2 132.15 154.2 117.35C154.2 102.65 153.35 88.45 151.65 74.75C150.05 61.05 147.2 48.8 143.1 38C139.1 27.1 133.6 18.5 126.6 12.2C119.6 5.8 110.75 2.6 100.05 2.6C89.35 2.6 80.45 5.8 73.35 12.2C66.35 18.5 60.8 27.1 56.7 38C52.7 48.8 49.85 61.05 48.15 74.75C46.45 88.45 45.6 102.7 45.6 117.5C45.6 132.2 46.3 146.45 47.7 160.25C49.1 174.05 51.7 186.35 55.5 197.15C59.4 207.95 64.9 216.55 72 222.95C79.2 229.25 88.55 232.4 100.05 232.4ZM417.478 4.99998V5.59999H387.778V161C387.778 185.7 382.428 204.15 371.728 216.35C361.128 228.45 343.728 234.5 319.528 234.5C292.328 234.5 272.428 228.75 259.828 217.25C247.228 205.65 240.928 186.9 240.928 161V5.59999H214.078V4.99998H310.378V5.59999H280.378V158C280.378 167.9 281.028 177.35 282.328 186.35C283.628 195.25 285.978 203.15 289.378 210.05C292.778 216.95 297.628 222.4 303.928 226.4C310.328 230.4 318.578 232.4 328.678 232.4C341.178 232.4 351.778 229.85 360.478 224.75C369.178 219.65 375.778 211.85 380.278 201.35C384.878 190.75 387.178 177.3 387.178 161V5.59999H358.828V4.99998H417.478ZM455.672 156.95V156.35H545.072V156.95H455.672ZM519.272 0.499986L598.622 229.4H619.922V230H523.922V229.4H553.172L494.372 47.45L430.622 229.4H466.922V230H400.922V229.4H429.872L510.122 0.499986H519.272ZM681.316 114.8V114.2H725.416C735.016 114.2 743.066 112.15 749.566 108.05C756.166 103.85 761.116 97.75 764.416 89.75C767.816 81.75 769.516 72 769.516 60.5C769.516 49 767.816 39.15 764.416 30.95C761.116 22.75 756.166 16.5 749.566 12.2C743.066 7.79999 735.016 5.59999 725.416 5.59999H627.316V4.99998H729.916C745.916 4.99998 759.916 6.94998 771.916 10.85C784.016 14.65 793.416 20.65 800.116 28.85C806.916 36.95 810.316 47.5 810.316 60.5C810.316 73.5 807.116 84 800.716 92C794.416 99.9 785.266 105.7 773.266 109.4C761.366 113 746.916 114.8 729.916 114.8H681.316ZM627.316 230V229.4H729.016V230H627.316ZM658.366 229.7V5.3H697.816V229.7H658.366ZM803.416 231.95C793.816 231.95 786.266 230.3 780.766 227C775.366 223.7 771.416 219.3 768.916 213.8C766.416 208.2 764.816 201.95 764.116 195.05C763.416 188.05 763.016 180.85 762.916 173.45C762.816 165.95 762.466 158.75 761.866 151.85C761.266 144.85 759.816 138.6 757.516 133.1C755.216 127.5 751.466 123.05 746.266 119.75C741.166 116.45 734.016 114.8 724.816 114.8H681.316V114.2H741.616C755.916 114.2 767.266 116.3 775.666 120.5C784.066 124.7 790.316 130.25 794.416 137.15C798.516 143.95 801.166 151.45 802.366 159.65C803.666 167.85 804.316 176.1 804.316 184.4C804.416 192.6 804.566 200.15 804.766 207.05C804.966 213.85 806.016 219.35 807.916 223.55C809.816 227.75 813.416 229.85 818.716 229.85C821.916 229.85 824.966 229.5 827.866 228.8C830.866 228 833.416 227.1 835.516 226.1L835.816 226.4C833.416 227.7 829.416 228.95 823.816 230.15C818.216 231.35 811.416 231.95 803.416 231.95ZM882.506 230V229.4H915.506V5.59999H891.806C883.406 5.59999 876.206 7.39999 870.206 11C864.306 14.6 859.356 19.65 855.356 26.15C851.456 32.55 848.406 39.95 846.206 48.35C844.106 56.75 842.706 65.7 842.006 75.2H841.406V4.99998H1028.91V75.2H1028.16C1027.46 65.7 1026.01 56.75 1023.81 48.35C1021.71 39.95 1018.66 32.55 1014.66 26.15C1010.76 19.65 1005.81 14.6 999.806 11C993.906 7.39999 986.806 5.59999 978.506 5.59999H954.806V229.4H987.806V230H882.506ZM1034.81 230V229.4L1151.51 5.59999H1100.21C1086.51 5.59999 1075.56 7.79999 1067.36 12.2C1059.26 16.6 1053.21 22.8 1049.21 30.8C1045.21 38.7 1042.61 48 1041.41 58.7H1040.81V4.99998H1195.61V5.59999L1078.91 229.4H1139.21C1152.91 229.4 1163.81 227.15 1171.91 222.65C1180.11 218.05 1186.21 211.35 1190.21 202.55C1194.21 193.75 1196.81 183 1198.01 170.3H1198.61V230H1034.81ZM1209.23 230V229.4H1242.08V5.59999H1209.23V4.99998H1317.53V5.59999H1281.53V229.4H1317.53V230H1209.23ZM1368.92 230V229.4H1401.92V5.59999H1378.22C1369.82 5.59999 1362.62 7.39999 1356.62 11C1350.72 14.6 1345.77 19.65 1341.77 26.15C1337.87 32.55 1334.82 39.95 1332.62 48.35C1330.52 56.75 1329.12 65.7 1328.42 75.2H1327.82V4.99998H1515.32V75.2H1514.57C1513.87 65.7 1512.42 56.75 1510.22 48.35C1508.12 39.95 1505.07 32.55 1501.07 26.15C1497.17 19.65 1492.22 14.6 1486.22 11C1480.32 7.39999 1473.22 5.59999 1464.92 5.59999H1441.22V229.4H1474.22V230H1368.92ZM1522.57 230V229.4H1549.42V5.59999H1522.57V4.99998H1688.02V66.5H1687.57C1686.67 55.8 1683.87 45.85 1679.17 36.65C1674.57 27.35 1668.12 19.85 1659.82 14.15C1651.62 8.44999 1641.67 5.59999 1629.97 5.59999H1588.87V229.4H1626.97C1640.67 229.4 1652.02 226.5 1661.02 220.7C1670.12 214.8 1677.07 206.8 1681.87 196.7C1686.77 186.6 1689.67 175.2 1690.57 162.5H1691.17V230H1522.57ZM1639.27 149.3C1638.37 142.6 1636.07 136.6 1632.37 131.3C1628.67 125.9 1624.17 121.65 1618.87 118.55C1613.57 115.45 1608.07 113.9 1602.37 113.9H1576.42V113.3H1602.37C1608.07 113.3 1613.57 111.9 1618.87 109.1C1624.17 106.2 1628.67 102.2 1632.37 97.1C1636.07 92 1638.37 86.1 1639.27 79.4H1639.87V149.3H1639.27Z"/>
</mask>
<path d="M156.3 305V306H157.3V305H156.3ZM114 301.1L113.76 302.071L113.762 302.071L114 301.1ZM90.15 288.35L90.8877 287.675L90.8819 287.669L90.15 288.35ZM79.35 265.1L80.3332 264.918L80.3329 264.916L79.35 265.1ZM76.65 229.55L76.9215 228.588L75.65 228.229V229.55H76.65ZM121.8 229.55H122.8V228.219L121.522 228.589L121.8 229.55ZM122.7 264.2L121.702 264.263L121.703 264.273L122.7 264.2ZM137.25 300.35L136.744 301.212L136.752 301.217L137.25 300.35ZM156.3 304.4H157.3V303.4H156.3V304.4ZM58.05 224.15L57.6175 225.052L58.05 224.15ZM26.7 199.55L27.4736 198.916L26.7 199.55ZM7.35 72.2L6.40404 71.8757L6.402 71.8817L7.35 72.2ZM27.6 35.45L26.8336 34.8076L26.83 34.812L27.6 35.45ZM59.1 10.85L58.6675 9.94835L58.6646 9.94974L59.1 10.85ZM140.7 10.85L140.265 11.7502L140.7 10.85ZM172.2 35.45L171.434 36.0923L172.2 35.45ZM192.45 72.2L191.502 72.5182L192.45 72.2ZM192.75 162.8L191.798 162.494L191.796 162.5L192.75 162.8ZM173.25 199.55L172.476 198.916L172.473 198.921L173.25 199.55ZM141.9 224.15L141.47 223.247L141.468 223.248L141.9 224.15ZM127.95 222.95L128.614 223.698L128.62 223.693L127.95 222.95ZM144.3 197.15L145.243 197.482L145.244 197.479L144.3 197.15ZM152.1 160.25L153.095 160.352L153.095 160.351L152.1 160.25ZM151.65 74.75L150.657 74.866L150.658 74.8731L151.65 74.75ZM143.1 38L142.161 38.3445L142.165 38.3549L143.1 38ZM126.6 12.2L125.925 12.938L125.931 12.9433L126.6 12.2ZM73.35 12.2L74.019 12.9433L74.0195 12.9428L73.35 12.2ZM56.7 38L55.764 37.6479L55.7623 37.6527L56.7 38ZM48.15 74.75L49.1424 74.8731L48.15 74.75ZM47.7 160.25L48.6949 160.149L47.7 160.25ZM55.5 197.15L54.5567 197.482L54.5594 197.49L55.5 197.15ZM72 222.95L71.3305 223.693L71.3359 223.698L71.3415 223.703L72 222.95ZM156.3 304C138.738 304 124.728 302.702 114.238 300.129L113.762 302.071C124.472 304.698 138.662 306 156.3 306V304ZM114.24 300.129C103.866 297.56 96.1153 293.387 90.8877 287.675L89.4123 289.025C94.9847 295.113 103.134 299.44 113.76 302.071L114.24 300.129ZM90.8819 287.669C85.6398 282.038 82.107 274.476 80.3332 264.918L78.3668 265.282C80.193 275.124 83.8603 283.062 89.4181 289.031L90.8819 287.669ZM80.3329 264.916C78.5481 255.397 77.65 243.613 77.65 229.55H75.65C75.65 243.687 76.5519 255.603 78.3671 265.284L80.3329 264.916ZM76.3785 230.512C84.2573 232.735 91.8988 233.85 99.3 233.85V231.85C92.1013 231.85 84.6427 230.765 76.9215 228.588L76.3785 230.512ZM99.3 233.85C106.8 233.85 114.394 232.735 122.078 230.511L121.522 228.589C114.006 230.765 106.6 231.85 99.3 231.85V233.85ZM120.8 229.55C120.8 243.163 121.1 254.735 121.702 264.263L123.698 264.137C123.1 254.665 122.8 243.137 122.8 229.55H120.8ZM121.703 264.273C122.406 273.923 123.867 281.777 126.113 287.799L127.987 287.101C125.833 281.323 124.394 273.677 123.697 264.127L121.703 264.273ZM126.113 287.799C128.378 293.874 131.911 298.376 136.744 301.212L137.756 299.488C133.389 296.924 130.122 292.826 127.987 287.101L126.113 287.799ZM136.752 301.217C141.659 304.036 148.203 305.4 156.3 305.4V303.4C148.397 303.4 142.241 302.064 137.748 299.483L136.752 301.217ZM155.3 304.4V305H157.3V304.4H155.3ZM100.05 232C84.4771 232 70.6285 229.075 58.4825 223.248L57.6175 225.052C70.0715 231.025 84.2229 234 100.05 234V232ZM58.4825 223.248C46.3137 217.411 35.9804 209.303 27.4736 198.916L25.9264 200.184C34.6196 210.797 45.1863 219.089 57.6175 225.052L58.4825 223.248ZM27.4736 198.916C18.9595 188.521 12.4669 176.385 8.00203 162.494L6.09797 163.106C10.6331 177.215 17.2405 189.579 25.9264 200.184L27.4736 198.916ZM8.00203 162.494C3.53687 148.602 1.3 133.607 1.3 117.5H-0.7C-0.7 133.793 1.56313 148.998 6.09797 163.106L8.00203 162.494ZM1.3 117.5C1.3 101.398 3.63561 86.4062 8.29801 72.5182L6.402 71.8817C1.66439 85.9938 -0.7 101.202 -0.7 117.5H1.3ZM8.29595 72.5243C13.0601 58.6289 19.7535 46.4873 28.37 36.088L26.83 34.812C18.0465 45.4127 11.2399 57.7711 6.40405 71.8757L8.29595 72.5243ZM28.3664 36.0923C37.0766 25.6995 47.4642 17.588 59.5354 11.7502L58.6646 9.94974C46.3359 15.912 35.7234 24.2005 26.8336 34.8077L28.3664 36.0923ZM59.5325 11.7516C71.6845 5.9226 85.1846 2.99998 100.05 2.99998V0.999985C84.9154 0.999985 71.1155 3.97737 58.6675 9.94835L59.5325 11.7516ZM100.05 2.99998C114.814 2.99998 128.213 5.9222 140.265 11.7502L141.135 9.94974C128.787 3.97778 115.086 0.999985 100.05 0.999985V2.99998ZM140.265 11.7502C152.336 17.588 162.723 25.6995 171.434 36.0923L172.966 34.8077C164.077 24.2005 153.464 15.912 141.135 9.94974L140.265 11.7502ZM171.434 36.0923C180.147 46.4894 186.839 58.6274 191.502 72.5182L193.398 71.8817C188.661 57.7726 181.853 45.4106 172.966 34.8077L171.434 36.0923ZM191.502 72.5182C196.164 86.4062 198.5 101.398 198.5 117.5H200.5C200.5 101.202 198.136 85.9938 193.398 71.8817L191.502 72.5182ZM198.5 117.5C198.5 133.607 196.263 148.602 191.798 162.494L193.702 163.106C198.237 148.998 200.5 133.793 200.5 117.5H198.5ZM191.796 162.5C187.431 176.388 180.989 188.523 172.476 198.916L174.024 200.184C182.711 189.577 189.269 177.212 193.704 163.1L191.796 162.5ZM172.473 198.921C164.068 209.303 153.738 217.41 141.47 223.247L142.33 225.053C154.862 219.09 165.432 210.797 174.027 200.179L172.473 198.921ZM141.468 223.248C129.321 229.075 115.522 232 100.05 232V234C115.778 234 129.879 231.025 142.332 225.052L141.468 223.248ZM100.05 233.4C111.74 233.4 121.294 230.193 128.614 223.698L127.286 222.202C120.406 228.307 111.36 231.4 100.05 231.4V233.4ZM128.62 223.693C135.866 217.161 141.399 208.409 145.243 197.482L143.357 196.818C139.601 207.491 134.234 215.939 127.28 222.207L128.62 223.693ZM145.244 197.479C149.074 186.493 151.688 174.115 153.095 160.352L151.105 160.148C149.712 173.785 147.126 186.007 143.356 196.821L145.244 197.479ZM153.095 160.351C154.499 146.515 155.2 132.181 155.2 117.35H153.2C153.2 132.119 152.501 146.385 151.105 160.149L153.095 160.351ZM155.2 117.35C155.2 102.611 154.348 88.3702 152.642 74.6268L150.658 74.8731C152.352 88.5298 153.2 102.689 153.2 117.35H155.2ZM152.643 74.634C151.035 60.8675 148.169 48.5352 144.035 37.6451L142.165 38.3549C146.231 49.0648 149.065 61.2325 150.657 74.866L152.643 74.634ZM144.039 37.6555C139.996 26.6376 134.415 17.8882 127.269 11.4567L125.931 12.9433C132.785 19.1118 138.204 27.5623 142.161 38.3445L144.039 37.6555ZM127.275 11.462C120.067 4.87157 110.965 1.6 100.05 1.6V3.6C110.535 3.6 119.133 6.72842 125.925 12.938L127.275 11.462ZM100.05 1.6C89.1345 1.6 79.9865 4.87153 72.6805 11.4572L74.0195 12.9428C80.9135 6.72846 89.5655 3.6 100.05 3.6V1.6ZM72.681 11.4567C65.5371 17.8863 59.9073 26.6329 55.764 37.6479L57.636 38.3521C61.6927 27.5671 67.1629 19.1137 74.019 12.9433L72.681 11.4567ZM55.7623 37.6527C51.7308 48.5377 48.8653 60.8649 47.1576 74.6268L49.1424 74.8731C50.8347 61.2351 53.6692 49.0623 57.6378 38.3473L55.7623 37.6527ZM47.1576 74.6268C45.4522 88.3705 44.6 102.662 44.6 117.5H46.6C46.6 102.738 47.4478 88.5295 49.1424 74.8731L47.1576 74.6268ZM44.6 117.5C44.6 132.232 45.3015 146.515 46.7051 160.351L48.6949 160.149C47.2985 146.385 46.6 132.168 46.6 117.5H44.6ZM46.7051 160.351C48.1115 174.214 50.7256 186.593 54.5567 197.482L56.4433 196.818C52.6744 186.107 50.0885 173.886 48.6949 160.149L46.7051 160.351ZM54.5594 197.49C58.5041 208.413 64.0861 217.163 71.3305 223.693L72.6695 222.207C65.7139 215.937 60.2959 207.487 56.4406 196.81L54.5594 197.49ZM71.3415 223.703C78.759 230.193 88.3591 233.4 100.05 233.4V231.4C88.7409 231.4 79.641 228.307 72.6585 222.197L71.3415 223.703ZM417.478 4.99998H418.478V3.99998H417.478V4.99998ZM417.478 5.59999V6.59999H418.478V5.59999H417.478ZM387.778 5.59999V4.59999H386.778V5.59999H387.778ZM371.728 216.35L370.976 215.691L370.976 215.691L371.728 216.35ZM259.828 217.25L259.151 217.986L259.154 217.989L259.828 217.25ZM240.928 5.59999H241.928V4.59999H240.928V5.59999ZM214.078 5.59999H213.078V6.59999H214.078V5.59999ZM214.078 4.99998V3.99998H213.078V4.99998H214.078ZM310.378 4.99998H311.378V3.99998H310.378V4.99998ZM310.378 5.59999V6.59999H311.378V5.59999H310.378ZM280.378 5.59999V4.59999H279.378V5.59999H280.378ZM282.328 186.35L281.338 186.493L281.339 186.495L282.328 186.35ZM289.378 210.05L288.481 210.492L289.378 210.05ZM303.928 226.4L303.392 227.244L303.398 227.248L303.928 226.4ZM360.478 224.75L360.984 225.613L360.478 224.75ZM380.278 201.35L379.361 200.952L379.359 200.956L380.278 201.35ZM387.178 5.59999H388.178V4.59999H387.178V5.59999ZM358.828 5.59999H357.828V6.59999H358.828V5.59999ZM358.828 4.99998V3.99998H357.828V4.99998H358.828ZM416.478 4.99998V5.59999H418.478V4.99998H416.478ZM417.478 4.59999H387.778V6.59999H417.478V4.59999ZM386.778 5.59999V161H388.778V5.59999H386.778ZM386.778 161C386.778 185.579 381.451 203.748 370.976 215.691L372.48 217.009C383.405 204.552 388.778 185.82 388.778 161H386.778ZM370.976 215.691C360.645 227.484 343.586 233.5 319.528 233.5V235.5C343.87 235.5 361.612 229.416 372.48 217.009L370.976 215.691ZM319.528 233.5C292.437 233.5 272.835 227.768 260.502 216.511L259.154 217.989C272.021 229.732 292.22 235.5 319.528 235.5V233.5ZM260.505 216.514C248.197 205.183 241.928 186.763 241.928 161H239.928C239.928 187.037 246.259 206.117 259.151 217.986L260.505 216.514ZM241.928 161V5.59999H239.928V161H241.928ZM240.928 4.59999H214.078V6.59999H240.928V4.59999ZM215.078 5.59999V4.99998H213.078V5.59999H215.078ZM214.078 5.99998H310.378V3.99998H214.078V5.99998ZM309.378 4.99998V5.59999H311.378V4.99998H309.378ZM310.378 4.59999H280.378V6.59999H310.378V4.59999ZM279.378 5.59999V158H281.378V5.59999H279.378ZM279.378 158C279.378 167.944 280.031 177.442 281.338 186.493L283.318 186.207C282.025 177.258 281.378 167.856 281.378 158H279.378ZM281.339 186.495C282.651 195.481 285.028 203.484 288.481 210.492L290.275 209.608C286.928 202.816 284.605 195.019 283.318 186.205L281.339 186.495ZM288.481 210.492C291.96 217.551 296.932 223.143 303.392 227.244L304.464 225.556C298.324 221.657 293.597 216.349 290.275 209.608L288.481 210.492ZM303.398 227.248C310.002 231.376 318.452 233.4 328.678 233.4V231.4C318.704 231.4 310.654 229.424 304.458 225.552L303.398 227.248ZM328.678 233.4C341.314 233.4 352.098 230.822 360.984 225.613L359.972 223.887C351.459 228.878 341.043 231.4 328.678 231.4V233.4ZM360.984 225.613C369.892 220.391 376.625 212.413 381.197 201.744L379.359 200.956C374.931 211.287 368.464 218.909 359.972 223.887L360.984 225.613ZM381.195 201.748C385.868 190.982 388.178 177.385 388.178 161H386.178C386.178 177.215 383.889 190.518 379.361 200.952L381.195 201.748ZM388.178 161V5.59999H386.178V161H388.178ZM387.178 4.59999H358.828V6.59999H387.178V4.59999ZM359.828 5.59999V4.99998H357.828V5.59999H359.828ZM358.828 5.99998H417.478V3.99998H358.828V5.99998ZM455.672 156.95H454.672V157.95H455.672V156.95ZM455.672 156.35V155.35H454.672V156.35H455.672ZM545.072 156.35H546.072V155.35H545.072V156.35ZM545.072 156.95V157.95H546.072V156.95H545.072ZM519.272 0.499985L520.217 0.172447L519.984 -0.500015H519.272V0.499985ZM598.622 229.4L597.677 229.728L597.91 230.4H598.622V229.4ZM619.922 229.4H620.922V228.4H619.922V229.4ZM619.922 230V231H620.922V230H619.922ZM523.922 230H522.922V231H523.922V230ZM523.922 229.4V228.4H522.922V229.4H523.922ZM553.172 229.4V230.4H554.546L554.123 229.092L553.172 229.4ZM494.372 47.45L495.323 47.1425L494.41 44.3165L493.428 47.1193L494.372 47.45ZM430.622 229.4L429.678 229.069L429.212 230.4H430.622V229.4ZM466.922 229.4H467.922V228.4H466.922V229.4ZM466.922 230V231H467.922V230H466.922ZM400.922 230H399.922V231H400.922V230ZM400.922 229.4V228.4H399.922V229.4H400.922ZM429.872 229.4V230.4H430.581L430.816 229.731L429.872 229.4ZM510.122 0.499985V-0.500015H509.413L509.178 0.169144L510.122 0.499985ZM456.672 156.95V156.35H454.672V156.95H456.672ZM455.672 157.35H545.072V155.35H455.672V157.35ZM544.072 156.35V156.95H546.072V156.35H544.072ZM545.072 155.95H455.672V157.95H545.072V155.95ZM518.327 0.827522L597.677 229.728L599.567 229.072L520.217 0.172447L518.327 0.827522ZM598.622 230.4H619.922V228.4H598.622V230.4ZM618.922 229.4V230H620.922V229.4H618.922ZM619.922 229H523.922V231H619.922V229ZM524.922 230V229.4H522.922V230H524.922ZM523.922 230.4H553.172V228.4H523.922V230.4ZM554.123 229.092L495.323 47.1425L493.42 47.7575L552.22 229.708L554.123 229.092ZM493.428 47.1193L429.678 229.069L431.566 229.731L495.316 47.7807L493.428 47.1193ZM430.622 230.4H466.922V228.4H430.622V230.4ZM465.922 229.4V230H467.922V229.4H465.922ZM466.922 229H400.922V231H466.922V229ZM401.922 230V229.4H399.922V230H401.922ZM400.922 230.4H429.872V228.4H400.922V230.4ZM430.816 229.731L511.066 0.830833L509.178 0.169144L428.928 229.069L430.816 229.731ZM510.122 1.49998H519.272V-0.500015H510.122V1.49998ZM681.316 114.8H680.316V115.8H681.316V114.8ZM681.316 114.2V113.2H680.316V114.2H681.316ZM749.566 108.05L750.1 108.896L750.103 108.894L749.566 108.05ZM764.416 89.75L763.496 89.3588L763.492 89.3687L764.416 89.75ZM764.416 30.95L763.489 31.3234L763.493 31.333L764.416 30.95ZM749.566 12.2L749.006 13.0281L749.013 13.0331L749.021 13.0379L749.566 12.2ZM627.316 5.59999H626.316V6.59999H627.316V5.59999ZM627.316 4.99998V3.99998H626.316V4.99998H627.316ZM771.916 10.85L771.607 11.8011L771.617 11.804L771.916 10.85ZM800.116 28.85L799.342 29.4828L799.351 29.493L800.116 28.85ZM800.716 92L799.936 91.3753L799.935 91.3765L800.716 92ZM773.266 109.4L773.556 110.357L773.561 110.356L773.266 109.4ZM627.316 230H626.316V231H627.316V230ZM627.316 229.4V228.4H626.316V229.4H627.316ZM729.016 229.4H730.016V228.4H729.016V229.4ZM729.016 230V231H730.016V230H729.016ZM658.366 229.7H657.366V230.7H658.366V229.7ZM658.366 5.3V4.3H657.366V5.3H658.366ZM697.816 5.3H698.816V4.3H697.816V5.3ZM697.816 229.7V230.7H698.816V229.7H697.816ZM780.766 227L780.245 227.853L780.252 227.857L780.766 227ZM768.916 213.8L768.003 214.208L768.006 214.214L768.916 213.8ZM764.116 195.05L763.121 195.15L763.122 195.151L764.116 195.05ZM762.916 173.45L761.917 173.463V173.464L762.916 173.45ZM761.866 151.85L760.87 151.935L760.87 151.937L761.866 151.85ZM757.516 133.1L756.591 133.48L756.594 133.486L757.516 133.1ZM746.266 119.75L745.723 120.59L745.731 120.594L746.266 119.75ZM681.316 114.8H680.316V115.8H681.316V114.8ZM681.316 114.2V113.2H680.316V114.2H681.316ZM794.416 137.15L793.557 137.661L793.56 137.666L794.416 137.15ZM802.366 159.65L801.377 159.795L801.379 159.807L802.366 159.65ZM804.316 184.4H803.316L803.316 184.412L804.316 184.4ZM804.766 207.05L803.767 207.079V207.079L804.766 207.05ZM807.916 223.55L808.828 223.138V223.138L807.916 223.55ZM827.866 228.8L828.101 229.772L828.113 229.769L828.124 229.766L827.866 228.8ZM835.516 226.1L836.224 225.393L835.724 224.893L835.086 225.197L835.516 226.1ZM835.816 226.4L836.293 227.279L837.471 226.641L836.523 225.693L835.816 226.4ZM823.816 230.15L824.026 231.128L823.816 230.15ZM682.316 114.8V114.2H680.316V114.8H682.316ZM681.316 115.2H725.416V113.2H681.316V115.2ZM725.416 115.2C735.158 115.2 743.405 113.119 750.1 108.896L749.033 107.204C742.728 111.181 734.874 113.2 725.416 113.2V115.2ZM750.103 108.894C756.895 104.571 761.971 98.3005 765.341 90.1313L763.492 89.3687C760.262 97.1995 755.438 103.129 749.03 107.206L750.103 108.894ZM765.337 90.1411C768.803 81.9844 770.516 72.0932 770.516 60.5H768.516C768.516 71.9068 766.829 81.5155 763.496 89.3589L765.337 90.1411ZM770.516 60.5C770.516 48.9056 768.803 38.9185 765.34 30.567L763.493 31.333C766.83 39.3815 768.516 49.0944 768.516 60.5H770.516ZM765.344 30.5767C761.977 22.2105 756.905 15.7876 750.112 11.3621L749.021 13.0379C755.428 17.2124 760.256 23.2895 763.489 31.3233L765.344 30.5767ZM750.127 11.3719C743.428 6.83703 735.171 4.59999 725.416 4.59999V6.59999C734.862 6.59999 742.705 8.76295 749.006 13.0281L750.127 11.3719ZM725.416 4.59999H627.316V6.59999H725.416V4.59999ZM628.316 5.59999V4.99998H626.316V5.59999H628.316ZM627.316 5.99998H729.916V3.99998H627.316V5.99998ZM729.916 5.99998C745.838 5.99998 759.73 7.94081 771.607 11.801L772.226 9.89896C760.103 5.95916 745.995 3.99998 729.916 3.99998V5.99998ZM771.617 11.804C783.568 15.5573 792.788 21.4615 799.342 29.4827L800.891 28.2173C794.045 19.8384 784.465 13.7427 772.216 9.89593L771.617 11.804ZM799.351 29.493C805.967 37.3743 809.316 47.6794 809.316 60.5H811.316C811.316 47.3206 807.866 36.5257 800.882 28.207L799.351 29.493ZM809.316 60.5C809.316 73.3351 806.159 83.5957 799.936 91.3753L801.497 92.6247C808.074 84.4043 811.316 73.6649 811.316 60.5H809.316ZM799.935 91.3765C793.787 99.0849 784.827 104.789 772.972 108.444L773.561 110.356C785.706 106.611 795.045 100.715 801.498 92.6235L799.935 91.3765ZM772.977 108.443C761.198 112.006 746.852 113.8 729.916 113.8V115.8C746.981 115.8 761.535 113.994 773.556 110.357L772.977 108.443ZM729.916 113.8H681.316V115.8H729.916V113.8ZM628.316 230V229.4H626.316V230H628.316ZM627.316 230.4H729.016V228.4H627.316V230.4ZM728.016 229.4V230H730.016V229.4H728.016ZM729.016 229H627.316V231H729.016V229ZM659.366 229.7V5.3H657.366V229.7H659.366ZM658.366 6.3H697.816V4.3H658.366V6.3ZM696.816 5.3V229.7H698.816V5.3H696.816ZM697.816 228.7H658.366V230.7H697.816V228.7ZM803.416 230.95C793.914 230.95 786.567 229.314 781.281 226.143L780.252 227.857C785.966 231.286 793.719 232.95 803.416 232.95V230.95ZM781.288 226.147C776.05 222.946 772.24 218.695 769.827 213.386L768.006 214.214C770.593 219.905 774.683 224.454 780.245 227.853L781.288 226.147ZM769.83 213.392C767.378 207.901 765.802 201.757 765.111 194.949L763.122 195.151C763.831 202.143 765.455 208.499 768.003 214.208L769.83 213.392ZM765.111 194.951C764.414 187.98 764.016 180.809 763.916 173.436L761.917 173.464C762.017 180.891 762.418 188.119 763.121 195.15L765.111 194.951ZM763.916 173.437C763.816 165.914 763.465 158.69 762.863 151.763L760.87 151.937C761.468 158.81 761.817 165.986 761.917 173.463L763.916 173.437ZM762.863 151.765C762.255 144.679 760.785 138.325 758.439 132.714L756.594 133.486C758.847 138.875 760.277 145.021 760.87 151.935L762.863 151.765ZM758.441 132.72C756.061 126.925 752.174 122.314 746.802 118.906L745.731 120.594C750.759 123.786 754.371 128.075 756.591 133.48L758.441 132.72ZM746.81 118.91C741.485 115.465 734.117 113.8 724.816 113.8V115.8C733.916 115.8 740.848 117.435 745.723 120.59L746.81 118.91ZM724.816 113.8H681.316V115.8H724.816V113.8ZM682.316 114.8V114.2H680.316V114.8H682.316ZM681.316 115.2H741.616V113.2H681.316V115.2ZM741.616 115.2C755.835 115.2 767.012 117.291 775.219 121.394L776.114 119.606C767.521 115.309 755.998 113.2 741.616 113.2V115.2ZM775.219 121.394C783.477 125.524 789.57 130.952 793.557 137.661L795.276 136.639C791.062 129.548 784.655 123.876 776.114 119.606L775.219 121.394ZM793.56 137.666C797.588 144.348 800.195 151.72 801.377 159.795L803.356 159.505C802.138 151.18 799.444 143.552 795.273 136.634L793.56 137.666ZM801.379 159.807C802.671 167.955 803.316 176.152 803.316 184.4H805.316C805.316 176.048 804.662 167.745 803.354 159.493L801.379 159.807ZM803.316 184.412C803.417 192.617 803.567 200.172 803.767 207.079L805.766 207.021C805.566 200.128 805.416 192.583 805.316 184.388L803.316 184.412ZM803.767 207.079C803.969 213.954 805.031 219.599 807.005 223.962L808.828 223.138C807.002 219.101 805.964 213.746 805.766 207.021L803.767 207.079ZM807.005 223.962C808.031 226.23 809.539 227.973 811.538 229.139C813.527 230.299 815.937 230.85 818.716 230.85V228.85C816.196 228.85 814.156 228.351 812.545 227.411C810.944 226.477 809.701 225.07 808.828 223.138L807.005 223.962ZM818.716 230.85C821.99 230.85 825.119 230.492 828.101 229.772L827.632 227.828C824.814 228.508 821.843 228.85 818.716 228.85V230.85ZM828.124 229.766C831.165 228.955 833.776 228.036 835.946 227.003L835.086 225.197C833.057 226.164 830.568 227.045 827.609 227.834L828.124 229.766ZM834.809 226.807L835.109 227.107L836.523 225.693L836.224 225.393L834.809 226.807ZM835.34 225.521C833.073 226.748 829.193 227.975 823.607 229.172L824.026 231.128C829.64 229.925 833.759 228.652 836.293 227.279L835.34 225.521ZM823.607 229.172C818.097 230.353 811.371 230.95 803.416 230.95V232.95C811.461 232.95 818.336 232.347 824.026 231.128L823.607 229.172ZM882.506 230H881.506V231H882.506V230ZM882.506 229.4V228.4H881.506V229.4H882.506ZM915.506 229.4V230.4H916.506V229.4H915.506ZM915.506 5.59999H916.506V4.59999H915.506V5.59999ZM870.206 11L869.692 10.1425L869.685 10.1464L870.206 11ZM855.356 26.15L854.505 25.6259L854.502 25.6296L855.356 26.15ZM846.206 48.35L845.239 48.0966L845.236 48.1075L846.206 48.35ZM842.006 75.2V76.2H842.935L843.004 75.2735L842.006 75.2ZM841.406 75.2H840.406V76.2H841.406V75.2ZM841.406 4.99998V3.99998H840.406V4.99998H841.406ZM1028.91 4.99998H1029.91V3.99998H1028.91V4.99998ZM1028.91 75.2V76.2H1029.91V75.2H1028.91ZM1028.16 75.2L1027.16 75.2735L1027.23 76.2H1028.16V75.2ZM1023.81 48.35L1022.84 48.5925L1022.84 48.6033L1023.81 48.35ZM1014.66 26.15L1013.8 26.6645L1013.8 26.6723L1013.81 26.68L1014.66 26.15ZM999.806 11L999.285 11.8537L999.292 11.8575L999.806 11ZM954.806 5.59999V4.59999H953.806V5.59999H954.806ZM954.806 229.4H953.806V230.4H954.806V229.4ZM987.806 229.4H988.806V228.4H987.806V229.4ZM987.806 230V231H988.806V230H987.806ZM883.506 230V229.4H881.506V230H883.506ZM882.506 230.4H915.506V228.4H882.506V230.4ZM916.506 229.4V5.59999H914.506V229.4H916.506ZM915.506 4.59999H891.806V6.59999H915.506V4.59999ZM891.806 4.59999C883.261 4.59999 875.876 6.43211 869.692 10.1425L870.721 11.8575C876.537 8.36787 883.551 6.59999 891.806 6.59999V4.59999ZM869.685 10.1464C863.637 13.8368 858.579 19.0057 854.505 25.6259L856.208 26.6741C860.134 20.2943 864.975 15.3631 870.727 11.8536L869.685 10.1464ZM854.502 25.6296C850.544 32.1246 847.46 39.6171 845.239 48.0966L847.174 48.6033C849.353 40.2828 852.368 32.9754 856.21 26.6704L854.502 25.6296ZM845.236 48.1075C843.121 56.5681 841.713 65.5751 841.009 75.1265L843.004 75.2735C843.7 65.8249 845.092 56.9319 847.176 48.5925L845.236 48.1075ZM842.006 74.2H841.406V76.2H842.006V74.2ZM842.406 75.2V4.99998H840.406V75.2H842.406ZM841.406 5.99998H1028.91V3.99998H841.406V5.99998ZM1027.91 4.99998V75.2H1029.91V4.99998H1027.91ZM1028.91 74.2H1028.16V76.2H1028.91V74.2ZM1029.15 75.1265C1028.45 65.5715 1026.99 56.5609 1024.77 48.0966L1022.84 48.6033C1025.02 56.9391 1026.46 65.8284 1027.16 75.2735L1029.15 75.1265ZM1024.78 48.1075C1022.65 39.6205 1019.57 32.1208 1015.5 25.62L1013.81 26.68C1017.75 32.9792 1020.76 40.2795 1022.84 48.5925L1024.78 48.1075ZM1015.51 25.6355C1011.54 19.0068 1006.47 13.8339 1000.32 10.1425L999.292 11.8575C1005.14 15.3661 1009.98 20.2932 1013.8 26.6645L1015.51 25.6355ZM1000.33 10.1464C994.241 6.43298 986.953 4.59999 978.506 4.59999V6.59999C986.66 6.59999 993.571 8.367 999.285 11.8536L1000.33 10.1464ZM978.506 4.59999H954.806V6.59999H978.506V4.59999ZM953.806 5.59999V229.4H955.806V5.59999H953.806ZM954.806 230.4H987.806V228.4H954.806V230.4ZM986.806 229.4V230H988.806V229.4H986.806ZM987.806 229H882.506V231H987.806V229ZM1034.81 230H1033.81V231H1034.81V230ZM1034.81 229.4L1033.92 228.938L1033.81 229.155V229.4H1034.81ZM1151.51 5.59999L1152.4 6.06236L1153.16 4.59999H1151.51V5.59999ZM1067.36 12.2L1066.89 11.3188L1066.88 11.3213L1067.36 12.2ZM1049.21 30.8L1050.1 31.2517L1050.1 31.2472L1049.21 30.8ZM1041.41 58.7V59.7H1042.3L1042.4 58.8114L1041.41 58.7ZM1040.81 58.7H1039.81V59.7H1040.81V58.7ZM1040.81 4.99998V3.99998H1039.81V4.99998H1040.81ZM1195.61 4.99998H1196.61V3.99998H1195.61V4.99998ZM1195.61 5.59999L1196.5 6.06236L1196.61 5.84505V5.59999H1195.61ZM1078.91 229.4L1078.02 228.938L1077.26 230.4H1078.91V229.4ZM1171.91 222.65L1172.4 223.524L1172.4 223.522L1171.91 222.65ZM1190.21 202.55L1191.12 202.964L1190.21 202.55ZM1198.01 170.3V169.3H1197.1L1197.01 170.206L1198.01 170.3ZM1198.61 170.3H1199.61V169.3H1198.61V170.3ZM1198.61 230V231H1199.61V230H1198.61ZM1035.81 230V229.4H1033.81V230H1035.81ZM1035.7 229.862L1152.4 6.06236L1150.62 5.13763L1033.92 228.938L1035.7 229.862ZM1151.51 4.59999H1100.21V6.59999H1151.51V4.59999ZM1100.21 4.59999C1086.42 4.59999 1075.29 6.81262 1066.89 11.3188L1067.83 13.0812C1075.84 8.78736 1086.6 6.59999 1100.21 6.59999V4.59999ZM1066.88 11.3213C1058.61 15.8158 1052.41 22.1637 1048.32 30.3528L1050.1 31.2472C1054.01 23.4362 1059.91 17.3842 1067.84 13.0787L1066.88 11.3213ZM1048.32 30.3483C1044.25 38.3749 1041.63 47.7948 1040.42 58.5885L1042.4 58.8114C1043.59 48.2052 1046.17 39.025 1050.1 31.2517L1048.32 30.3483ZM1041.41 57.7H1040.81V59.7H1041.41V57.7ZM1041.81 58.7V4.99998H1039.81V58.7H1041.81ZM1040.81 5.99998H1195.61V3.99998H1040.81V5.99998ZM1194.61 4.99998V5.59999H1196.61V4.99998H1194.61ZM1194.72 5.13763L1078.02 228.938L1079.8 229.862L1196.5 6.06236L1194.72 5.13763ZM1078.91 230.4H1139.21V228.4H1078.91V230.4ZM1139.21 230.4C1153 230.4 1164.09 228.137 1172.4 223.524L1171.42 221.776C1163.53 226.163 1152.82 228.4 1139.21 228.4V230.4ZM1172.4 223.522C1180.79 218.815 1187.04 211.952 1191.12 202.964L1189.3 202.136C1185.39 210.748 1179.43 217.285 1171.42 221.778L1172.4 223.522ZM1191.12 202.964C1195.18 194.036 1197.8 183.171 1199.01 170.394L1197.01 170.206C1195.82 182.829 1193.24 193.464 1189.3 202.136L1191.12 202.964ZM1198.01 171.3H1198.61V169.3H1198.01V171.3ZM1197.61 170.3V230H1199.61V170.3H1197.61ZM1198.61 229H1034.81V231H1198.61V229ZM1209.23 230H1208.23V231H1209.23V230ZM1209.23 229.4V228.4H1208.23V229.4H1209.23ZM1242.08 229.4V230.4H1243.08V229.4H1242.08ZM1242.08 5.59999H1243.08V4.59999H1242.08V5.59999ZM1209.23 5.59999H1208.23V6.59999H1209.23V5.59999ZM1209.23 4.99998V3.99998H1208.23V4.99998H1209.23ZM1317.53 4.99998H1318.53V3.99998H1317.53V4.99998ZM1317.53 5.59999V6.59999H1318.53V5.59999H1317.53ZM1281.53 5.59999V4.59999H1280.53V5.59999H1281.53ZM1281.53 229.4H1280.53V230.4H1281.53V229.4ZM1317.53 229.4H1318.53V228.4H1317.53V229.4ZM1317.53 230V231H1318.53V230H1317.53ZM1210.23 230V229.4H1208.23V230H1210.23ZM1209.23 230.4H1242.08V228.4H1209.23V230.4ZM1243.08 229.4V5.59999H1241.08V229.4H1243.08ZM1242.08 4.59999H1209.23V6.59999H1242.08V4.59999ZM1210.23 5.59999V4.99998H1208.23V5.59999H1210.23ZM1209.23 5.99998H1317.53V3.99998H1209.23V5.99998ZM1316.53 4.99998V5.59999H1318.53V4.99998H1316.53ZM1317.53 4.59999H1281.53V6.59999H1317.53V4.59999ZM1280.53 5.59999V229.4H1282.53V5.59999H1280.53ZM1281.53 230.4H1317.53V228.4H1281.53V230.4ZM1316.53 229.4V230H1318.53V229.4H1316.53ZM1317.53 229H1209.23V231H1317.53V229ZM1368.92 230H1367.92V231H1368.92V230ZM1368.92 229.4V228.4H1367.92V229.4H1368.92ZM1401.92 229.4V230.4H1402.92V229.4H1401.92ZM1401.92 5.59999H1402.92V4.59999H1401.92V5.59999ZM1356.62 11L1356.1 10.1425L1356.1 10.1464L1356.62 11ZM1341.77 26.15L1340.91 25.6259L1340.91 25.6296L1341.77 26.15ZM1332.62 48.35L1331.65 48.0966L1331.65 48.1075L1332.62 48.35ZM1328.42 75.2V76.2H1329.35L1329.41 75.2735L1328.42 75.2ZM1327.82 75.2H1326.82V76.2H1327.82V75.2ZM1327.82 4.99998V3.99998H1326.82V4.99998H1327.82ZM1515.32 4.99998H1516.32V3.99998H1515.32V4.99998ZM1515.32 75.2V76.2H1516.32V75.2H1515.32ZM1514.57 75.2L1513.57 75.2735L1513.64 76.2H1514.57V75.2ZM1510.22 48.35L1509.25 48.5925L1509.25 48.6033L1510.22 48.35ZM1501.07 26.15L1500.21 26.6645L1500.21 26.6723L1500.22 26.68L1501.07 26.15ZM1486.22 11L1485.7 11.8537L1485.7 11.8575L1486.22 11ZM1441.22 5.59999V4.59999H1440.22V5.59999H1441.22ZM1441.22 229.4H1440.22V230.4H1441.22V229.4ZM1474.22 229.4H1475.22V228.4H1474.22V229.4ZM1474.22 230V231H1475.22V230H1474.22ZM1369.92 230V229.4H1367.92V230H1369.92ZM1368.92 230.4H1401.92V228.4H1368.92V230.4ZM1402.92 229.4V5.59999H1400.92V229.4H1402.92ZM1401.92 4.59999H1378.22V6.59999H1401.92V4.59999ZM1378.22 4.59999C1369.67 4.59999 1362.29 6.43211 1356.1 10.1425L1357.13 11.8575C1362.95 8.36787 1369.96 6.59999 1378.22 6.59999V4.59999ZM1356.1 10.1464C1350.05 13.8368 1344.99 19.0057 1340.91 25.6259L1342.62 26.6741C1346.54 20.2943 1351.39 15.3631 1357.14 11.8536L1356.1 10.1464ZM1340.91 25.6296C1336.95 32.1246 1333.87 39.6171 1331.65 48.0966L1333.58 48.6033C1335.76 40.2828 1338.78 32.9754 1342.62 26.6704L1340.91 25.6296ZM1331.65 48.1075C1329.53 56.5681 1328.12 65.5751 1327.42 75.1265L1329.41 75.2735C1330.11 65.8249 1331.5 56.9319 1333.59 48.5925L1331.65 48.1075ZM1328.42 74.2H1327.82V76.2H1328.42V74.2ZM1328.82 75.2V4.99998H1326.82V75.2H1328.82ZM1327.82 5.99998H1515.32V3.99998H1327.82V5.99998ZM1514.32 4.99998V75.2H1516.32V4.99998H1514.32ZM1515.32 74.2H1514.57V76.2H1515.32V74.2ZM1515.56 75.1265C1514.86 65.5715 1513.4 56.5609 1511.18 48.0966L1509.25 48.6033C1511.43 56.9391 1512.87 65.8284 1513.57 75.2735L1515.56 75.1265ZM1511.19 48.1075C1509.06 39.6205 1505.98 32.1208 1501.91 25.62L1500.22 26.68C1504.16 32.9792 1507.17 40.2795 1509.25 48.5925L1511.19 48.1075ZM1501.92 25.6355C1497.95 19.0068 1492.88 13.8339 1486.73 10.1425L1485.7 11.8575C1491.55 15.3661 1496.39 20.2932 1500.21 26.6645L1501.92 25.6355ZM1486.74 10.1464C1480.65 6.43298 1473.36 4.59999 1464.92 4.59999V6.59999C1473.07 6.59999 1479.98 8.367 1485.7 11.8536L1486.74 10.1464ZM1464.92 4.59999H1441.22V6.59999H1464.92V4.59999ZM1440.22 5.59999V229.4H1442.22V5.59999H1440.22ZM1441.22 230.4H1474.22V228.4H1441.22V230.4ZM1473.22 229.4V230H1475.22V229.4H1473.22ZM1474.22 229H1368.92V231H1474.22V229ZM1522.57 230H1521.57V231H1522.57V230ZM1522.57 229.4V228.4H1521.57V229.4H1522.57ZM1549.42 229.4V230.4H1550.42V229.4H1549.42ZM1549.42 5.59999H1550.42V4.59999H1549.42V5.59999ZM1522.57 5.59999H1521.57V6.59999H1522.57V5.59999ZM1522.57 4.99998V3.99998H1521.57V4.99998H1522.57ZM1688.02 4.99998H1689.02V3.99998H1688.02V4.99998ZM1688.02 66.5V67.5H1689.02V66.5H1688.02ZM1687.57 66.5L1686.57 66.5838L1686.65 67.5H1687.57V66.5ZM1679.17 36.65L1678.27 37.0934L1678.28 37.1049L1679.17 36.65ZM1659.82 14.15L1659.25 14.9711L1659.25 14.9743L1659.82 14.15ZM1588.87 5.59999V4.59999H1587.87V5.59999H1588.87ZM1588.87 229.4H1587.87V230.4H1588.87V229.4ZM1661.02 220.7L1661.56 221.541L1661.56 221.539L1661.02 220.7ZM1681.87 196.7L1680.97 196.263L1680.97 196.271L1681.87 196.7ZM1690.57 162.5V161.5H1689.64L1689.57 162.429L1690.57 162.5ZM1691.17 162.5H1692.17V161.5H1691.17V162.5ZM1691.17 230V231H1692.17V230H1691.17ZM1639.27 149.3L1638.28 149.433L1638.4 150.3H1639.27V149.3ZM1632.37 131.3L1631.55 131.865L1631.55 131.872L1632.37 131.3ZM1618.87 118.55L1619.38 117.687L1618.87 118.55ZM1576.42 113.9H1575.42V114.9H1576.42V113.9ZM1576.42 113.3V112.3H1575.42V113.3H1576.42ZM1618.87 109.1L1619.34 109.984L1619.34 109.981L1619.35 109.977L1618.87 109.1ZM1639.27 79.4V78.4H1638.4L1638.28 79.2669L1639.27 79.4ZM1639.87 79.4H1640.87V78.4H1639.87V79.4ZM1639.87 149.3V150.3H1640.87V149.3H1639.87ZM1523.57 230V229.4H1521.57V230H1523.57ZM1522.57 230.4H1549.42V228.4H1522.57V230.4ZM1550.42 229.4V5.59999H1548.42V229.4H1550.42ZM1549.42 4.59999H1522.57V6.59999H1549.42V4.59999ZM1523.57 5.59999V4.99998H1521.57V5.59999H1523.57ZM1522.57 5.99998H1688.02V3.99998H1522.57V5.99998ZM1687.02 4.99998V66.5H1689.02V4.99998H1687.02ZM1688.02 65.5H1687.57V67.5H1688.02V65.5ZM1688.57 66.4162C1687.66 55.5919 1684.82 45.5153 1680.06 36.1951L1678.28 37.1049C1682.92 46.1847 1685.68 56.008 1686.57 66.5838L1688.57 66.4162ZM1680.07 36.2066C1675.39 26.7584 1668.83 19.1254 1660.39 13.3257L1659.25 14.9743C1667.41 20.5746 1673.75 27.9416 1678.27 37.0934L1680.07 36.2066ZM1660.39 13.3289C1652 7.49345 1641.84 4.59999 1629.97 4.59999V6.59999C1641.5 6.59999 1651.24 9.40653 1659.25 14.9711L1660.39 13.3289ZM1629.97 4.59999H1588.87V6.59999H1629.97V4.59999ZM1587.87 5.59999V229.4H1589.87V5.59999H1587.87ZM1588.87 230.4H1626.97V228.4H1588.87V230.4ZM1626.97 230.4C1640.81 230.4 1652.36 227.47 1661.56 221.541L1660.48 219.859C1651.68 225.53 1640.53 228.4 1626.97 228.4V230.4ZM1661.56 221.539C1670.82 215.535 1677.9 207.391 1682.77 197.129L1680.97 196.271C1676.24 206.209 1669.42 214.065 1660.48 219.861L1661.56 221.539ZM1682.77 197.136C1687.73 186.908 1690.66 175.381 1691.57 162.571L1689.57 162.429C1688.68 175.019 1685.81 186.292 1680.97 196.264L1682.77 197.136ZM1690.57 163.5H1691.17V161.5H1690.57V163.5ZM1690.17 162.5V230H1692.17V162.5H1690.17ZM1691.17 229H1522.57V231H1691.17V229ZM1640.26 149.167C1639.34 142.316 1636.99 136.164 1633.19 130.728L1631.55 131.872C1635.15 137.036 1637.4 142.884 1638.28 149.433L1640.26 149.167ZM1633.2 130.735C1629.42 125.221 1624.81 120.866 1619.38 117.687L1618.37 119.413C1623.53 122.434 1627.92 126.579 1631.55 131.865L1633.2 130.735ZM1619.38 117.687C1613.93 114.504 1608.26 112.9 1602.37 112.9V114.9C1607.88 114.9 1613.21 116.396 1618.37 119.413L1619.38 117.687ZM1602.37 112.9H1576.42V114.9H1602.37V112.9ZM1577.42 113.9V113.3H1575.42V113.9H1577.42ZM1576.42 114.3H1602.37V112.3H1576.42V114.3ZM1602.37 114.3C1608.24 114.3 1613.9 112.856 1619.34 109.984L1618.4 108.216C1613.24 110.944 1607.9 112.3 1602.37 112.3V114.3ZM1619.35 109.977C1624.79 107.003 1629.4 102.902 1633.18 97.6872L1631.56 96.5128C1627.94 101.498 1623.55 105.397 1618.39 108.223L1619.35 109.977ZM1633.18 97.6872C1636.98 92.4435 1639.34 86.3849 1640.26 79.5331L1638.28 79.2669C1637.4 85.8151 1635.16 91.5565 1631.56 96.5128L1633.18 97.6872ZM1639.27 80.4H1639.87V78.4H1639.27V80.4ZM1638.87 79.4V149.3H1640.87V79.4H1638.87ZM1639.87 148.3H1639.27V150.3H1639.87V148.3Z" fill="black" mask="url(#path-1-outside-1_32_8792)"/>
</g>
</svg>
