<svg width="1692" height="305" viewBox="0 0 1692 305" fill="none" xmlns="http://www.w3.org/2000/svg">
<path d="M156.3 305C138.7 305 124.6 303.7 114 301.1C103.5 298.5 95.55 294.25 90.15 288.35C84.75 282.55 81.15 274.8 79.35 265.1C77.55 255.5 76.65 243.65 76.65 229.55C84.45 231.75 92 232.85 99.3 232.85C106.7 232.85 114.2 231.75 121.8 229.55C121.8 243.15 122.1 254.7 122.7 264.2C123.4 273.8 124.85 281.55 127.05 287.45C129.25 293.35 132.65 297.65 137.25 300.35C141.95 303.05 148.3 304.4 156.3 304.4V305ZM100.05 233C84.35 233 70.35 230.05 58.05 224.15C45.75 218.25 35.3 210.05 26.7 199.55C18.1 189.05 11.55 176.8 7.05 162.8C2.55 148.8 0.3 133.7 0.3 117.5C0.3 101.3 2.65 86.2 7.35 72.2C12.15 58.2 18.9 45.95 27.6 35.45C36.4 24.95 46.9 16.75 59.1 10.85C71.4 4.94999 85.05 1.99998 100.05 1.99998C114.95 1.99998 128.5 4.94999 140.7 10.85C152.9 16.75 163.4 24.95 172.2 35.45C181 45.95 187.75 58.2 192.45 72.2C197.15 86.2 199.5 101.3 199.5 117.5C199.5 133.7 197.25 148.8 192.75 162.8C188.35 176.8 181.85 189.05 173.25 199.55C164.75 210.05 154.3 218.25 141.9 224.15C129.6 230.05 115.65 233 100.05 233ZM100.05 232.4C111.55 232.4 120.85 229.25 127.95 222.95C135.05 216.55 140.5 207.95 144.3 197.15C148.1 186.25 150.7 173.95 152.1 160.25C153.5 146.45 154.2 132.15 154.2 117.35C154.2 102.65 153.35 88.45 151.65 74.75C150.05 61.05 147.2 48.8 143.1 38C139.1 27.1 133.6 18.5 126.6 12.2C119.6 5.8 110.75 2.6 100.05 2.6C89.35 2.6 80.45 5.8 73.35 12.2C66.35 18.5 60.8 27.1 56.7 38C52.7 48.8 49.85 61.05 48.15 74.75C46.45 88.45 45.6 102.7 45.6 117.5C45.6 132.2 46.3 146.45 47.7 160.25C49.1 174.05 51.7 186.35 55.5 197.15C59.4 207.95 64.9 216.55 72 222.95C79.2 229.25 88.55 232.4 100.05 232.4ZM417.478 4.99998V5.59999H387.778V161C387.778 185.7 382.428 204.15 371.728 216.35C361.128 228.45 343.728 234.5 319.528 234.5C292.328 234.5 272.428 228.75 259.828 217.25C247.228 205.65 240.928 186.9 240.928 161V5.59999H214.078V4.99998H310.378V5.59999H280.378V158C280.378 167.9 281.028 177.35 282.328 186.35C283.628 195.25 285.978 203.15 289.378 210.05C292.778 216.95 297.628 222.4 303.928 226.4C310.328 230.4 318.578 232.4 328.678 232.4C341.178 232.4 351.778 229.85 360.478 224.75C369.178 219.65 375.778 211.85 380.278 201.35C384.878 190.75 387.178 177.3 387.178 161V5.59999H358.828V4.99998H417.478ZM455.672 156.95V156.35H545.072V156.95H455.672ZM519.272 0.499986L598.622 229.4H619.922V230H523.922V229.4H553.172L494.372 47.45L430.622 229.4H466.922V230H400.922V229.4H429.872L510.122 0.499986H519.272ZM681.316 114.8V114.2H725.416C735.016 114.2 743.066 112.15 749.566 108.05C756.166 103.85 761.116 97.75 764.416 89.75C767.816 81.75 769.516 72 769.516 60.5C769.516 49 767.816 39.15 764.416 30.95C761.116 22.75 756.166 16.5 749.566 12.2C743.066 7.79999 735.016 5.59999 725.416 5.59999H627.316V4.99998H729.916C745.916 4.99998 759.916 6.94998 771.916 10.85C784.016 14.65 793.416 20.65 800.116 28.85C806.916 36.95 810.316 47.5 810.316 60.5C810.316 73.5 807.116 84 800.716 92C794.416 99.9 785.266 105.7 773.266 109.4C761.366 113 746.916 114.8 729.916 114.8H681.316ZM627.316 230V229.4H729.016V230H627.316ZM658.366 229.7V5.3H697.816V229.7H658.366ZM803.416 231.95C793.816 231.95 786.266 230.3 780.766 227C775.366 223.7 771.416 219.3 768.916 213.8C766.416 208.2 764.816 201.95 764.116 195.05C763.416 188.05 763.016 180.85 762.916 173.45C762.816 165.95 762.466 158.75 761.866 151.85C761.266 144.85 759.816 138.6 757.516 133.1C755.216 127.5 751.466 123.05 746.266 119.75C741.166 116.45 734.016 114.8 724.816 114.8H681.316V114.2H741.616C755.916 114.2 767.266 116.3 775.666 120.5C784.066 124.7 790.316 130.25 794.416 137.15C798.516 143.95 801.166 151.45 802.366 159.65C803.666 167.85 804.316 176.1 804.316 184.4C804.416 192.6 804.566 200.15 804.766 207.05C804.966 213.85 806.016 219.35 807.916 223.55C809.816 227.75 813.416 229.85 818.716 229.85C821.916 229.85 824.966 229.5 827.866 228.8C830.866 228 833.416 227.1 835.516 226.1L835.816 226.4C833.416 227.7 829.416 228.95 823.816 230.15C818.216 231.35 811.416 231.95 803.416 231.95ZM882.506 230V229.4H915.506V5.59999H891.806C883.406 5.59999 876.206 7.39999 870.206 11C864.306 14.6 859.356 19.65 855.356 26.15C851.456 32.55 848.406 39.95 846.206 48.35C844.106 56.75 842.706 65.7 842.006 75.2H841.406V4.99998H1028.91V75.2H1028.16C1027.46 65.7 1026.01 56.75 1023.81 48.35C1021.71 39.95 1018.66 32.55 1014.66 26.15C1010.76 19.65 1005.81 14.6 999.806 11C993.906 7.39999 986.806 5.59999 978.506 5.59999H954.806V229.4H987.806V230H882.506ZM1034.81 230V229.4L1151.51 5.59999H1100.21C1086.51 5.59999 1075.56 7.79999 1067.36 12.2C1059.26 16.6 1053.21 22.8 1049.21 30.8C1045.21 38.7 1042.61 48 1041.41 58.7H1040.81V4.99998H1195.61V5.59999L1078.91 229.4H1139.21C1152.91 229.4 1163.81 227.15 1171.91 222.65C1180.11 218.05 1186.21 211.35 1190.21 202.55C1194.21 193.75 1196.81 183 1198.01 170.3H1198.61V230H1034.81ZM1209.23 230V229.4H1242.08V5.59999H1209.23V4.99998H1317.53V5.59999H1281.53V229.4H1317.53V230H1209.23ZM1368.92 230V229.4H1401.92V5.59999H1378.22C1369.82 5.59999 1362.62 7.39999 1356.62 11C1350.72 14.6 1345.77 19.65 1341.77 26.15C1337.87 32.55 1334.82 39.95 1332.62 48.35C1330.52 56.75 1329.12 65.7 1328.42 75.2H1327.82V4.99998H1515.32V75.2H1514.57C1513.87 65.7 1512.42 56.75 1510.22 48.35C1508.12 39.95 1505.07 32.55 1501.07 26.15C1497.17 19.65 1492.22 14.6 1486.22 11C1480.32 7.39999 1473.22 5.59999 1464.92 5.59999H1441.22V229.4H1474.22V230H1368.92ZM1522.57 230V229.4H1549.42V5.59999H1522.57V4.99998H1688.02V66.5H1687.57C1686.67 55.8 1683.87 45.85 1679.17 36.65C1674.57 27.35 1668.12 19.85 1659.82 14.15C1651.62 8.44999 1641.67 5.59999 1629.97 5.59999H1588.87V229.4H1626.97C1640.67 229.4 1652.02 226.5 1661.02 220.7C1670.12 214.8 1677.07 206.8 1681.87 196.7C1686.77 186.6 1689.67 175.2 1690.57 162.5H1691.17V230H1522.57ZM1639.27 149.3C1638.37 142.6 1636.07 136.6 1632.37 131.3C1628.67 125.9 1624.17 121.65 1618.87 118.55C1613.57 115.45 1608.07 113.9 1602.37 113.9H1576.42V113.3H1602.37C1608.07 113.3 1613.57 111.9 1618.87 109.1C1624.17 106.2 1628.67 102.2 1632.37 97.1C1636.07 92 1638.37 86.1 1639.27 79.4H1639.87V149.3H1639.27Z" fill="black"/>
</svg>
