<svg width="1638" height="539" viewBox="0 0 1638 539" fill="none" xmlns="http://www.w3.org/2000/svg">
<path d="M126.25 263.2V261.8H229.15C251.55 261.8 270.333 257.017 285.5 247.45C300.9 237.65 312.45 223.417 320.15 204.75C328.083 186.083 332.05 163.333 332.05 136.5C332.05 109.667 328.083 86.6833 320.15 67.55C312.45 48.4167 300.9 33.8333 285.5 23.8C270.333 13.5333 251.55 8.39998 229.15 8.39998H0.25V6.99996H239.65C276.983 6.99996 309.65 11.55 337.65 20.65C365.883 29.5166 387.817 43.5166 403.45 62.65C419.317 81.55 427.25 106.167 427.25 136.5C427.25 166.833 419.783 191.333 404.85 210C390.15 228.433 368.8 241.967 340.8 250.6C313.033 259 279.317 263.2 239.65 263.2H126.25ZM0.25 532V530.6H237.55V532H0.25ZM72.7 531.3V7.69999H164.75V531.3H72.7ZM411.15 536.55C388.75 536.55 371.133 532.7 358.3 525C345.7 517.3 336.483 507.033 330.65 494.2C324.817 481.133 321.083 466.55 319.45 450.45C317.817 434.117 316.883 417.317 316.65 400.05C316.417 382.55 315.6 365.75 314.2 349.65C312.8 333.317 309.417 318.733 304.05 305.9C298.683 292.833 289.933 282.45 277.8 274.75C265.9 267.05 249.217 263.2 227.75 263.2H126.25V261.8H266.95C300.317 261.8 326.8 266.7 346.4 276.5C366 286.3 380.583 299.25 390.15 315.35C399.717 331.217 405.9 348.717 408.7 367.85C411.733 386.983 413.25 406.233 413.25 425.6C413.483 444.733 413.833 462.35 414.3 478.45C414.767 494.317 417.217 507.15 421.65 516.95C426.083 526.75 434.483 531.65 446.85 531.65C454.317 531.65 461.433 530.833 468.2 529.2C475.2 527.333 481.15 525.233 486.05 522.9L486.75 523.6C481.15 526.633 471.817 529.55 458.75 532.35C445.683 535.15 429.817 536.55 411.15 536.55ZM499.793 532V530.6H576.443V8.39998H499.793V6.99996H752.493V8.39998H668.493V530.6H752.493V532H499.793ZM1032.5 539C982.332 539 938.815 527.45 901.948 504.35C865.082 481.017 836.498 449.05 816.198 408.45C796.132 367.85 786.098 321.533 786.098 269.5C786.098 217.467 796.132 171.15 816.198 130.55C836.498 89.95 865.082 58.1 901.948 35C938.815 11.6666 982.332 -3.50475e-05 1032.5 -3.50475e-05C1055.13 -3.50475e-05 1076.13 3.96664 1095.5 11.9C1114.87 19.8333 1131.9 30.8 1146.6 44.8L1201.9 6.99996H1203.3V156.8H1201.55C1196.88 127.167 1186.73 100.8 1171.1 77.7C1155.47 54.6 1136.22 36.5166 1113.35 23.45C1090.72 10.15 1066.1 3.49996 1039.5 3.49996C1011.73 3.49996 988.282 11.3166 969.148 26.95C950.248 42.35 935.082 63 923.648 88.9C912.448 114.567 904.282 143.15 899.148 174.65C894.248 205.917 891.798 237.533 891.798 269.5C891.798 301.233 894.248 332.85 899.148 364.35C904.282 395.85 912.448 424.55 923.648 450.45C935.082 476.117 950.248 496.767 969.148 512.4C988.282 527.8 1011.73 535.5 1039.5 535.5C1063.53 535.5 1085.23 531.533 1104.6 523.6C1124.2 515.433 1141.23 504.233 1155.7 490C1170.17 475.533 1181.83 459.2 1190.7 441C1199.8 422.567 1205.75 402.967 1208.55 382.2H1210.3V532H1208.9L1158.15 490.35C1143.22 505.517 1125.02 517.417 1103.55 526.05C1082.32 534.683 1058.63 539 1032.5 539ZM1243.9 532V530.6H1306.55V8.39998H1243.9V6.99996H1629.95V150.5H1628.9C1626.8 125.533 1620.27 102.317 1609.3 80.85C1598.57 59.15 1583.52 41.65 1564.15 28.35C1545.02 15.05 1521.8 8.39998 1494.5 8.39998H1398.6V530.6H1487.5C1519.47 530.6 1545.95 523.833 1566.95 510.3C1588.18 496.533 1604.4 477.867 1615.6 454.3C1627.03 430.733 1633.8 404.133 1635.9 374.5H1637.3V532H1243.9ZM1516.2 343.7C1514.1 328.067 1508.73 314.067 1500.1 301.7C1491.47 289.1 1480.97 279.183 1468.6 271.95C1456.23 264.717 1443.4 261.1 1430.1 261.1H1369.55V259.7H1430.1C1443.4 259.7 1456.23 256.433 1468.6 249.9C1480.97 243.133 1491.47 233.8 1500.1 221.9C1508.73 210 1514.1 196.233 1516.2 180.6H1517.6V343.7H1516.2Z" fill="#4BA040"/>
</svg>
