<svg width="829" height="196" viewBox="0 0 829 196" fill="none" xmlns="http://www.w3.org/2000/svg">
<path d="M65 195.75C54.8333 195.75 46.125 194.125 38.875 190.875C31.7083 187.625 25.6667 183.25 20.75 177.75L1.25 194.5H0.75V138.75H1.25C3.25 146.167 5.875 153.25 9.125 160C12.4583 166.75 16.5833 172.792 21.5 178.125C26.5 183.375 32.4583 187.542 39.375 190.625C46.2917 193.625 54.3333 195.125 63.5 195.125C71.8333 195.125 79.0417 193.5 85.125 190.25C91.2917 187 96.0417 182.417 99.375 176.5C102.792 170.583 104.5 163.583 104.5 155.5C104.5 148.5 102.667 142.625 99 137.875C95.3333 133.042 90.5 128.875 84.5 125.375C78.5 121.875 71.875 118.583 64.625 115.5C57.4583 112.417 50.25 109.125 43 105.625C35.8333 102.125 29.25 98 23.25 93.25C17.25 88.4167 12.4167 82.5833 8.75 75.75C5.08333 68.8333 3.25 60.4167 3.25 50.5C3.25 40.5833 5.75 32 10.75 24.75C15.8333 17.4167 22.4583 11.7917 30.625 7.87499C38.875 3.95832 47.75 1.99999 57.25 1.99999C65.1667 1.99999 72.375 3.24999 78.875 5.74998C85.375 8.24999 91.0417 12.0833 95.875 17.25L115 1.99999H115.5V56.25H114.875C112.208 44.6667 108.292 34.9167 103.125 27C97.9583 19 91.6667 13 84.25 8.99999C76.8333 4.91665 68.4167 2.87498 59 2.87498C48.0833 2.87498 39.8333 5.83332 34.25 11.75C28.75 17.5833 26 25.0833 26 34.25C26 40.5 27.7917 45.8333 31.375 50.25C34.9583 54.6667 39.6667 58.5833 45.5 62C51.4167 65.3333 57.9167 68.5833 65 71.75C72.1667 74.9167 79.2917 78.375 86.375 82.125C93.4583 85.7917 99.9167 90.1667 105.75 95.25C111.667 100.333 116.417 106.458 120 113.625C123.667 120.792 125.5 129.5 125.5 139.75C125.5 151.083 122.917 160.958 117.75 169.375C112.583 177.708 105.417 184.208 96.25 188.875C87.1667 193.458 76.75 195.75 65 195.75ZM137.139 192V191.5H164.514V4.99999H137.139V4.49999H227.389V4.99999H197.389V191.5H227.389V192H137.139ZM233.516 192V191.5H255.891V4.99999H233.516V4.49999H311.141V4.99999H288.766V191.5H319.516C329.016 191.5 337.016 190.125 343.516 187.375C350.016 184.542 355.307 180.625 359.391 175.625C363.474 170.542 366.557 164.625 368.641 157.875C370.724 151.042 372.016 143.667 372.516 135.75H373.016V192H233.516ZM379.941 192V191.5H407.316V4.99999H379.941V4.49999H470.191V4.99999H440.191V191.5H470.191V192H379.941ZM570.193 194.5C552.277 194.5 536.735 190.375 523.568 182.125C510.402 173.792 500.193 162.375 492.943 147.875C485.777 133.375 482.193 116.833 482.193 98.25C482.193 79.6667 485.777 63.125 492.943 48.625C500.193 34.125 510.402 22.75 523.568 14.5C536.735 6.16666 552.277 1.99999 570.193 1.99999C578.277 1.99999 585.777 3.41666 592.693 6.24999C599.61 9.08333 605.693 13 610.943 18L630.693 4.49999H631.193V58H630.568C628.902 47.4167 625.277 38 619.693 29.75C614.11 21.5 607.235 15.0417 599.068 10.375C590.985 5.62499 582.193 3.24999 572.693 3.24999C562.777 3.24999 554.402 6.04165 547.568 11.625C540.818 17.125 535.402 24.5 531.318 33.75C527.318 42.9167 524.402 53.125 522.568 64.375C520.818 75.5417 519.943 86.8333 519.943 98.25C519.943 109.583 520.818 120.875 522.568 132.125C524.402 143.375 527.318 153.625 531.318 162.875C535.402 172.042 540.818 179.417 547.568 185C554.402 190.5 562.777 193.25 572.693 193.25C581.277 193.25 589.027 191.833 595.943 189C602.943 186.083 609.027 182.083 614.193 177C619.36 171.833 623.527 166 626.693 159.5C629.943 152.917 632.068 145.917 633.068 138.5H633.693V192H633.193L615.068 177.125C609.735 182.542 603.235 186.792 595.568 189.875C587.985 192.958 579.527 194.5 570.193 194.5ZM691.318 131.125V130.625H765.818V131.125H691.318ZM744.318 0.749989L810.443 191.5H828.193V192H748.193V191.5H772.568L723.568 39.875L670.443 191.5H700.693V192H645.693V191.5H669.818L736.693 0.749989H744.318Z" fill="black"/>
</svg>
