<svg width="1055" height="155" viewBox="0 0 1055 155" fill="none" xmlns="http://www.w3.org/2000/svg">
<path d="M53.4 155C45.8667 155 39.3333 153.767 33.8 151.3C28.2667 148.833 23.5333 145.533 19.6 141.4L0.800001 154H0.400001V107H0.9C2.83333 112.933 5.2 118.733 8 124.4C10.8667 130.067 14.3333 135.167 18.4 139.7C22.5333 144.233 27.4 147.833 33 150.5C38.6 153.167 45.1333 154.5 52.6 154.5C59 154.5 64.5 153.2 69.1 150.6C73.7 147.933 77.2333 144.333 79.7 139.8C82.1667 135.2 83.4 129.933 83.4 124C83.4 118.6 81.9333 114.067 79 110.4C76.0667 106.733 72.2 103.567 67.4 100.9C62.6 98.2333 57.3 95.7 51.5 93.3C45.7667 90.9 40 88.3 34.2 85.5C28.4667 82.7 23.2 79.3667 18.4 75.5C13.6 71.5667 9.73333 66.7333 6.8 61C3.86667 55.2667 2.4 48.2667 2.4 40C2.4 31.6667 4.5 24.5333 8.7 18.6C12.9 12.6 18.3667 7.99999 25.1 4.79999C31.8333 1.59999 39.0667 -1.00136e-05 46.8 -1.00136e-05C52.8667 -1.00136e-05 58.4 0.966658 63.4 2.89999C68.4667 4.83333 72.9333 7.73333 76.8 11.6L95 -1.00136e-05H95.4V45H94.9C92.2333 35.7333 88.7333 27.8 84.4 21.2C80.0667 14.5333 74.8333 9.43332 68.7 5.89999C62.6333 2.36666 55.6667 0.599994 47.8 0.599994C39.7333 0.599994 33.6333 2.93333 29.5 7.59999C25.4333 12.2667 23.4 18.0667 23.4 25C23.4 29.8 24.8333 33.9 27.7 37.3C30.6333 40.7 34.4667 43.7333 39.2 46.4C43.9333 49 49.1333 51.5667 54.8 54.1C60.5333 56.5667 66.2333 59.3 71.9 62.3C77.6333 65.2333 82.8667 68.7667 87.6 72.9C92.3333 76.9667 96.1333 81.9333 99 87.8C101.933 93.6 103.4 100.667 103.4 109C103.4 118.333 101.2 126.433 96.8 133.3C92.4 140.167 86.4 145.5 78.8 149.3C71.2667 153.1 62.8 155 53.4 155ZM138.659 152V151.6H160.659V2.39999H147.659C142.326 2.39999 137.593 3.66666 133.459 6.19999C129.393 8.73333 125.893 12.2333 122.959 16.7C120.026 21.1 117.659 26.1667 115.859 31.9C114.126 37.6333 112.893 43.6667 112.159 50H111.659V1.99999H240.759V50H240.259C239.526 43.6667 238.259 37.6333 236.459 31.9C234.659 26.1667 232.293 21.1 229.359 16.7C226.493 12.2333 222.993 8.73333 218.859 6.19999C214.793 3.66666 210.059 2.39999 204.659 2.39999H191.759V151.6H213.759V152H138.659ZM245.206 152V151.6H263.206V2.39999H245.206V1.99999H359.206V43H358.906C357.906 35.8667 355.606 29.2333 352.006 23.1C348.406 16.9 343.673 11.9 337.806 8.1C331.94 4.3 325.106 2.39999 317.306 2.39999H294.306V151.6H315.206C324.406 151.6 332.206 149.667 338.606 145.8C345.006 141.867 350.04 136.533 353.706 129.8C357.44 123.067 359.806 115.467 360.806 107H361.306V152H245.206ZM327.906 99.4C326.906 94.9333 325.006 90.8333 322.206 87.1C319.473 83.3 316.24 80.2667 312.506 78C308.84 75.7333 305.106 74.6 301.306 74.6H285.806V74.2H301.306C305.106 74.2 308.84 73.1667 312.506 71.1C316.24 68.9667 319.473 66.1 322.206 62.5C325.006 58.9 326.906 54.8667 327.906 50.4H328.306V99.4H327.906ZM437.402 1.99999C450.135 1.99999 460.535 3.69999 468.602 7.09999C476.735 10.5 482.735 15.3333 486.602 21.6C490.535 27.8667 492.502 35.3333 492.502 44C492.502 52.6667 490.535 60 486.602 66C482.735 71.9333 476.735 76.4667 468.602 79.6C460.535 82.6667 450.135 84.2 437.402 84.2H417.502V151.6H435.402V152H368.402V151.6H386.402V2.39999H368.402V1.99999H437.402ZM417.502 83.8H433.402C437.668 83.8 441.368 82.6 444.502 80.2C447.702 77.7333 450.302 74.5333 452.302 70.6C454.368 66.6 455.902 62.3 456.902 57.7C457.902 53.0333 458.402 48.4667 458.402 44C458.402 39.5333 457.902 34.9 456.902 30.1C455.902 25.2333 454.368 20.7 452.302 16.5C450.302 12.3 447.735 8.89999 444.602 6.3C441.468 3.7 437.735 2.39999 433.402 2.39999H417.502V83.8ZM549.362 152V151.6H571.363V2.39999H549.362V1.99999H626.463V2.39999H602.463V151.6H626.463V152H549.362ZM651.156 1.99999V151.6H674.356V152H630.956V151.6H650.756V2.39999H630.956V1.99999H651.156ZM773.956 1.99999V2.39999H752.956V154H752.556L650.956 1.99999H687.956L752.556 101.1V2.39999H729.556V1.99999H773.956ZM807.519 152V151.6H829.519V2.39999H816.519C811.185 2.39999 806.452 3.66666 802.319 6.19999C798.252 8.73333 794.752 12.2333 791.819 16.7C788.885 21.1 786.519 26.1667 784.719 31.9C782.985 37.6333 781.752 43.6667 781.019 50H780.519V1.99999H909.619V50H909.119C908.385 43.6667 907.119 37.6333 905.319 31.9C903.519 26.1667 901.152 21.1 898.219 16.7C895.352 12.2333 891.852 8.73333 887.719 6.19999C883.652 3.66666 878.919 2.39999 873.519 2.39999H860.619V151.6H882.619V152H807.519ZM986.966 154C976.299 154 966.766 152.067 958.366 148.2C949.966 144.333 942.832 138.9 936.966 131.9C931.099 124.9 926.599 116.733 923.466 107.4C920.399 98.0667 918.866 87.9333 918.866 77C918.866 66.0667 920.499 55.9333 923.766 46.6C927.032 37.2667 931.666 29.1 937.666 22.1C943.666 15.1 950.832 9.66666 959.166 5.8C967.566 1.93333 976.832 -1.00136e-05 986.966 -1.00136e-05C997.166 -1.00136e-05 1006.4 1.93333 1014.67 5.8C1023 9.66666 1030.17 15.1 1036.17 22.1C1042.23 29.1 1046.87 37.2667 1050.07 46.6C1053.33 55.9333 1054.97 66.0667 1054.97 77C1054.97 87.9333 1053.43 98.0667 1050.37 107.4C1047.3 116.733 1042.83 124.9 1036.97 131.9C1031.1 138.9 1023.97 144.333 1015.57 148.2C1007.17 152.067 997.632 154 986.966 154ZM986.966 153.6C993.966 153.6 999.599 151.6 1003.87 147.6C1008.2 143.533 1011.53 137.967 1013.87 130.9C1016.2 123.767 1017.77 115.6 1018.57 106.4C1019.43 97.1333 1019.87 87.3 1019.87 76.9C1019.87 66.5667 1019.33 56.8 1018.27 47.6C1017.27 38.4 1015.53 30.2667 1013.07 23.2C1010.6 16.0667 1007.23 10.5 1002.97 6.5C998.766 2.43333 993.432 0.399997 986.966 0.399997C980.566 0.399997 975.199 2.43333 970.866 6.5C966.599 10.5667 963.232 16.1333 960.766 23.2C958.299 30.2667 956.532 38.4 955.466 47.6C954.466 56.8 953.966 66.6 953.966 77C953.966 87.3333 954.399 97.1333 955.266 106.4C956.132 115.6 957.732 123.733 960.066 130.8C962.399 137.867 965.732 143.433 970.066 147.5C974.399 151.567 980.032 153.6 986.966 153.6Z" fill="black"/>
</svg>
