<svg width="1722" height="235" viewBox="0 0 1722 235" fill="none" xmlns="http://www.w3.org/2000/svg">
<path d="M80.1 234.5C68.8 234.5 59 232.65 50.7 228.95C42.4 225.25 35.3 220.3 29.4 214.1L1.2 233H0.600001V162.5H1.35C4.25 171.4 7.8 180.1 12 188.6C16.3 197.1 21.5 204.75 27.6 211.55C33.8 218.35 41.1 223.75 49.5 227.75C57.9 231.75 67.7 233.75 78.9 233.75C88.5 233.75 96.75 231.8 103.65 227.9C110.55 223.9 115.85 218.5 119.55 211.7C123.25 204.8 125.1 196.9 125.1 188C125.1 179.9 122.9 173.1 118.5 167.6C114.1 162.1 108.3 157.35 101.1 153.35C93.9 149.35 85.95 145.55 77.25 141.95C68.65 138.35 60 134.45 51.3 130.25C42.7 126.05 34.8 121.05 27.6 115.25C20.4 109.35 14.6 102.1 10.2 93.5C5.8 84.9 3.6 74.4 3.6 62C3.6 49.5 6.75 38.8 13.05 29.9C19.35 20.9 27.55 14 37.65 9.19998C47.75 4.39998 58.6 1.99998 70.2 1.99998C79.3 1.99998 87.6 3.44999 95.1 6.34999C102.7 9.25 109.4 13.6 115.2 19.4L142.5 1.99998H143.1V69.5H142.35C138.35 55.6 133.1 43.7 126.6 33.8C120.1 23.8 112.25 16.15 103.05 10.85C93.95 5.54999 83.5 2.89999 71.7 2.89999C59.6 2.89999 50.45 6.39999 44.25 13.4C38.15 20.4 35.1 29.1 35.1 39.5C35.1 46.7 37.25 52.85 41.55 57.95C45.95 63.05 51.7 67.6 58.8 71.6C65.9 75.5 73.7 79.35 82.2 83.15C90.8 86.85 99.35 90.95 107.85 95.45C116.45 99.85 124.3 105.15 131.4 111.35C138.5 117.45 144.2 124.9 148.5 133.7C152.9 142.4 155.1 153 155.1 165.5C155.1 179.5 151.8 191.65 145.2 201.95C138.6 212.25 129.6 220.25 118.2 225.95C106.9 231.65 94.2 234.5 80.1 234.5ZM371.709 4.99998V5.59999H342.009V161C342.009 185.7 336.559 204.15 325.659 216.35C314.759 228.45 297.059 234.5 272.559 234.5C244.459 234.5 223.909 228.75 210.909 217.25C198.009 205.65 191.559 186.9 191.559 161V5.59999H164.559V4.99998H268.209V5.59999H238.209V158C238.209 167.9 238.759 177.3 239.859 186.2C241.059 195.1 243.259 203 246.459 209.9C249.659 216.7 254.259 222.1 260.259 226.1C266.359 230 274.209 231.95 283.809 231.95C295.709 231.95 305.959 229.45 314.559 224.45C323.159 219.35 329.759 211.6 334.359 201.2C339.059 190.8 341.409 177.4 341.409 161V5.59999H313.059V4.99998H371.709ZM378.649 230V229.4H477.649C485.749 229.4 492.949 226.7 499.249 221.3C505.649 215.8 510.649 208.35 514.249 198.95C517.949 189.55 519.799 178.9 519.799 167C519.799 155.1 517.949 145.3 514.249 137.6C510.649 129.9 505.649 124.2 499.249 120.5C492.949 116.7 485.749 114.8 477.649 114.8H444.799V114.2H486.799C502.399 114.2 516.499 115.95 529.099 119.45C541.799 122.95 551.899 128.75 559.399 136.85C566.899 144.95 570.649 156 570.649 170C570.649 191.8 563.249 207.25 548.449 216.35C533.749 225.45 513.199 230 486.799 230H378.649ZM405.649 229.7V5.3H452.299V229.7H405.649ZM444.799 114.8V114.2H474.799C481.899 114.2 488.399 112.45 494.299 108.95C500.199 105.45 504.899 100 508.399 92.6C511.999 85.1 513.799 75.4 513.799 63.5C513.799 51.6 511.999 41.35 508.399 32.75C504.899 24.05 500.149 17.35 494.149 12.65C488.249 7.94999 481.799 5.59999 474.799 5.59999H378.649V4.99998H480.799C505.699 4.99998 525.399 9.39999 539.899 18.2C554.499 26.9 561.799 41 561.799 60.5C561.799 79.2 554.899 92.95 541.099 101.75C527.299 110.45 507.199 114.8 480.799 114.8H444.799ZM812.979 4.99998V5.59999H785.829V229.4H812.979V230H712.479V229.4H739.329V119.3H658.329V229.4H685.479V230H584.829V229.4H611.829V5.59999H584.829V4.99998H685.479V5.59999H658.329V118.7H739.329V5.59999H712.479V4.99998H812.979ZM874.62 156.95V156.35H959.97V156.95H874.62ZM944.22 0.499986L1023.57 229.4H1044.87V230H942.72V229.4H969.57L912.12 51.35L849.42 229.4H885.72V230H819.72V229.4H848.82L929.22 0.499986H944.22ZM1147.68 4.99998C1171.48 4.99998 1191.88 9.74998 1208.88 19.25C1225.88 28.65 1238.93 41.8 1248.03 58.7C1257.23 75.6 1261.83 95.2 1261.83 117.5C1261.83 134.3 1259.08 149.6 1253.58 163.4C1248.18 177.1 1240.43 188.95 1230.33 198.95C1220.33 208.85 1208.33 216.5 1194.33 221.9C1180.33 227.3 1164.78 230 1147.68 230H1051.68V229.4H1078.68V5.59999H1051.68V4.99998H1147.68ZM1125.33 229.4H1147.68C1159.28 229.4 1168.98 226.4 1176.78 220.4C1184.68 214.3 1190.98 206.05 1195.68 195.65C1200.48 185.25 1203.93 173.35 1206.03 159.95C1208.13 146.45 1209.18 132.25 1209.18 117.35C1209.18 102.65 1207.98 88.6 1205.58 75.2C1203.28 61.8 1199.63 49.9 1194.63 39.5C1189.73 29 1183.38 20.75 1175.58 14.75C1167.88 8.64999 1158.58 5.59999 1147.68 5.59999H1125.33V229.4ZM1329.73 114.8V114.2H1373.38C1382.98 114.2 1390.98 112.25 1397.38 108.35C1403.78 104.35 1408.58 98.35 1411.78 90.35C1415.08 82.35 1416.73 72.4 1416.73 60.5C1416.73 48.6 1415.08 38.6 1411.78 30.5C1408.58 22.3 1403.73 16.1 1397.23 11.9C1390.83 7.69999 1382.83 5.59999 1373.23 5.59999H1275.73V4.99998H1380.88C1397.48 4.99998 1412.08 6.94998 1424.68 10.85C1437.28 14.65 1447.13 20.65 1454.23 28.85C1461.33 36.95 1464.88 47.5 1464.88 60.5C1464.88 73.5 1461.53 84 1454.83 92C1448.13 99.9 1438.48 105.7 1425.88 109.4C1413.38 113 1398.38 114.8 1380.88 114.8H1329.73ZM1275.73 230V229.4H1382.38V230H1275.73ZM1305.73 229.7V5.3H1352.38V229.7H1305.73ZM1454.38 232.25C1444.18 232.25 1436.13 230.6 1430.23 227.3C1424.43 224 1420.13 219.55 1417.33 213.95C1414.63 208.35 1412.88 202.1 1412.08 195.2C1411.28 188.2 1410.83 181 1410.73 173.6C1410.63 166.1 1410.28 158.9 1409.68 152C1409.18 145 1407.83 138.7 1405.63 133.1C1403.43 127.5 1399.78 123.05 1394.68 119.75C1389.58 116.45 1382.43 114.8 1373.23 114.8H1329.73V114.2H1397.38C1411.38 114.2 1422.48 116.3 1430.68 120.5C1438.88 124.6 1444.98 130.1 1448.98 137C1452.98 143.8 1455.58 151.35 1456.78 159.65C1458.08 167.85 1458.73 176.05 1458.73 184.25C1458.73 192.45 1458.83 200 1459.03 206.9C1459.23 213.7 1460.28 219.2 1462.18 223.4C1464.08 227.6 1467.68 229.7 1472.98 229.7C1476.18 229.7 1479.28 229.3 1482.28 228.5C1485.38 227.7 1487.98 226.8 1490.08 225.8L1490.38 226.1C1487.98 227.4 1483.63 228.75 1477.33 230.15C1471.03 231.55 1463.38 232.25 1454.38 232.25ZM1551.75 156.95V156.35H1637.1V156.95H1551.75ZM1621.35 0.499986L1700.7 229.4H1722V230H1619.85V229.4H1646.7L1589.25 51.35L1526.55 229.4H1562.85V230H1496.85V229.4H1525.95L1606.35 0.499986H1621.35Z" fill="white"/>
</svg>
