<svg width="1615" height="156" viewBox="0 0 1615 156" fill="none" xmlns="http://www.w3.org/2000/svg">
<path d="M27.3 153V152.6H49.3V3.39999H36.3C30.9667 3.39999 26.2333 4.66666 22.1 7.19999C18.0333 9.73333 14.5333 13.2333 11.6 17.7C8.66667 22.1 6.3 27.1667 4.5 32.9C2.76667 38.6333 1.53333 44.6667 0.8 51H0.3V2.99999H129.4V51H128.9C128.167 44.6667 126.9 38.6333 125.1 32.9C123.3 27.1667 120.933 22.1 118 17.7C115.133 13.2333 111.633 9.73333 107.5 7.19999C103.433 4.66666 98.7 3.39999 93.3 3.39999H80.4V152.6H102.4V153H27.3ZM285.947 2.99999V3.39999H267.847V152.6H285.947V153H218.947V152.6H236.847V79.2H182.847V152.6H200.947V153H133.847V152.6H151.847V3.39999H133.847V2.99999H200.947V3.39999H182.847V78.8H236.847V3.39999H218.947V2.99999H285.947ZM290.441 153V152.6H308.441V3.39999H290.441V2.99999H404.441V44H404.141C403.141 36.8667 400.841 30.2333 397.241 24.1C393.641 17.9 388.907 12.9 383.041 9.1C377.174 5.3 370.341 3.39999 362.541 3.39999H339.541V152.6H360.441C369.641 152.6 377.441 150.667 383.841 146.8C390.241 142.867 395.274 137.533 398.941 130.8C402.674 124.067 405.041 116.467 406.041 108H406.541V153H290.441ZM373.141 100.4C372.141 95.9333 370.241 91.8333 367.441 88.1C364.707 84.3 361.474 81.2667 357.741 79C354.074 76.7333 350.341 75.6 346.541 75.6H331.041V75.2H346.541C350.341 75.2 354.074 74.1667 357.741 72.1C361.474 69.9667 364.707 67.1 367.441 63.5C370.241 59.9 372.141 55.8667 373.141 51.4H373.541V100.4H373.141ZM519.736 156C512.203 156 505.669 154.767 500.136 152.3C494.603 149.833 489.869 146.533 485.936 142.4L467.136 155H466.736V108H467.236C469.169 113.933 471.536 119.733 474.336 125.4C477.203 131.067 480.669 136.167 484.736 140.7C488.869 145.233 493.736 148.833 499.336 151.5C504.936 154.167 511.469 155.5 518.936 155.5C525.336 155.5 530.836 154.2 535.436 151.6C540.036 148.933 543.569 145.333 546.036 140.8C548.503 136.2 549.736 130.933 549.736 125C549.736 119.6 548.269 115.067 545.336 111.4C542.403 107.733 538.536 104.567 533.736 101.9C528.936 99.2333 523.636 96.7 517.836 94.3C512.103 91.9 506.336 89.3 500.536 86.5C494.803 83.7 489.536 80.3667 484.736 76.5C479.936 72.5667 476.069 67.7333 473.136 62C470.203 56.2667 468.736 49.2667 468.736 41C468.736 32.6667 470.836 25.5333 475.036 19.6C479.236 13.6 484.703 8.99999 491.436 5.79999C498.169 2.59999 505.403 0.99999 513.136 0.99999C519.203 0.99999 524.736 1.96666 529.736 3.89999C534.803 5.83333 539.269 8.73333 543.136 12.6L561.336 0.99999H561.736V46H561.236C558.569 36.7333 555.069 28.8 550.736 22.2C546.403 15.5333 541.169 10.4333 535.036 6.89999C528.969 3.36666 522.003 1.59999 514.136 1.59999C506.069 1.59999 499.969 3.93333 495.836 8.59999C491.769 13.2667 489.736 19.0667 489.736 26C489.736 30.8 491.169 34.9 494.036 38.3C496.969 41.7 500.803 44.7333 505.536 47.4C510.269 50 515.469 52.5667 521.136 55.1C526.869 57.5667 532.569 60.3 538.236 63.3C543.969 66.2333 549.203 69.7667 553.936 73.9C558.669 77.9667 562.469 82.9333 565.336 88.8C568.269 94.6 569.736 101.667 569.736 110C569.736 119.333 567.536 127.433 563.136 134.3C558.736 141.167 552.736 146.5 545.136 150.3C537.603 154.1 529.136 156 519.736 156ZM714.142 2.99999V3.39999H694.342V107C694.342 123.467 690.709 135.767 683.442 143.9C676.176 151.967 664.376 156 648.042 156C629.309 156 615.609 152.167 606.942 144.5C598.342 136.767 594.042 124.267 594.042 107V3.39999H576.042V2.99999H645.142V3.39999H625.142V105C625.142 111.6 625.509 117.867 626.242 123.8C627.042 129.733 628.509 135 630.642 139.6C632.776 144.133 635.842 147.733 639.842 150.4C643.909 153 649.142 154.3 655.542 154.3C663.476 154.3 670.309 152.633 676.042 149.3C681.776 145.9 686.176 140.733 689.242 133.8C692.376 126.867 693.942 117.933 693.942 107V3.39999H675.042V2.99999H714.142ZM718.769 153V152.6H784.769C790.169 152.6 794.969 150.8 799.169 147.2C803.435 143.533 806.769 138.567 809.169 132.3C811.635 126.033 812.869 118.933 812.869 111C812.869 103.067 811.635 96.5333 809.169 91.4C806.769 86.2667 803.435 82.4667 799.169 80C794.969 77.4667 790.169 76.2 784.769 76.2H762.869V75.8H790.869C801.269 75.8 810.669 76.9667 819.069 79.3C827.535 81.6333 834.269 85.5 839.269 90.9C844.269 96.3 846.769 103.667 846.769 113C846.769 127.533 841.835 137.833 831.969 143.9C822.169 149.967 808.469 153 790.869 153H718.769ZM736.769 152.8V3.2H767.869V152.8H736.769ZM762.869 76.2V75.8H782.869C787.602 75.8 791.935 74.6333 795.869 72.3C799.802 69.9667 802.935 66.3333 805.269 61.4C807.669 56.4 808.869 49.9333 808.869 42C808.869 34.0667 807.669 27.2333 805.269 21.5C802.935 15.7 799.769 11.2333 795.769 8.09999C791.835 4.96666 787.535 3.39999 782.869 3.39999H718.769V2.99999H786.869C803.469 2.99999 816.602 5.93332 826.269 11.8C836.002 17.6 840.869 27 840.869 40C840.869 52.4667 836.269 61.6333 827.069 67.5C817.869 73.3 804.469 76.2 786.869 76.2H762.869ZM1008.32 2.99999V3.39999H990.222V152.6H1008.32V153H941.322V152.6H959.222V79.2H905.222V152.6H923.322V153H856.222V152.6H874.222V3.39999H856.222V2.99999H923.322V3.39999H905.222V78.8H959.222V3.39999H941.322V2.99999H1008.32ZM1049.42 104.3V103.9H1106.32V104.3H1049.42ZM1095.82 -9.05991e-06L1148.72 152.6H1162.92V153H1094.82V152.6H1112.72L1074.42 33.9L1032.62 152.6H1056.82V153H1012.82V152.6H1032.22L1085.82 -9.05991e-06H1095.82ZM1231.46 2.99999C1247.32 2.99999 1260.92 6.16666 1272.26 12.5C1283.59 18.7667 1292.29 27.5333 1298.36 38.8C1304.49 50.0667 1307.56 63.1333 1307.56 78C1307.56 89.2 1305.72 99.4 1302.06 108.6C1298.46 117.733 1293.29 125.633 1286.56 132.3C1279.89 138.9 1271.89 144 1262.56 147.6C1253.22 151.2 1242.86 153 1231.46 153H1167.46V152.6H1185.46V3.39999H1167.46V2.99999H1231.46ZM1216.56 152.6H1231.46C1239.19 152.6 1245.66 150.6 1250.86 146.6C1256.12 142.533 1260.32 137.033 1263.46 130.1C1266.66 123.167 1268.96 115.233 1270.36 106.3C1271.76 97.3 1272.46 87.8333 1272.46 77.9C1272.46 68.1 1271.66 58.7333 1270.06 49.8C1268.52 40.8667 1266.09 32.9333 1262.76 26C1259.49 19 1255.26 13.5 1250.06 9.49999C1244.92 5.43333 1238.72 3.39999 1231.46 3.39999H1216.56V152.6ZM1352.82 76.2V75.8H1381.92C1388.32 75.8 1393.66 74.5 1397.92 71.9C1402.19 69.2333 1405.39 65.2333 1407.52 59.9C1409.72 54.5667 1410.82 47.9333 1410.82 40C1410.82 32.0667 1409.72 25.4 1407.52 20C1405.39 14.5333 1402.16 10.4 1397.82 7.59999C1393.56 4.79999 1388.22 3.39999 1381.82 3.39999H1316.82V2.99999H1386.92C1397.99 2.99999 1407.72 4.29999 1416.12 6.89999C1424.52 9.43332 1431.09 13.4333 1435.82 18.9C1440.56 24.3 1442.92 31.3333 1442.92 40C1442.92 48.6667 1440.69 55.6667 1436.22 61C1431.76 66.2667 1425.32 70.1333 1416.92 72.6C1408.59 75 1398.59 76.2 1386.92 76.2H1352.82ZM1316.82 153V152.6H1387.92V153H1316.82ZM1336.82 152.8V3.2H1367.92V152.8H1336.82ZM1435.92 154.5C1429.12 154.5 1423.76 153.4 1419.82 151.2C1415.96 149 1413.09 146.033 1411.22 142.3C1409.42 138.567 1408.26 134.4 1407.72 129.8C1407.19 125.133 1406.89 120.333 1406.82 115.4C1406.76 110.4 1406.52 105.6 1406.12 101C1405.79 96.3333 1404.89 92.1333 1403.42 88.4C1401.96 84.6667 1399.52 81.7 1396.12 79.5C1392.72 77.3 1387.96 76.2 1381.82 76.2H1352.82V75.8H1397.92C1407.26 75.8 1414.66 77.2 1420.12 80C1425.59 82.7333 1429.66 86.4 1432.32 91C1434.99 95.5333 1436.72 100.567 1437.52 106.1C1438.39 111.567 1438.82 117.033 1438.82 122.5C1438.82 127.967 1438.89 133 1439.02 137.6C1439.16 142.133 1439.86 145.8 1441.12 148.6C1442.39 151.4 1444.79 152.8 1448.32 152.8C1450.46 152.8 1452.52 152.533 1454.52 152C1456.59 151.467 1458.32 150.867 1459.72 150.2L1459.92 150.4C1458.32 151.267 1455.42 152.167 1451.22 153.1C1447.02 154.033 1441.92 154.5 1435.92 154.5ZM1500.84 104.3V103.9H1557.74V104.3H1500.84ZM1547.24 -9.05991e-06L1600.14 152.6H1614.34V153H1546.24V152.6H1564.14L1525.84 33.9L1484.04 152.6H1508.24V153H1464.24V152.6H1483.64L1537.24 -9.05991e-06H1547.24Z" fill="black"/>
</svg>
